G04 #@! TF.GenerationSoftware,KiCad,Pcbnew,5.0.2+dfsg1-1~bpo9+1*
G04 #@! TF.CreationDate,2020-01-01T01:09:12-05:00*
G04 #@! TF.ProjectId,UCCTest,55434354-6573-4742-9e6b-696361645f70,rev?*
G04 #@! TF.SameCoordinates,Original*
G04 #@! TF.FileFunction,Soldermask,Top*
G04 #@! TF.FilePolarity,Negative*
%FSLAX46Y46*%
G04 Gerber Fmt 4.6, Leading zero omitted, Abs format (unit mm)*
G04 Created by KiCad (PCBNEW 5.0.2+dfsg1-1~bpo9+1) date Wed 01 Jan 2020 01:09:12 AM EST*
%MOMM*%
%LPD*%
G01*
G04 APERTURE LIST*
%ADD10C,0.100000*%
G04 APERTURE END LIST*
D10*
G36*
X94976000Y-180776000D02*
X93024000Y-180776000D01*
X93024000Y-177224000D01*
X94976000Y-177224000D01*
X94976000Y-180776000D01*
X94976000Y-180776000D01*
G37*
G36*
X39976000Y-180776000D02*
X38024000Y-180776000D01*
X38024000Y-177224000D01*
X39976000Y-177224000D01*
X39976000Y-180776000D01*
X39976000Y-180776000D01*
G37*
G36*
X32976000Y-180776000D02*
X31024000Y-180776000D01*
X31024000Y-177224000D01*
X32976000Y-177224000D01*
X32976000Y-180776000D01*
X32976000Y-180776000D01*
G37*
G36*
X65476000Y-179776000D02*
X63524000Y-179776000D01*
X63524000Y-176224000D01*
X65476000Y-176224000D01*
X65476000Y-179776000D01*
X65476000Y-179776000D01*
G37*
G36*
X122026000Y-178976000D02*
X118474000Y-178976000D01*
X118474000Y-177024000D01*
X122026000Y-177024000D01*
X122026000Y-178976000D01*
X122026000Y-178976000D01*
G37*
G36*
X47248228Y-175681703D02*
X47403100Y-175745853D01*
X47542481Y-175838985D01*
X47661015Y-175957519D01*
X47754147Y-176096900D01*
X47818297Y-176251772D01*
X47851000Y-176416184D01*
X47851000Y-176583816D01*
X47818297Y-176748228D01*
X47754147Y-176903100D01*
X47661015Y-177042481D01*
X47542481Y-177161015D01*
X47403100Y-177254147D01*
X47248228Y-177318297D01*
X47083816Y-177351000D01*
X46916184Y-177351000D01*
X46751772Y-177318297D01*
X46596900Y-177254147D01*
X46457519Y-177161015D01*
X46338985Y-177042481D01*
X46245853Y-176903100D01*
X46181703Y-176748228D01*
X46149000Y-176583816D01*
X46149000Y-176416184D01*
X46181703Y-176251772D01*
X46245853Y-176096900D01*
X46338985Y-175957519D01*
X46457519Y-175838985D01*
X46596900Y-175745853D01*
X46751772Y-175681703D01*
X46916184Y-175649000D01*
X47083816Y-175649000D01*
X47248228Y-175681703D01*
X47248228Y-175681703D01*
G37*
G36*
X57248228Y-175681703D02*
X57403100Y-175745853D01*
X57542481Y-175838985D01*
X57661015Y-175957519D01*
X57754147Y-176096900D01*
X57818297Y-176251772D01*
X57851000Y-176416184D01*
X57851000Y-176583816D01*
X57818297Y-176748228D01*
X57754147Y-176903100D01*
X57661015Y-177042481D01*
X57542481Y-177161015D01*
X57403100Y-177254147D01*
X57248228Y-177318297D01*
X57083816Y-177351000D01*
X56916184Y-177351000D01*
X56751772Y-177318297D01*
X56596900Y-177254147D01*
X56457519Y-177161015D01*
X56338985Y-177042481D01*
X56245853Y-176903100D01*
X56181703Y-176748228D01*
X56149000Y-176583816D01*
X56149000Y-176416184D01*
X56181703Y-176251772D01*
X56245853Y-176096900D01*
X56338985Y-175957519D01*
X56457519Y-175838985D01*
X56596900Y-175745853D01*
X56751772Y-175681703D01*
X56916184Y-175649000D01*
X57083816Y-175649000D01*
X57248228Y-175681703D01*
X57248228Y-175681703D01*
G37*
G36*
X90488677Y-172753465D02*
X90526364Y-172764898D01*
X90561103Y-172783466D01*
X90591548Y-172808452D01*
X90616534Y-172838897D01*
X90635102Y-172873636D01*
X90646535Y-172911323D01*
X90651000Y-172956661D01*
X90651000Y-174043339D01*
X90646535Y-174088677D01*
X90635102Y-174126364D01*
X90616534Y-174161103D01*
X90591548Y-174191548D01*
X90561103Y-174216534D01*
X90526364Y-174235102D01*
X90488677Y-174246535D01*
X90443339Y-174251000D01*
X89606661Y-174251000D01*
X89561323Y-174246535D01*
X89523636Y-174235102D01*
X89488897Y-174216534D01*
X89458452Y-174191548D01*
X89433466Y-174161103D01*
X89414898Y-174126364D01*
X89403465Y-174088677D01*
X89399000Y-174043339D01*
X89399000Y-172956661D01*
X89403465Y-172911323D01*
X89414898Y-172873636D01*
X89433466Y-172838897D01*
X89458452Y-172808452D01*
X89488897Y-172783466D01*
X89523636Y-172764898D01*
X89561323Y-172753465D01*
X89606661Y-172749000D01*
X90443339Y-172749000D01*
X90488677Y-172753465D01*
X90488677Y-172753465D01*
G37*
G36*
X88438677Y-172753465D02*
X88476364Y-172764898D01*
X88511103Y-172783466D01*
X88541548Y-172808452D01*
X88566534Y-172838897D01*
X88585102Y-172873636D01*
X88596535Y-172911323D01*
X88601000Y-172956661D01*
X88601000Y-174043339D01*
X88596535Y-174088677D01*
X88585102Y-174126364D01*
X88566534Y-174161103D01*
X88541548Y-174191548D01*
X88511103Y-174216534D01*
X88476364Y-174235102D01*
X88438677Y-174246535D01*
X88393339Y-174251000D01*
X87556661Y-174251000D01*
X87511323Y-174246535D01*
X87473636Y-174235102D01*
X87438897Y-174216534D01*
X87408452Y-174191548D01*
X87383466Y-174161103D01*
X87364898Y-174126364D01*
X87353465Y-174088677D01*
X87349000Y-174043339D01*
X87349000Y-172956661D01*
X87353465Y-172911323D01*
X87364898Y-172873636D01*
X87383466Y-172838897D01*
X87408452Y-172808452D01*
X87438897Y-172783466D01*
X87473636Y-172764898D01*
X87511323Y-172753465D01*
X87556661Y-172749000D01*
X88393339Y-172749000D01*
X88438677Y-172753465D01*
X88438677Y-172753465D01*
G37*
G36*
X121776000Y-173976000D02*
X118224000Y-173976000D01*
X118224000Y-172024000D01*
X121776000Y-172024000D01*
X121776000Y-173976000D01*
X121776000Y-173976000D01*
G37*
G36*
X57248228Y-172181703D02*
X57403100Y-172245853D01*
X57542481Y-172338985D01*
X57661015Y-172457519D01*
X57754147Y-172596900D01*
X57818297Y-172751772D01*
X57851000Y-172916184D01*
X57851000Y-173083816D01*
X57818297Y-173248228D01*
X57754147Y-173403100D01*
X57661015Y-173542481D01*
X57542481Y-173661015D01*
X57403100Y-173754147D01*
X57248228Y-173818297D01*
X57083816Y-173851000D01*
X56916184Y-173851000D01*
X56751772Y-173818297D01*
X56596900Y-173754147D01*
X56457519Y-173661015D01*
X56338985Y-173542481D01*
X56245853Y-173403100D01*
X56181703Y-173248228D01*
X56149000Y-173083816D01*
X56149000Y-172916184D01*
X56181703Y-172751772D01*
X56245853Y-172596900D01*
X56338985Y-172457519D01*
X56457519Y-172338985D01*
X56596900Y-172245853D01*
X56751772Y-172181703D01*
X56916184Y-172149000D01*
X57083816Y-172149000D01*
X57248228Y-172181703D01*
X57248228Y-172181703D01*
G37*
G36*
X47248228Y-172181703D02*
X47403100Y-172245853D01*
X47542481Y-172338985D01*
X47661015Y-172457519D01*
X47754147Y-172596900D01*
X47818297Y-172751772D01*
X47851000Y-172916184D01*
X47851000Y-173083816D01*
X47818297Y-173248228D01*
X47754147Y-173403100D01*
X47661015Y-173542481D01*
X47542481Y-173661015D01*
X47403100Y-173754147D01*
X47248228Y-173818297D01*
X47083816Y-173851000D01*
X46916184Y-173851000D01*
X46751772Y-173818297D01*
X46596900Y-173754147D01*
X46457519Y-173661015D01*
X46338985Y-173542481D01*
X46245853Y-173403100D01*
X46181703Y-173248228D01*
X46149000Y-173083816D01*
X46149000Y-172916184D01*
X46181703Y-172751772D01*
X46245853Y-172596900D01*
X46338985Y-172457519D01*
X46457519Y-172338985D01*
X46596900Y-172245853D01*
X46751772Y-172181703D01*
X46916184Y-172149000D01*
X47083816Y-172149000D01*
X47248228Y-172181703D01*
X47248228Y-172181703D01*
G37*
G36*
X85488677Y-170253465D02*
X85526364Y-170264898D01*
X85561103Y-170283466D01*
X85591548Y-170308452D01*
X85616534Y-170338897D01*
X85635102Y-170373636D01*
X85646535Y-170411323D01*
X85651000Y-170456661D01*
X85651000Y-171543339D01*
X85646535Y-171588677D01*
X85635102Y-171626364D01*
X85616534Y-171661103D01*
X85591548Y-171691548D01*
X85561103Y-171716534D01*
X85526364Y-171735102D01*
X85488677Y-171746535D01*
X85443339Y-171751000D01*
X84606661Y-171751000D01*
X84561323Y-171746535D01*
X84523636Y-171735102D01*
X84488897Y-171716534D01*
X84458452Y-171691548D01*
X84433466Y-171661103D01*
X84414898Y-171626364D01*
X84403465Y-171588677D01*
X84399000Y-171543339D01*
X84399000Y-170456661D01*
X84403465Y-170411323D01*
X84414898Y-170373636D01*
X84433466Y-170338897D01*
X84458452Y-170308452D01*
X84488897Y-170283466D01*
X84523636Y-170264898D01*
X84561323Y-170253465D01*
X84606661Y-170249000D01*
X85443339Y-170249000D01*
X85488677Y-170253465D01*
X85488677Y-170253465D01*
G37*
G36*
X83438677Y-170253465D02*
X83476364Y-170264898D01*
X83511103Y-170283466D01*
X83541548Y-170308452D01*
X83566534Y-170338897D01*
X83585102Y-170373636D01*
X83596535Y-170411323D01*
X83601000Y-170456661D01*
X83601000Y-171543339D01*
X83596535Y-171588677D01*
X83585102Y-171626364D01*
X83566534Y-171661103D01*
X83541548Y-171691548D01*
X83511103Y-171716534D01*
X83476364Y-171735102D01*
X83438677Y-171746535D01*
X83393339Y-171751000D01*
X82556661Y-171751000D01*
X82511323Y-171746535D01*
X82473636Y-171735102D01*
X82438897Y-171716534D01*
X82408452Y-171691548D01*
X82383466Y-171661103D01*
X82364898Y-171626364D01*
X82353465Y-171588677D01*
X82349000Y-171543339D01*
X82349000Y-170456661D01*
X82353465Y-170411323D01*
X82364898Y-170373636D01*
X82383466Y-170338897D01*
X82408452Y-170308452D01*
X82438897Y-170283466D01*
X82473636Y-170264898D01*
X82511323Y-170253465D01*
X82556661Y-170249000D01*
X83393339Y-170249000D01*
X83438677Y-170253465D01*
X83438677Y-170253465D01*
G37*
G36*
X104351000Y-171451000D02*
X97849000Y-171451000D01*
X97849000Y-165549000D01*
X104351000Y-165549000D01*
X104351000Y-171451000D01*
X104351000Y-171451000D01*
G37*
G36*
X95951000Y-171431000D02*
X93649000Y-171431000D01*
X93649000Y-170129000D01*
X95951000Y-170129000D01*
X95951000Y-171431000D01*
X95951000Y-171431000D01*
G37*
G36*
X76976000Y-170776000D02*
X75024000Y-170776000D01*
X75024000Y-167224000D01*
X76976000Y-167224000D01*
X76976000Y-170776000D01*
X76976000Y-170776000D01*
G37*
G36*
X120652143Y-164456481D02*
X120804049Y-164471442D01*
X120963998Y-164519962D01*
X121096415Y-164560130D01*
X121183467Y-164606661D01*
X121365858Y-164704151D01*
X121602029Y-164897971D01*
X121795849Y-165134142D01*
X121887340Y-165305310D01*
X121939870Y-165403585D01*
X121939870Y-165403586D01*
X122028558Y-165695951D01*
X122058504Y-166000000D01*
X122028558Y-166304049D01*
X121969433Y-166498959D01*
X121939870Y-166596415D01*
X121887340Y-166694690D01*
X121795849Y-166865858D01*
X121602029Y-167102029D01*
X121365858Y-167295849D01*
X121194690Y-167387340D01*
X121096415Y-167439870D01*
X120998959Y-167469433D01*
X120804049Y-167528558D01*
X120652143Y-167543519D01*
X120576191Y-167551000D01*
X119423809Y-167551000D01*
X119347857Y-167543519D01*
X119195951Y-167528558D01*
X119001041Y-167469433D01*
X118903585Y-167439870D01*
X118805310Y-167387340D01*
X118634142Y-167295849D01*
X118397971Y-167102029D01*
X118204151Y-166865858D01*
X118112660Y-166694690D01*
X118060130Y-166596415D01*
X118030567Y-166498959D01*
X117971442Y-166304049D01*
X117941496Y-166000000D01*
X117971442Y-165695951D01*
X118060130Y-165403586D01*
X118060130Y-165403585D01*
X118112660Y-165305310D01*
X118204151Y-165134142D01*
X118397971Y-164897971D01*
X118634142Y-164704151D01*
X118816533Y-164606661D01*
X118903585Y-164560130D01*
X119036002Y-164519962D01*
X119195951Y-164471442D01*
X119347857Y-164456481D01*
X119423809Y-164449000D01*
X120576191Y-164449000D01*
X120652143Y-164456481D01*
X120652143Y-164456481D01*
G37*
G36*
X83101000Y-167201000D02*
X79499000Y-167201000D01*
X79499000Y-164799000D01*
X83101000Y-164799000D01*
X83101000Y-167201000D01*
X83101000Y-167201000D01*
G37*
G36*
X88501000Y-167201000D02*
X84899000Y-167201000D01*
X84899000Y-164799000D01*
X88501000Y-164799000D01*
X88501000Y-167201000D01*
X88501000Y-167201000D01*
G37*
G36*
X95951000Y-166871000D02*
X93649000Y-166871000D01*
X93649000Y-165569000D01*
X95951000Y-165569000D01*
X95951000Y-166871000D01*
X95951000Y-166871000D01*
G37*
G36*
X46488677Y-164253465D02*
X46526364Y-164264898D01*
X46561103Y-164283466D01*
X46591548Y-164308452D01*
X46616534Y-164338897D01*
X46635102Y-164373636D01*
X46646535Y-164411323D01*
X46651000Y-164456661D01*
X46651000Y-165543339D01*
X46646535Y-165588677D01*
X46635102Y-165626364D01*
X46616534Y-165661103D01*
X46591548Y-165691548D01*
X46561103Y-165716534D01*
X46526364Y-165735102D01*
X46488677Y-165746535D01*
X46443339Y-165751000D01*
X45606661Y-165751000D01*
X45561323Y-165746535D01*
X45523636Y-165735102D01*
X45488897Y-165716534D01*
X45458452Y-165691548D01*
X45433466Y-165661103D01*
X45414898Y-165626364D01*
X45403465Y-165588677D01*
X45399000Y-165543339D01*
X45399000Y-164456661D01*
X45403465Y-164411323D01*
X45414898Y-164373636D01*
X45433466Y-164338897D01*
X45458452Y-164308452D01*
X45488897Y-164283466D01*
X45523636Y-164264898D01*
X45561323Y-164253465D01*
X45606661Y-164249000D01*
X46443339Y-164249000D01*
X46488677Y-164253465D01*
X46488677Y-164253465D01*
G37*
G36*
X44438677Y-164253465D02*
X44476364Y-164264898D01*
X44511103Y-164283466D01*
X44541548Y-164308452D01*
X44566534Y-164338897D01*
X44585102Y-164373636D01*
X44596535Y-164411323D01*
X44601000Y-164456661D01*
X44601000Y-165543339D01*
X44596535Y-165588677D01*
X44585102Y-165626364D01*
X44566534Y-165661103D01*
X44541548Y-165691548D01*
X44511103Y-165716534D01*
X44476364Y-165735102D01*
X44438677Y-165746535D01*
X44393339Y-165751000D01*
X43556661Y-165751000D01*
X43511323Y-165746535D01*
X43473636Y-165735102D01*
X43438897Y-165716534D01*
X43408452Y-165691548D01*
X43383466Y-165661103D01*
X43364898Y-165626364D01*
X43353465Y-165588677D01*
X43349000Y-165543339D01*
X43349000Y-164456661D01*
X43353465Y-164411323D01*
X43364898Y-164373636D01*
X43383466Y-164338897D01*
X43408452Y-164308452D01*
X43438897Y-164283466D01*
X43473636Y-164264898D01*
X43511323Y-164253465D01*
X43556661Y-164249000D01*
X44393339Y-164249000D01*
X44438677Y-164253465D01*
X44438677Y-164253465D01*
G37*
G36*
X49588677Y-164403465D02*
X49626364Y-164414898D01*
X49661103Y-164433466D01*
X49691548Y-164458452D01*
X49716534Y-164488897D01*
X49735102Y-164523636D01*
X49746535Y-164561323D01*
X49751000Y-164606661D01*
X49751000Y-165443339D01*
X49746535Y-165488677D01*
X49735102Y-165526364D01*
X49716534Y-165561103D01*
X49691548Y-165591548D01*
X49661103Y-165616534D01*
X49626364Y-165635102D01*
X49588677Y-165646535D01*
X49543339Y-165651000D01*
X48456661Y-165651000D01*
X48411323Y-165646535D01*
X48373636Y-165635102D01*
X48338897Y-165616534D01*
X48308452Y-165591548D01*
X48283466Y-165561103D01*
X48264898Y-165526364D01*
X48253465Y-165488677D01*
X48249000Y-165443339D01*
X48249000Y-164606661D01*
X48253465Y-164561323D01*
X48264898Y-164523636D01*
X48283466Y-164488897D01*
X48308452Y-164458452D01*
X48338897Y-164433466D01*
X48373636Y-164414898D01*
X48411323Y-164403465D01*
X48456661Y-164399000D01*
X49543339Y-164399000D01*
X49588677Y-164403465D01*
X49588677Y-164403465D01*
G37*
G36*
X55588677Y-164403465D02*
X55626364Y-164414898D01*
X55661103Y-164433466D01*
X55691548Y-164458452D01*
X55716534Y-164488897D01*
X55735102Y-164523636D01*
X55746535Y-164561323D01*
X55751000Y-164606661D01*
X55751000Y-165443339D01*
X55746535Y-165488677D01*
X55735102Y-165526364D01*
X55716534Y-165561103D01*
X55691548Y-165591548D01*
X55661103Y-165616534D01*
X55626364Y-165635102D01*
X55588677Y-165646535D01*
X55543339Y-165651000D01*
X54456661Y-165651000D01*
X54411323Y-165646535D01*
X54373636Y-165635102D01*
X54338897Y-165616534D01*
X54308452Y-165591548D01*
X54283466Y-165561103D01*
X54264898Y-165526364D01*
X54253465Y-165488677D01*
X54249000Y-165443339D01*
X54249000Y-164606661D01*
X54253465Y-164561323D01*
X54264898Y-164523636D01*
X54283466Y-164488897D01*
X54308452Y-164458452D01*
X54338897Y-164433466D01*
X54373636Y-164414898D01*
X54411323Y-164403465D01*
X54456661Y-164399000D01*
X55543339Y-164399000D01*
X55588677Y-164403465D01*
X55588677Y-164403465D01*
G37*
G36*
X52588677Y-164403465D02*
X52626364Y-164414898D01*
X52661103Y-164433466D01*
X52691548Y-164458452D01*
X52716534Y-164488897D01*
X52735102Y-164523636D01*
X52746535Y-164561323D01*
X52751000Y-164606661D01*
X52751000Y-165443339D01*
X52746535Y-165488677D01*
X52735102Y-165526364D01*
X52716534Y-165561103D01*
X52691548Y-165591548D01*
X52661103Y-165616534D01*
X52626364Y-165635102D01*
X52588677Y-165646535D01*
X52543339Y-165651000D01*
X51456661Y-165651000D01*
X51411323Y-165646535D01*
X51373636Y-165635102D01*
X51338897Y-165616534D01*
X51308452Y-165591548D01*
X51283466Y-165561103D01*
X51264898Y-165526364D01*
X51253465Y-165488677D01*
X51249000Y-165443339D01*
X51249000Y-164606661D01*
X51253465Y-164561323D01*
X51264898Y-164523636D01*
X51283466Y-164488897D01*
X51308452Y-164458452D01*
X51338897Y-164433466D01*
X51373636Y-164414898D01*
X51411323Y-164403465D01*
X51456661Y-164399000D01*
X52543339Y-164399000D01*
X52588677Y-164403465D01*
X52588677Y-164403465D01*
G37*
G36*
X28332510Y-162532041D02*
X28456032Y-162544207D01*
X28654146Y-162604305D01*
X28836729Y-162701897D01*
X28996765Y-162833235D01*
X29128103Y-162993271D01*
X29225695Y-163175854D01*
X29285793Y-163373968D01*
X29306085Y-163580000D01*
X29285793Y-163786032D01*
X29225695Y-163984146D01*
X29128103Y-164166729D01*
X28996765Y-164326765D01*
X28836729Y-164458103D01*
X28654146Y-164555695D01*
X28456032Y-164615793D01*
X28332510Y-164627959D01*
X28301631Y-164631000D01*
X27198369Y-164631000D01*
X27167490Y-164627959D01*
X27043968Y-164615793D01*
X26845854Y-164555695D01*
X26663271Y-164458103D01*
X26503235Y-164326765D01*
X26371897Y-164166729D01*
X26274305Y-163984146D01*
X26214207Y-163786032D01*
X26193915Y-163580000D01*
X26214207Y-163373968D01*
X26274305Y-163175854D01*
X26371897Y-162993271D01*
X26503235Y-162833235D01*
X26663271Y-162701897D01*
X26845854Y-162604305D01*
X27043968Y-162544207D01*
X27167490Y-162532041D01*
X27198369Y-162529000D01*
X28301631Y-162529000D01*
X28332510Y-162532041D01*
X28332510Y-162532041D01*
G37*
G36*
X52588677Y-162353465D02*
X52626364Y-162364898D01*
X52661103Y-162383466D01*
X52691548Y-162408452D01*
X52716534Y-162438897D01*
X52735102Y-162473636D01*
X52746535Y-162511323D01*
X52751000Y-162556661D01*
X52751000Y-163393339D01*
X52746535Y-163438677D01*
X52735102Y-163476364D01*
X52716534Y-163511103D01*
X52691548Y-163541548D01*
X52661103Y-163566534D01*
X52626364Y-163585102D01*
X52588677Y-163596535D01*
X52543339Y-163601000D01*
X51456661Y-163601000D01*
X51411323Y-163596535D01*
X51373636Y-163585102D01*
X51338897Y-163566534D01*
X51308452Y-163541548D01*
X51283466Y-163511103D01*
X51264898Y-163476364D01*
X51253465Y-163438677D01*
X51249000Y-163393339D01*
X51249000Y-162556661D01*
X51253465Y-162511323D01*
X51264898Y-162473636D01*
X51283466Y-162438897D01*
X51308452Y-162408452D01*
X51338897Y-162383466D01*
X51373636Y-162364898D01*
X51411323Y-162353465D01*
X51456661Y-162349000D01*
X52543339Y-162349000D01*
X52588677Y-162353465D01*
X52588677Y-162353465D01*
G37*
G36*
X49588677Y-162353465D02*
X49626364Y-162364898D01*
X49661103Y-162383466D01*
X49691548Y-162408452D01*
X49716534Y-162438897D01*
X49735102Y-162473636D01*
X49746535Y-162511323D01*
X49751000Y-162556661D01*
X49751000Y-163393339D01*
X49746535Y-163438677D01*
X49735102Y-163476364D01*
X49716534Y-163511103D01*
X49691548Y-163541548D01*
X49661103Y-163566534D01*
X49626364Y-163585102D01*
X49588677Y-163596535D01*
X49543339Y-163601000D01*
X48456661Y-163601000D01*
X48411323Y-163596535D01*
X48373636Y-163585102D01*
X48338897Y-163566534D01*
X48308452Y-163541548D01*
X48283466Y-163511103D01*
X48264898Y-163476364D01*
X48253465Y-163438677D01*
X48249000Y-163393339D01*
X48249000Y-162556661D01*
X48253465Y-162511323D01*
X48264898Y-162473636D01*
X48283466Y-162438897D01*
X48308452Y-162408452D01*
X48338897Y-162383466D01*
X48373636Y-162364898D01*
X48411323Y-162353465D01*
X48456661Y-162349000D01*
X49543339Y-162349000D01*
X49588677Y-162353465D01*
X49588677Y-162353465D01*
G37*
G36*
X55588677Y-162353465D02*
X55626364Y-162364898D01*
X55661103Y-162383466D01*
X55691548Y-162408452D01*
X55716534Y-162438897D01*
X55735102Y-162473636D01*
X55746535Y-162511323D01*
X55751000Y-162556661D01*
X55751000Y-163393339D01*
X55746535Y-163438677D01*
X55735102Y-163476364D01*
X55716534Y-163511103D01*
X55691548Y-163541548D01*
X55661103Y-163566534D01*
X55626364Y-163585102D01*
X55588677Y-163596535D01*
X55543339Y-163601000D01*
X54456661Y-163601000D01*
X54411323Y-163596535D01*
X54373636Y-163585102D01*
X54338897Y-163566534D01*
X54308452Y-163541548D01*
X54283466Y-163511103D01*
X54264898Y-163476364D01*
X54253465Y-163438677D01*
X54249000Y-163393339D01*
X54249000Y-162556661D01*
X54253465Y-162511323D01*
X54264898Y-162473636D01*
X54283466Y-162438897D01*
X54308452Y-162408452D01*
X54338897Y-162383466D01*
X54373636Y-162364898D01*
X54411323Y-162353465D01*
X54456661Y-162349000D01*
X55543339Y-162349000D01*
X55588677Y-162353465D01*
X55588677Y-162353465D01*
G37*
G36*
X65026000Y-163256000D02*
X63374000Y-163256000D01*
X63374000Y-162554000D01*
X65026000Y-162554000D01*
X65026000Y-163256000D01*
X65026000Y-163256000D01*
G37*
G36*
X59626000Y-163256000D02*
X57974000Y-163256000D01*
X57974000Y-162554000D01*
X59626000Y-162554000D01*
X59626000Y-163256000D01*
X59626000Y-163256000D01*
G37*
G36*
X46588677Y-161403465D02*
X46626364Y-161414898D01*
X46661103Y-161433466D01*
X46691548Y-161458452D01*
X46716534Y-161488897D01*
X46735102Y-161523636D01*
X46746535Y-161561323D01*
X46751000Y-161606661D01*
X46751000Y-162443339D01*
X46746535Y-162488677D01*
X46735102Y-162526364D01*
X46716534Y-162561103D01*
X46691548Y-162591548D01*
X46661103Y-162616534D01*
X46626364Y-162635102D01*
X46588677Y-162646535D01*
X46543339Y-162651000D01*
X45456661Y-162651000D01*
X45411323Y-162646535D01*
X45373636Y-162635102D01*
X45338897Y-162616534D01*
X45308452Y-162591548D01*
X45283466Y-162561103D01*
X45264898Y-162526364D01*
X45253465Y-162488677D01*
X45249000Y-162443339D01*
X45249000Y-161606661D01*
X45253465Y-161561323D01*
X45264898Y-161523636D01*
X45283466Y-161488897D01*
X45308452Y-161458452D01*
X45338897Y-161433466D01*
X45373636Y-161414898D01*
X45411323Y-161403465D01*
X45456661Y-161399000D01*
X46543339Y-161399000D01*
X46588677Y-161403465D01*
X46588677Y-161403465D01*
G37*
G36*
X120652143Y-159456481D02*
X120804049Y-159471442D01*
X120968349Y-159521282D01*
X121096415Y-159560130D01*
X121194690Y-159612660D01*
X121365858Y-159704151D01*
X121602029Y-159897971D01*
X121795849Y-160134142D01*
X121868316Y-160269718D01*
X121939870Y-160403585D01*
X121965749Y-160488897D01*
X122028558Y-160695951D01*
X122058504Y-161000000D01*
X122028558Y-161304049D01*
X122005874Y-161378827D01*
X121939870Y-161596415D01*
X121899852Y-161671282D01*
X121795849Y-161865858D01*
X121602029Y-162102029D01*
X121365858Y-162295849D01*
X121227659Y-162369718D01*
X121096415Y-162439870D01*
X120998959Y-162469433D01*
X120804049Y-162528558D01*
X120652143Y-162543519D01*
X120576191Y-162551000D01*
X119423809Y-162551000D01*
X119347857Y-162543519D01*
X119195951Y-162528558D01*
X119001041Y-162469433D01*
X118903585Y-162439870D01*
X118772341Y-162369718D01*
X118634142Y-162295849D01*
X118397971Y-162102029D01*
X118204151Y-161865858D01*
X118100148Y-161671282D01*
X118060130Y-161596415D01*
X117994126Y-161378827D01*
X117971442Y-161304049D01*
X117941496Y-161000000D01*
X117971442Y-160695951D01*
X118034251Y-160488897D01*
X118060130Y-160403585D01*
X118131684Y-160269718D01*
X118204151Y-160134142D01*
X118397971Y-159897971D01*
X118634142Y-159704151D01*
X118805310Y-159612660D01*
X118903585Y-159560130D01*
X119031651Y-159521282D01*
X119195951Y-159471442D01*
X119347857Y-159456481D01*
X119423809Y-159449000D01*
X120576191Y-159449000D01*
X120652143Y-159456481D01*
X120652143Y-159456481D01*
G37*
G36*
X28332510Y-159992041D02*
X28456032Y-160004207D01*
X28654146Y-160064305D01*
X28836729Y-160161897D01*
X28996765Y-160293235D01*
X29128103Y-160453271D01*
X29225695Y-160635854D01*
X29285793Y-160833968D01*
X29306085Y-161040000D01*
X29285793Y-161246032D01*
X29225695Y-161444146D01*
X29128103Y-161626729D01*
X28996765Y-161786765D01*
X28836729Y-161918103D01*
X28654146Y-162015695D01*
X28456032Y-162075793D01*
X28332510Y-162087959D01*
X28301631Y-162091000D01*
X27198369Y-162091000D01*
X27167490Y-162087959D01*
X27043968Y-162075793D01*
X26845854Y-162015695D01*
X26663271Y-161918103D01*
X26503235Y-161786765D01*
X26371897Y-161626729D01*
X26274305Y-161444146D01*
X26214207Y-161246032D01*
X26193915Y-161040000D01*
X26214207Y-160833968D01*
X26274305Y-160635854D01*
X26371897Y-160453271D01*
X26503235Y-160293235D01*
X26663271Y-160161897D01*
X26845854Y-160064305D01*
X27043968Y-160004207D01*
X27167490Y-159992041D01*
X27198369Y-159989000D01*
X28301631Y-159989000D01*
X28332510Y-159992041D01*
X28332510Y-159992041D01*
G37*
G36*
X65026000Y-161986000D02*
X63374000Y-161986000D01*
X63374000Y-161284000D01*
X65026000Y-161284000D01*
X65026000Y-161986000D01*
X65026000Y-161986000D01*
G37*
G36*
X59626000Y-161986000D02*
X57974000Y-161986000D01*
X57974000Y-161284000D01*
X59626000Y-161284000D01*
X59626000Y-161986000D01*
X59626000Y-161986000D01*
G37*
G36*
X88438677Y-160253465D02*
X88476364Y-160264898D01*
X88511103Y-160283466D01*
X88541548Y-160308452D01*
X88566534Y-160338897D01*
X88585102Y-160373636D01*
X88596535Y-160411323D01*
X88601000Y-160456661D01*
X88601000Y-161543339D01*
X88596535Y-161588677D01*
X88585102Y-161626364D01*
X88566534Y-161661103D01*
X88541548Y-161691548D01*
X88511103Y-161716534D01*
X88476364Y-161735102D01*
X88438677Y-161746535D01*
X88393339Y-161751000D01*
X87556661Y-161751000D01*
X87511323Y-161746535D01*
X87473636Y-161735102D01*
X87438897Y-161716534D01*
X87408452Y-161691548D01*
X87383466Y-161661103D01*
X87364898Y-161626364D01*
X87353465Y-161588677D01*
X87349000Y-161543339D01*
X87349000Y-160456661D01*
X87353465Y-160411323D01*
X87364898Y-160373636D01*
X87383466Y-160338897D01*
X87408452Y-160308452D01*
X87438897Y-160283466D01*
X87473636Y-160264898D01*
X87511323Y-160253465D01*
X87556661Y-160249000D01*
X88393339Y-160249000D01*
X88438677Y-160253465D01*
X88438677Y-160253465D01*
G37*
G36*
X90488677Y-160253465D02*
X90526364Y-160264898D01*
X90561103Y-160283466D01*
X90591548Y-160308452D01*
X90616534Y-160338897D01*
X90635102Y-160373636D01*
X90646535Y-160411323D01*
X90651000Y-160456661D01*
X90651000Y-161543339D01*
X90646535Y-161588677D01*
X90635102Y-161626364D01*
X90616534Y-161661103D01*
X90591548Y-161691548D01*
X90561103Y-161716534D01*
X90526364Y-161735102D01*
X90488677Y-161746535D01*
X90443339Y-161751000D01*
X89606661Y-161751000D01*
X89561323Y-161746535D01*
X89523636Y-161735102D01*
X89488897Y-161716534D01*
X89458452Y-161691548D01*
X89433466Y-161661103D01*
X89414898Y-161626364D01*
X89403465Y-161588677D01*
X89399000Y-161543339D01*
X89399000Y-160456661D01*
X89403465Y-160411323D01*
X89414898Y-160373636D01*
X89433466Y-160338897D01*
X89458452Y-160308452D01*
X89488897Y-160283466D01*
X89523636Y-160264898D01*
X89561323Y-160253465D01*
X89606661Y-160249000D01*
X90443339Y-160249000D01*
X90488677Y-160253465D01*
X90488677Y-160253465D01*
G37*
G36*
X69588677Y-160403465D02*
X69626364Y-160414898D01*
X69661103Y-160433466D01*
X69691548Y-160458452D01*
X69716534Y-160488897D01*
X69735102Y-160523636D01*
X69746535Y-160561323D01*
X69751000Y-160606661D01*
X69751000Y-161443339D01*
X69746535Y-161488677D01*
X69735102Y-161526364D01*
X69716534Y-161561103D01*
X69691548Y-161591548D01*
X69661103Y-161616534D01*
X69626364Y-161635102D01*
X69588677Y-161646535D01*
X69543339Y-161651000D01*
X68456661Y-161651000D01*
X68411323Y-161646535D01*
X68373636Y-161635102D01*
X68338897Y-161616534D01*
X68308452Y-161591548D01*
X68283466Y-161561103D01*
X68264898Y-161526364D01*
X68253465Y-161488677D01*
X68249000Y-161443339D01*
X68249000Y-160606661D01*
X68253465Y-160561323D01*
X68264898Y-160523636D01*
X68283466Y-160488897D01*
X68308452Y-160458452D01*
X68338897Y-160433466D01*
X68373636Y-160414898D01*
X68411323Y-160403465D01*
X68456661Y-160399000D01*
X69543339Y-160399000D01*
X69588677Y-160403465D01*
X69588677Y-160403465D01*
G37*
G36*
X72588677Y-160403465D02*
X72626364Y-160414898D01*
X72661103Y-160433466D01*
X72691548Y-160458452D01*
X72716534Y-160488897D01*
X72735102Y-160523636D01*
X72746535Y-160561323D01*
X72751000Y-160606661D01*
X72751000Y-161443339D01*
X72746535Y-161488677D01*
X72735102Y-161526364D01*
X72716534Y-161561103D01*
X72691548Y-161591548D01*
X72661103Y-161616534D01*
X72626364Y-161635102D01*
X72588677Y-161646535D01*
X72543339Y-161651000D01*
X71456661Y-161651000D01*
X71411323Y-161646535D01*
X71373636Y-161635102D01*
X71338897Y-161616534D01*
X71308452Y-161591548D01*
X71283466Y-161561103D01*
X71264898Y-161526364D01*
X71253465Y-161488677D01*
X71249000Y-161443339D01*
X71249000Y-160606661D01*
X71253465Y-160561323D01*
X71264898Y-160523636D01*
X71283466Y-160488897D01*
X71308452Y-160458452D01*
X71338897Y-160433466D01*
X71373636Y-160414898D01*
X71411323Y-160403465D01*
X71456661Y-160399000D01*
X72543339Y-160399000D01*
X72588677Y-160403465D01*
X72588677Y-160403465D01*
G37*
G36*
X59626000Y-160716000D02*
X57974000Y-160716000D01*
X57974000Y-160014000D01*
X59626000Y-160014000D01*
X59626000Y-160716000D01*
X59626000Y-160716000D01*
G37*
G36*
X65026000Y-160716000D02*
X63374000Y-160716000D01*
X63374000Y-160014000D01*
X65026000Y-160014000D01*
X65026000Y-160716000D01*
X65026000Y-160716000D01*
G37*
G36*
X46588677Y-159353465D02*
X46626364Y-159364898D01*
X46661103Y-159383466D01*
X46691548Y-159408452D01*
X46716534Y-159438897D01*
X46735102Y-159473636D01*
X46746535Y-159511323D01*
X46751000Y-159556661D01*
X46751000Y-160393339D01*
X46746535Y-160438677D01*
X46735102Y-160476364D01*
X46716534Y-160511103D01*
X46691548Y-160541548D01*
X46661103Y-160566534D01*
X46626364Y-160585102D01*
X46588677Y-160596535D01*
X46543339Y-160601000D01*
X45456661Y-160601000D01*
X45411323Y-160596535D01*
X45373636Y-160585102D01*
X45338897Y-160566534D01*
X45308452Y-160541548D01*
X45283466Y-160511103D01*
X45264898Y-160476364D01*
X45253465Y-160438677D01*
X45249000Y-160393339D01*
X45249000Y-159556661D01*
X45253465Y-159511323D01*
X45264898Y-159473636D01*
X45283466Y-159438897D01*
X45308452Y-159408452D01*
X45338897Y-159383466D01*
X45373636Y-159364898D01*
X45411323Y-159353465D01*
X45456661Y-159349000D01*
X46543339Y-159349000D01*
X46588677Y-159353465D01*
X46588677Y-159353465D01*
G37*
G36*
X69588677Y-158353465D02*
X69626364Y-158364898D01*
X69661103Y-158383466D01*
X69691548Y-158408452D01*
X69716534Y-158438897D01*
X69735102Y-158473636D01*
X69746535Y-158511323D01*
X69751000Y-158556661D01*
X69751000Y-159393339D01*
X69746535Y-159438677D01*
X69735102Y-159476364D01*
X69716534Y-159511103D01*
X69691548Y-159541548D01*
X69661103Y-159566534D01*
X69626364Y-159585102D01*
X69588677Y-159596535D01*
X69543339Y-159601000D01*
X68456661Y-159601000D01*
X68411323Y-159596535D01*
X68373636Y-159585102D01*
X68338897Y-159566534D01*
X68308452Y-159541548D01*
X68283466Y-159511103D01*
X68264898Y-159476364D01*
X68253465Y-159438677D01*
X68249000Y-159393339D01*
X68249000Y-158556661D01*
X68253465Y-158511323D01*
X68264898Y-158473636D01*
X68283466Y-158438897D01*
X68308452Y-158408452D01*
X68338897Y-158383466D01*
X68373636Y-158364898D01*
X68411323Y-158353465D01*
X68456661Y-158349000D01*
X69543339Y-158349000D01*
X69588677Y-158353465D01*
X69588677Y-158353465D01*
G37*
G36*
X72588677Y-158353465D02*
X72626364Y-158364898D01*
X72661103Y-158383466D01*
X72691548Y-158408452D01*
X72716534Y-158438897D01*
X72735102Y-158473636D01*
X72746535Y-158511323D01*
X72751000Y-158556661D01*
X72751000Y-159393339D01*
X72746535Y-159438677D01*
X72735102Y-159476364D01*
X72716534Y-159511103D01*
X72691548Y-159541548D01*
X72661103Y-159566534D01*
X72626364Y-159585102D01*
X72588677Y-159596535D01*
X72543339Y-159601000D01*
X71456661Y-159601000D01*
X71411323Y-159596535D01*
X71373636Y-159585102D01*
X71338897Y-159566534D01*
X71308452Y-159541548D01*
X71283466Y-159511103D01*
X71264898Y-159476364D01*
X71253465Y-159438677D01*
X71249000Y-159393339D01*
X71249000Y-158556661D01*
X71253465Y-158511323D01*
X71264898Y-158473636D01*
X71283466Y-158438897D01*
X71308452Y-158408452D01*
X71338897Y-158383466D01*
X71373636Y-158364898D01*
X71411323Y-158353465D01*
X71456661Y-158349000D01*
X72543339Y-158349000D01*
X72588677Y-158353465D01*
X72588677Y-158353465D01*
G37*
G36*
X28332510Y-157452041D02*
X28456032Y-157464207D01*
X28654146Y-157524305D01*
X28836729Y-157621897D01*
X28996765Y-157753235D01*
X29128103Y-157913271D01*
X29225695Y-158095854D01*
X29285793Y-158293968D01*
X29306085Y-158500000D01*
X29285793Y-158706032D01*
X29225695Y-158904146D01*
X29128103Y-159086729D01*
X28996765Y-159246765D01*
X28836729Y-159378103D01*
X28654146Y-159475695D01*
X28456032Y-159535793D01*
X28332510Y-159547959D01*
X28301631Y-159551000D01*
X27198369Y-159551000D01*
X27167490Y-159547959D01*
X27043968Y-159535793D01*
X26845854Y-159475695D01*
X26663271Y-159378103D01*
X26503235Y-159246765D01*
X26371897Y-159086729D01*
X26274305Y-158904146D01*
X26214207Y-158706032D01*
X26193915Y-158500000D01*
X26214207Y-158293968D01*
X26274305Y-158095854D01*
X26371897Y-157913271D01*
X26503235Y-157753235D01*
X26663271Y-157621897D01*
X26845854Y-157524305D01*
X27043968Y-157464207D01*
X27167490Y-157452041D01*
X27198369Y-157449000D01*
X28301631Y-157449000D01*
X28332510Y-157452041D01*
X28332510Y-157452041D01*
G37*
G36*
X59626000Y-159446000D02*
X57974000Y-159446000D01*
X57974000Y-158744000D01*
X59626000Y-158744000D01*
X59626000Y-159446000D01*
X59626000Y-159446000D01*
G37*
G36*
X65026000Y-159446000D02*
X63374000Y-159446000D01*
X63374000Y-158744000D01*
X65026000Y-158744000D01*
X65026000Y-159446000D01*
X65026000Y-159446000D01*
G37*
G36*
X108438677Y-157753465D02*
X108476364Y-157764898D01*
X108511103Y-157783466D01*
X108541548Y-157808452D01*
X108566534Y-157838897D01*
X108585102Y-157873636D01*
X108596535Y-157911323D01*
X108601000Y-157956661D01*
X108601000Y-159043339D01*
X108596535Y-159088677D01*
X108585102Y-159126364D01*
X108566534Y-159161103D01*
X108541548Y-159191548D01*
X108511103Y-159216534D01*
X108476364Y-159235102D01*
X108438677Y-159246535D01*
X108393339Y-159251000D01*
X107556661Y-159251000D01*
X107511323Y-159246535D01*
X107473636Y-159235102D01*
X107438897Y-159216534D01*
X107408452Y-159191548D01*
X107383466Y-159161103D01*
X107364898Y-159126364D01*
X107353465Y-159088677D01*
X107349000Y-159043339D01*
X107349000Y-157956661D01*
X107353465Y-157911323D01*
X107364898Y-157873636D01*
X107383466Y-157838897D01*
X107408452Y-157808452D01*
X107438897Y-157783466D01*
X107473636Y-157764898D01*
X107511323Y-157753465D01*
X107556661Y-157749000D01*
X108393339Y-157749000D01*
X108438677Y-157753465D01*
X108438677Y-157753465D01*
G37*
G36*
X83438677Y-157753465D02*
X83476364Y-157764898D01*
X83511103Y-157783466D01*
X83541548Y-157808452D01*
X83566534Y-157838897D01*
X83585102Y-157873636D01*
X83596535Y-157911323D01*
X83601000Y-157956661D01*
X83601000Y-159043339D01*
X83596535Y-159088677D01*
X83585102Y-159126364D01*
X83566534Y-159161103D01*
X83541548Y-159191548D01*
X83511103Y-159216534D01*
X83476364Y-159235102D01*
X83438677Y-159246535D01*
X83393339Y-159251000D01*
X82556661Y-159251000D01*
X82511323Y-159246535D01*
X82473636Y-159235102D01*
X82438897Y-159216534D01*
X82408452Y-159191548D01*
X82383466Y-159161103D01*
X82364898Y-159126364D01*
X82353465Y-159088677D01*
X82349000Y-159043339D01*
X82349000Y-157956661D01*
X82353465Y-157911323D01*
X82364898Y-157873636D01*
X82383466Y-157838897D01*
X82408452Y-157808452D01*
X82438897Y-157783466D01*
X82473636Y-157764898D01*
X82511323Y-157753465D01*
X82556661Y-157749000D01*
X83393339Y-157749000D01*
X83438677Y-157753465D01*
X83438677Y-157753465D01*
G37*
G36*
X85488677Y-157753465D02*
X85526364Y-157764898D01*
X85561103Y-157783466D01*
X85591548Y-157808452D01*
X85616534Y-157838897D01*
X85635102Y-157873636D01*
X85646535Y-157911323D01*
X85651000Y-157956661D01*
X85651000Y-159043339D01*
X85646535Y-159088677D01*
X85635102Y-159126364D01*
X85616534Y-159161103D01*
X85591548Y-159191548D01*
X85561103Y-159216534D01*
X85526364Y-159235102D01*
X85488677Y-159246535D01*
X85443339Y-159251000D01*
X84606661Y-159251000D01*
X84561323Y-159246535D01*
X84523636Y-159235102D01*
X84488897Y-159216534D01*
X84458452Y-159191548D01*
X84433466Y-159161103D01*
X84414898Y-159126364D01*
X84403465Y-159088677D01*
X84399000Y-159043339D01*
X84399000Y-157956661D01*
X84403465Y-157911323D01*
X84414898Y-157873636D01*
X84433466Y-157838897D01*
X84458452Y-157808452D01*
X84488897Y-157783466D01*
X84523636Y-157764898D01*
X84561323Y-157753465D01*
X84606661Y-157749000D01*
X85443339Y-157749000D01*
X85488677Y-157753465D01*
X85488677Y-157753465D01*
G37*
G36*
X110488677Y-157753465D02*
X110526364Y-157764898D01*
X110561103Y-157783466D01*
X110591548Y-157808452D01*
X110616534Y-157838897D01*
X110635102Y-157873636D01*
X110646535Y-157911323D01*
X110651000Y-157956661D01*
X110651000Y-159043339D01*
X110646535Y-159088677D01*
X110635102Y-159126364D01*
X110616534Y-159161103D01*
X110591548Y-159191548D01*
X110561103Y-159216534D01*
X110526364Y-159235102D01*
X110488677Y-159246535D01*
X110443339Y-159251000D01*
X109606661Y-159251000D01*
X109561323Y-159246535D01*
X109523636Y-159235102D01*
X109488897Y-159216534D01*
X109458452Y-159191548D01*
X109433466Y-159161103D01*
X109414898Y-159126364D01*
X109403465Y-159088677D01*
X109399000Y-159043339D01*
X109399000Y-157956661D01*
X109403465Y-157911323D01*
X109414898Y-157873636D01*
X109433466Y-157838897D01*
X109458452Y-157808452D01*
X109488897Y-157783466D01*
X109523636Y-157764898D01*
X109561323Y-157753465D01*
X109606661Y-157749000D01*
X110443339Y-157749000D01*
X110488677Y-157753465D01*
X110488677Y-157753465D01*
G37*
G36*
X104351000Y-157976000D02*
X97849000Y-157976000D01*
X97849000Y-152074000D01*
X104351000Y-152074000D01*
X104351000Y-157976000D01*
X104351000Y-157976000D01*
G37*
G36*
X95951000Y-157956000D02*
X93649000Y-157956000D01*
X93649000Y-156654000D01*
X95951000Y-156654000D01*
X95951000Y-157956000D01*
X95951000Y-157956000D01*
G37*
G36*
X46588677Y-156403465D02*
X46626364Y-156414898D01*
X46661103Y-156433466D01*
X46691548Y-156458452D01*
X46716534Y-156488897D01*
X46735102Y-156523636D01*
X46746535Y-156561323D01*
X46751000Y-156606661D01*
X46751000Y-157443339D01*
X46746535Y-157488677D01*
X46735102Y-157526364D01*
X46716534Y-157561103D01*
X46691548Y-157591548D01*
X46661103Y-157616534D01*
X46626364Y-157635102D01*
X46588677Y-157646535D01*
X46543339Y-157651000D01*
X45456661Y-157651000D01*
X45411323Y-157646535D01*
X45373636Y-157635102D01*
X45338897Y-157616534D01*
X45308452Y-157591548D01*
X45283466Y-157561103D01*
X45264898Y-157526364D01*
X45253465Y-157488677D01*
X45249000Y-157443339D01*
X45249000Y-156606661D01*
X45253465Y-156561323D01*
X45264898Y-156523636D01*
X45283466Y-156488897D01*
X45308452Y-156458452D01*
X45338897Y-156433466D01*
X45373636Y-156414898D01*
X45411323Y-156403465D01*
X45456661Y-156399000D01*
X46543339Y-156399000D01*
X46588677Y-156403465D01*
X46588677Y-156403465D01*
G37*
G36*
X120645161Y-154455793D02*
X120804049Y-154471442D01*
X120998959Y-154530567D01*
X121096415Y-154560130D01*
X121194690Y-154612660D01*
X121365858Y-154704151D01*
X121602029Y-154897971D01*
X121795849Y-155134142D01*
X121826533Y-155191548D01*
X121939870Y-155403585D01*
X121969433Y-155501041D01*
X122028558Y-155695951D01*
X122058504Y-156000000D01*
X122028558Y-156304049D01*
X122010327Y-156364148D01*
X121939870Y-156596415D01*
X121887340Y-156694690D01*
X121795849Y-156865858D01*
X121602029Y-157102029D01*
X121365858Y-157295849D01*
X121210617Y-157378827D01*
X121096415Y-157439870D01*
X121016186Y-157464207D01*
X120804049Y-157528558D01*
X120652143Y-157543519D01*
X120576191Y-157551000D01*
X119423809Y-157551000D01*
X119347857Y-157543519D01*
X119195951Y-157528558D01*
X118983814Y-157464207D01*
X118903585Y-157439870D01*
X118789383Y-157378827D01*
X118634142Y-157295849D01*
X118397971Y-157102029D01*
X118204151Y-156865858D01*
X118112660Y-156694690D01*
X118060130Y-156596415D01*
X117989673Y-156364148D01*
X117971442Y-156304049D01*
X117941496Y-156000000D01*
X117971442Y-155695951D01*
X118030567Y-155501041D01*
X118060130Y-155403585D01*
X118173467Y-155191548D01*
X118204151Y-155134142D01*
X118397971Y-154897971D01*
X118634142Y-154704151D01*
X118805310Y-154612660D01*
X118903585Y-154560130D01*
X119001041Y-154530567D01*
X119195951Y-154471442D01*
X119354839Y-154455793D01*
X119423809Y-154449000D01*
X120576191Y-154449000D01*
X120645161Y-154455793D01*
X120645161Y-154455793D01*
G37*
G36*
X28332510Y-154912041D02*
X28456032Y-154924207D01*
X28654146Y-154984305D01*
X28836729Y-155081897D01*
X28996765Y-155213235D01*
X29128103Y-155373271D01*
X29225695Y-155555854D01*
X29285793Y-155753968D01*
X29306085Y-155960000D01*
X29285793Y-156166032D01*
X29225695Y-156364146D01*
X29128103Y-156546729D01*
X28996765Y-156706765D01*
X28836729Y-156838103D01*
X28654146Y-156935695D01*
X28456032Y-156995793D01*
X28332510Y-157007959D01*
X28301631Y-157011000D01*
X27198369Y-157011000D01*
X27167490Y-157007959D01*
X27043968Y-156995793D01*
X26845854Y-156935695D01*
X26663271Y-156838103D01*
X26503235Y-156706765D01*
X26371897Y-156546729D01*
X26274305Y-156364146D01*
X26214207Y-156166032D01*
X26193915Y-155960000D01*
X26214207Y-155753968D01*
X26274305Y-155555854D01*
X26371897Y-155373271D01*
X26503235Y-155213235D01*
X26663271Y-155081897D01*
X26845854Y-154984305D01*
X27043968Y-154924207D01*
X27167490Y-154912041D01*
X27198369Y-154909000D01*
X28301631Y-154909000D01*
X28332510Y-154912041D01*
X28332510Y-154912041D01*
G37*
G36*
X65201000Y-156501000D02*
X62799000Y-156501000D01*
X62799000Y-152899000D01*
X65201000Y-152899000D01*
X65201000Y-156501000D01*
X65201000Y-156501000D01*
G37*
G36*
X46588677Y-154353465D02*
X46626364Y-154364898D01*
X46661103Y-154383466D01*
X46691548Y-154408452D01*
X46716534Y-154438897D01*
X46735102Y-154473636D01*
X46746535Y-154511323D01*
X46751000Y-154556661D01*
X46751000Y-155393339D01*
X46746535Y-155438677D01*
X46735102Y-155476364D01*
X46716534Y-155511103D01*
X46691548Y-155541548D01*
X46661103Y-155566534D01*
X46626364Y-155585102D01*
X46588677Y-155596535D01*
X46543339Y-155601000D01*
X45456661Y-155601000D01*
X45411323Y-155596535D01*
X45373636Y-155585102D01*
X45338897Y-155566534D01*
X45308452Y-155541548D01*
X45283466Y-155511103D01*
X45264898Y-155476364D01*
X45253465Y-155438677D01*
X45249000Y-155393339D01*
X45249000Y-154556661D01*
X45253465Y-154511323D01*
X45264898Y-154473636D01*
X45283466Y-154438897D01*
X45308452Y-154408452D01*
X45338897Y-154383466D01*
X45373636Y-154364898D01*
X45411323Y-154353465D01*
X45456661Y-154349000D01*
X46543339Y-154349000D01*
X46588677Y-154353465D01*
X46588677Y-154353465D01*
G37*
G36*
X108463677Y-153753465D02*
X108501364Y-153764898D01*
X108536103Y-153783466D01*
X108566548Y-153808452D01*
X108591534Y-153838897D01*
X108610102Y-153873636D01*
X108621535Y-153911323D01*
X108626000Y-153956661D01*
X108626000Y-155043339D01*
X108621535Y-155088677D01*
X108610102Y-155126364D01*
X108591534Y-155161103D01*
X108566548Y-155191548D01*
X108536103Y-155216534D01*
X108501364Y-155235102D01*
X108463677Y-155246535D01*
X108418339Y-155251000D01*
X107581661Y-155251000D01*
X107536323Y-155246535D01*
X107498636Y-155235102D01*
X107463897Y-155216534D01*
X107433452Y-155191548D01*
X107408466Y-155161103D01*
X107389898Y-155126364D01*
X107378465Y-155088677D01*
X107374000Y-155043339D01*
X107374000Y-153956661D01*
X107378465Y-153911323D01*
X107389898Y-153873636D01*
X107408466Y-153838897D01*
X107433452Y-153808452D01*
X107463897Y-153783466D01*
X107498636Y-153764898D01*
X107536323Y-153753465D01*
X107581661Y-153749000D01*
X108418339Y-153749000D01*
X108463677Y-153753465D01*
X108463677Y-153753465D01*
G37*
G36*
X110513677Y-153753465D02*
X110551364Y-153764898D01*
X110586103Y-153783466D01*
X110616548Y-153808452D01*
X110641534Y-153838897D01*
X110660102Y-153873636D01*
X110671535Y-153911323D01*
X110676000Y-153956661D01*
X110676000Y-155043339D01*
X110671535Y-155088677D01*
X110660102Y-155126364D01*
X110641534Y-155161103D01*
X110616548Y-155191548D01*
X110586103Y-155216534D01*
X110551364Y-155235102D01*
X110513677Y-155246535D01*
X110468339Y-155251000D01*
X109631661Y-155251000D01*
X109586323Y-155246535D01*
X109548636Y-155235102D01*
X109513897Y-155216534D01*
X109483452Y-155191548D01*
X109458466Y-155161103D01*
X109439898Y-155126364D01*
X109428465Y-155088677D01*
X109424000Y-155043339D01*
X109424000Y-153956661D01*
X109428465Y-153911323D01*
X109439898Y-153873636D01*
X109458466Y-153838897D01*
X109483452Y-153808452D01*
X109513897Y-153783466D01*
X109548636Y-153764898D01*
X109586323Y-153753465D01*
X109631661Y-153749000D01*
X110468339Y-153749000D01*
X110513677Y-153753465D01*
X110513677Y-153753465D01*
G37*
G36*
X83101000Y-154701000D02*
X79499000Y-154701000D01*
X79499000Y-152299000D01*
X83101000Y-152299000D01*
X83101000Y-154701000D01*
X83101000Y-154701000D01*
G37*
G36*
X88501000Y-154701000D02*
X84899000Y-154701000D01*
X84899000Y-152299000D01*
X88501000Y-152299000D01*
X88501000Y-154701000D01*
X88501000Y-154701000D01*
G37*
G36*
X28332510Y-152372041D02*
X28456032Y-152384207D01*
X28654146Y-152444305D01*
X28836729Y-152541897D01*
X28996765Y-152673235D01*
X29128103Y-152833271D01*
X29225695Y-153015854D01*
X29285793Y-153213968D01*
X29306085Y-153420000D01*
X29285793Y-153626032D01*
X29225695Y-153824146D01*
X29128103Y-154006729D01*
X28996765Y-154166765D01*
X28836729Y-154298103D01*
X28654146Y-154395695D01*
X28456032Y-154455793D01*
X28332510Y-154467959D01*
X28301631Y-154471000D01*
X27198369Y-154471000D01*
X27167490Y-154467959D01*
X27043968Y-154455793D01*
X26845854Y-154395695D01*
X26663271Y-154298103D01*
X26503235Y-154166765D01*
X26371897Y-154006729D01*
X26274305Y-153824146D01*
X26214207Y-153626032D01*
X26193915Y-153420000D01*
X26214207Y-153213968D01*
X26274305Y-153015854D01*
X26371897Y-152833271D01*
X26503235Y-152673235D01*
X26663271Y-152541897D01*
X26845854Y-152444305D01*
X27043968Y-152384207D01*
X27167490Y-152372041D01*
X27198369Y-152369000D01*
X28301631Y-152369000D01*
X28332510Y-152372041D01*
X28332510Y-152372041D01*
G37*
G36*
X95951000Y-153396000D02*
X93649000Y-153396000D01*
X93649000Y-152094000D01*
X95951000Y-152094000D01*
X95951000Y-153396000D01*
X95951000Y-153396000D01*
G37*
G36*
X44438677Y-151253465D02*
X44476364Y-151264898D01*
X44511103Y-151283466D01*
X44541548Y-151308452D01*
X44566534Y-151338897D01*
X44585102Y-151373636D01*
X44596535Y-151411323D01*
X44601000Y-151456661D01*
X44601000Y-152543339D01*
X44596535Y-152588677D01*
X44585102Y-152626364D01*
X44566534Y-152661103D01*
X44541548Y-152691548D01*
X44511103Y-152716534D01*
X44476364Y-152735102D01*
X44438677Y-152746535D01*
X44393339Y-152751000D01*
X43556661Y-152751000D01*
X43511323Y-152746535D01*
X43473636Y-152735102D01*
X43438897Y-152716534D01*
X43408452Y-152691548D01*
X43383466Y-152661103D01*
X43364898Y-152626364D01*
X43353465Y-152588677D01*
X43349000Y-152543339D01*
X43349000Y-151456661D01*
X43353465Y-151411323D01*
X43364898Y-151373636D01*
X43383466Y-151338897D01*
X43408452Y-151308452D01*
X43438897Y-151283466D01*
X43473636Y-151264898D01*
X43511323Y-151253465D01*
X43556661Y-151249000D01*
X44393339Y-151249000D01*
X44438677Y-151253465D01*
X44438677Y-151253465D01*
G37*
G36*
X46488677Y-151253465D02*
X46526364Y-151264898D01*
X46561103Y-151283466D01*
X46591548Y-151308452D01*
X46616534Y-151338897D01*
X46635102Y-151373636D01*
X46646535Y-151411323D01*
X46651000Y-151456661D01*
X46651000Y-152543339D01*
X46646535Y-152588677D01*
X46635102Y-152626364D01*
X46616534Y-152661103D01*
X46591548Y-152691548D01*
X46561103Y-152716534D01*
X46526364Y-152735102D01*
X46488677Y-152746535D01*
X46443339Y-152751000D01*
X45606661Y-152751000D01*
X45561323Y-152746535D01*
X45523636Y-152735102D01*
X45488897Y-152716534D01*
X45458452Y-152691548D01*
X45433466Y-152661103D01*
X45414898Y-152626364D01*
X45403465Y-152588677D01*
X45399000Y-152543339D01*
X45399000Y-151456661D01*
X45403465Y-151411323D01*
X45414898Y-151373636D01*
X45433466Y-151338897D01*
X45458452Y-151308452D01*
X45488897Y-151283466D01*
X45523636Y-151264898D01*
X45561323Y-151253465D01*
X45606661Y-151249000D01*
X46443339Y-151249000D01*
X46488677Y-151253465D01*
X46488677Y-151253465D01*
G37*
G36*
X65201000Y-151101000D02*
X62799000Y-151101000D01*
X62799000Y-147499000D01*
X65201000Y-147499000D01*
X65201000Y-151101000D01*
X65201000Y-151101000D01*
G37*
G36*
X57438677Y-148253465D02*
X57476364Y-148264898D01*
X57511103Y-148283466D01*
X57541548Y-148308452D01*
X57566534Y-148338897D01*
X57585102Y-148373636D01*
X57596535Y-148411323D01*
X57601000Y-148456661D01*
X57601000Y-149543339D01*
X57596535Y-149588677D01*
X57585102Y-149626364D01*
X57566534Y-149661103D01*
X57541548Y-149691548D01*
X57511103Y-149716534D01*
X57476364Y-149735102D01*
X57438677Y-149746535D01*
X57393339Y-149751000D01*
X56556661Y-149751000D01*
X56511323Y-149746535D01*
X56473636Y-149735102D01*
X56438897Y-149716534D01*
X56408452Y-149691548D01*
X56383466Y-149661103D01*
X56364898Y-149626364D01*
X56353465Y-149588677D01*
X56349000Y-149543339D01*
X56349000Y-148456661D01*
X56353465Y-148411323D01*
X56364898Y-148373636D01*
X56383466Y-148338897D01*
X56408452Y-148308452D01*
X56438897Y-148283466D01*
X56473636Y-148264898D01*
X56511323Y-148253465D01*
X56556661Y-148249000D01*
X57393339Y-148249000D01*
X57438677Y-148253465D01*
X57438677Y-148253465D01*
G37*
G36*
X59488677Y-148253465D02*
X59526364Y-148264898D01*
X59561103Y-148283466D01*
X59591548Y-148308452D01*
X59616534Y-148338897D01*
X59635102Y-148373636D01*
X59646535Y-148411323D01*
X59651000Y-148456661D01*
X59651000Y-149543339D01*
X59646535Y-149588677D01*
X59635102Y-149626364D01*
X59616534Y-149661103D01*
X59591548Y-149691548D01*
X59561103Y-149716534D01*
X59526364Y-149735102D01*
X59488677Y-149746535D01*
X59443339Y-149751000D01*
X58606661Y-149751000D01*
X58561323Y-149746535D01*
X58523636Y-149735102D01*
X58488897Y-149716534D01*
X58458452Y-149691548D01*
X58433466Y-149661103D01*
X58414898Y-149626364D01*
X58403465Y-149588677D01*
X58399000Y-149543339D01*
X58399000Y-148456661D01*
X58403465Y-148411323D01*
X58414898Y-148373636D01*
X58433466Y-148338897D01*
X58458452Y-148308452D01*
X58488897Y-148283466D01*
X58523636Y-148264898D01*
X58561323Y-148253465D01*
X58606661Y-148249000D01*
X59443339Y-148249000D01*
X59488677Y-148253465D01*
X59488677Y-148253465D01*
G37*
G36*
X50248228Y-146681703D02*
X50403100Y-146745853D01*
X50542481Y-146838985D01*
X50661015Y-146957519D01*
X50754147Y-147096900D01*
X50818297Y-147251772D01*
X50851000Y-147416184D01*
X50851000Y-147583816D01*
X50818297Y-147748228D01*
X50754147Y-147903100D01*
X50661015Y-148042481D01*
X50542481Y-148161015D01*
X50403100Y-148254147D01*
X50248228Y-148318297D01*
X50083816Y-148351000D01*
X49916184Y-148351000D01*
X49751772Y-148318297D01*
X49596900Y-148254147D01*
X49457519Y-148161015D01*
X49338985Y-148042481D01*
X49245853Y-147903100D01*
X49181703Y-147748228D01*
X49149000Y-147583816D01*
X49149000Y-147416184D01*
X49181703Y-147251772D01*
X49245853Y-147096900D01*
X49338985Y-146957519D01*
X49457519Y-146838985D01*
X49596900Y-146745853D01*
X49751772Y-146681703D01*
X49916184Y-146649000D01*
X50083816Y-146649000D01*
X50248228Y-146681703D01*
X50248228Y-146681703D01*
G37*
G36*
X59488677Y-144253465D02*
X59526364Y-144264898D01*
X59561103Y-144283466D01*
X59591548Y-144308452D01*
X59616534Y-144338897D01*
X59635102Y-144373636D01*
X59646535Y-144411323D01*
X59651000Y-144456661D01*
X59651000Y-145543339D01*
X59646535Y-145588677D01*
X59635102Y-145626364D01*
X59616534Y-145661103D01*
X59591548Y-145691548D01*
X59561103Y-145716534D01*
X59526364Y-145735102D01*
X59488677Y-145746535D01*
X59443339Y-145751000D01*
X58606661Y-145751000D01*
X58561323Y-145746535D01*
X58523636Y-145735102D01*
X58488897Y-145716534D01*
X58458452Y-145691548D01*
X58433466Y-145661103D01*
X58414898Y-145626364D01*
X58403465Y-145588677D01*
X58399000Y-145543339D01*
X58399000Y-144456661D01*
X58403465Y-144411323D01*
X58414898Y-144373636D01*
X58433466Y-144338897D01*
X58458452Y-144308452D01*
X58488897Y-144283466D01*
X58523636Y-144264898D01*
X58561323Y-144253465D01*
X58606661Y-144249000D01*
X59443339Y-144249000D01*
X59488677Y-144253465D01*
X59488677Y-144253465D01*
G37*
G36*
X57438677Y-144253465D02*
X57476364Y-144264898D01*
X57511103Y-144283466D01*
X57541548Y-144308452D01*
X57566534Y-144338897D01*
X57585102Y-144373636D01*
X57596535Y-144411323D01*
X57601000Y-144456661D01*
X57601000Y-145543339D01*
X57596535Y-145588677D01*
X57585102Y-145626364D01*
X57566534Y-145661103D01*
X57541548Y-145691548D01*
X57511103Y-145716534D01*
X57476364Y-145735102D01*
X57438677Y-145746535D01*
X57393339Y-145751000D01*
X56556661Y-145751000D01*
X56511323Y-145746535D01*
X56473636Y-145735102D01*
X56438897Y-145716534D01*
X56408452Y-145691548D01*
X56383466Y-145661103D01*
X56364898Y-145626364D01*
X56353465Y-145588677D01*
X56349000Y-145543339D01*
X56349000Y-144456661D01*
X56353465Y-144411323D01*
X56364898Y-144373636D01*
X56383466Y-144338897D01*
X56408452Y-144308452D01*
X56438897Y-144283466D01*
X56473636Y-144264898D01*
X56511323Y-144253465D01*
X56556661Y-144249000D01*
X57393339Y-144249000D01*
X57438677Y-144253465D01*
X57438677Y-144253465D01*
G37*
G36*
X50851000Y-144851000D02*
X49149000Y-144851000D01*
X49149000Y-143149000D01*
X50851000Y-143149000D01*
X50851000Y-144851000D01*
X50851000Y-144851000D01*
G37*
G36*
X119851000Y-141851000D02*
X118149000Y-141851000D01*
X118149000Y-140149000D01*
X119851000Y-140149000D01*
X119851000Y-141851000D01*
X119851000Y-141851000D01*
G37*
G36*
X109851000Y-141851000D02*
X108149000Y-141851000D01*
X108149000Y-140149000D01*
X109851000Y-140149000D01*
X109851000Y-141851000D01*
X109851000Y-141851000D01*
G37*
G36*
X99851000Y-141851000D02*
X98149000Y-141851000D01*
X98149000Y-140149000D01*
X99851000Y-140149000D01*
X99851000Y-141851000D01*
X99851000Y-141851000D01*
G37*
G36*
X89851000Y-141851000D02*
X88149000Y-141851000D01*
X88149000Y-140149000D01*
X89851000Y-140149000D01*
X89851000Y-141851000D01*
X89851000Y-141851000D01*
G37*
G36*
X36976000Y-138776000D02*
X35024000Y-138776000D01*
X35024000Y-135224000D01*
X36976000Y-135224000D01*
X36976000Y-138776000D01*
X36976000Y-138776000D01*
G37*
G36*
X68976000Y-138776000D02*
X67024000Y-138776000D01*
X67024000Y-135224000D01*
X68976000Y-135224000D01*
X68976000Y-138776000D01*
X68976000Y-138776000D01*
G37*
G36*
X54976000Y-138776000D02*
X53024000Y-138776000D01*
X53024000Y-135224000D01*
X54976000Y-135224000D01*
X54976000Y-138776000D01*
X54976000Y-138776000D01*
G37*
G36*
X30976000Y-138776000D02*
X29024000Y-138776000D01*
X29024000Y-135224000D01*
X30976000Y-135224000D01*
X30976000Y-138776000D01*
X30976000Y-138776000D01*
G37*
G36*
X61976000Y-138776000D02*
X60024000Y-138776000D01*
X60024000Y-135224000D01*
X61976000Y-135224000D01*
X61976000Y-138776000D01*
X61976000Y-138776000D01*
G37*
G36*
X82976000Y-138776000D02*
X81024000Y-138776000D01*
X81024000Y-135224000D01*
X82976000Y-135224000D01*
X82976000Y-138776000D01*
X82976000Y-138776000D01*
G37*
G36*
X75976000Y-138776000D02*
X74024000Y-138776000D01*
X74024000Y-135224000D01*
X75976000Y-135224000D01*
X75976000Y-138776000D01*
X75976000Y-138776000D01*
G37*
G36*
X99248228Y-136681703D02*
X99403100Y-136745853D01*
X99542481Y-136838985D01*
X99661015Y-136957519D01*
X99754147Y-137096900D01*
X99818297Y-137251772D01*
X99851000Y-137416184D01*
X99851000Y-137583816D01*
X99818297Y-137748228D01*
X99754147Y-137903100D01*
X99661015Y-138042481D01*
X99542481Y-138161015D01*
X99403100Y-138254147D01*
X99248228Y-138318297D01*
X99083816Y-138351000D01*
X98916184Y-138351000D01*
X98751772Y-138318297D01*
X98596900Y-138254147D01*
X98457519Y-138161015D01*
X98338985Y-138042481D01*
X98245853Y-137903100D01*
X98181703Y-137748228D01*
X98149000Y-137583816D01*
X98149000Y-137416184D01*
X98181703Y-137251772D01*
X98245853Y-137096900D01*
X98338985Y-136957519D01*
X98457519Y-136838985D01*
X98596900Y-136745853D01*
X98751772Y-136681703D01*
X98916184Y-136649000D01*
X99083816Y-136649000D01*
X99248228Y-136681703D01*
X99248228Y-136681703D01*
G37*
G36*
X109248228Y-136681703D02*
X109403100Y-136745853D01*
X109542481Y-136838985D01*
X109661015Y-136957519D01*
X109754147Y-137096900D01*
X109818297Y-137251772D01*
X109851000Y-137416184D01*
X109851000Y-137583816D01*
X109818297Y-137748228D01*
X109754147Y-137903100D01*
X109661015Y-138042481D01*
X109542481Y-138161015D01*
X109403100Y-138254147D01*
X109248228Y-138318297D01*
X109083816Y-138351000D01*
X108916184Y-138351000D01*
X108751772Y-138318297D01*
X108596900Y-138254147D01*
X108457519Y-138161015D01*
X108338985Y-138042481D01*
X108245853Y-137903100D01*
X108181703Y-137748228D01*
X108149000Y-137583816D01*
X108149000Y-137416184D01*
X108181703Y-137251772D01*
X108245853Y-137096900D01*
X108338985Y-136957519D01*
X108457519Y-136838985D01*
X108596900Y-136745853D01*
X108751772Y-136681703D01*
X108916184Y-136649000D01*
X109083816Y-136649000D01*
X109248228Y-136681703D01*
X109248228Y-136681703D01*
G37*
G36*
X89248228Y-136681703D02*
X89403100Y-136745853D01*
X89542481Y-136838985D01*
X89661015Y-136957519D01*
X89754147Y-137096900D01*
X89818297Y-137251772D01*
X89851000Y-137416184D01*
X89851000Y-137583816D01*
X89818297Y-137748228D01*
X89754147Y-137903100D01*
X89661015Y-138042481D01*
X89542481Y-138161015D01*
X89403100Y-138254147D01*
X89248228Y-138318297D01*
X89083816Y-138351000D01*
X88916184Y-138351000D01*
X88751772Y-138318297D01*
X88596900Y-138254147D01*
X88457519Y-138161015D01*
X88338985Y-138042481D01*
X88245853Y-137903100D01*
X88181703Y-137748228D01*
X88149000Y-137583816D01*
X88149000Y-137416184D01*
X88181703Y-137251772D01*
X88245853Y-137096900D01*
X88338985Y-136957519D01*
X88457519Y-136838985D01*
X88596900Y-136745853D01*
X88751772Y-136681703D01*
X88916184Y-136649000D01*
X89083816Y-136649000D01*
X89248228Y-136681703D01*
X89248228Y-136681703D01*
G37*
G36*
X119248228Y-136681703D02*
X119403100Y-136745853D01*
X119542481Y-136838985D01*
X119661015Y-136957519D01*
X119754147Y-137096900D01*
X119818297Y-137251772D01*
X119851000Y-137416184D01*
X119851000Y-137583816D01*
X119818297Y-137748228D01*
X119754147Y-137903100D01*
X119661015Y-138042481D01*
X119542481Y-138161015D01*
X119403100Y-138254147D01*
X119248228Y-138318297D01*
X119083816Y-138351000D01*
X118916184Y-138351000D01*
X118751772Y-138318297D01*
X118596900Y-138254147D01*
X118457519Y-138161015D01*
X118338985Y-138042481D01*
X118245853Y-137903100D01*
X118181703Y-137748228D01*
X118149000Y-137583816D01*
X118149000Y-137416184D01*
X118181703Y-137251772D01*
X118245853Y-137096900D01*
X118338985Y-136957519D01*
X118457519Y-136838985D01*
X118596900Y-136745853D01*
X118751772Y-136681703D01*
X118916184Y-136649000D01*
X119083816Y-136649000D01*
X119248228Y-136681703D01*
X119248228Y-136681703D01*
G37*
G36*
X32976000Y-130776000D02*
X31024000Y-130776000D01*
X31024000Y-127224000D01*
X32976000Y-127224000D01*
X32976000Y-130776000D01*
X32976000Y-130776000D01*
G37*
G36*
X94976000Y-130776000D02*
X93024000Y-130776000D01*
X93024000Y-127224000D01*
X94976000Y-127224000D01*
X94976000Y-130776000D01*
X94976000Y-130776000D01*
G37*
G36*
X39976000Y-130776000D02*
X38024000Y-130776000D01*
X38024000Y-127224000D01*
X39976000Y-127224000D01*
X39976000Y-130776000D01*
X39976000Y-130776000D01*
G37*
G36*
X65476000Y-129776000D02*
X63524000Y-129776000D01*
X63524000Y-126224000D01*
X65476000Y-126224000D01*
X65476000Y-129776000D01*
X65476000Y-129776000D01*
G37*
G36*
X122026000Y-128976000D02*
X118474000Y-128976000D01*
X118474000Y-127024000D01*
X122026000Y-127024000D01*
X122026000Y-128976000D01*
X122026000Y-128976000D01*
G37*
G36*
X57248228Y-125681703D02*
X57403100Y-125745853D01*
X57542481Y-125838985D01*
X57661015Y-125957519D01*
X57754147Y-126096900D01*
X57818297Y-126251772D01*
X57851000Y-126416184D01*
X57851000Y-126583816D01*
X57818297Y-126748228D01*
X57754147Y-126903100D01*
X57661015Y-127042481D01*
X57542481Y-127161015D01*
X57403100Y-127254147D01*
X57248228Y-127318297D01*
X57083816Y-127351000D01*
X56916184Y-127351000D01*
X56751772Y-127318297D01*
X56596900Y-127254147D01*
X56457519Y-127161015D01*
X56338985Y-127042481D01*
X56245853Y-126903100D01*
X56181703Y-126748228D01*
X56149000Y-126583816D01*
X56149000Y-126416184D01*
X56181703Y-126251772D01*
X56245853Y-126096900D01*
X56338985Y-125957519D01*
X56457519Y-125838985D01*
X56596900Y-125745853D01*
X56751772Y-125681703D01*
X56916184Y-125649000D01*
X57083816Y-125649000D01*
X57248228Y-125681703D01*
X57248228Y-125681703D01*
G37*
G36*
X47248228Y-125681703D02*
X47403100Y-125745853D01*
X47542481Y-125838985D01*
X47661015Y-125957519D01*
X47754147Y-126096900D01*
X47818297Y-126251772D01*
X47851000Y-126416184D01*
X47851000Y-126583816D01*
X47818297Y-126748228D01*
X47754147Y-126903100D01*
X47661015Y-127042481D01*
X47542481Y-127161015D01*
X47403100Y-127254147D01*
X47248228Y-127318297D01*
X47083816Y-127351000D01*
X46916184Y-127351000D01*
X46751772Y-127318297D01*
X46596900Y-127254147D01*
X46457519Y-127161015D01*
X46338985Y-127042481D01*
X46245853Y-126903100D01*
X46181703Y-126748228D01*
X46149000Y-126583816D01*
X46149000Y-126416184D01*
X46181703Y-126251772D01*
X46245853Y-126096900D01*
X46338985Y-125957519D01*
X46457519Y-125838985D01*
X46596900Y-125745853D01*
X46751772Y-125681703D01*
X46916184Y-125649000D01*
X47083816Y-125649000D01*
X47248228Y-125681703D01*
X47248228Y-125681703D01*
G37*
G36*
X90488677Y-122753465D02*
X90526364Y-122764898D01*
X90561103Y-122783466D01*
X90591548Y-122808452D01*
X90616534Y-122838897D01*
X90635102Y-122873636D01*
X90646535Y-122911323D01*
X90651000Y-122956661D01*
X90651000Y-124043339D01*
X90646535Y-124088677D01*
X90635102Y-124126364D01*
X90616534Y-124161103D01*
X90591548Y-124191548D01*
X90561103Y-124216534D01*
X90526364Y-124235102D01*
X90488677Y-124246535D01*
X90443339Y-124251000D01*
X89606661Y-124251000D01*
X89561323Y-124246535D01*
X89523636Y-124235102D01*
X89488897Y-124216534D01*
X89458452Y-124191548D01*
X89433466Y-124161103D01*
X89414898Y-124126364D01*
X89403465Y-124088677D01*
X89399000Y-124043339D01*
X89399000Y-122956661D01*
X89403465Y-122911323D01*
X89414898Y-122873636D01*
X89433466Y-122838897D01*
X89458452Y-122808452D01*
X89488897Y-122783466D01*
X89523636Y-122764898D01*
X89561323Y-122753465D01*
X89606661Y-122749000D01*
X90443339Y-122749000D01*
X90488677Y-122753465D01*
X90488677Y-122753465D01*
G37*
G36*
X88438677Y-122753465D02*
X88476364Y-122764898D01*
X88511103Y-122783466D01*
X88541548Y-122808452D01*
X88566534Y-122838897D01*
X88585102Y-122873636D01*
X88596535Y-122911323D01*
X88601000Y-122956661D01*
X88601000Y-124043339D01*
X88596535Y-124088677D01*
X88585102Y-124126364D01*
X88566534Y-124161103D01*
X88541548Y-124191548D01*
X88511103Y-124216534D01*
X88476364Y-124235102D01*
X88438677Y-124246535D01*
X88393339Y-124251000D01*
X87556661Y-124251000D01*
X87511323Y-124246535D01*
X87473636Y-124235102D01*
X87438897Y-124216534D01*
X87408452Y-124191548D01*
X87383466Y-124161103D01*
X87364898Y-124126364D01*
X87353465Y-124088677D01*
X87349000Y-124043339D01*
X87349000Y-122956661D01*
X87353465Y-122911323D01*
X87364898Y-122873636D01*
X87383466Y-122838897D01*
X87408452Y-122808452D01*
X87438897Y-122783466D01*
X87473636Y-122764898D01*
X87511323Y-122753465D01*
X87556661Y-122749000D01*
X88393339Y-122749000D01*
X88438677Y-122753465D01*
X88438677Y-122753465D01*
G37*
G36*
X121776000Y-123976000D02*
X118224000Y-123976000D01*
X118224000Y-122024000D01*
X121776000Y-122024000D01*
X121776000Y-123976000D01*
X121776000Y-123976000D01*
G37*
G36*
X47248228Y-122181703D02*
X47403100Y-122245853D01*
X47542481Y-122338985D01*
X47661015Y-122457519D01*
X47754147Y-122596900D01*
X47818297Y-122751772D01*
X47851000Y-122916184D01*
X47851000Y-123083816D01*
X47818297Y-123248228D01*
X47754147Y-123403100D01*
X47661015Y-123542481D01*
X47542481Y-123661015D01*
X47403100Y-123754147D01*
X47248228Y-123818297D01*
X47083816Y-123851000D01*
X46916184Y-123851000D01*
X46751772Y-123818297D01*
X46596900Y-123754147D01*
X46457519Y-123661015D01*
X46338985Y-123542481D01*
X46245853Y-123403100D01*
X46181703Y-123248228D01*
X46149000Y-123083816D01*
X46149000Y-122916184D01*
X46181703Y-122751772D01*
X46245853Y-122596900D01*
X46338985Y-122457519D01*
X46457519Y-122338985D01*
X46596900Y-122245853D01*
X46751772Y-122181703D01*
X46916184Y-122149000D01*
X47083816Y-122149000D01*
X47248228Y-122181703D01*
X47248228Y-122181703D01*
G37*
G36*
X57248228Y-122181703D02*
X57403100Y-122245853D01*
X57542481Y-122338985D01*
X57661015Y-122457519D01*
X57754147Y-122596900D01*
X57818297Y-122751772D01*
X57851000Y-122916184D01*
X57851000Y-123083816D01*
X57818297Y-123248228D01*
X57754147Y-123403100D01*
X57661015Y-123542481D01*
X57542481Y-123661015D01*
X57403100Y-123754147D01*
X57248228Y-123818297D01*
X57083816Y-123851000D01*
X56916184Y-123851000D01*
X56751772Y-123818297D01*
X56596900Y-123754147D01*
X56457519Y-123661015D01*
X56338985Y-123542481D01*
X56245853Y-123403100D01*
X56181703Y-123248228D01*
X56149000Y-123083816D01*
X56149000Y-122916184D01*
X56181703Y-122751772D01*
X56245853Y-122596900D01*
X56338985Y-122457519D01*
X56457519Y-122338985D01*
X56596900Y-122245853D01*
X56751772Y-122181703D01*
X56916184Y-122149000D01*
X57083816Y-122149000D01*
X57248228Y-122181703D01*
X57248228Y-122181703D01*
G37*
G36*
X85488677Y-120253465D02*
X85526364Y-120264898D01*
X85561103Y-120283466D01*
X85591548Y-120308452D01*
X85616534Y-120338897D01*
X85635102Y-120373636D01*
X85646535Y-120411323D01*
X85651000Y-120456661D01*
X85651000Y-121543339D01*
X85646535Y-121588677D01*
X85635102Y-121626364D01*
X85616534Y-121661103D01*
X85591548Y-121691548D01*
X85561103Y-121716534D01*
X85526364Y-121735102D01*
X85488677Y-121746535D01*
X85443339Y-121751000D01*
X84606661Y-121751000D01*
X84561323Y-121746535D01*
X84523636Y-121735102D01*
X84488897Y-121716534D01*
X84458452Y-121691548D01*
X84433466Y-121661103D01*
X84414898Y-121626364D01*
X84403465Y-121588677D01*
X84399000Y-121543339D01*
X84399000Y-120456661D01*
X84403465Y-120411323D01*
X84414898Y-120373636D01*
X84433466Y-120338897D01*
X84458452Y-120308452D01*
X84488897Y-120283466D01*
X84523636Y-120264898D01*
X84561323Y-120253465D01*
X84606661Y-120249000D01*
X85443339Y-120249000D01*
X85488677Y-120253465D01*
X85488677Y-120253465D01*
G37*
G36*
X83438677Y-120253465D02*
X83476364Y-120264898D01*
X83511103Y-120283466D01*
X83541548Y-120308452D01*
X83566534Y-120338897D01*
X83585102Y-120373636D01*
X83596535Y-120411323D01*
X83601000Y-120456661D01*
X83601000Y-121543339D01*
X83596535Y-121588677D01*
X83585102Y-121626364D01*
X83566534Y-121661103D01*
X83541548Y-121691548D01*
X83511103Y-121716534D01*
X83476364Y-121735102D01*
X83438677Y-121746535D01*
X83393339Y-121751000D01*
X82556661Y-121751000D01*
X82511323Y-121746535D01*
X82473636Y-121735102D01*
X82438897Y-121716534D01*
X82408452Y-121691548D01*
X82383466Y-121661103D01*
X82364898Y-121626364D01*
X82353465Y-121588677D01*
X82349000Y-121543339D01*
X82349000Y-120456661D01*
X82353465Y-120411323D01*
X82364898Y-120373636D01*
X82383466Y-120338897D01*
X82408452Y-120308452D01*
X82438897Y-120283466D01*
X82473636Y-120264898D01*
X82511323Y-120253465D01*
X82556661Y-120249000D01*
X83393339Y-120249000D01*
X83438677Y-120253465D01*
X83438677Y-120253465D01*
G37*
G36*
X104351000Y-121451000D02*
X97849000Y-121451000D01*
X97849000Y-115549000D01*
X104351000Y-115549000D01*
X104351000Y-121451000D01*
X104351000Y-121451000D01*
G37*
G36*
X95951000Y-121431000D02*
X93649000Y-121431000D01*
X93649000Y-120129000D01*
X95951000Y-120129000D01*
X95951000Y-121431000D01*
X95951000Y-121431000D01*
G37*
G36*
X76976000Y-120776000D02*
X75024000Y-120776000D01*
X75024000Y-117224000D01*
X76976000Y-117224000D01*
X76976000Y-120776000D01*
X76976000Y-120776000D01*
G37*
G36*
X120652143Y-114456481D02*
X120804049Y-114471442D01*
X120963998Y-114519962D01*
X121096415Y-114560130D01*
X121183467Y-114606661D01*
X121365858Y-114704151D01*
X121602029Y-114897971D01*
X121795849Y-115134142D01*
X121887340Y-115305310D01*
X121939870Y-115403585D01*
X121939870Y-115403586D01*
X122028558Y-115695951D01*
X122058504Y-116000000D01*
X122028558Y-116304049D01*
X121969433Y-116498959D01*
X121939870Y-116596415D01*
X121887340Y-116694690D01*
X121795849Y-116865858D01*
X121602029Y-117102029D01*
X121365858Y-117295849D01*
X121194690Y-117387340D01*
X121096415Y-117439870D01*
X120998959Y-117469433D01*
X120804049Y-117528558D01*
X120652143Y-117543519D01*
X120576191Y-117551000D01*
X119423809Y-117551000D01*
X119347857Y-117543519D01*
X119195951Y-117528558D01*
X119001041Y-117469433D01*
X118903585Y-117439870D01*
X118805310Y-117387340D01*
X118634142Y-117295849D01*
X118397971Y-117102029D01*
X118204151Y-116865858D01*
X118112660Y-116694690D01*
X118060130Y-116596415D01*
X118030567Y-116498959D01*
X117971442Y-116304049D01*
X117941496Y-116000000D01*
X117971442Y-115695951D01*
X118060130Y-115403586D01*
X118060130Y-115403585D01*
X118112660Y-115305310D01*
X118204151Y-115134142D01*
X118397971Y-114897971D01*
X118634142Y-114704151D01*
X118816533Y-114606661D01*
X118903585Y-114560130D01*
X119036002Y-114519962D01*
X119195951Y-114471442D01*
X119347857Y-114456481D01*
X119423809Y-114449000D01*
X120576191Y-114449000D01*
X120652143Y-114456481D01*
X120652143Y-114456481D01*
G37*
G36*
X88501000Y-117201000D02*
X84899000Y-117201000D01*
X84899000Y-114799000D01*
X88501000Y-114799000D01*
X88501000Y-117201000D01*
X88501000Y-117201000D01*
G37*
G36*
X83101000Y-117201000D02*
X79499000Y-117201000D01*
X79499000Y-114799000D01*
X83101000Y-114799000D01*
X83101000Y-117201000D01*
X83101000Y-117201000D01*
G37*
G36*
X95951000Y-116871000D02*
X93649000Y-116871000D01*
X93649000Y-115569000D01*
X95951000Y-115569000D01*
X95951000Y-116871000D01*
X95951000Y-116871000D01*
G37*
G36*
X44438677Y-114253465D02*
X44476364Y-114264898D01*
X44511103Y-114283466D01*
X44541548Y-114308452D01*
X44566534Y-114338897D01*
X44585102Y-114373636D01*
X44596535Y-114411323D01*
X44601000Y-114456661D01*
X44601000Y-115543339D01*
X44596535Y-115588677D01*
X44585102Y-115626364D01*
X44566534Y-115661103D01*
X44541548Y-115691548D01*
X44511103Y-115716534D01*
X44476364Y-115735102D01*
X44438677Y-115746535D01*
X44393339Y-115751000D01*
X43556661Y-115751000D01*
X43511323Y-115746535D01*
X43473636Y-115735102D01*
X43438897Y-115716534D01*
X43408452Y-115691548D01*
X43383466Y-115661103D01*
X43364898Y-115626364D01*
X43353465Y-115588677D01*
X43349000Y-115543339D01*
X43349000Y-114456661D01*
X43353465Y-114411323D01*
X43364898Y-114373636D01*
X43383466Y-114338897D01*
X43408452Y-114308452D01*
X43438897Y-114283466D01*
X43473636Y-114264898D01*
X43511323Y-114253465D01*
X43556661Y-114249000D01*
X44393339Y-114249000D01*
X44438677Y-114253465D01*
X44438677Y-114253465D01*
G37*
G36*
X46488677Y-114253465D02*
X46526364Y-114264898D01*
X46561103Y-114283466D01*
X46591548Y-114308452D01*
X46616534Y-114338897D01*
X46635102Y-114373636D01*
X46646535Y-114411323D01*
X46651000Y-114456661D01*
X46651000Y-115543339D01*
X46646535Y-115588677D01*
X46635102Y-115626364D01*
X46616534Y-115661103D01*
X46591548Y-115691548D01*
X46561103Y-115716534D01*
X46526364Y-115735102D01*
X46488677Y-115746535D01*
X46443339Y-115751000D01*
X45606661Y-115751000D01*
X45561323Y-115746535D01*
X45523636Y-115735102D01*
X45488897Y-115716534D01*
X45458452Y-115691548D01*
X45433466Y-115661103D01*
X45414898Y-115626364D01*
X45403465Y-115588677D01*
X45399000Y-115543339D01*
X45399000Y-114456661D01*
X45403465Y-114411323D01*
X45414898Y-114373636D01*
X45433466Y-114338897D01*
X45458452Y-114308452D01*
X45488897Y-114283466D01*
X45523636Y-114264898D01*
X45561323Y-114253465D01*
X45606661Y-114249000D01*
X46443339Y-114249000D01*
X46488677Y-114253465D01*
X46488677Y-114253465D01*
G37*
G36*
X49588677Y-114403465D02*
X49626364Y-114414898D01*
X49661103Y-114433466D01*
X49691548Y-114458452D01*
X49716534Y-114488897D01*
X49735102Y-114523636D01*
X49746535Y-114561323D01*
X49751000Y-114606661D01*
X49751000Y-115443339D01*
X49746535Y-115488677D01*
X49735102Y-115526364D01*
X49716534Y-115561103D01*
X49691548Y-115591548D01*
X49661103Y-115616534D01*
X49626364Y-115635102D01*
X49588677Y-115646535D01*
X49543339Y-115651000D01*
X48456661Y-115651000D01*
X48411323Y-115646535D01*
X48373636Y-115635102D01*
X48338897Y-115616534D01*
X48308452Y-115591548D01*
X48283466Y-115561103D01*
X48264898Y-115526364D01*
X48253465Y-115488677D01*
X48249000Y-115443339D01*
X48249000Y-114606661D01*
X48253465Y-114561323D01*
X48264898Y-114523636D01*
X48283466Y-114488897D01*
X48308452Y-114458452D01*
X48338897Y-114433466D01*
X48373636Y-114414898D01*
X48411323Y-114403465D01*
X48456661Y-114399000D01*
X49543339Y-114399000D01*
X49588677Y-114403465D01*
X49588677Y-114403465D01*
G37*
G36*
X55588677Y-114403465D02*
X55626364Y-114414898D01*
X55661103Y-114433466D01*
X55691548Y-114458452D01*
X55716534Y-114488897D01*
X55735102Y-114523636D01*
X55746535Y-114561323D01*
X55751000Y-114606661D01*
X55751000Y-115443339D01*
X55746535Y-115488677D01*
X55735102Y-115526364D01*
X55716534Y-115561103D01*
X55691548Y-115591548D01*
X55661103Y-115616534D01*
X55626364Y-115635102D01*
X55588677Y-115646535D01*
X55543339Y-115651000D01*
X54456661Y-115651000D01*
X54411323Y-115646535D01*
X54373636Y-115635102D01*
X54338897Y-115616534D01*
X54308452Y-115591548D01*
X54283466Y-115561103D01*
X54264898Y-115526364D01*
X54253465Y-115488677D01*
X54249000Y-115443339D01*
X54249000Y-114606661D01*
X54253465Y-114561323D01*
X54264898Y-114523636D01*
X54283466Y-114488897D01*
X54308452Y-114458452D01*
X54338897Y-114433466D01*
X54373636Y-114414898D01*
X54411323Y-114403465D01*
X54456661Y-114399000D01*
X55543339Y-114399000D01*
X55588677Y-114403465D01*
X55588677Y-114403465D01*
G37*
G36*
X52588677Y-114403465D02*
X52626364Y-114414898D01*
X52661103Y-114433466D01*
X52691548Y-114458452D01*
X52716534Y-114488897D01*
X52735102Y-114523636D01*
X52746535Y-114561323D01*
X52751000Y-114606661D01*
X52751000Y-115443339D01*
X52746535Y-115488677D01*
X52735102Y-115526364D01*
X52716534Y-115561103D01*
X52691548Y-115591548D01*
X52661103Y-115616534D01*
X52626364Y-115635102D01*
X52588677Y-115646535D01*
X52543339Y-115651000D01*
X51456661Y-115651000D01*
X51411323Y-115646535D01*
X51373636Y-115635102D01*
X51338897Y-115616534D01*
X51308452Y-115591548D01*
X51283466Y-115561103D01*
X51264898Y-115526364D01*
X51253465Y-115488677D01*
X51249000Y-115443339D01*
X51249000Y-114606661D01*
X51253465Y-114561323D01*
X51264898Y-114523636D01*
X51283466Y-114488897D01*
X51308452Y-114458452D01*
X51338897Y-114433466D01*
X51373636Y-114414898D01*
X51411323Y-114403465D01*
X51456661Y-114399000D01*
X52543339Y-114399000D01*
X52588677Y-114403465D01*
X52588677Y-114403465D01*
G37*
G36*
X28332510Y-112532041D02*
X28456032Y-112544207D01*
X28654146Y-112604305D01*
X28836729Y-112701897D01*
X28996765Y-112833235D01*
X29128103Y-112993271D01*
X29225695Y-113175854D01*
X29285793Y-113373968D01*
X29306085Y-113580000D01*
X29285793Y-113786032D01*
X29225695Y-113984146D01*
X29128103Y-114166729D01*
X28996765Y-114326765D01*
X28836729Y-114458103D01*
X28654146Y-114555695D01*
X28456032Y-114615793D01*
X28332510Y-114627959D01*
X28301631Y-114631000D01*
X27198369Y-114631000D01*
X27167490Y-114627959D01*
X27043968Y-114615793D01*
X26845854Y-114555695D01*
X26663271Y-114458103D01*
X26503235Y-114326765D01*
X26371897Y-114166729D01*
X26274305Y-113984146D01*
X26214207Y-113786032D01*
X26193915Y-113580000D01*
X26214207Y-113373968D01*
X26274305Y-113175854D01*
X26371897Y-112993271D01*
X26503235Y-112833235D01*
X26663271Y-112701897D01*
X26845854Y-112604305D01*
X27043968Y-112544207D01*
X27167490Y-112532041D01*
X27198369Y-112529000D01*
X28301631Y-112529000D01*
X28332510Y-112532041D01*
X28332510Y-112532041D01*
G37*
G36*
X52588677Y-112353465D02*
X52626364Y-112364898D01*
X52661103Y-112383466D01*
X52691548Y-112408452D01*
X52716534Y-112438897D01*
X52735102Y-112473636D01*
X52746535Y-112511323D01*
X52751000Y-112556661D01*
X52751000Y-113393339D01*
X52746535Y-113438677D01*
X52735102Y-113476364D01*
X52716534Y-113511103D01*
X52691548Y-113541548D01*
X52661103Y-113566534D01*
X52626364Y-113585102D01*
X52588677Y-113596535D01*
X52543339Y-113601000D01*
X51456661Y-113601000D01*
X51411323Y-113596535D01*
X51373636Y-113585102D01*
X51338897Y-113566534D01*
X51308452Y-113541548D01*
X51283466Y-113511103D01*
X51264898Y-113476364D01*
X51253465Y-113438677D01*
X51249000Y-113393339D01*
X51249000Y-112556661D01*
X51253465Y-112511323D01*
X51264898Y-112473636D01*
X51283466Y-112438897D01*
X51308452Y-112408452D01*
X51338897Y-112383466D01*
X51373636Y-112364898D01*
X51411323Y-112353465D01*
X51456661Y-112349000D01*
X52543339Y-112349000D01*
X52588677Y-112353465D01*
X52588677Y-112353465D01*
G37*
G36*
X55588677Y-112353465D02*
X55626364Y-112364898D01*
X55661103Y-112383466D01*
X55691548Y-112408452D01*
X55716534Y-112438897D01*
X55735102Y-112473636D01*
X55746535Y-112511323D01*
X55751000Y-112556661D01*
X55751000Y-113393339D01*
X55746535Y-113438677D01*
X55735102Y-113476364D01*
X55716534Y-113511103D01*
X55691548Y-113541548D01*
X55661103Y-113566534D01*
X55626364Y-113585102D01*
X55588677Y-113596535D01*
X55543339Y-113601000D01*
X54456661Y-113601000D01*
X54411323Y-113596535D01*
X54373636Y-113585102D01*
X54338897Y-113566534D01*
X54308452Y-113541548D01*
X54283466Y-113511103D01*
X54264898Y-113476364D01*
X54253465Y-113438677D01*
X54249000Y-113393339D01*
X54249000Y-112556661D01*
X54253465Y-112511323D01*
X54264898Y-112473636D01*
X54283466Y-112438897D01*
X54308452Y-112408452D01*
X54338897Y-112383466D01*
X54373636Y-112364898D01*
X54411323Y-112353465D01*
X54456661Y-112349000D01*
X55543339Y-112349000D01*
X55588677Y-112353465D01*
X55588677Y-112353465D01*
G37*
G36*
X49588677Y-112353465D02*
X49626364Y-112364898D01*
X49661103Y-112383466D01*
X49691548Y-112408452D01*
X49716534Y-112438897D01*
X49735102Y-112473636D01*
X49746535Y-112511323D01*
X49751000Y-112556661D01*
X49751000Y-113393339D01*
X49746535Y-113438677D01*
X49735102Y-113476364D01*
X49716534Y-113511103D01*
X49691548Y-113541548D01*
X49661103Y-113566534D01*
X49626364Y-113585102D01*
X49588677Y-113596535D01*
X49543339Y-113601000D01*
X48456661Y-113601000D01*
X48411323Y-113596535D01*
X48373636Y-113585102D01*
X48338897Y-113566534D01*
X48308452Y-113541548D01*
X48283466Y-113511103D01*
X48264898Y-113476364D01*
X48253465Y-113438677D01*
X48249000Y-113393339D01*
X48249000Y-112556661D01*
X48253465Y-112511323D01*
X48264898Y-112473636D01*
X48283466Y-112438897D01*
X48308452Y-112408452D01*
X48338897Y-112383466D01*
X48373636Y-112364898D01*
X48411323Y-112353465D01*
X48456661Y-112349000D01*
X49543339Y-112349000D01*
X49588677Y-112353465D01*
X49588677Y-112353465D01*
G37*
G36*
X59626000Y-113256000D02*
X57974000Y-113256000D01*
X57974000Y-112554000D01*
X59626000Y-112554000D01*
X59626000Y-113256000D01*
X59626000Y-113256000D01*
G37*
G36*
X65026000Y-113256000D02*
X63374000Y-113256000D01*
X63374000Y-112554000D01*
X65026000Y-112554000D01*
X65026000Y-113256000D01*
X65026000Y-113256000D01*
G37*
G36*
X46588677Y-111403465D02*
X46626364Y-111414898D01*
X46661103Y-111433466D01*
X46691548Y-111458452D01*
X46716534Y-111488897D01*
X46735102Y-111523636D01*
X46746535Y-111561323D01*
X46751000Y-111606661D01*
X46751000Y-112443339D01*
X46746535Y-112488677D01*
X46735102Y-112526364D01*
X46716534Y-112561103D01*
X46691548Y-112591548D01*
X46661103Y-112616534D01*
X46626364Y-112635102D01*
X46588677Y-112646535D01*
X46543339Y-112651000D01*
X45456661Y-112651000D01*
X45411323Y-112646535D01*
X45373636Y-112635102D01*
X45338897Y-112616534D01*
X45308452Y-112591548D01*
X45283466Y-112561103D01*
X45264898Y-112526364D01*
X45253465Y-112488677D01*
X45249000Y-112443339D01*
X45249000Y-111606661D01*
X45253465Y-111561323D01*
X45264898Y-111523636D01*
X45283466Y-111488897D01*
X45308452Y-111458452D01*
X45338897Y-111433466D01*
X45373636Y-111414898D01*
X45411323Y-111403465D01*
X45456661Y-111399000D01*
X46543339Y-111399000D01*
X46588677Y-111403465D01*
X46588677Y-111403465D01*
G37*
G36*
X120652143Y-109456481D02*
X120804049Y-109471442D01*
X120968349Y-109521282D01*
X121096415Y-109560130D01*
X121194690Y-109612660D01*
X121365858Y-109704151D01*
X121602029Y-109897971D01*
X121795849Y-110134142D01*
X121868316Y-110269718D01*
X121939870Y-110403585D01*
X121965749Y-110488897D01*
X122028558Y-110695951D01*
X122058504Y-111000000D01*
X122028558Y-111304049D01*
X122005874Y-111378827D01*
X121939870Y-111596415D01*
X121899852Y-111671282D01*
X121795849Y-111865858D01*
X121602029Y-112102029D01*
X121365858Y-112295849D01*
X121227659Y-112369718D01*
X121096415Y-112439870D01*
X120998959Y-112469433D01*
X120804049Y-112528558D01*
X120652143Y-112543519D01*
X120576191Y-112551000D01*
X119423809Y-112551000D01*
X119347857Y-112543519D01*
X119195951Y-112528558D01*
X119001041Y-112469433D01*
X118903585Y-112439870D01*
X118772341Y-112369718D01*
X118634142Y-112295849D01*
X118397971Y-112102029D01*
X118204151Y-111865858D01*
X118100148Y-111671282D01*
X118060130Y-111596415D01*
X117994126Y-111378827D01*
X117971442Y-111304049D01*
X117941496Y-111000000D01*
X117971442Y-110695951D01*
X118034251Y-110488897D01*
X118060130Y-110403585D01*
X118131684Y-110269718D01*
X118204151Y-110134142D01*
X118397971Y-109897971D01*
X118634142Y-109704151D01*
X118805310Y-109612660D01*
X118903585Y-109560130D01*
X119031651Y-109521282D01*
X119195951Y-109471442D01*
X119347857Y-109456481D01*
X119423809Y-109449000D01*
X120576191Y-109449000D01*
X120652143Y-109456481D01*
X120652143Y-109456481D01*
G37*
G36*
X28332510Y-109992041D02*
X28456032Y-110004207D01*
X28654146Y-110064305D01*
X28836729Y-110161897D01*
X28996765Y-110293235D01*
X29128103Y-110453271D01*
X29225695Y-110635854D01*
X29285793Y-110833968D01*
X29306085Y-111040000D01*
X29285793Y-111246032D01*
X29225695Y-111444146D01*
X29128103Y-111626729D01*
X28996765Y-111786765D01*
X28836729Y-111918103D01*
X28654146Y-112015695D01*
X28456032Y-112075793D01*
X28332510Y-112087959D01*
X28301631Y-112091000D01*
X27198369Y-112091000D01*
X27167490Y-112087959D01*
X27043968Y-112075793D01*
X26845854Y-112015695D01*
X26663271Y-111918103D01*
X26503235Y-111786765D01*
X26371897Y-111626729D01*
X26274305Y-111444146D01*
X26214207Y-111246032D01*
X26193915Y-111040000D01*
X26214207Y-110833968D01*
X26274305Y-110635854D01*
X26371897Y-110453271D01*
X26503235Y-110293235D01*
X26663271Y-110161897D01*
X26845854Y-110064305D01*
X27043968Y-110004207D01*
X27167490Y-109992041D01*
X27198369Y-109989000D01*
X28301631Y-109989000D01*
X28332510Y-109992041D01*
X28332510Y-109992041D01*
G37*
G36*
X65026000Y-111986000D02*
X63374000Y-111986000D01*
X63374000Y-111284000D01*
X65026000Y-111284000D01*
X65026000Y-111986000D01*
X65026000Y-111986000D01*
G37*
G36*
X59626000Y-111986000D02*
X57974000Y-111986000D01*
X57974000Y-111284000D01*
X59626000Y-111284000D01*
X59626000Y-111986000D01*
X59626000Y-111986000D01*
G37*
G36*
X90488677Y-110253465D02*
X90526364Y-110264898D01*
X90561103Y-110283466D01*
X90591548Y-110308452D01*
X90616534Y-110338897D01*
X90635102Y-110373636D01*
X90646535Y-110411323D01*
X90651000Y-110456661D01*
X90651000Y-111543339D01*
X90646535Y-111588677D01*
X90635102Y-111626364D01*
X90616534Y-111661103D01*
X90591548Y-111691548D01*
X90561103Y-111716534D01*
X90526364Y-111735102D01*
X90488677Y-111746535D01*
X90443339Y-111751000D01*
X89606661Y-111751000D01*
X89561323Y-111746535D01*
X89523636Y-111735102D01*
X89488897Y-111716534D01*
X89458452Y-111691548D01*
X89433466Y-111661103D01*
X89414898Y-111626364D01*
X89403465Y-111588677D01*
X89399000Y-111543339D01*
X89399000Y-110456661D01*
X89403465Y-110411323D01*
X89414898Y-110373636D01*
X89433466Y-110338897D01*
X89458452Y-110308452D01*
X89488897Y-110283466D01*
X89523636Y-110264898D01*
X89561323Y-110253465D01*
X89606661Y-110249000D01*
X90443339Y-110249000D01*
X90488677Y-110253465D01*
X90488677Y-110253465D01*
G37*
G36*
X88438677Y-110253465D02*
X88476364Y-110264898D01*
X88511103Y-110283466D01*
X88541548Y-110308452D01*
X88566534Y-110338897D01*
X88585102Y-110373636D01*
X88596535Y-110411323D01*
X88601000Y-110456661D01*
X88601000Y-111543339D01*
X88596535Y-111588677D01*
X88585102Y-111626364D01*
X88566534Y-111661103D01*
X88541548Y-111691548D01*
X88511103Y-111716534D01*
X88476364Y-111735102D01*
X88438677Y-111746535D01*
X88393339Y-111751000D01*
X87556661Y-111751000D01*
X87511323Y-111746535D01*
X87473636Y-111735102D01*
X87438897Y-111716534D01*
X87408452Y-111691548D01*
X87383466Y-111661103D01*
X87364898Y-111626364D01*
X87353465Y-111588677D01*
X87349000Y-111543339D01*
X87349000Y-110456661D01*
X87353465Y-110411323D01*
X87364898Y-110373636D01*
X87383466Y-110338897D01*
X87408452Y-110308452D01*
X87438897Y-110283466D01*
X87473636Y-110264898D01*
X87511323Y-110253465D01*
X87556661Y-110249000D01*
X88393339Y-110249000D01*
X88438677Y-110253465D01*
X88438677Y-110253465D01*
G37*
G36*
X72588677Y-110403465D02*
X72626364Y-110414898D01*
X72661103Y-110433466D01*
X72691548Y-110458452D01*
X72716534Y-110488897D01*
X72735102Y-110523636D01*
X72746535Y-110561323D01*
X72751000Y-110606661D01*
X72751000Y-111443339D01*
X72746535Y-111488677D01*
X72735102Y-111526364D01*
X72716534Y-111561103D01*
X72691548Y-111591548D01*
X72661103Y-111616534D01*
X72626364Y-111635102D01*
X72588677Y-111646535D01*
X72543339Y-111651000D01*
X71456661Y-111651000D01*
X71411323Y-111646535D01*
X71373636Y-111635102D01*
X71338897Y-111616534D01*
X71308452Y-111591548D01*
X71283466Y-111561103D01*
X71264898Y-111526364D01*
X71253465Y-111488677D01*
X71249000Y-111443339D01*
X71249000Y-110606661D01*
X71253465Y-110561323D01*
X71264898Y-110523636D01*
X71283466Y-110488897D01*
X71308452Y-110458452D01*
X71338897Y-110433466D01*
X71373636Y-110414898D01*
X71411323Y-110403465D01*
X71456661Y-110399000D01*
X72543339Y-110399000D01*
X72588677Y-110403465D01*
X72588677Y-110403465D01*
G37*
G36*
X69588677Y-110403465D02*
X69626364Y-110414898D01*
X69661103Y-110433466D01*
X69691548Y-110458452D01*
X69716534Y-110488897D01*
X69735102Y-110523636D01*
X69746535Y-110561323D01*
X69751000Y-110606661D01*
X69751000Y-111443339D01*
X69746535Y-111488677D01*
X69735102Y-111526364D01*
X69716534Y-111561103D01*
X69691548Y-111591548D01*
X69661103Y-111616534D01*
X69626364Y-111635102D01*
X69588677Y-111646535D01*
X69543339Y-111651000D01*
X68456661Y-111651000D01*
X68411323Y-111646535D01*
X68373636Y-111635102D01*
X68338897Y-111616534D01*
X68308452Y-111591548D01*
X68283466Y-111561103D01*
X68264898Y-111526364D01*
X68253465Y-111488677D01*
X68249000Y-111443339D01*
X68249000Y-110606661D01*
X68253465Y-110561323D01*
X68264898Y-110523636D01*
X68283466Y-110488897D01*
X68308452Y-110458452D01*
X68338897Y-110433466D01*
X68373636Y-110414898D01*
X68411323Y-110403465D01*
X68456661Y-110399000D01*
X69543339Y-110399000D01*
X69588677Y-110403465D01*
X69588677Y-110403465D01*
G37*
G36*
X65026000Y-110716000D02*
X63374000Y-110716000D01*
X63374000Y-110014000D01*
X65026000Y-110014000D01*
X65026000Y-110716000D01*
X65026000Y-110716000D01*
G37*
G36*
X59626000Y-110716000D02*
X57974000Y-110716000D01*
X57974000Y-110014000D01*
X59626000Y-110014000D01*
X59626000Y-110716000D01*
X59626000Y-110716000D01*
G37*
G36*
X46588677Y-109353465D02*
X46626364Y-109364898D01*
X46661103Y-109383466D01*
X46691548Y-109408452D01*
X46716534Y-109438897D01*
X46735102Y-109473636D01*
X46746535Y-109511323D01*
X46751000Y-109556661D01*
X46751000Y-110393339D01*
X46746535Y-110438677D01*
X46735102Y-110476364D01*
X46716534Y-110511103D01*
X46691548Y-110541548D01*
X46661103Y-110566534D01*
X46626364Y-110585102D01*
X46588677Y-110596535D01*
X46543339Y-110601000D01*
X45456661Y-110601000D01*
X45411323Y-110596535D01*
X45373636Y-110585102D01*
X45338897Y-110566534D01*
X45308452Y-110541548D01*
X45283466Y-110511103D01*
X45264898Y-110476364D01*
X45253465Y-110438677D01*
X45249000Y-110393339D01*
X45249000Y-109556661D01*
X45253465Y-109511323D01*
X45264898Y-109473636D01*
X45283466Y-109438897D01*
X45308452Y-109408452D01*
X45338897Y-109383466D01*
X45373636Y-109364898D01*
X45411323Y-109353465D01*
X45456661Y-109349000D01*
X46543339Y-109349000D01*
X46588677Y-109353465D01*
X46588677Y-109353465D01*
G37*
G36*
X69588677Y-108353465D02*
X69626364Y-108364898D01*
X69661103Y-108383466D01*
X69691548Y-108408452D01*
X69716534Y-108438897D01*
X69735102Y-108473636D01*
X69746535Y-108511323D01*
X69751000Y-108556661D01*
X69751000Y-109393339D01*
X69746535Y-109438677D01*
X69735102Y-109476364D01*
X69716534Y-109511103D01*
X69691548Y-109541548D01*
X69661103Y-109566534D01*
X69626364Y-109585102D01*
X69588677Y-109596535D01*
X69543339Y-109601000D01*
X68456661Y-109601000D01*
X68411323Y-109596535D01*
X68373636Y-109585102D01*
X68338897Y-109566534D01*
X68308452Y-109541548D01*
X68283466Y-109511103D01*
X68264898Y-109476364D01*
X68253465Y-109438677D01*
X68249000Y-109393339D01*
X68249000Y-108556661D01*
X68253465Y-108511323D01*
X68264898Y-108473636D01*
X68283466Y-108438897D01*
X68308452Y-108408452D01*
X68338897Y-108383466D01*
X68373636Y-108364898D01*
X68411323Y-108353465D01*
X68456661Y-108349000D01*
X69543339Y-108349000D01*
X69588677Y-108353465D01*
X69588677Y-108353465D01*
G37*
G36*
X72588677Y-108353465D02*
X72626364Y-108364898D01*
X72661103Y-108383466D01*
X72691548Y-108408452D01*
X72716534Y-108438897D01*
X72735102Y-108473636D01*
X72746535Y-108511323D01*
X72751000Y-108556661D01*
X72751000Y-109393339D01*
X72746535Y-109438677D01*
X72735102Y-109476364D01*
X72716534Y-109511103D01*
X72691548Y-109541548D01*
X72661103Y-109566534D01*
X72626364Y-109585102D01*
X72588677Y-109596535D01*
X72543339Y-109601000D01*
X71456661Y-109601000D01*
X71411323Y-109596535D01*
X71373636Y-109585102D01*
X71338897Y-109566534D01*
X71308452Y-109541548D01*
X71283466Y-109511103D01*
X71264898Y-109476364D01*
X71253465Y-109438677D01*
X71249000Y-109393339D01*
X71249000Y-108556661D01*
X71253465Y-108511323D01*
X71264898Y-108473636D01*
X71283466Y-108438897D01*
X71308452Y-108408452D01*
X71338897Y-108383466D01*
X71373636Y-108364898D01*
X71411323Y-108353465D01*
X71456661Y-108349000D01*
X72543339Y-108349000D01*
X72588677Y-108353465D01*
X72588677Y-108353465D01*
G37*
G36*
X28332510Y-107452041D02*
X28456032Y-107464207D01*
X28654146Y-107524305D01*
X28836729Y-107621897D01*
X28996765Y-107753235D01*
X29128103Y-107913271D01*
X29225695Y-108095854D01*
X29285793Y-108293968D01*
X29306085Y-108500000D01*
X29285793Y-108706032D01*
X29225695Y-108904146D01*
X29128103Y-109086729D01*
X28996765Y-109246765D01*
X28836729Y-109378103D01*
X28654146Y-109475695D01*
X28456032Y-109535793D01*
X28332510Y-109547959D01*
X28301631Y-109551000D01*
X27198369Y-109551000D01*
X27167490Y-109547959D01*
X27043968Y-109535793D01*
X26845854Y-109475695D01*
X26663271Y-109378103D01*
X26503235Y-109246765D01*
X26371897Y-109086729D01*
X26274305Y-108904146D01*
X26214207Y-108706032D01*
X26193915Y-108500000D01*
X26214207Y-108293968D01*
X26274305Y-108095854D01*
X26371897Y-107913271D01*
X26503235Y-107753235D01*
X26663271Y-107621897D01*
X26845854Y-107524305D01*
X27043968Y-107464207D01*
X27167490Y-107452041D01*
X27198369Y-107449000D01*
X28301631Y-107449000D01*
X28332510Y-107452041D01*
X28332510Y-107452041D01*
G37*
G36*
X65026000Y-109446000D02*
X63374000Y-109446000D01*
X63374000Y-108744000D01*
X65026000Y-108744000D01*
X65026000Y-109446000D01*
X65026000Y-109446000D01*
G37*
G36*
X59626000Y-109446000D02*
X57974000Y-109446000D01*
X57974000Y-108744000D01*
X59626000Y-108744000D01*
X59626000Y-109446000D01*
X59626000Y-109446000D01*
G37*
G36*
X108438677Y-107753465D02*
X108476364Y-107764898D01*
X108511103Y-107783466D01*
X108541548Y-107808452D01*
X108566534Y-107838897D01*
X108585102Y-107873636D01*
X108596535Y-107911323D01*
X108601000Y-107956661D01*
X108601000Y-109043339D01*
X108596535Y-109088677D01*
X108585102Y-109126364D01*
X108566534Y-109161103D01*
X108541548Y-109191548D01*
X108511103Y-109216534D01*
X108476364Y-109235102D01*
X108438677Y-109246535D01*
X108393339Y-109251000D01*
X107556661Y-109251000D01*
X107511323Y-109246535D01*
X107473636Y-109235102D01*
X107438897Y-109216534D01*
X107408452Y-109191548D01*
X107383466Y-109161103D01*
X107364898Y-109126364D01*
X107353465Y-109088677D01*
X107349000Y-109043339D01*
X107349000Y-107956661D01*
X107353465Y-107911323D01*
X107364898Y-107873636D01*
X107383466Y-107838897D01*
X107408452Y-107808452D01*
X107438897Y-107783466D01*
X107473636Y-107764898D01*
X107511323Y-107753465D01*
X107556661Y-107749000D01*
X108393339Y-107749000D01*
X108438677Y-107753465D01*
X108438677Y-107753465D01*
G37*
G36*
X85488677Y-107753465D02*
X85526364Y-107764898D01*
X85561103Y-107783466D01*
X85591548Y-107808452D01*
X85616534Y-107838897D01*
X85635102Y-107873636D01*
X85646535Y-107911323D01*
X85651000Y-107956661D01*
X85651000Y-109043339D01*
X85646535Y-109088677D01*
X85635102Y-109126364D01*
X85616534Y-109161103D01*
X85591548Y-109191548D01*
X85561103Y-109216534D01*
X85526364Y-109235102D01*
X85488677Y-109246535D01*
X85443339Y-109251000D01*
X84606661Y-109251000D01*
X84561323Y-109246535D01*
X84523636Y-109235102D01*
X84488897Y-109216534D01*
X84458452Y-109191548D01*
X84433466Y-109161103D01*
X84414898Y-109126364D01*
X84403465Y-109088677D01*
X84399000Y-109043339D01*
X84399000Y-107956661D01*
X84403465Y-107911323D01*
X84414898Y-107873636D01*
X84433466Y-107838897D01*
X84458452Y-107808452D01*
X84488897Y-107783466D01*
X84523636Y-107764898D01*
X84561323Y-107753465D01*
X84606661Y-107749000D01*
X85443339Y-107749000D01*
X85488677Y-107753465D01*
X85488677Y-107753465D01*
G37*
G36*
X83438677Y-107753465D02*
X83476364Y-107764898D01*
X83511103Y-107783466D01*
X83541548Y-107808452D01*
X83566534Y-107838897D01*
X83585102Y-107873636D01*
X83596535Y-107911323D01*
X83601000Y-107956661D01*
X83601000Y-109043339D01*
X83596535Y-109088677D01*
X83585102Y-109126364D01*
X83566534Y-109161103D01*
X83541548Y-109191548D01*
X83511103Y-109216534D01*
X83476364Y-109235102D01*
X83438677Y-109246535D01*
X83393339Y-109251000D01*
X82556661Y-109251000D01*
X82511323Y-109246535D01*
X82473636Y-109235102D01*
X82438897Y-109216534D01*
X82408452Y-109191548D01*
X82383466Y-109161103D01*
X82364898Y-109126364D01*
X82353465Y-109088677D01*
X82349000Y-109043339D01*
X82349000Y-107956661D01*
X82353465Y-107911323D01*
X82364898Y-107873636D01*
X82383466Y-107838897D01*
X82408452Y-107808452D01*
X82438897Y-107783466D01*
X82473636Y-107764898D01*
X82511323Y-107753465D01*
X82556661Y-107749000D01*
X83393339Y-107749000D01*
X83438677Y-107753465D01*
X83438677Y-107753465D01*
G37*
G36*
X110488677Y-107753465D02*
X110526364Y-107764898D01*
X110561103Y-107783466D01*
X110591548Y-107808452D01*
X110616534Y-107838897D01*
X110635102Y-107873636D01*
X110646535Y-107911323D01*
X110651000Y-107956661D01*
X110651000Y-109043339D01*
X110646535Y-109088677D01*
X110635102Y-109126364D01*
X110616534Y-109161103D01*
X110591548Y-109191548D01*
X110561103Y-109216534D01*
X110526364Y-109235102D01*
X110488677Y-109246535D01*
X110443339Y-109251000D01*
X109606661Y-109251000D01*
X109561323Y-109246535D01*
X109523636Y-109235102D01*
X109488897Y-109216534D01*
X109458452Y-109191548D01*
X109433466Y-109161103D01*
X109414898Y-109126364D01*
X109403465Y-109088677D01*
X109399000Y-109043339D01*
X109399000Y-107956661D01*
X109403465Y-107911323D01*
X109414898Y-107873636D01*
X109433466Y-107838897D01*
X109458452Y-107808452D01*
X109488897Y-107783466D01*
X109523636Y-107764898D01*
X109561323Y-107753465D01*
X109606661Y-107749000D01*
X110443339Y-107749000D01*
X110488677Y-107753465D01*
X110488677Y-107753465D01*
G37*
G36*
X104351000Y-107976000D02*
X97849000Y-107976000D01*
X97849000Y-102074000D01*
X104351000Y-102074000D01*
X104351000Y-107976000D01*
X104351000Y-107976000D01*
G37*
G36*
X95951000Y-107956000D02*
X93649000Y-107956000D01*
X93649000Y-106654000D01*
X95951000Y-106654000D01*
X95951000Y-107956000D01*
X95951000Y-107956000D01*
G37*
G36*
X46588677Y-106403465D02*
X46626364Y-106414898D01*
X46661103Y-106433466D01*
X46691548Y-106458452D01*
X46716534Y-106488897D01*
X46735102Y-106523636D01*
X46746535Y-106561323D01*
X46751000Y-106606661D01*
X46751000Y-107443339D01*
X46746535Y-107488677D01*
X46735102Y-107526364D01*
X46716534Y-107561103D01*
X46691548Y-107591548D01*
X46661103Y-107616534D01*
X46626364Y-107635102D01*
X46588677Y-107646535D01*
X46543339Y-107651000D01*
X45456661Y-107651000D01*
X45411323Y-107646535D01*
X45373636Y-107635102D01*
X45338897Y-107616534D01*
X45308452Y-107591548D01*
X45283466Y-107561103D01*
X45264898Y-107526364D01*
X45253465Y-107488677D01*
X45249000Y-107443339D01*
X45249000Y-106606661D01*
X45253465Y-106561323D01*
X45264898Y-106523636D01*
X45283466Y-106488897D01*
X45308452Y-106458452D01*
X45338897Y-106433466D01*
X45373636Y-106414898D01*
X45411323Y-106403465D01*
X45456661Y-106399000D01*
X46543339Y-106399000D01*
X46588677Y-106403465D01*
X46588677Y-106403465D01*
G37*
G36*
X120645161Y-104455793D02*
X120804049Y-104471442D01*
X120998959Y-104530567D01*
X121096415Y-104560130D01*
X121194690Y-104612660D01*
X121365858Y-104704151D01*
X121602029Y-104897971D01*
X121795849Y-105134142D01*
X121826533Y-105191548D01*
X121939870Y-105403585D01*
X121969433Y-105501041D01*
X122028558Y-105695951D01*
X122058504Y-106000000D01*
X122028558Y-106304049D01*
X122010327Y-106364148D01*
X121939870Y-106596415D01*
X121887340Y-106694690D01*
X121795849Y-106865858D01*
X121602029Y-107102029D01*
X121365858Y-107295849D01*
X121210617Y-107378827D01*
X121096415Y-107439870D01*
X121016186Y-107464207D01*
X120804049Y-107528558D01*
X120652143Y-107543519D01*
X120576191Y-107551000D01*
X119423809Y-107551000D01*
X119347857Y-107543519D01*
X119195951Y-107528558D01*
X118983814Y-107464207D01*
X118903585Y-107439870D01*
X118789383Y-107378827D01*
X118634142Y-107295849D01*
X118397971Y-107102029D01*
X118204151Y-106865858D01*
X118112660Y-106694690D01*
X118060130Y-106596415D01*
X117989673Y-106364148D01*
X117971442Y-106304049D01*
X117941496Y-106000000D01*
X117971442Y-105695951D01*
X118030567Y-105501041D01*
X118060130Y-105403585D01*
X118173467Y-105191548D01*
X118204151Y-105134142D01*
X118397971Y-104897971D01*
X118634142Y-104704151D01*
X118805310Y-104612660D01*
X118903585Y-104560130D01*
X119001041Y-104530567D01*
X119195951Y-104471442D01*
X119354839Y-104455793D01*
X119423809Y-104449000D01*
X120576191Y-104449000D01*
X120645161Y-104455793D01*
X120645161Y-104455793D01*
G37*
G36*
X28332510Y-104912041D02*
X28456032Y-104924207D01*
X28654146Y-104984305D01*
X28836729Y-105081897D01*
X28996765Y-105213235D01*
X29128103Y-105373271D01*
X29225695Y-105555854D01*
X29285793Y-105753968D01*
X29306085Y-105960000D01*
X29285793Y-106166032D01*
X29225695Y-106364146D01*
X29128103Y-106546729D01*
X28996765Y-106706765D01*
X28836729Y-106838103D01*
X28654146Y-106935695D01*
X28456032Y-106995793D01*
X28332510Y-107007959D01*
X28301631Y-107011000D01*
X27198369Y-107011000D01*
X27167490Y-107007959D01*
X27043968Y-106995793D01*
X26845854Y-106935695D01*
X26663271Y-106838103D01*
X26503235Y-106706765D01*
X26371897Y-106546729D01*
X26274305Y-106364146D01*
X26214207Y-106166032D01*
X26193915Y-105960000D01*
X26214207Y-105753968D01*
X26274305Y-105555854D01*
X26371897Y-105373271D01*
X26503235Y-105213235D01*
X26663271Y-105081897D01*
X26845854Y-104984305D01*
X27043968Y-104924207D01*
X27167490Y-104912041D01*
X27198369Y-104909000D01*
X28301631Y-104909000D01*
X28332510Y-104912041D01*
X28332510Y-104912041D01*
G37*
G36*
X65201000Y-106501000D02*
X62799000Y-106501000D01*
X62799000Y-102899000D01*
X65201000Y-102899000D01*
X65201000Y-106501000D01*
X65201000Y-106501000D01*
G37*
G36*
X46588677Y-104353465D02*
X46626364Y-104364898D01*
X46661103Y-104383466D01*
X46691548Y-104408452D01*
X46716534Y-104438897D01*
X46735102Y-104473636D01*
X46746535Y-104511323D01*
X46751000Y-104556661D01*
X46751000Y-105393339D01*
X46746535Y-105438677D01*
X46735102Y-105476364D01*
X46716534Y-105511103D01*
X46691548Y-105541548D01*
X46661103Y-105566534D01*
X46626364Y-105585102D01*
X46588677Y-105596535D01*
X46543339Y-105601000D01*
X45456661Y-105601000D01*
X45411323Y-105596535D01*
X45373636Y-105585102D01*
X45338897Y-105566534D01*
X45308452Y-105541548D01*
X45283466Y-105511103D01*
X45264898Y-105476364D01*
X45253465Y-105438677D01*
X45249000Y-105393339D01*
X45249000Y-104556661D01*
X45253465Y-104511323D01*
X45264898Y-104473636D01*
X45283466Y-104438897D01*
X45308452Y-104408452D01*
X45338897Y-104383466D01*
X45373636Y-104364898D01*
X45411323Y-104353465D01*
X45456661Y-104349000D01*
X46543339Y-104349000D01*
X46588677Y-104353465D01*
X46588677Y-104353465D01*
G37*
G36*
X110513677Y-103753465D02*
X110551364Y-103764898D01*
X110586103Y-103783466D01*
X110616548Y-103808452D01*
X110641534Y-103838897D01*
X110660102Y-103873636D01*
X110671535Y-103911323D01*
X110676000Y-103956661D01*
X110676000Y-105043339D01*
X110671535Y-105088677D01*
X110660102Y-105126364D01*
X110641534Y-105161103D01*
X110616548Y-105191548D01*
X110586103Y-105216534D01*
X110551364Y-105235102D01*
X110513677Y-105246535D01*
X110468339Y-105251000D01*
X109631661Y-105251000D01*
X109586323Y-105246535D01*
X109548636Y-105235102D01*
X109513897Y-105216534D01*
X109483452Y-105191548D01*
X109458466Y-105161103D01*
X109439898Y-105126364D01*
X109428465Y-105088677D01*
X109424000Y-105043339D01*
X109424000Y-103956661D01*
X109428465Y-103911323D01*
X109439898Y-103873636D01*
X109458466Y-103838897D01*
X109483452Y-103808452D01*
X109513897Y-103783466D01*
X109548636Y-103764898D01*
X109586323Y-103753465D01*
X109631661Y-103749000D01*
X110468339Y-103749000D01*
X110513677Y-103753465D01*
X110513677Y-103753465D01*
G37*
G36*
X108463677Y-103753465D02*
X108501364Y-103764898D01*
X108536103Y-103783466D01*
X108566548Y-103808452D01*
X108591534Y-103838897D01*
X108610102Y-103873636D01*
X108621535Y-103911323D01*
X108626000Y-103956661D01*
X108626000Y-105043339D01*
X108621535Y-105088677D01*
X108610102Y-105126364D01*
X108591534Y-105161103D01*
X108566548Y-105191548D01*
X108536103Y-105216534D01*
X108501364Y-105235102D01*
X108463677Y-105246535D01*
X108418339Y-105251000D01*
X107581661Y-105251000D01*
X107536323Y-105246535D01*
X107498636Y-105235102D01*
X107463897Y-105216534D01*
X107433452Y-105191548D01*
X107408466Y-105161103D01*
X107389898Y-105126364D01*
X107378465Y-105088677D01*
X107374000Y-105043339D01*
X107374000Y-103956661D01*
X107378465Y-103911323D01*
X107389898Y-103873636D01*
X107408466Y-103838897D01*
X107433452Y-103808452D01*
X107463897Y-103783466D01*
X107498636Y-103764898D01*
X107536323Y-103753465D01*
X107581661Y-103749000D01*
X108418339Y-103749000D01*
X108463677Y-103753465D01*
X108463677Y-103753465D01*
G37*
G36*
X88501000Y-104701000D02*
X84899000Y-104701000D01*
X84899000Y-102299000D01*
X88501000Y-102299000D01*
X88501000Y-104701000D01*
X88501000Y-104701000D01*
G37*
G36*
X83101000Y-104701000D02*
X79499000Y-104701000D01*
X79499000Y-102299000D01*
X83101000Y-102299000D01*
X83101000Y-104701000D01*
X83101000Y-104701000D01*
G37*
G36*
X28332510Y-102372041D02*
X28456032Y-102384207D01*
X28654146Y-102444305D01*
X28836729Y-102541897D01*
X28996765Y-102673235D01*
X29128103Y-102833271D01*
X29225695Y-103015854D01*
X29285793Y-103213968D01*
X29306085Y-103420000D01*
X29285793Y-103626032D01*
X29225695Y-103824146D01*
X29128103Y-104006729D01*
X28996765Y-104166765D01*
X28836729Y-104298103D01*
X28654146Y-104395695D01*
X28456032Y-104455793D01*
X28332510Y-104467959D01*
X28301631Y-104471000D01*
X27198369Y-104471000D01*
X27167490Y-104467959D01*
X27043968Y-104455793D01*
X26845854Y-104395695D01*
X26663271Y-104298103D01*
X26503235Y-104166765D01*
X26371897Y-104006729D01*
X26274305Y-103824146D01*
X26214207Y-103626032D01*
X26193915Y-103420000D01*
X26214207Y-103213968D01*
X26274305Y-103015854D01*
X26371897Y-102833271D01*
X26503235Y-102673235D01*
X26663271Y-102541897D01*
X26845854Y-102444305D01*
X27043968Y-102384207D01*
X27167490Y-102372041D01*
X27198369Y-102369000D01*
X28301631Y-102369000D01*
X28332510Y-102372041D01*
X28332510Y-102372041D01*
G37*
G36*
X95951000Y-103396000D02*
X93649000Y-103396000D01*
X93649000Y-102094000D01*
X95951000Y-102094000D01*
X95951000Y-103396000D01*
X95951000Y-103396000D01*
G37*
G36*
X44438677Y-101253465D02*
X44476364Y-101264898D01*
X44511103Y-101283466D01*
X44541548Y-101308452D01*
X44566534Y-101338897D01*
X44585102Y-101373636D01*
X44596535Y-101411323D01*
X44601000Y-101456661D01*
X44601000Y-102543339D01*
X44596535Y-102588677D01*
X44585102Y-102626364D01*
X44566534Y-102661103D01*
X44541548Y-102691548D01*
X44511103Y-102716534D01*
X44476364Y-102735102D01*
X44438677Y-102746535D01*
X44393339Y-102751000D01*
X43556661Y-102751000D01*
X43511323Y-102746535D01*
X43473636Y-102735102D01*
X43438897Y-102716534D01*
X43408452Y-102691548D01*
X43383466Y-102661103D01*
X43364898Y-102626364D01*
X43353465Y-102588677D01*
X43349000Y-102543339D01*
X43349000Y-101456661D01*
X43353465Y-101411323D01*
X43364898Y-101373636D01*
X43383466Y-101338897D01*
X43408452Y-101308452D01*
X43438897Y-101283466D01*
X43473636Y-101264898D01*
X43511323Y-101253465D01*
X43556661Y-101249000D01*
X44393339Y-101249000D01*
X44438677Y-101253465D01*
X44438677Y-101253465D01*
G37*
G36*
X46488677Y-101253465D02*
X46526364Y-101264898D01*
X46561103Y-101283466D01*
X46591548Y-101308452D01*
X46616534Y-101338897D01*
X46635102Y-101373636D01*
X46646535Y-101411323D01*
X46651000Y-101456661D01*
X46651000Y-102543339D01*
X46646535Y-102588677D01*
X46635102Y-102626364D01*
X46616534Y-102661103D01*
X46591548Y-102691548D01*
X46561103Y-102716534D01*
X46526364Y-102735102D01*
X46488677Y-102746535D01*
X46443339Y-102751000D01*
X45606661Y-102751000D01*
X45561323Y-102746535D01*
X45523636Y-102735102D01*
X45488897Y-102716534D01*
X45458452Y-102691548D01*
X45433466Y-102661103D01*
X45414898Y-102626364D01*
X45403465Y-102588677D01*
X45399000Y-102543339D01*
X45399000Y-101456661D01*
X45403465Y-101411323D01*
X45414898Y-101373636D01*
X45433466Y-101338897D01*
X45458452Y-101308452D01*
X45488897Y-101283466D01*
X45523636Y-101264898D01*
X45561323Y-101253465D01*
X45606661Y-101249000D01*
X46443339Y-101249000D01*
X46488677Y-101253465D01*
X46488677Y-101253465D01*
G37*
G36*
X65201000Y-101101000D02*
X62799000Y-101101000D01*
X62799000Y-97499000D01*
X65201000Y-97499000D01*
X65201000Y-101101000D01*
X65201000Y-101101000D01*
G37*
G36*
X57438677Y-98253465D02*
X57476364Y-98264898D01*
X57511103Y-98283466D01*
X57541548Y-98308452D01*
X57566534Y-98338897D01*
X57585102Y-98373636D01*
X57596535Y-98411323D01*
X57601000Y-98456661D01*
X57601000Y-99543339D01*
X57596535Y-99588677D01*
X57585102Y-99626364D01*
X57566534Y-99661103D01*
X57541548Y-99691548D01*
X57511103Y-99716534D01*
X57476364Y-99735102D01*
X57438677Y-99746535D01*
X57393339Y-99751000D01*
X56556661Y-99751000D01*
X56511323Y-99746535D01*
X56473636Y-99735102D01*
X56438897Y-99716534D01*
X56408452Y-99691548D01*
X56383466Y-99661103D01*
X56364898Y-99626364D01*
X56353465Y-99588677D01*
X56349000Y-99543339D01*
X56349000Y-98456661D01*
X56353465Y-98411323D01*
X56364898Y-98373636D01*
X56383466Y-98338897D01*
X56408452Y-98308452D01*
X56438897Y-98283466D01*
X56473636Y-98264898D01*
X56511323Y-98253465D01*
X56556661Y-98249000D01*
X57393339Y-98249000D01*
X57438677Y-98253465D01*
X57438677Y-98253465D01*
G37*
G36*
X59488677Y-98253465D02*
X59526364Y-98264898D01*
X59561103Y-98283466D01*
X59591548Y-98308452D01*
X59616534Y-98338897D01*
X59635102Y-98373636D01*
X59646535Y-98411323D01*
X59651000Y-98456661D01*
X59651000Y-99543339D01*
X59646535Y-99588677D01*
X59635102Y-99626364D01*
X59616534Y-99661103D01*
X59591548Y-99691548D01*
X59561103Y-99716534D01*
X59526364Y-99735102D01*
X59488677Y-99746535D01*
X59443339Y-99751000D01*
X58606661Y-99751000D01*
X58561323Y-99746535D01*
X58523636Y-99735102D01*
X58488897Y-99716534D01*
X58458452Y-99691548D01*
X58433466Y-99661103D01*
X58414898Y-99626364D01*
X58403465Y-99588677D01*
X58399000Y-99543339D01*
X58399000Y-98456661D01*
X58403465Y-98411323D01*
X58414898Y-98373636D01*
X58433466Y-98338897D01*
X58458452Y-98308452D01*
X58488897Y-98283466D01*
X58523636Y-98264898D01*
X58561323Y-98253465D01*
X58606661Y-98249000D01*
X59443339Y-98249000D01*
X59488677Y-98253465D01*
X59488677Y-98253465D01*
G37*
G36*
X50248228Y-96681703D02*
X50403100Y-96745853D01*
X50542481Y-96838985D01*
X50661015Y-96957519D01*
X50754147Y-97096900D01*
X50818297Y-97251772D01*
X50851000Y-97416184D01*
X50851000Y-97583816D01*
X50818297Y-97748228D01*
X50754147Y-97903100D01*
X50661015Y-98042481D01*
X50542481Y-98161015D01*
X50403100Y-98254147D01*
X50248228Y-98318297D01*
X50083816Y-98351000D01*
X49916184Y-98351000D01*
X49751772Y-98318297D01*
X49596900Y-98254147D01*
X49457519Y-98161015D01*
X49338985Y-98042481D01*
X49245853Y-97903100D01*
X49181703Y-97748228D01*
X49149000Y-97583816D01*
X49149000Y-97416184D01*
X49181703Y-97251772D01*
X49245853Y-97096900D01*
X49338985Y-96957519D01*
X49457519Y-96838985D01*
X49596900Y-96745853D01*
X49751772Y-96681703D01*
X49916184Y-96649000D01*
X50083816Y-96649000D01*
X50248228Y-96681703D01*
X50248228Y-96681703D01*
G37*
G36*
X59488677Y-94253465D02*
X59526364Y-94264898D01*
X59561103Y-94283466D01*
X59591548Y-94308452D01*
X59616534Y-94338897D01*
X59635102Y-94373636D01*
X59646535Y-94411323D01*
X59651000Y-94456661D01*
X59651000Y-95543339D01*
X59646535Y-95588677D01*
X59635102Y-95626364D01*
X59616534Y-95661103D01*
X59591548Y-95691548D01*
X59561103Y-95716534D01*
X59526364Y-95735102D01*
X59488677Y-95746535D01*
X59443339Y-95751000D01*
X58606661Y-95751000D01*
X58561323Y-95746535D01*
X58523636Y-95735102D01*
X58488897Y-95716534D01*
X58458452Y-95691548D01*
X58433466Y-95661103D01*
X58414898Y-95626364D01*
X58403465Y-95588677D01*
X58399000Y-95543339D01*
X58399000Y-94456661D01*
X58403465Y-94411323D01*
X58414898Y-94373636D01*
X58433466Y-94338897D01*
X58458452Y-94308452D01*
X58488897Y-94283466D01*
X58523636Y-94264898D01*
X58561323Y-94253465D01*
X58606661Y-94249000D01*
X59443339Y-94249000D01*
X59488677Y-94253465D01*
X59488677Y-94253465D01*
G37*
G36*
X57438677Y-94253465D02*
X57476364Y-94264898D01*
X57511103Y-94283466D01*
X57541548Y-94308452D01*
X57566534Y-94338897D01*
X57585102Y-94373636D01*
X57596535Y-94411323D01*
X57601000Y-94456661D01*
X57601000Y-95543339D01*
X57596535Y-95588677D01*
X57585102Y-95626364D01*
X57566534Y-95661103D01*
X57541548Y-95691548D01*
X57511103Y-95716534D01*
X57476364Y-95735102D01*
X57438677Y-95746535D01*
X57393339Y-95751000D01*
X56556661Y-95751000D01*
X56511323Y-95746535D01*
X56473636Y-95735102D01*
X56438897Y-95716534D01*
X56408452Y-95691548D01*
X56383466Y-95661103D01*
X56364898Y-95626364D01*
X56353465Y-95588677D01*
X56349000Y-95543339D01*
X56349000Y-94456661D01*
X56353465Y-94411323D01*
X56364898Y-94373636D01*
X56383466Y-94338897D01*
X56408452Y-94308452D01*
X56438897Y-94283466D01*
X56473636Y-94264898D01*
X56511323Y-94253465D01*
X56556661Y-94249000D01*
X57393339Y-94249000D01*
X57438677Y-94253465D01*
X57438677Y-94253465D01*
G37*
G36*
X50851000Y-94851000D02*
X49149000Y-94851000D01*
X49149000Y-93149000D01*
X50851000Y-93149000D01*
X50851000Y-94851000D01*
X50851000Y-94851000D01*
G37*
G36*
X99851000Y-91851000D02*
X98149000Y-91851000D01*
X98149000Y-90149000D01*
X99851000Y-90149000D01*
X99851000Y-91851000D01*
X99851000Y-91851000D01*
G37*
G36*
X109851000Y-91851000D02*
X108149000Y-91851000D01*
X108149000Y-90149000D01*
X109851000Y-90149000D01*
X109851000Y-91851000D01*
X109851000Y-91851000D01*
G37*
G36*
X89851000Y-91851000D02*
X88149000Y-91851000D01*
X88149000Y-90149000D01*
X89851000Y-90149000D01*
X89851000Y-91851000D01*
X89851000Y-91851000D01*
G37*
G36*
X119851000Y-91851000D02*
X118149000Y-91851000D01*
X118149000Y-90149000D01*
X119851000Y-90149000D01*
X119851000Y-91851000D01*
X119851000Y-91851000D01*
G37*
G36*
X82976000Y-88776000D02*
X81024000Y-88776000D01*
X81024000Y-85224000D01*
X82976000Y-85224000D01*
X82976000Y-88776000D01*
X82976000Y-88776000D01*
G37*
G36*
X36976000Y-88776000D02*
X35024000Y-88776000D01*
X35024000Y-85224000D01*
X36976000Y-85224000D01*
X36976000Y-88776000D01*
X36976000Y-88776000D01*
G37*
G36*
X54976000Y-88776000D02*
X53024000Y-88776000D01*
X53024000Y-85224000D01*
X54976000Y-85224000D01*
X54976000Y-88776000D01*
X54976000Y-88776000D01*
G37*
G36*
X61976000Y-88776000D02*
X60024000Y-88776000D01*
X60024000Y-85224000D01*
X61976000Y-85224000D01*
X61976000Y-88776000D01*
X61976000Y-88776000D01*
G37*
G36*
X75976000Y-88776000D02*
X74024000Y-88776000D01*
X74024000Y-85224000D01*
X75976000Y-85224000D01*
X75976000Y-88776000D01*
X75976000Y-88776000D01*
G37*
G36*
X68976000Y-88776000D02*
X67024000Y-88776000D01*
X67024000Y-85224000D01*
X68976000Y-85224000D01*
X68976000Y-88776000D01*
X68976000Y-88776000D01*
G37*
G36*
X30976000Y-88776000D02*
X29024000Y-88776000D01*
X29024000Y-85224000D01*
X30976000Y-85224000D01*
X30976000Y-88776000D01*
X30976000Y-88776000D01*
G37*
G36*
X99248228Y-86681703D02*
X99403100Y-86745853D01*
X99542481Y-86838985D01*
X99661015Y-86957519D01*
X99754147Y-87096900D01*
X99818297Y-87251772D01*
X99851000Y-87416184D01*
X99851000Y-87583816D01*
X99818297Y-87748228D01*
X99754147Y-87903100D01*
X99661015Y-88042481D01*
X99542481Y-88161015D01*
X99403100Y-88254147D01*
X99248228Y-88318297D01*
X99083816Y-88351000D01*
X98916184Y-88351000D01*
X98751772Y-88318297D01*
X98596900Y-88254147D01*
X98457519Y-88161015D01*
X98338985Y-88042481D01*
X98245853Y-87903100D01*
X98181703Y-87748228D01*
X98149000Y-87583816D01*
X98149000Y-87416184D01*
X98181703Y-87251772D01*
X98245853Y-87096900D01*
X98338985Y-86957519D01*
X98457519Y-86838985D01*
X98596900Y-86745853D01*
X98751772Y-86681703D01*
X98916184Y-86649000D01*
X99083816Y-86649000D01*
X99248228Y-86681703D01*
X99248228Y-86681703D01*
G37*
G36*
X109248228Y-86681703D02*
X109403100Y-86745853D01*
X109542481Y-86838985D01*
X109661015Y-86957519D01*
X109754147Y-87096900D01*
X109818297Y-87251772D01*
X109851000Y-87416184D01*
X109851000Y-87583816D01*
X109818297Y-87748228D01*
X109754147Y-87903100D01*
X109661015Y-88042481D01*
X109542481Y-88161015D01*
X109403100Y-88254147D01*
X109248228Y-88318297D01*
X109083816Y-88351000D01*
X108916184Y-88351000D01*
X108751772Y-88318297D01*
X108596900Y-88254147D01*
X108457519Y-88161015D01*
X108338985Y-88042481D01*
X108245853Y-87903100D01*
X108181703Y-87748228D01*
X108149000Y-87583816D01*
X108149000Y-87416184D01*
X108181703Y-87251772D01*
X108245853Y-87096900D01*
X108338985Y-86957519D01*
X108457519Y-86838985D01*
X108596900Y-86745853D01*
X108751772Y-86681703D01*
X108916184Y-86649000D01*
X109083816Y-86649000D01*
X109248228Y-86681703D01*
X109248228Y-86681703D01*
G37*
G36*
X119248228Y-86681703D02*
X119403100Y-86745853D01*
X119542481Y-86838985D01*
X119661015Y-86957519D01*
X119754147Y-87096900D01*
X119818297Y-87251772D01*
X119851000Y-87416184D01*
X119851000Y-87583816D01*
X119818297Y-87748228D01*
X119754147Y-87903100D01*
X119661015Y-88042481D01*
X119542481Y-88161015D01*
X119403100Y-88254147D01*
X119248228Y-88318297D01*
X119083816Y-88351000D01*
X118916184Y-88351000D01*
X118751772Y-88318297D01*
X118596900Y-88254147D01*
X118457519Y-88161015D01*
X118338985Y-88042481D01*
X118245853Y-87903100D01*
X118181703Y-87748228D01*
X118149000Y-87583816D01*
X118149000Y-87416184D01*
X118181703Y-87251772D01*
X118245853Y-87096900D01*
X118338985Y-86957519D01*
X118457519Y-86838985D01*
X118596900Y-86745853D01*
X118751772Y-86681703D01*
X118916184Y-86649000D01*
X119083816Y-86649000D01*
X119248228Y-86681703D01*
X119248228Y-86681703D01*
G37*
G36*
X89248228Y-86681703D02*
X89403100Y-86745853D01*
X89542481Y-86838985D01*
X89661015Y-86957519D01*
X89754147Y-87096900D01*
X89818297Y-87251772D01*
X89851000Y-87416184D01*
X89851000Y-87583816D01*
X89818297Y-87748228D01*
X89754147Y-87903100D01*
X89661015Y-88042481D01*
X89542481Y-88161015D01*
X89403100Y-88254147D01*
X89248228Y-88318297D01*
X89083816Y-88351000D01*
X88916184Y-88351000D01*
X88751772Y-88318297D01*
X88596900Y-88254147D01*
X88457519Y-88161015D01*
X88338985Y-88042481D01*
X88245853Y-87903100D01*
X88181703Y-87748228D01*
X88149000Y-87583816D01*
X88149000Y-87416184D01*
X88181703Y-87251772D01*
X88245853Y-87096900D01*
X88338985Y-86957519D01*
X88457519Y-86838985D01*
X88596900Y-86745853D01*
X88751772Y-86681703D01*
X88916184Y-86649000D01*
X89083816Y-86649000D01*
X89248228Y-86681703D01*
X89248228Y-86681703D01*
G37*
M02*
