M48
;DRILL file {KiCad 5.0.2+dfsg1-1~bpo9+1} date Wed 01 Jan 2020 01:09:03 AM EST
;FORMAT={-:-/ absolute / metric / decimal}
FMAT,2
METRIC,TZ
T1C0.400
T2C0.800
T3C1.300
T4C1.600
%
G90
G05
T1
X26.Y-132.
X27.Y-132.
X28.Y-132.
X29.Y-132.
X30.Y-132.
X31.Y-132.
X32.Y-132.
X33.Y-132.
X34.Y-132.
X35.Y-132.
X36.Y-90.25
X36.Y-99.75
X36.Y-132.
X36.Y-140.25
X36.Y-149.75
X37.Y-132.
X38.Y-132.
X39.Y-132.
X40.Y-132.
X41.Y-115.
X41.Y-132.
X41.Y-165.
X42.Y-112.
X42.Y-132.
X42.Y-162.
X43.Y-132.
X44.Y-107.
X44.Y-110.
X44.Y-132.
X44.Y-157.
X44.Y-160.
X45.Y-132.
X46.Y-132.
X47.Y-132.
X48.Y-132.
X49.Y-132.
X50.Y-132.
X51.Y-132.
X52.Y-132.
X53.Y-132.
X53.5Y-116.5
X53.5Y-117.5
X53.5Y-166.5
X53.5Y-167.5
X54.Y-132.
X54.5Y-116.5
X54.5Y-117.5
X54.5Y-166.5
X54.5Y-167.5
X55.Y-92.
X55.Y-98.5
X55.Y-132.
X55.Y-142.
X55.Y-148.5
X55.5Y-116.5
X55.5Y-117.5
X55.5Y-166.5
X55.5Y-167.5
X56.Y-132.
X56.5Y-116.5
X56.5Y-117.5
X56.5Y-166.5
X56.5Y-167.5
X57.Y-132.
X58.Y-132.
X59.Y-132.
X60.Y-132.
X61.Y-132.
X62.Y-132.
X63.Y-132.
X64.Y-132.
X65.Y-132.
X66.Y-132.
X67.Y-132.
X68.Y-91.
X68.Y-132.
X68.Y-141.
X69.Y-132.
X70.Y-132.
X71.Y-132.
X72.Y-132.
X73.Y-132.
X74.Y-132.
X75.Y-132.
X76.Y-132.
X77.Y-132.
X78.Y-132.
X79.Y-132.
X79.Y-132.
X79.Y-132.
X80.Y-132.
X81.Y-132.
X82.Y-132.
X83.Y-132.
X84.Y-132.
X85.Y-132.
X86.Y-124.
X86.Y-132.
X86.Y-174.
X87.Y-132.
X88.Y-132.
X89.Y-132.
X90.Y-132.
X91.Y-129.
X91.Y-132.
X91.Y-179.
X92.Y-132.
X93.Y-132.
X94.Y-132.
X95.Y-132.
X96.Y-132.
X97.Y-132.
X98.Y-132.
X99.Y-132.
X100.Y-132.
X101.Y-132.
X102.Y-132.
X103.Y-132.
X104.Y-132.
X105.Y-132.
X106.Y-132.
X107.Y-132.
X108.Y-132.
X109.Y-132.
X110.Y-132.
X111.Y-132.
X112.Y-132.
X113.Y-132.
X114.Y-132.
X115.Y-132.
X115.5Y-123.
X115.5Y-173.
X116.Y-132.
X117.Y-132.
X118.Y-132.
X119.Y-132.
X120.Y-132.
X121.Y-132.
X122.Y-132.
X123.Y-132.
T2
X99.Y-137.5
X99.Y-141.
X109.Y-137.5
X109.Y-141.
X119.Y-137.5
X119.Y-141.
X89.Y-87.5
X89.Y-91.
X99.Y-87.5
X99.Y-91.
X57.Y-173.
X57.Y-176.5
X89.Y-137.5
X89.Y-141.
X47.Y-123.
X47.Y-126.5
X119.Y-87.5
X119.Y-91.
X50.Y-94.
X50.Y-97.5
X47.Y-173.
X47.Y-176.5
X50.Y-144.
X50.Y-147.5
X109.Y-87.5
X109.Y-91.
X57.Y-123.
X57.Y-126.5
T3
X27.75Y-103.42
X27.75Y-105.96
X27.75Y-108.5
X27.75Y-111.04
X27.75Y-113.58
X27.75Y-153.42
X27.75Y-155.96
X27.75Y-158.5
X27.75Y-161.04
X27.75Y-163.58
T4
X120.Y-156.
X120.Y-161.
X120.Y-166.
X120.Y-106.
X120.Y-111.
X120.Y-116.
T0
M30
