M48
;DRILL file {KiCad 5.0.2+dfsg1-1~bpo9+1} date Wed 05 Jun 2019 05:15:00 PM EDT
;FORMAT={-:-/ absolute / metric / decimal}
FMAT,2
METRIC,TZ
T1C0.500
T2C1.300
T3C1.600
%
G90
G05
T1
X6.5Y66.
X8.Y56.5
X10.Y60.9
X11.4Y52.15
X12.Y61.5
X12.Y49.2
X12.5Y58.
X12.7Y25.4
X13.5Y23.5
X14.2Y46.3
X14.4Y25.5
X14.96Y8.15
X16.2Y14.3
X16.5Y25.7
X17.Y78.5
X17.75Y44.9
X19.5Y42.9
X19.5Y38.3
X19.65Y10.25
X20.8Y38.6
X20.9Y16.7
X21.7Y42.9
X21.9Y38.6
X22.9Y26.85
X23.6Y69.1
X25.Y45.6
X25.9Y38.7
X26.4Y67.7
X27.Y37.9
X27.4Y45.7
X28.95Y35.75
X29.6Y70.1
X29.731Y74.994
X30.Y78.5
X30.15Y35.75
X30.3Y9.3
X30.75Y81.
X30.8Y12.7
X31.Y44.55
X32.2Y12.6
X32.5Y57.5
X33.Y70.9
X33.1Y17.8
X33.6Y59.675
X33.7Y12.6
X33.8Y60.9
X35.65Y51.586
X38.7Y60.75
X39.225Y62.175
X40.1Y14.6
X41.8Y14.9
X42.6Y43.5
X43.Y44.7
X43.Y41.5
X43.5Y14.8
X44.45Y61.05
X44.5Y57.85
X44.6Y62.45
X45.013Y85.487
X45.2Y14.9
X46.Y34.5
X47.Y42.9
X48.Y77.5
X48.Y63.5
X48.Y51.5
X48.Y25.5
X48.55Y38.3
X48.6Y42.9
X49.Y77.5
X49.Y51.5
X49.Y25.5
X49.55Y41.5
X50.Y84.4
X52.7Y88.85
X57.4Y12.4
X59.1Y12.4
X60.7Y12.5
X65.Y64.5
X65.Y38.5
X68.4Y8.7
X84.Y16.
X85.5Y16.
X86.Y88.5
X86.Y62.5
X86.Y36.5
X87.Y68.5
X87.5Y42.
X88.Y67.5
X88.5Y41.
X33.365Y81.04
X33.365Y79.77
X33.365Y78.5
X33.365Y77.23
X33.365Y75.96
X34.635Y81.04
X34.635Y79.77
X34.635Y78.5
X34.635Y77.23
X34.635Y75.96
T2
X60.92Y3.5
X63.46Y3.5
X66.Y3.5
X68.54Y3.5
X71.08Y3.5
X46.19Y3.5
X48.73Y3.5
X51.27Y3.5
X53.81Y3.5
X12.42Y3.5
X14.96Y3.5
X17.5Y3.5
X20.04Y3.5
X22.58Y3.5
X28.92Y3.5
X31.46Y3.5
X34.Y3.5
X36.54Y3.5
X39.08Y3.5
T3
X82.Y4.5
X87.Y4.5
X92.Y4.5
T0
M30
