G04 #@! TF.GenerationSoftware,KiCad,Pcbnew,5.0.2+dfsg1-1~bpo9+1*
G04 #@! TF.CreationDate,2019-06-04T21:15:14-04:00*
G04 #@! TF.ProjectId,SCARAMotorFeedbackController,53434152-414d-46f7-946f-724665656462,rev?*
G04 #@! TF.SameCoordinates,Original*
G04 #@! TF.FileFunction,Paste,Bot*
G04 #@! TF.FilePolarity,Positive*
%FSLAX46Y46*%
G04 Gerber Fmt 4.6, Leading zero omitted, Abs format (unit mm)*
G04 Created by KiCad (PCBNEW 5.0.2+dfsg1-1~bpo9+1) date Tue 04 Jun 2019 09:15:14 PM EDT*
%MOMM*%
%LPD*%
G01*
G04 APERTURE LIST*
%ADD10C,0.100000*%
%ADD11C,2.500000*%
G04 APERTURE END LIST*
D10*
G04 #@! TO.C,C8*
G36*
X87024504Y85398796D02*
X87048773Y85395196D01*
X87072571Y85389235D01*
X87095671Y85380970D01*
X87117849Y85370480D01*
X87138893Y85357867D01*
X87158598Y85343253D01*
X87176777Y85326777D01*
X87193253Y85308598D01*
X87207867Y85288893D01*
X87220480Y85267849D01*
X87230970Y85245671D01*
X87239235Y85222571D01*
X87245196Y85198773D01*
X87248796Y85174504D01*
X87250000Y85150000D01*
X87250000Y81250000D01*
X87248796Y81225496D01*
X87245196Y81201227D01*
X87239235Y81177429D01*
X87230970Y81154329D01*
X87220480Y81132151D01*
X87207867Y81111107D01*
X87193253Y81091402D01*
X87176777Y81073223D01*
X87158598Y81056747D01*
X87138893Y81042133D01*
X87117849Y81029520D01*
X87095671Y81019030D01*
X87072571Y81010765D01*
X87048773Y81004804D01*
X87024504Y81001204D01*
X87000000Y81000000D01*
X85000000Y81000000D01*
X84975496Y81001204D01*
X84951227Y81004804D01*
X84927429Y81010765D01*
X84904329Y81019030D01*
X84882151Y81029520D01*
X84861107Y81042133D01*
X84841402Y81056747D01*
X84823223Y81073223D01*
X84806747Y81091402D01*
X84792133Y81111107D01*
X84779520Y81132151D01*
X84769030Y81154329D01*
X84760765Y81177429D01*
X84754804Y81201227D01*
X84751204Y81225496D01*
X84750000Y81250000D01*
X84750000Y85150000D01*
X84751204Y85174504D01*
X84754804Y85198773D01*
X84760765Y85222571D01*
X84769030Y85245671D01*
X84779520Y85267849D01*
X84792133Y85288893D01*
X84806747Y85308598D01*
X84823223Y85326777D01*
X84841402Y85343253D01*
X84861107Y85357867D01*
X84882151Y85370480D01*
X84904329Y85380970D01*
X84927429Y85389235D01*
X84951227Y85395196D01*
X84975496Y85398796D01*
X85000000Y85400000D01*
X87000000Y85400000D01*
X87024504Y85398796D01*
X87024504Y85398796D01*
G37*
D11*
X86000000Y83200000D03*
D10*
G36*
X87024504Y76998796D02*
X87048773Y76995196D01*
X87072571Y76989235D01*
X87095671Y76980970D01*
X87117849Y76970480D01*
X87138893Y76957867D01*
X87158598Y76943253D01*
X87176777Y76926777D01*
X87193253Y76908598D01*
X87207867Y76888893D01*
X87220480Y76867849D01*
X87230970Y76845671D01*
X87239235Y76822571D01*
X87245196Y76798773D01*
X87248796Y76774504D01*
X87250000Y76750000D01*
X87250000Y72850000D01*
X87248796Y72825496D01*
X87245196Y72801227D01*
X87239235Y72777429D01*
X87230970Y72754329D01*
X87220480Y72732151D01*
X87207867Y72711107D01*
X87193253Y72691402D01*
X87176777Y72673223D01*
X87158598Y72656747D01*
X87138893Y72642133D01*
X87117849Y72629520D01*
X87095671Y72619030D01*
X87072571Y72610765D01*
X87048773Y72604804D01*
X87024504Y72601204D01*
X87000000Y72600000D01*
X85000000Y72600000D01*
X84975496Y72601204D01*
X84951227Y72604804D01*
X84927429Y72610765D01*
X84904329Y72619030D01*
X84882151Y72629520D01*
X84861107Y72642133D01*
X84841402Y72656747D01*
X84823223Y72673223D01*
X84806747Y72691402D01*
X84792133Y72711107D01*
X84779520Y72732151D01*
X84769030Y72754329D01*
X84760765Y72777429D01*
X84754804Y72801227D01*
X84751204Y72825496D01*
X84750000Y72850000D01*
X84750000Y76750000D01*
X84751204Y76774504D01*
X84754804Y76798773D01*
X84760765Y76822571D01*
X84769030Y76845671D01*
X84779520Y76867849D01*
X84792133Y76888893D01*
X84806747Y76908598D01*
X84823223Y76926777D01*
X84841402Y76943253D01*
X84861107Y76957867D01*
X84882151Y76970480D01*
X84904329Y76980970D01*
X84927429Y76989235D01*
X84951227Y76995196D01*
X84975496Y76998796D01*
X85000000Y77000000D01*
X87000000Y77000000D01*
X87024504Y76998796D01*
X87024504Y76998796D01*
G37*
D11*
X86000000Y74800000D03*
G04 #@! TD*
D10*
G04 #@! TO.C,C24*
G36*
X87024504Y24998796D02*
X87048773Y24995196D01*
X87072571Y24989235D01*
X87095671Y24980970D01*
X87117849Y24970480D01*
X87138893Y24957867D01*
X87158598Y24943253D01*
X87176777Y24926777D01*
X87193253Y24908598D01*
X87207867Y24888893D01*
X87220480Y24867849D01*
X87230970Y24845671D01*
X87239235Y24822571D01*
X87245196Y24798773D01*
X87248796Y24774504D01*
X87250000Y24750000D01*
X87250000Y20850000D01*
X87248796Y20825496D01*
X87245196Y20801227D01*
X87239235Y20777429D01*
X87230970Y20754329D01*
X87220480Y20732151D01*
X87207867Y20711107D01*
X87193253Y20691402D01*
X87176777Y20673223D01*
X87158598Y20656747D01*
X87138893Y20642133D01*
X87117849Y20629520D01*
X87095671Y20619030D01*
X87072571Y20610765D01*
X87048773Y20604804D01*
X87024504Y20601204D01*
X87000000Y20600000D01*
X85000000Y20600000D01*
X84975496Y20601204D01*
X84951227Y20604804D01*
X84927429Y20610765D01*
X84904329Y20619030D01*
X84882151Y20629520D01*
X84861107Y20642133D01*
X84841402Y20656747D01*
X84823223Y20673223D01*
X84806747Y20691402D01*
X84792133Y20711107D01*
X84779520Y20732151D01*
X84769030Y20754329D01*
X84760765Y20777429D01*
X84754804Y20801227D01*
X84751204Y20825496D01*
X84750000Y20850000D01*
X84750000Y24750000D01*
X84751204Y24774504D01*
X84754804Y24798773D01*
X84760765Y24822571D01*
X84769030Y24845671D01*
X84779520Y24867849D01*
X84792133Y24888893D01*
X84806747Y24908598D01*
X84823223Y24926777D01*
X84841402Y24943253D01*
X84861107Y24957867D01*
X84882151Y24970480D01*
X84904329Y24980970D01*
X84927429Y24989235D01*
X84951227Y24995196D01*
X84975496Y24998796D01*
X85000000Y25000000D01*
X87000000Y25000000D01*
X87024504Y24998796D01*
X87024504Y24998796D01*
G37*
D11*
X86000000Y22800000D03*
D10*
G36*
X87024504Y33398796D02*
X87048773Y33395196D01*
X87072571Y33389235D01*
X87095671Y33380970D01*
X87117849Y33370480D01*
X87138893Y33357867D01*
X87158598Y33343253D01*
X87176777Y33326777D01*
X87193253Y33308598D01*
X87207867Y33288893D01*
X87220480Y33267849D01*
X87230970Y33245671D01*
X87239235Y33222571D01*
X87245196Y33198773D01*
X87248796Y33174504D01*
X87250000Y33150000D01*
X87250000Y29250000D01*
X87248796Y29225496D01*
X87245196Y29201227D01*
X87239235Y29177429D01*
X87230970Y29154329D01*
X87220480Y29132151D01*
X87207867Y29111107D01*
X87193253Y29091402D01*
X87176777Y29073223D01*
X87158598Y29056747D01*
X87138893Y29042133D01*
X87117849Y29029520D01*
X87095671Y29019030D01*
X87072571Y29010765D01*
X87048773Y29004804D01*
X87024504Y29001204D01*
X87000000Y29000000D01*
X85000000Y29000000D01*
X84975496Y29001204D01*
X84951227Y29004804D01*
X84927429Y29010765D01*
X84904329Y29019030D01*
X84882151Y29029520D01*
X84861107Y29042133D01*
X84841402Y29056747D01*
X84823223Y29073223D01*
X84806747Y29091402D01*
X84792133Y29111107D01*
X84779520Y29132151D01*
X84769030Y29154329D01*
X84760765Y29177429D01*
X84754804Y29201227D01*
X84751204Y29225496D01*
X84750000Y29250000D01*
X84750000Y33150000D01*
X84751204Y33174504D01*
X84754804Y33198773D01*
X84760765Y33222571D01*
X84769030Y33245671D01*
X84779520Y33267849D01*
X84792133Y33288893D01*
X84806747Y33308598D01*
X84823223Y33326777D01*
X84841402Y33343253D01*
X84861107Y33357867D01*
X84882151Y33370480D01*
X84904329Y33380970D01*
X84927429Y33389235D01*
X84951227Y33395196D01*
X84975496Y33398796D01*
X85000000Y33400000D01*
X87000000Y33400000D01*
X87024504Y33398796D01*
X87024504Y33398796D01*
G37*
D11*
X86000000Y31200000D03*
G04 #@! TD*
D10*
G04 #@! TO.C,C25*
G36*
X87024504Y59398796D02*
X87048773Y59395196D01*
X87072571Y59389235D01*
X87095671Y59380970D01*
X87117849Y59370480D01*
X87138893Y59357867D01*
X87158598Y59343253D01*
X87176777Y59326777D01*
X87193253Y59308598D01*
X87207867Y59288893D01*
X87220480Y59267849D01*
X87230970Y59245671D01*
X87239235Y59222571D01*
X87245196Y59198773D01*
X87248796Y59174504D01*
X87250000Y59150000D01*
X87250000Y55250000D01*
X87248796Y55225496D01*
X87245196Y55201227D01*
X87239235Y55177429D01*
X87230970Y55154329D01*
X87220480Y55132151D01*
X87207867Y55111107D01*
X87193253Y55091402D01*
X87176777Y55073223D01*
X87158598Y55056747D01*
X87138893Y55042133D01*
X87117849Y55029520D01*
X87095671Y55019030D01*
X87072571Y55010765D01*
X87048773Y55004804D01*
X87024504Y55001204D01*
X87000000Y55000000D01*
X85000000Y55000000D01*
X84975496Y55001204D01*
X84951227Y55004804D01*
X84927429Y55010765D01*
X84904329Y55019030D01*
X84882151Y55029520D01*
X84861107Y55042133D01*
X84841402Y55056747D01*
X84823223Y55073223D01*
X84806747Y55091402D01*
X84792133Y55111107D01*
X84779520Y55132151D01*
X84769030Y55154329D01*
X84760765Y55177429D01*
X84754804Y55201227D01*
X84751204Y55225496D01*
X84750000Y55250000D01*
X84750000Y59150000D01*
X84751204Y59174504D01*
X84754804Y59198773D01*
X84760765Y59222571D01*
X84769030Y59245671D01*
X84779520Y59267849D01*
X84792133Y59288893D01*
X84806747Y59308598D01*
X84823223Y59326777D01*
X84841402Y59343253D01*
X84861107Y59357867D01*
X84882151Y59370480D01*
X84904329Y59380970D01*
X84927429Y59389235D01*
X84951227Y59395196D01*
X84975496Y59398796D01*
X85000000Y59400000D01*
X87000000Y59400000D01*
X87024504Y59398796D01*
X87024504Y59398796D01*
G37*
D11*
X86000000Y57200000D03*
D10*
G36*
X87024504Y50998796D02*
X87048773Y50995196D01*
X87072571Y50989235D01*
X87095671Y50980970D01*
X87117849Y50970480D01*
X87138893Y50957867D01*
X87158598Y50943253D01*
X87176777Y50926777D01*
X87193253Y50908598D01*
X87207867Y50888893D01*
X87220480Y50867849D01*
X87230970Y50845671D01*
X87239235Y50822571D01*
X87245196Y50798773D01*
X87248796Y50774504D01*
X87250000Y50750000D01*
X87250000Y46850000D01*
X87248796Y46825496D01*
X87245196Y46801227D01*
X87239235Y46777429D01*
X87230970Y46754329D01*
X87220480Y46732151D01*
X87207867Y46711107D01*
X87193253Y46691402D01*
X87176777Y46673223D01*
X87158598Y46656747D01*
X87138893Y46642133D01*
X87117849Y46629520D01*
X87095671Y46619030D01*
X87072571Y46610765D01*
X87048773Y46604804D01*
X87024504Y46601204D01*
X87000000Y46600000D01*
X85000000Y46600000D01*
X84975496Y46601204D01*
X84951227Y46604804D01*
X84927429Y46610765D01*
X84904329Y46619030D01*
X84882151Y46629520D01*
X84861107Y46642133D01*
X84841402Y46656747D01*
X84823223Y46673223D01*
X84806747Y46691402D01*
X84792133Y46711107D01*
X84779520Y46732151D01*
X84769030Y46754329D01*
X84760765Y46777429D01*
X84754804Y46801227D01*
X84751204Y46825496D01*
X84750000Y46850000D01*
X84750000Y50750000D01*
X84751204Y50774504D01*
X84754804Y50798773D01*
X84760765Y50822571D01*
X84769030Y50845671D01*
X84779520Y50867849D01*
X84792133Y50888893D01*
X84806747Y50908598D01*
X84823223Y50926777D01*
X84841402Y50943253D01*
X84861107Y50957867D01*
X84882151Y50970480D01*
X84904329Y50980970D01*
X84927429Y50989235D01*
X84951227Y50995196D01*
X84975496Y50998796D01*
X85000000Y51000000D01*
X87000000Y51000000D01*
X87024504Y50998796D01*
X87024504Y50998796D01*
G37*
D11*
X86000000Y48800000D03*
G04 #@! TD*
M02*
