G04 #@! TF.GenerationSoftware,KiCad,Pcbnew,5.0.2+dfsg1-1~bpo9+1*
G04 #@! TF.CreationDate,2019-06-05T17:15:04-04:00*
G04 #@! TF.ProjectId,SCARAMotorFeedbackController,53434152-414d-46f7-946f-724665656462,rev?*
G04 #@! TF.SameCoordinates,Original*
G04 #@! TF.FileFunction,Copper,L2,Bot*
G04 #@! TF.FilePolarity,Positive*
%FSLAX46Y46*%
G04 Gerber Fmt 4.6, Leading zero omitted, Abs format (unit mm)*
G04 Created by KiCad (PCBNEW 5.0.2+dfsg1-1~bpo9+1) date Wed 05 Jun 2019 05:15:04 PM EDT*
%MOMM*%
%LPD*%
G01*
G04 APERTURE LIST*
G04 #@! TA.AperFunction,ComponentPad*
%ADD10C,0.700000*%
G04 #@! TD*
G04 #@! TA.AperFunction,ComponentPad*
%ADD11O,2.000000X3.000000*%
G04 #@! TD*
G04 #@! TA.AperFunction,ComponentPad*
%ADD12O,3.000000X4.000000*%
G04 #@! TD*
G04 #@! TA.AperFunction,SMDPad,CuDef*
%ADD13R,7.300000X2.000000*%
G04 #@! TD*
G04 #@! TA.AperFunction,ViaPad*
%ADD14C,0.800000*%
G04 #@! TD*
G04 #@! TA.AperFunction,Conductor*
%ADD15C,0.400000*%
G04 #@! TD*
G04 #@! TA.AperFunction,Conductor*
%ADD16C,1.500000*%
G04 #@! TD*
G04 #@! TA.AperFunction,Conductor*
%ADD17C,0.250000*%
G04 #@! TD*
G04 #@! TA.AperFunction,Conductor*
%ADD18C,1.000000*%
G04 #@! TD*
G04 #@! TA.AperFunction,Conductor*
%ADD19C,0.300000*%
G04 #@! TD*
G04 #@! TA.AperFunction,Conductor*
%ADD20C,0.254000*%
G04 #@! TD*
G04 APERTURE END LIST*
D10*
G04 #@! TO.P,J3,1*
G04 #@! TO.N,3V3*
X34635000Y75960000D03*
G04 #@! TO.P,J3,2*
G04 #@! TO.N,SWDIO*
X33365000Y75960000D03*
G04 #@! TO.P,J3,3*
G04 #@! TO.N,GND*
X34635000Y77230000D03*
G04 #@! TO.P,J3,4*
G04 #@! TO.N,SWDCLK*
X33365000Y77230000D03*
G04 #@! TO.P,J3,5*
G04 #@! TO.N,GND*
X34635000Y78500000D03*
G04 #@! TO.P,J3,6*
G04 #@! TO.N,SWO*
X33365000Y78500000D03*
G04 #@! TO.P,J3,7*
G04 #@! TO.N,Net-(J3-Pad7)*
X34635000Y79770000D03*
G04 #@! TO.P,J3,8*
G04 #@! TO.N,Net-(J3-Pad8)*
X33365000Y79770000D03*
G04 #@! TO.P,J3,9*
G04 #@! TO.N,GND*
X34635000Y81040000D03*
G04 #@! TO.P,J3,10*
G04 #@! TO.N,nRESET*
X33365000Y81040000D03*
G04 #@! TD*
D11*
G04 #@! TO.P,J2,1*
G04 #@! TO.N,GND*
X22580000Y3500000D03*
G04 #@! TO.P,J2,2*
G04 #@! TO.N,24V*
X20040000Y3500000D03*
G04 #@! TO.P,J2,3*
G04 #@! TO.N,12V*
X17500000Y3500000D03*
G04 #@! TO.P,J2,4*
G04 #@! TO.N,5V*
X14960000Y3500000D03*
G04 #@! TO.P,J2,5*
G04 #@! TO.N,3V3*
X12420000Y3500000D03*
G04 #@! TD*
G04 #@! TO.P,J5,5*
G04 #@! TO.N,GND*
X28920000Y3500000D03*
G04 #@! TO.P,J5,4*
G04 #@! TO.N,5V*
X31460000Y3500000D03*
G04 #@! TO.P,J5,3*
G04 #@! TO.N,Index*
X34000000Y3500000D03*
G04 #@! TO.P,J5,2*
G04 #@! TO.N,ChannelB*
X36540000Y3500000D03*
G04 #@! TO.P,J5,1*
G04 #@! TO.N,ChannelA*
X39080000Y3500000D03*
G04 #@! TD*
G04 #@! TO.P,J6,1*
G04 #@! TO.N,GND*
X71080000Y3500000D03*
G04 #@! TO.P,J6,2*
G04 #@! TO.N,5V*
X68540000Y3500000D03*
G04 #@! TO.P,J6,3*
G04 #@! TO.N,HallU*
X66000000Y3500000D03*
G04 #@! TO.P,J6,4*
G04 #@! TO.N,HallV*
X63460000Y3500000D03*
G04 #@! TO.P,J6,5*
G04 #@! TO.N,HallW*
X60920000Y3500000D03*
G04 #@! TD*
G04 #@! TO.P,J4,1*
G04 #@! TO.N,SS*
X53810000Y3500000D03*
G04 #@! TO.P,J4,2*
G04 #@! TO.N,MISO*
X51270000Y3500000D03*
G04 #@! TO.P,J4,3*
G04 #@! TO.N,SCLK*
X48730000Y3500000D03*
G04 #@! TO.P,J4,4*
G04 #@! TO.N,MOSI*
X46190000Y3500000D03*
G04 #@! TD*
D12*
G04 #@! TO.P,J1,1*
G04 #@! TO.N,PhaseWOutput*
X82000000Y4500000D03*
G04 #@! TO.P,J1,2*
G04 #@! TO.N,PhaseVOutput*
X87000000Y4500000D03*
G04 #@! TO.P,J1,3*
G04 #@! TO.N,PhaseUOutput*
X92000000Y4500000D03*
G04 #@! TD*
D13*
G04 #@! TO.P,C8,1*
G04 #@! TO.N,24V*
X85800000Y81000000D03*
G04 #@! TO.P,C8,2*
G04 #@! TO.N,GND*
X68200000Y81000000D03*
G04 #@! TD*
G04 #@! TO.P,C24,2*
G04 #@! TO.N,GND*
X68200000Y33000000D03*
G04 #@! TO.P,C24,1*
G04 #@! TO.N,24V*
X85800000Y33000000D03*
G04 #@! TD*
G04 #@! TO.P,C25,1*
G04 #@! TO.N,24V*
X85800000Y51000000D03*
G04 #@! TO.P,C25,2*
G04 #@! TO.N,GND*
X68200000Y51000000D03*
G04 #@! TD*
D14*
G04 #@! TO.N,GND*
X65000000Y64500000D03*
X49000000Y51500000D03*
X48000000Y51500000D03*
X49000000Y77500000D03*
X48000000Y77500000D03*
X65000000Y38500000D03*
X49000000Y25500000D03*
X48000000Y25500000D03*
X12000000Y61500000D03*
X8000000Y56500000D03*
X48000000Y63500000D03*
X46000000Y34500000D03*
X17000000Y78500000D03*
X45012660Y85487340D03*
X23600000Y69100000D03*
X26400000Y67700000D03*
X48550000Y38299996D03*
X6500000Y66000000D03*
X33100000Y17800000D03*
X20900000Y16700000D03*
X32500000Y57500000D03*
X44500000Y57850000D03*
X22900000Y26850000D03*
X17750000Y44900000D03*
G04 #@! TO.N,3V3*
X29600000Y70100000D03*
X11400000Y52150000D03*
X12700000Y25400000D03*
X13500000Y23500000D03*
X12000000Y49200000D03*
G04 #@! TO.N,24V*
X19650000Y10250000D03*
X86000000Y36500000D03*
X86000000Y62500000D03*
X86000000Y88500000D03*
G04 #@! TO.N,5V*
X43000000Y41500000D03*
X30300000Y9299998D03*
X49550000Y41500000D03*
X68400000Y8700000D03*
X14400000Y25500000D03*
X16200000Y14300000D03*
X14960000Y8150000D03*
G04 #@! TO.N,PhaseWOutput*
X85500000Y16000000D03*
X84000000Y16000000D03*
G04 #@! TO.N,PhaseVOutput*
X87500000Y42000000D03*
X88500000Y41000000D03*
G04 #@! TO.N,PhaseUOutput*
X87000000Y68500000D03*
X88000000Y67500000D03*
G04 #@! TO.N,12V*
X16500000Y25700000D03*
G04 #@! TO.N,PhaseULower*
X50000000Y84400000D03*
X31000000Y44550000D03*
G04 #@! TO.N,PhaseUUpper*
X52700000Y88850000D03*
X35650000Y51586410D03*
G04 #@! TO.N,PhaseWUpper*
X43000000Y44700000D03*
X48599996Y42899996D03*
G04 #@! TO.N,PhaseWLower*
X42600000Y43500002D03*
X47000000Y42900000D03*
G04 #@! TO.N,PhaseVUpper*
X44600000Y62450000D03*
X39225000Y62175000D03*
G04 #@! TO.N,PhaseVLower*
X44450000Y61050000D03*
X38700000Y60750000D03*
G04 #@! TO.N,SWDIO*
X33000006Y70899994D03*
G04 #@! TO.N,SWDCLK*
X29731175Y74993505D03*
G04 #@! TO.N,SWO*
X29999996Y78500000D03*
G04 #@! TO.N,nRESET*
X30750000Y81000000D03*
G04 #@! TO.N,ChannelB*
X32200000Y12600000D03*
G04 #@! TO.N,ChannelA*
X33700000Y12600000D03*
G04 #@! TO.N,Index*
X30799996Y12699996D03*
G04 #@! TO.N,HallU*
X60700000Y12500000D03*
G04 #@! TO.N,HallV*
X59100000Y12400000D03*
G04 #@! TO.N,HallW*
X57400000Y12400000D03*
G04 #@! TO.N,SS*
X45200000Y14900000D03*
X25900000Y38700000D03*
X25000000Y45600000D03*
G04 #@! TO.N,MOSI*
X40100000Y14600000D03*
X20800000Y38600000D03*
X14200000Y46300000D03*
G04 #@! TO.N,MISO*
X43500000Y14800000D03*
X27000000Y37900000D03*
X27400000Y45700000D03*
G04 #@! TO.N,SCLK*
X41800000Y14900000D03*
X21900000Y38600000D03*
X21700000Y42900000D03*
G04 #@! TO.N,3V3Ref*
X10000000Y60900000D03*
X12500000Y58000000D03*
G04 #@! TO.N,IndexShift*
X19500000Y42900000D03*
X19500000Y38300000D03*
G04 #@! TO.N,ChannelBShift*
X28950000Y35750000D03*
X33600000Y59675000D03*
G04 #@! TO.N,ChannelAShift*
X30150000Y35750000D03*
X33800000Y60900000D03*
G04 #@! TD*
D15*
G04 #@! TO.N,GND*
X34635000Y78500000D02*
X36000000Y78500000D01*
X34635000Y77230000D02*
X35730000Y77230000D01*
X34635000Y81040000D02*
X35460000Y81040000D01*
D16*
X22580000Y3500000D02*
X22580000Y6580000D01*
X22580000Y3500000D02*
X24500000Y3500000D01*
X22580000Y3500000D02*
X22580000Y1580000D01*
D17*
G04 #@! TO.N,3V3*
X34200000Y70100000D02*
X29600000Y70100000D01*
X34635000Y70535000D02*
X34200000Y70100000D01*
X34635000Y75960000D02*
X34635000Y70535000D01*
D18*
X12700000Y24834315D02*
X12700000Y25400000D01*
X12400000Y24534315D02*
X12700000Y24834315D01*
X12420000Y5000000D02*
X12400000Y5020000D01*
X12400000Y24000000D02*
X12400000Y24534315D01*
D19*
X12400000Y24000000D02*
X13000000Y24000000D01*
X13000000Y24000000D02*
X13500000Y23500000D01*
D18*
X12400000Y5020000D02*
X12400000Y24000000D01*
D15*
X11400000Y49800000D02*
X12000000Y49200000D01*
X11400000Y52150000D02*
X11400000Y49800000D01*
D18*
G04 #@! TO.N,24V*
X19650000Y5390000D02*
X19650000Y10250000D01*
X20040000Y5000000D02*
X19650000Y5390000D01*
X86000000Y33200000D02*
X85800000Y33000000D01*
X86000000Y36500000D02*
X86000000Y33200000D01*
X86000000Y51200000D02*
X85800000Y51000000D01*
X86000000Y62500000D02*
X86000000Y51200000D01*
X86000000Y81200000D02*
X85800000Y81000000D01*
X86000000Y88500000D02*
X86000000Y81200000D01*
G04 #@! TO.N,5V*
X43000000Y41500000D02*
X49550000Y41500000D01*
X31460000Y8139998D02*
X30300000Y9299998D01*
X31460000Y3500000D02*
X31460000Y8139998D01*
X68540000Y8560000D02*
X68400000Y8700000D01*
X68540000Y3500000D02*
X68540000Y8560000D01*
X14960000Y24940000D02*
X14400000Y25500000D01*
D19*
X16100000Y14200000D02*
X16200000Y14300000D01*
X14960000Y14200000D02*
X16100000Y14200000D01*
D18*
X14960000Y14200000D02*
X14960000Y24940000D01*
X14960000Y5000000D02*
X14960000Y8150000D01*
X14960000Y8150000D02*
X14960000Y14200000D01*
D16*
G04 #@! TO.N,PhaseWOutput*
X85500000Y16000000D02*
X84000000Y16000000D01*
X82000000Y14000000D02*
X82000000Y4500000D01*
X84000000Y16000000D02*
X82000000Y14000000D01*
G04 #@! TO.N,PhaseVOutput*
X87000000Y13500000D02*
X87000000Y4500000D01*
X92000000Y18500000D02*
X87000000Y13500000D01*
X92000000Y37500000D02*
X92000000Y18500000D01*
X87500000Y42000000D02*
X92000000Y37500000D01*
G04 #@! TO.N,PhaseUOutput*
X91000000Y64500000D02*
X87000000Y68500000D01*
X95000000Y60500000D02*
X91000000Y64500000D01*
X95000000Y7500000D02*
X95000000Y60500000D01*
X92000000Y4500000D02*
X95000000Y7500000D01*
D18*
G04 #@! TO.N,12V*
X17500000Y24700000D02*
X16500000Y25700000D01*
X17500000Y5000000D02*
X17500000Y24700000D01*
D17*
G04 #@! TO.N,PhaseULower*
X31000000Y44550000D02*
X37650011Y51200011D01*
X37650011Y51200011D02*
X37650011Y78100011D01*
X43250011Y83700011D02*
X43250011Y86200011D01*
X50000000Y84965685D02*
X50000000Y84400000D01*
X43250011Y86200011D02*
X45250000Y88200000D01*
X45250000Y88200000D02*
X46765685Y88200000D01*
X46765685Y88200000D02*
X50000000Y84965685D01*
X37650011Y78100011D02*
X43250011Y83700011D01*
G04 #@! TO.N,PhaseUUpper*
X37200000Y53136410D02*
X35650000Y51586410D01*
X37200000Y78286411D02*
X37200000Y53136410D01*
X42800000Y86386411D02*
X42800000Y83886411D01*
X52700000Y88850000D02*
X45263589Y88850000D01*
X42800000Y83886411D02*
X37200000Y78286411D01*
X45263589Y88850000D02*
X42800000Y86386411D01*
D15*
G04 #@! TO.N,PhaseWUpper*
X46799992Y44700000D02*
X43000000Y44700000D01*
X48599996Y42899996D02*
X46799992Y44700000D01*
G04 #@! TO.N,PhaseWLower*
X47000000Y42900000D02*
X43200002Y42900000D01*
X43200002Y42900000D02*
X42600000Y43500002D01*
G04 #@! TO.N,PhaseVUpper*
X39500000Y62450000D02*
X39225000Y62175000D01*
X44600000Y62450000D02*
X39500000Y62450000D01*
G04 #@! TO.N,PhaseVLower*
X39000000Y61050000D02*
X38700000Y60750000D01*
X44450000Y61050000D02*
X39000000Y61050000D01*
D17*
G04 #@! TO.N,SWDIO*
X33000006Y75595006D02*
X33000006Y70899994D01*
X33365000Y75960000D02*
X33000006Y75595006D01*
G04 #@! TO.N,SWDCLK*
X31967670Y77230000D02*
X29731175Y74993505D01*
X33365000Y77230000D02*
X31967670Y77230000D01*
G04 #@! TO.N,SWO*
X33365000Y78500000D02*
X29999996Y78500000D01*
G04 #@! TO.N,nRESET*
X30790000Y81040000D02*
X30750000Y81000000D01*
X33365000Y81040000D02*
X30790000Y81040000D01*
D19*
G04 #@! TO.N,ChannelB*
X36540000Y8260000D02*
X32200000Y12600000D01*
X36540000Y3500000D02*
X36540000Y8260000D01*
G04 #@! TO.N,ChannelA*
X39080000Y7220000D02*
X33700000Y12600000D01*
X39080000Y3500000D02*
X39080000Y7220000D01*
G04 #@! TO.N,Index*
X34000000Y9499992D02*
X30799996Y12699996D01*
X34000000Y3500000D02*
X34000000Y9499992D01*
G04 #@! TO.N,HallU*
X66000000Y7200000D02*
X60700000Y12500000D01*
X66000000Y3500000D02*
X66000000Y7200000D01*
G04 #@! TO.N,HallV*
X63460000Y8040000D02*
X59100000Y12400000D01*
X63460000Y3500000D02*
X63460000Y8040000D01*
G04 #@! TO.N,HallW*
X60920000Y8880000D02*
X57400000Y12400000D01*
X60920000Y3500000D02*
X60920000Y8880000D01*
D17*
G04 #@! TO.N,SS*
X25900000Y44700000D02*
X25000000Y45600000D01*
X25900000Y38700000D02*
X25900000Y44700000D01*
X53810000Y6290000D02*
X45200000Y14900000D01*
X53810000Y3500000D02*
X53810000Y6290000D01*
D19*
G04 #@! TO.N,MOSI*
X46190000Y8510000D02*
X40100000Y14600000D01*
X46190000Y3500000D02*
X46190000Y8510000D01*
X20800000Y44800000D02*
X19300000Y46300000D01*
X19300000Y46300000D02*
X14200000Y46300000D01*
X20800000Y38600000D02*
X20800000Y44800000D01*
D17*
G04 #@! TO.N,MISO*
X51270000Y7030000D02*
X43500000Y14800000D01*
X51270000Y3500000D02*
X51270000Y7030000D01*
X27399999Y38299999D02*
X27000000Y37900000D01*
X27400000Y45700000D02*
X27399999Y38299999D01*
G04 #@! TO.N,SCLK*
X48730000Y7970000D02*
X41800000Y14900000D01*
X48730000Y3500000D02*
X48730000Y7970000D01*
X21900000Y42700000D02*
X21700000Y42900000D01*
X21900000Y38600000D02*
X21900000Y42700000D01*
G04 #@! TO.N,3V3Ref*
X10000000Y60900000D02*
X12500000Y58400000D01*
X12500000Y58400000D02*
X12500000Y58000000D01*
D19*
G04 #@! TO.N,IndexShift*
X19500000Y42900000D02*
X19500000Y38300000D01*
G04 #@! TO.N,ChannelBShift*
X28950000Y45650000D02*
X28950000Y35750000D01*
X29000000Y45700000D02*
X28950000Y45650000D01*
D17*
X34075000Y50775000D02*
X34075000Y59200000D01*
X34075000Y59200000D02*
X33600000Y59675000D01*
X29000000Y45700000D02*
X34075000Y50775000D01*
D19*
G04 #@! TO.N,ChannelAShift*
X30150000Y45550000D02*
X34800000Y50200000D01*
X34800000Y59900000D02*
X33800000Y60900000D01*
X34800000Y50200000D02*
X34800000Y59900000D01*
X30150000Y35750000D02*
X30150000Y45550000D01*
G04 #@! TD*
D20*
G04 #@! TO.N,GND*
G36*
X98765000Y735000D02*
X735000Y735000D01*
X735000Y4161031D01*
X10785000Y4161031D01*
X10785000Y2838970D01*
X10879864Y2362056D01*
X11241231Y1821231D01*
X11782055Y1459864D01*
X12420000Y1332969D01*
X13057944Y1459864D01*
X13598769Y1821231D01*
X13690000Y1957768D01*
X13781231Y1821231D01*
X14322055Y1459864D01*
X14960000Y1332969D01*
X15597944Y1459864D01*
X16138769Y1821231D01*
X16230000Y1957768D01*
X16321231Y1821231D01*
X16862055Y1459864D01*
X17500000Y1332969D01*
X18137944Y1459864D01*
X18678769Y1821231D01*
X18770000Y1957768D01*
X18861231Y1821231D01*
X19402055Y1459864D01*
X20040000Y1332969D01*
X20677944Y1459864D01*
X21218769Y1821231D01*
X21329952Y1987629D01*
X21513683Y1754078D01*
X22071645Y1440856D01*
X22199566Y1409876D01*
X22453000Y1529223D01*
X22453000Y3373000D01*
X22707000Y3373000D01*
X22707000Y1529223D01*
X22960434Y1409876D01*
X23088355Y1440856D01*
X23646317Y1754078D01*
X24041942Y2256980D01*
X24215000Y2873000D01*
X24215000Y3373000D01*
X27285000Y3373000D01*
X27285000Y2873000D01*
X27458058Y2256980D01*
X27853683Y1754078D01*
X28411645Y1440856D01*
X28539566Y1409876D01*
X28793000Y1529223D01*
X28793000Y3373000D01*
X27285000Y3373000D01*
X24215000Y3373000D01*
X22707000Y3373000D01*
X22453000Y3373000D01*
X22433000Y3373000D01*
X22433000Y3627000D01*
X22453000Y3627000D01*
X22453000Y5470777D01*
X22707000Y5470777D01*
X22707000Y3627000D01*
X24215000Y3627000D01*
X24215000Y4127000D01*
X27285000Y4127000D01*
X27285000Y3627000D01*
X28793000Y3627000D01*
X28793000Y5470777D01*
X29047000Y5470777D01*
X29047000Y3627000D01*
X29067000Y3627000D01*
X29067000Y3373000D01*
X29047000Y3373000D01*
X29047000Y1529223D01*
X29300434Y1409876D01*
X29428355Y1440856D01*
X29986317Y1754078D01*
X30170048Y1987629D01*
X30281231Y1821231D01*
X30822055Y1459864D01*
X31460000Y1332969D01*
X32097944Y1459864D01*
X32638769Y1821231D01*
X32730000Y1957768D01*
X32821231Y1821231D01*
X33362055Y1459864D01*
X34000000Y1332969D01*
X34637944Y1459864D01*
X35178769Y1821231D01*
X35270000Y1957768D01*
X35361231Y1821231D01*
X35902055Y1459864D01*
X36540000Y1332969D01*
X37177944Y1459864D01*
X37718769Y1821231D01*
X37810000Y1957768D01*
X37901231Y1821231D01*
X38442055Y1459864D01*
X39080000Y1332969D01*
X39717944Y1459864D01*
X40258769Y1821231D01*
X40620136Y2362055D01*
X40715000Y2838969D01*
X40715000Y4161031D01*
X40620136Y4637945D01*
X40258769Y5178769D01*
X39865000Y5441877D01*
X39865000Y7142688D01*
X39880378Y7220000D01*
X39865000Y7297312D01*
X39865000Y7297316D01*
X39819454Y7526292D01*
X39721117Y7673463D01*
X39689749Y7720409D01*
X39689747Y7720411D01*
X39645953Y7785953D01*
X39580411Y7829747D01*
X34735000Y12675157D01*
X34735000Y12805874D01*
X34577431Y13186280D01*
X34286280Y13477431D01*
X33905874Y13635000D01*
X33494126Y13635000D01*
X33113720Y13477431D01*
X32950000Y13313711D01*
X32786280Y13477431D01*
X32405874Y13635000D01*
X31994126Y13635000D01*
X31613720Y13477431D01*
X31549996Y13413707D01*
X31386276Y13577427D01*
X31005870Y13734996D01*
X30594122Y13734996D01*
X30213716Y13577427D01*
X29922565Y13286276D01*
X29764996Y12905870D01*
X29764996Y12494122D01*
X29922565Y12113716D01*
X30213716Y11822565D01*
X30594122Y11664996D01*
X30724839Y11664996D01*
X33215001Y9174833D01*
X33215000Y5441877D01*
X32821232Y5178769D01*
X32730000Y5042232D01*
X32638769Y5178769D01*
X32595000Y5208015D01*
X32595000Y8028215D01*
X32617235Y8139998D01*
X32529146Y8582853D01*
X32469725Y8671783D01*
X32278289Y8958287D01*
X32183521Y9021609D01*
X31023523Y10181606D01*
X30742854Y10369144D01*
X30300000Y10457233D01*
X29857146Y10369144D01*
X29481712Y10118286D01*
X29230854Y9742852D01*
X29142765Y9299998D01*
X29230854Y8857144D01*
X29418392Y8576475D01*
X30325001Y7669865D01*
X30325000Y5208014D01*
X30281232Y5178769D01*
X30170048Y5012371D01*
X29986317Y5245922D01*
X29428355Y5559144D01*
X29300434Y5590124D01*
X29047000Y5470777D01*
X28793000Y5470777D01*
X28539566Y5590124D01*
X28411645Y5559144D01*
X27853683Y5245922D01*
X27458058Y4743020D01*
X27285000Y4127000D01*
X24215000Y4127000D01*
X24041942Y4743020D01*
X23646317Y5245922D01*
X23088355Y5559144D01*
X22960434Y5590124D01*
X22707000Y5470777D01*
X22453000Y5470777D01*
X22199566Y5590124D01*
X22071645Y5559144D01*
X21513683Y5245922D01*
X21329952Y5012371D01*
X21218769Y5178769D01*
X21152924Y5222765D01*
X21109145Y5442854D01*
X20921608Y5723523D01*
X20785000Y5860131D01*
X20785000Y10361783D01*
X20719146Y10692855D01*
X20468289Y11068289D01*
X20092855Y11319146D01*
X19650000Y11407235D01*
X19207146Y11319146D01*
X18831712Y11068289D01*
X18635000Y10773889D01*
X18635000Y14805874D01*
X39065000Y14805874D01*
X39065000Y14394126D01*
X39222569Y14013720D01*
X39513720Y13722569D01*
X39894126Y13565000D01*
X40024843Y13565000D01*
X45405001Y8184842D01*
X45405000Y5441877D01*
X45011232Y5178769D01*
X44649864Y4637945D01*
X44555000Y4161031D01*
X44555000Y2838970D01*
X44649864Y2362056D01*
X45011231Y1821231D01*
X45552055Y1459864D01*
X46190000Y1332969D01*
X46827944Y1459864D01*
X47368769Y1821231D01*
X47460000Y1957768D01*
X47551231Y1821231D01*
X48092055Y1459864D01*
X48730000Y1332969D01*
X49367944Y1459864D01*
X49908769Y1821231D01*
X50000000Y1957768D01*
X50091231Y1821231D01*
X50632055Y1459864D01*
X51270000Y1332969D01*
X51907944Y1459864D01*
X52448769Y1821231D01*
X52540000Y1957768D01*
X52631231Y1821231D01*
X53172055Y1459864D01*
X53810000Y1332969D01*
X54447944Y1459864D01*
X54988769Y1821231D01*
X55350136Y2362055D01*
X55445000Y2838969D01*
X55445000Y4161031D01*
X55350136Y4637945D01*
X54988769Y5178769D01*
X54570000Y5458581D01*
X54570000Y6215152D01*
X54584888Y6290000D01*
X54570000Y6364848D01*
X54570000Y6364852D01*
X54525904Y6586537D01*
X54525904Y6586538D01*
X54400329Y6774473D01*
X54357929Y6837929D01*
X54294473Y6880329D01*
X48568928Y12605874D01*
X56365000Y12605874D01*
X56365000Y12194126D01*
X56522569Y11813720D01*
X56813720Y11522569D01*
X57194126Y11365000D01*
X57324843Y11365000D01*
X60135001Y8554842D01*
X60135000Y5441877D01*
X59741232Y5178769D01*
X59379864Y4637945D01*
X59285000Y4161031D01*
X59285000Y2838970D01*
X59379864Y2362056D01*
X59741231Y1821231D01*
X60282055Y1459864D01*
X60920000Y1332969D01*
X61557944Y1459864D01*
X62098769Y1821231D01*
X62190000Y1957768D01*
X62281231Y1821231D01*
X62822055Y1459864D01*
X63460000Y1332969D01*
X64097944Y1459864D01*
X64638769Y1821231D01*
X64730000Y1957768D01*
X64821231Y1821231D01*
X65362055Y1459864D01*
X66000000Y1332969D01*
X66637944Y1459864D01*
X67178769Y1821231D01*
X67270000Y1957768D01*
X67361231Y1821231D01*
X67902055Y1459864D01*
X68540000Y1332969D01*
X69177944Y1459864D01*
X69718769Y1821231D01*
X69829952Y1987629D01*
X70013683Y1754078D01*
X70571645Y1440856D01*
X70699566Y1409876D01*
X70953000Y1529223D01*
X70953000Y3373000D01*
X71207000Y3373000D01*
X71207000Y1529223D01*
X71460434Y1409876D01*
X71588355Y1440856D01*
X72146317Y1754078D01*
X72541942Y2256980D01*
X72715000Y2873000D01*
X72715000Y3373000D01*
X71207000Y3373000D01*
X70953000Y3373000D01*
X70933000Y3373000D01*
X70933000Y3627000D01*
X70953000Y3627000D01*
X70953000Y5470777D01*
X71207000Y5470777D01*
X71207000Y3627000D01*
X72715000Y3627000D01*
X72715000Y4127000D01*
X72541942Y4743020D01*
X72174357Y5210279D01*
X79865000Y5210279D01*
X79865000Y3789722D01*
X79988874Y3166965D01*
X80460751Y2460751D01*
X81166964Y1988874D01*
X82000000Y1823173D01*
X82833035Y1988874D01*
X83539249Y2460751D01*
X84011126Y3166964D01*
X84135000Y3789721D01*
X84135000Y5210278D01*
X84135000Y5210279D01*
X84865000Y5210279D01*
X84865000Y3789722D01*
X84988874Y3166965D01*
X85460751Y2460751D01*
X86166964Y1988874D01*
X87000000Y1823173D01*
X87833035Y1988874D01*
X88539249Y2460751D01*
X89011126Y3166964D01*
X89135000Y3789721D01*
X89135000Y5210278D01*
X89011126Y5833035D01*
X88539249Y6539249D01*
X88385000Y6642315D01*
X88385000Y12926315D01*
X92882888Y17424202D01*
X92998529Y17501471D01*
X93304641Y17959600D01*
X93385000Y18363593D01*
X93412133Y18500000D01*
X93385000Y18636407D01*
X93385000Y37363595D01*
X93412133Y37500001D01*
X93380857Y37657235D01*
X93304641Y38040400D01*
X93181196Y38225148D01*
X93075797Y38382889D01*
X93075795Y38382891D01*
X92998528Y38498529D01*
X92882890Y38575796D01*
X88382888Y43075797D01*
X88040399Y43304641D01*
X87500000Y43412133D01*
X86959601Y43304641D01*
X86501472Y42998528D01*
X86195359Y42540399D01*
X86087867Y42000000D01*
X86195359Y41459601D01*
X86424203Y41117112D01*
X90615000Y36926314D01*
X90615001Y19073687D01*
X86117112Y14575797D01*
X86001471Y14498528D01*
X85731258Y14094126D01*
X85695359Y14040399D01*
X85587867Y13500000D01*
X85615000Y13363593D01*
X85615001Y6642315D01*
X85460752Y6539249D01*
X84988874Y5833036D01*
X84865000Y5210279D01*
X84135000Y5210279D01*
X84011126Y5833035D01*
X83539249Y6539249D01*
X83385000Y6642315D01*
X83385000Y13426315D01*
X84573686Y14615000D01*
X85636407Y14615000D01*
X86040400Y14695359D01*
X86498529Y15001471D01*
X86804641Y15459600D01*
X86912133Y16000000D01*
X86804641Y16540400D01*
X86498529Y16998529D01*
X86040400Y17304641D01*
X85636407Y17385000D01*
X84136405Y17385000D01*
X83999999Y17412133D01*
X83863593Y17385000D01*
X83459600Y17304641D01*
X83001471Y16998529D01*
X82924202Y16882888D01*
X81117112Y15075797D01*
X81001471Y14998528D01*
X80924203Y14882888D01*
X80695359Y14540399D01*
X80587867Y14000000D01*
X80615000Y13863593D01*
X80615001Y6642315D01*
X80460752Y6539249D01*
X79988874Y5833036D01*
X79865000Y5210279D01*
X72174357Y5210279D01*
X72146317Y5245922D01*
X71588355Y5559144D01*
X71460434Y5590124D01*
X71207000Y5470777D01*
X70953000Y5470777D01*
X70699566Y5590124D01*
X70571645Y5559144D01*
X70013683Y5245922D01*
X69829952Y5012371D01*
X69718769Y5178769D01*
X69675000Y5208015D01*
X69675000Y8448217D01*
X69697235Y8560000D01*
X69648573Y8804641D01*
X69609146Y9002855D01*
X69358289Y9378289D01*
X69263518Y9441613D01*
X69123523Y9581608D01*
X68842854Y9769146D01*
X68400000Y9857235D01*
X67957146Y9769146D01*
X67581712Y9518288D01*
X67330854Y9142854D01*
X67242765Y8700000D01*
X67330854Y8257146D01*
X67405001Y8146178D01*
X67405000Y5208014D01*
X67361232Y5178769D01*
X67270000Y5042232D01*
X67178769Y5178769D01*
X66785000Y5441877D01*
X66785000Y7122688D01*
X66800378Y7200000D01*
X66785000Y7277312D01*
X66785000Y7277316D01*
X66739454Y7506292D01*
X66701082Y7563720D01*
X66609749Y7700409D01*
X66609747Y7700411D01*
X66565953Y7765953D01*
X66500411Y7809747D01*
X61735000Y12575157D01*
X61735000Y12705874D01*
X61577431Y13086280D01*
X61286280Y13377431D01*
X60905874Y13535000D01*
X60494126Y13535000D01*
X60113720Y13377431D01*
X59850000Y13113711D01*
X59686280Y13277431D01*
X59305874Y13435000D01*
X58894126Y13435000D01*
X58513720Y13277431D01*
X58250000Y13013711D01*
X57986280Y13277431D01*
X57605874Y13435000D01*
X57194126Y13435000D01*
X56813720Y13277431D01*
X56522569Y12986280D01*
X56365000Y12605874D01*
X48568928Y12605874D01*
X46235000Y14939801D01*
X46235000Y15105874D01*
X46077431Y15486280D01*
X45786280Y15777431D01*
X45405874Y15935000D01*
X44994126Y15935000D01*
X44613720Y15777431D01*
X44322569Y15486280D01*
X44309348Y15454363D01*
X44086280Y15677431D01*
X43705874Y15835000D01*
X43294126Y15835000D01*
X42913720Y15677431D01*
X42690652Y15454363D01*
X42677431Y15486280D01*
X42386280Y15777431D01*
X42005874Y15935000D01*
X41594126Y15935000D01*
X41213720Y15777431D01*
X40922569Y15486280D01*
X40850770Y15312941D01*
X40686280Y15477431D01*
X40305874Y15635000D01*
X39894126Y15635000D01*
X39513720Y15477431D01*
X39222569Y15186280D01*
X39065000Y14805874D01*
X18635000Y14805874D01*
X18635000Y17444569D01*
X66265000Y17444569D01*
X66265000Y16555431D01*
X66605259Y15733974D01*
X67233974Y15105259D01*
X68055431Y14765000D01*
X68944569Y14765000D01*
X69766026Y15105259D01*
X70394741Y15733974D01*
X70735000Y16555431D01*
X70735000Y17444569D01*
X70394741Y18266026D01*
X69766026Y18894741D01*
X68944569Y19235000D01*
X68055431Y19235000D01*
X67233974Y18894741D01*
X66605259Y18266026D01*
X66265000Y17444569D01*
X18635000Y17444569D01*
X18635000Y24588217D01*
X18657235Y24700000D01*
X18569146Y25142855D01*
X18381609Y25423524D01*
X18318289Y25518289D01*
X18223523Y25581609D01*
X17223523Y26581608D01*
X16942854Y26769146D01*
X16500000Y26857235D01*
X16057146Y26769146D01*
X15681712Y26518288D01*
X15430854Y26142854D01*
X15419476Y26085655D01*
X15123523Y26381608D01*
X14842854Y26569146D01*
X14400000Y26657235D01*
X13957146Y26569146D01*
X13581712Y26318288D01*
X13515942Y26219857D01*
X13142855Y26469146D01*
X12700000Y26557235D01*
X12257146Y26469146D01*
X11881712Y26218289D01*
X11630854Y25842855D01*
X11565000Y25511783D01*
X11565000Y25327593D01*
X11330854Y24977170D01*
X11318233Y24913720D01*
X11242765Y24534315D01*
X11265000Y24422532D01*
X11265000Y23888218D01*
X11265001Y23888213D01*
X11265000Y5194650D01*
X11241232Y5178769D01*
X10879864Y4637945D01*
X10785000Y4161031D01*
X735000Y4161031D01*
X735000Y17944569D01*
X2765000Y17944569D01*
X2765000Y17055431D01*
X3105259Y16233974D01*
X3733974Y15605259D01*
X4555431Y15265000D01*
X5444569Y15265000D01*
X6266026Y15605259D01*
X6894741Y16233974D01*
X7235000Y17055431D01*
X7235000Y17944569D01*
X6894741Y18766026D01*
X6266026Y19394741D01*
X5444569Y19735000D01*
X4555431Y19735000D01*
X3733974Y19394741D01*
X3105259Y18766026D01*
X2765000Y17944569D01*
X735000Y17944569D01*
X735000Y32714250D01*
X63915000Y32714250D01*
X63915000Y31873690D01*
X64011673Y31640301D01*
X64190302Y31461673D01*
X64423691Y31365000D01*
X67914250Y31365000D01*
X68073000Y31523750D01*
X68073000Y32873000D01*
X68327000Y32873000D01*
X68327000Y31523750D01*
X68485750Y31365000D01*
X71976309Y31365000D01*
X72209698Y31461673D01*
X72388327Y31640301D01*
X72485000Y31873690D01*
X72485000Y32714250D01*
X72326250Y32873000D01*
X68327000Y32873000D01*
X68073000Y32873000D01*
X64073750Y32873000D01*
X63915000Y32714250D01*
X735000Y32714250D01*
X735000Y34126310D01*
X63915000Y34126310D01*
X63915000Y33285750D01*
X64073750Y33127000D01*
X68073000Y33127000D01*
X68073000Y34476250D01*
X68327000Y34476250D01*
X68327000Y33127000D01*
X72326250Y33127000D01*
X72485000Y33285750D01*
X72485000Y34000000D01*
X81502560Y34000000D01*
X81502560Y32000000D01*
X81551843Y31752235D01*
X81692191Y31542191D01*
X81902235Y31401843D01*
X82150000Y31352560D01*
X89450000Y31352560D01*
X89697765Y31401843D01*
X89907809Y31542191D01*
X90048157Y31752235D01*
X90097440Y32000000D01*
X90097440Y34000000D01*
X90048157Y34247765D01*
X89907809Y34457809D01*
X89697765Y34598157D01*
X89450000Y34647440D01*
X87135000Y34647440D01*
X87135000Y36611783D01*
X87069146Y36942855D01*
X86818289Y37318289D01*
X86442854Y37569146D01*
X86000000Y37657235D01*
X85557145Y37569146D01*
X85181711Y37318289D01*
X84930854Y36942854D01*
X84865000Y36611782D01*
X84865001Y34647440D01*
X82150000Y34647440D01*
X81902235Y34598157D01*
X81692191Y34457809D01*
X81551843Y34247765D01*
X81502560Y34000000D01*
X72485000Y34000000D01*
X72485000Y34126310D01*
X72388327Y34359699D01*
X72209698Y34538327D01*
X71976309Y34635000D01*
X68485750Y34635000D01*
X68327000Y34476250D01*
X68073000Y34476250D01*
X67914250Y34635000D01*
X64423691Y34635000D01*
X64190302Y34538327D01*
X64011673Y34359699D01*
X63915000Y34126310D01*
X735000Y34126310D01*
X735000Y46505874D01*
X13165000Y46505874D01*
X13165000Y46094126D01*
X13322569Y45713720D01*
X13613720Y45422569D01*
X13994126Y45265000D01*
X14405874Y45265000D01*
X14786280Y45422569D01*
X14878711Y45515000D01*
X18974843Y45515000D01*
X20015001Y44474841D01*
X20015001Y43806956D01*
X19705874Y43935000D01*
X19294126Y43935000D01*
X18913720Y43777431D01*
X18622569Y43486280D01*
X18465000Y43105874D01*
X18465000Y42694126D01*
X18622569Y42313720D01*
X18715000Y42221289D01*
X18715001Y38978712D01*
X18622569Y38886280D01*
X18465000Y38505874D01*
X18465000Y38094126D01*
X18622569Y37713720D01*
X18913720Y37422569D01*
X19294126Y37265000D01*
X19705874Y37265000D01*
X20086280Y37422569D01*
X20335738Y37672027D01*
X20594126Y37565000D01*
X21005874Y37565000D01*
X21350000Y37707541D01*
X21694126Y37565000D01*
X22105874Y37565000D01*
X22486280Y37722569D01*
X22777431Y38013720D01*
X22935000Y38394126D01*
X22935000Y38805874D01*
X22777431Y39186280D01*
X22660000Y39303711D01*
X22660000Y42513060D01*
X22735000Y42694126D01*
X22735000Y43105874D01*
X22577431Y43486280D01*
X22286280Y43777431D01*
X21905874Y43935000D01*
X21585000Y43935000D01*
X21585000Y44722690D01*
X21600378Y44800001D01*
X21585000Y44877312D01*
X21585000Y44877316D01*
X21539454Y45106292D01*
X21477112Y45199593D01*
X21409749Y45300409D01*
X21409747Y45300411D01*
X21365953Y45365953D01*
X21300411Y45409747D01*
X20904284Y45805874D01*
X23965000Y45805874D01*
X23965000Y45394126D01*
X24122569Y45013720D01*
X24413720Y44722569D01*
X24794126Y44565000D01*
X24960198Y44565000D01*
X25140001Y44385197D01*
X25140000Y39403711D01*
X25022569Y39286280D01*
X24865000Y38905874D01*
X24865000Y38494126D01*
X25022569Y38113720D01*
X25313720Y37822569D01*
X25694126Y37665000D01*
X25977064Y37665000D01*
X26122569Y37313720D01*
X26413720Y37022569D01*
X26794126Y36865000D01*
X27205874Y36865000D01*
X27586280Y37022569D01*
X27877431Y37313720D01*
X28035000Y37694126D01*
X28035000Y37882383D01*
X28115902Y38003461D01*
X28165001Y38250297D01*
X28165001Y36428712D01*
X28072569Y36336280D01*
X27915000Y35955874D01*
X27915000Y35544126D01*
X28072569Y35163720D01*
X28363720Y34872569D01*
X28744126Y34715000D01*
X29155874Y34715000D01*
X29536280Y34872569D01*
X29550000Y34886289D01*
X29563720Y34872569D01*
X29944126Y34715000D01*
X30355874Y34715000D01*
X30736280Y34872569D01*
X31027431Y35163720D01*
X31185000Y35544126D01*
X31185000Y35955874D01*
X31027431Y36336280D01*
X30935000Y36428711D01*
X30935000Y43515000D01*
X31205874Y43515000D01*
X31586280Y43672569D01*
X31619587Y43705876D01*
X41565000Y43705876D01*
X41565000Y43294128D01*
X41722569Y42913722D01*
X42013720Y42622571D01*
X42394126Y42465002D01*
X42401283Y42465002D01*
X42181711Y42318289D01*
X41930854Y41942855D01*
X41842765Y41500000D01*
X41930854Y41057145D01*
X42181711Y40681711D01*
X42557145Y40430854D01*
X42888217Y40365000D01*
X49661783Y40365000D01*
X49992855Y40430854D01*
X50368289Y40681711D01*
X50619146Y41057145D01*
X50707235Y41500000D01*
X50619146Y41942855D01*
X50368289Y42318289D01*
X49992855Y42569146D01*
X49661783Y42635000D01*
X49610507Y42635000D01*
X49634996Y42694122D01*
X49634996Y43105870D01*
X49477427Y43486276D01*
X49186276Y43777427D01*
X48805870Y43934996D01*
X48745864Y43934996D01*
X47448579Y45232280D01*
X47401993Y45302001D01*
X47125793Y45486552D01*
X46882229Y45535000D01*
X46882225Y45535000D01*
X46799992Y45551357D01*
X46717759Y45535000D01*
X43628711Y45535000D01*
X43586280Y45577431D01*
X43205874Y45735000D01*
X42794126Y45735000D01*
X42413720Y45577431D01*
X42122569Y45286280D01*
X41965000Y44905874D01*
X41965000Y44494126D01*
X42013448Y44377161D01*
X41722569Y44086282D01*
X41565000Y43705876D01*
X31619587Y43705876D01*
X31877431Y43963720D01*
X32035000Y44344126D01*
X32035000Y44510199D01*
X38134484Y50609682D01*
X38197940Y50652082D01*
X38239479Y50714250D01*
X63915000Y50714250D01*
X63915000Y49873690D01*
X64011673Y49640301D01*
X64190302Y49461673D01*
X64423691Y49365000D01*
X67914250Y49365000D01*
X68073000Y49523750D01*
X68073000Y50873000D01*
X68327000Y50873000D01*
X68327000Y49523750D01*
X68485750Y49365000D01*
X71976309Y49365000D01*
X72209698Y49461673D01*
X72388327Y49640301D01*
X72485000Y49873690D01*
X72485000Y50714250D01*
X72326250Y50873000D01*
X68327000Y50873000D01*
X68073000Y50873000D01*
X64073750Y50873000D01*
X63915000Y50714250D01*
X38239479Y50714250D01*
X38274026Y50765953D01*
X38365915Y50903473D01*
X38385190Y51000378D01*
X38410011Y51125159D01*
X38410011Y51125163D01*
X38424899Y51200011D01*
X38410011Y51274859D01*
X38410011Y52126310D01*
X63915000Y52126310D01*
X63915000Y51285750D01*
X64073750Y51127000D01*
X68073000Y51127000D01*
X68073000Y52476250D01*
X68327000Y52476250D01*
X68327000Y51127000D01*
X72326250Y51127000D01*
X72485000Y51285750D01*
X72485000Y52000000D01*
X81502560Y52000000D01*
X81502560Y50000000D01*
X81551843Y49752235D01*
X81692191Y49542191D01*
X81902235Y49401843D01*
X82150000Y49352560D01*
X89450000Y49352560D01*
X89697765Y49401843D01*
X89907809Y49542191D01*
X90048157Y49752235D01*
X90097440Y50000000D01*
X90097440Y52000000D01*
X90048157Y52247765D01*
X89907809Y52457809D01*
X89697765Y52598157D01*
X89450000Y52647440D01*
X87135000Y52647440D01*
X87135000Y62611783D01*
X87069146Y62942855D01*
X86818289Y63318289D01*
X86442854Y63569146D01*
X86000000Y63657235D01*
X85557145Y63569146D01*
X85181711Y63318289D01*
X84930854Y62942854D01*
X84865000Y62611782D01*
X84865001Y52647440D01*
X82150000Y52647440D01*
X81902235Y52598157D01*
X81692191Y52457809D01*
X81551843Y52247765D01*
X81502560Y52000000D01*
X72485000Y52000000D01*
X72485000Y52126310D01*
X72388327Y52359699D01*
X72209698Y52538327D01*
X71976309Y52635000D01*
X68485750Y52635000D01*
X68327000Y52476250D01*
X68073000Y52476250D01*
X67914250Y52635000D01*
X64423691Y52635000D01*
X64190302Y52538327D01*
X64011673Y52359699D01*
X63915000Y52126310D01*
X38410011Y52126310D01*
X38410011Y59749842D01*
X38494126Y59715000D01*
X38905874Y59715000D01*
X39286280Y59872569D01*
X39577431Y60163720D01*
X39598672Y60215000D01*
X43821289Y60215000D01*
X43863720Y60172569D01*
X44244126Y60015000D01*
X44655874Y60015000D01*
X45036280Y60172569D01*
X45327431Y60463720D01*
X45485000Y60844126D01*
X45485000Y61255874D01*
X45327431Y61636280D01*
X45288711Y61675000D01*
X45477431Y61863720D01*
X45635000Y62244126D01*
X45635000Y62655874D01*
X45477431Y63036280D01*
X45186280Y63327431D01*
X44805874Y63485000D01*
X44394126Y63485000D01*
X44013720Y63327431D01*
X43971289Y63285000D01*
X39582237Y63285000D01*
X39500000Y63301358D01*
X39417763Y63285000D01*
X39174199Y63236552D01*
X39134461Y63210000D01*
X39019126Y63210000D01*
X38638720Y63052431D01*
X38410011Y62823722D01*
X38410011Y65944569D01*
X73765000Y65944569D01*
X73765000Y65055431D01*
X74105259Y64233974D01*
X74733974Y63605259D01*
X75555431Y63265000D01*
X76444569Y63265000D01*
X77266026Y63605259D01*
X77894741Y64233974D01*
X78235000Y65055431D01*
X78235000Y65944569D01*
X77894741Y66766026D01*
X77266026Y67394741D01*
X76444569Y67735000D01*
X75555431Y67735000D01*
X74733974Y67394741D01*
X74105259Y66766026D01*
X73765000Y65944569D01*
X38410011Y65944569D01*
X38410011Y68500000D01*
X85587867Y68500000D01*
X85695359Y67959601D01*
X85924203Y67617112D01*
X90117111Y63424203D01*
X90117114Y63424201D01*
X93615001Y59926313D01*
X93615000Y8073686D01*
X92598994Y7057680D01*
X92000000Y7176827D01*
X91166965Y7011126D01*
X90460752Y6539249D01*
X89988874Y5833036D01*
X89865000Y5210279D01*
X89865000Y3789722D01*
X89988874Y3166965D01*
X90460751Y2460751D01*
X91166964Y1988874D01*
X92000000Y1823173D01*
X92833035Y1988874D01*
X93539249Y2460751D01*
X94011126Y3166964D01*
X94135000Y3789721D01*
X94135000Y4676315D01*
X95882890Y6424204D01*
X95998528Y6501471D01*
X96075795Y6617109D01*
X96075797Y6617111D01*
X96304641Y6959600D01*
X96412133Y7500000D01*
X96385000Y7636407D01*
X96385000Y60363595D01*
X96412133Y60500001D01*
X96321454Y60955874D01*
X96304641Y61040400D01*
X95998529Y61498529D01*
X95882888Y61575798D01*
X92075799Y65382886D01*
X92075797Y65382889D01*
X87882888Y69575797D01*
X87540399Y69804641D01*
X87000000Y69912133D01*
X86459601Y69804641D01*
X86001472Y69498528D01*
X85695359Y69040399D01*
X85587867Y68500000D01*
X38410011Y68500000D01*
X38410011Y77785210D01*
X41339051Y80714250D01*
X63915000Y80714250D01*
X63915000Y79873690D01*
X64011673Y79640301D01*
X64190302Y79461673D01*
X64423691Y79365000D01*
X67914250Y79365000D01*
X68073000Y79523750D01*
X68073000Y80873000D01*
X68327000Y80873000D01*
X68327000Y79523750D01*
X68485750Y79365000D01*
X71976309Y79365000D01*
X72209698Y79461673D01*
X72388327Y79640301D01*
X72485000Y79873690D01*
X72485000Y80714250D01*
X72326250Y80873000D01*
X68327000Y80873000D01*
X68073000Y80873000D01*
X64073750Y80873000D01*
X63915000Y80714250D01*
X41339051Y80714250D01*
X42751111Y82126310D01*
X63915000Y82126310D01*
X63915000Y81285750D01*
X64073750Y81127000D01*
X68073000Y81127000D01*
X68073000Y82476250D01*
X68327000Y82476250D01*
X68327000Y81127000D01*
X72326250Y81127000D01*
X72485000Y81285750D01*
X72485000Y82000000D01*
X81502560Y82000000D01*
X81502560Y80000000D01*
X81551843Y79752235D01*
X81692191Y79542191D01*
X81902235Y79401843D01*
X82150000Y79352560D01*
X89450000Y79352560D01*
X89697765Y79401843D01*
X89907809Y79542191D01*
X90048157Y79752235D01*
X90097440Y80000000D01*
X90097440Y82000000D01*
X90048157Y82247765D01*
X89907809Y82457809D01*
X89697765Y82598157D01*
X89450000Y82647440D01*
X87135000Y82647440D01*
X87135000Y88611783D01*
X87069146Y88942855D01*
X86818289Y89318289D01*
X86442854Y89569146D01*
X86000000Y89657235D01*
X85557145Y89569146D01*
X85181711Y89318289D01*
X84930854Y88942854D01*
X84865000Y88611782D01*
X84865001Y82647440D01*
X82150000Y82647440D01*
X81902235Y82598157D01*
X81692191Y82457809D01*
X81551843Y82247765D01*
X81502560Y82000000D01*
X72485000Y82000000D01*
X72485000Y82126310D01*
X72388327Y82359699D01*
X72209698Y82538327D01*
X71976309Y82635000D01*
X68485750Y82635000D01*
X68327000Y82476250D01*
X68073000Y82476250D01*
X67914250Y82635000D01*
X64423691Y82635000D01*
X64190302Y82538327D01*
X64011673Y82359699D01*
X63915000Y82126310D01*
X42751111Y82126310D01*
X43734484Y83109682D01*
X43797940Y83152082D01*
X43965915Y83403474D01*
X44010011Y83625159D01*
X44010011Y83625164D01*
X44024899Y83700011D01*
X44010011Y83774858D01*
X44010011Y85885210D01*
X45564802Y87440000D01*
X46450884Y87440000D01*
X49058728Y84832155D01*
X48965000Y84605874D01*
X48965000Y84194126D01*
X49122569Y83813720D01*
X49413720Y83522569D01*
X49794126Y83365000D01*
X50205874Y83365000D01*
X50586280Y83522569D01*
X50877431Y83813720D01*
X51035000Y84194126D01*
X51035000Y84605874D01*
X50877431Y84986280D01*
X50744314Y85119397D01*
X50715904Y85262222D01*
X50547929Y85513614D01*
X50484473Y85556014D01*
X47950486Y88090000D01*
X51996289Y88090000D01*
X52113720Y87972569D01*
X52494126Y87815000D01*
X52905874Y87815000D01*
X53286280Y87972569D01*
X53577431Y88263720D01*
X53735000Y88644126D01*
X53735000Y89055874D01*
X53577431Y89436280D01*
X53286280Y89727431D01*
X52905874Y89885000D01*
X52494126Y89885000D01*
X52113720Y89727431D01*
X51996289Y89610000D01*
X45338436Y89610000D01*
X45263589Y89624888D01*
X45188742Y89610000D01*
X45188737Y89610000D01*
X44967052Y89565904D01*
X44715660Y89397929D01*
X44673260Y89334473D01*
X42315530Y86976742D01*
X42252071Y86934340D01*
X42084096Y86682947D01*
X42040000Y86461262D01*
X42040000Y86461258D01*
X42025112Y86386411D01*
X42040000Y86311564D01*
X42040001Y84201214D01*
X36715530Y78876742D01*
X36652071Y78834340D01*
X36484096Y78582947D01*
X36440000Y78361262D01*
X36440000Y78361258D01*
X36425112Y78286411D01*
X36440000Y78211564D01*
X36440001Y53451213D01*
X35610199Y52621410D01*
X35585000Y52621410D01*
X35585000Y59822688D01*
X35600378Y59900000D01*
X35585000Y59977312D01*
X35585000Y59977316D01*
X35539454Y60206292D01*
X35365953Y60465953D01*
X35300408Y60509749D01*
X34835000Y60975157D01*
X34835000Y61105874D01*
X34677431Y61486280D01*
X34386280Y61777431D01*
X34005874Y61935000D01*
X33594126Y61935000D01*
X33213720Y61777431D01*
X32922569Y61486280D01*
X32765000Y61105874D01*
X32765000Y60694126D01*
X32879350Y60418061D01*
X32722569Y60261280D01*
X32565000Y59880874D01*
X32565000Y59469126D01*
X32722569Y59088720D01*
X33013720Y58797569D01*
X33315001Y58672775D01*
X33315000Y51089802D01*
X28606143Y46380944D01*
X28499593Y46309749D01*
X28449594Y46259750D01*
X28384047Y46215953D01*
X28336214Y46144366D01*
X28277431Y46286280D01*
X27986280Y46577431D01*
X27605874Y46735000D01*
X27194126Y46735000D01*
X26813720Y46577431D01*
X26522569Y46286280D01*
X26365000Y45905874D01*
X26365000Y45494126D01*
X26498046Y45172923D01*
X26447929Y45247929D01*
X26384473Y45290329D01*
X26035000Y45639802D01*
X26035000Y45805874D01*
X25877431Y46186280D01*
X25586280Y46477431D01*
X25205874Y46635000D01*
X24794126Y46635000D01*
X24413720Y46477431D01*
X24122569Y46186280D01*
X23965000Y45805874D01*
X20904284Y45805874D01*
X19909749Y46800408D01*
X19865953Y46865953D01*
X19606292Y47039454D01*
X19377316Y47085000D01*
X19377312Y47085000D01*
X19300000Y47100378D01*
X19222688Y47085000D01*
X14878711Y47085000D01*
X14786280Y47177431D01*
X14405874Y47335000D01*
X13994126Y47335000D01*
X13613720Y47177431D01*
X13322569Y46886280D01*
X13165000Y46505874D01*
X735000Y46505874D01*
X735000Y52355874D01*
X10365000Y52355874D01*
X10365000Y51944126D01*
X10522569Y51563720D01*
X10565000Y51521289D01*
X10565001Y49882238D01*
X10548643Y49800000D01*
X10613448Y49474200D01*
X10659102Y49405874D01*
X10798000Y49197999D01*
X10867718Y49151415D01*
X10965000Y49054133D01*
X10965000Y48994126D01*
X11122569Y48613720D01*
X11413720Y48322569D01*
X11794126Y48165000D01*
X12205874Y48165000D01*
X12586280Y48322569D01*
X12877431Y48613720D01*
X13035000Y48994126D01*
X13035000Y49405874D01*
X12877431Y49786280D01*
X12586280Y50077431D01*
X12235000Y50222936D01*
X12235000Y51521289D01*
X12277431Y51563720D01*
X12435000Y51944126D01*
X12435000Y52355874D01*
X12277431Y52736280D01*
X11986280Y53027431D01*
X11605874Y53185000D01*
X11194126Y53185000D01*
X10813720Y53027431D01*
X10522569Y52736280D01*
X10365000Y52355874D01*
X735000Y52355874D01*
X735000Y61105874D01*
X8965000Y61105874D01*
X8965000Y60694126D01*
X9122569Y60313720D01*
X9413720Y60022569D01*
X9794126Y59865000D01*
X9960199Y59865000D01*
X11510200Y58314998D01*
X11465000Y58205874D01*
X11465000Y57794126D01*
X11622569Y57413720D01*
X11913720Y57122569D01*
X12294126Y56965000D01*
X12705874Y56965000D01*
X13086280Y57122569D01*
X13377431Y57413720D01*
X13535000Y57794126D01*
X13535000Y58205874D01*
X13377431Y58586280D01*
X13112663Y58851048D01*
X13047929Y58947929D01*
X12984473Y58990329D01*
X11035000Y60939801D01*
X11035000Y61105874D01*
X10877431Y61486280D01*
X10586280Y61777431D01*
X10205874Y61935000D01*
X9794126Y61935000D01*
X9413720Y61777431D01*
X9122569Y61486280D01*
X8965000Y61105874D01*
X735000Y61105874D01*
X735000Y70305874D01*
X28565000Y70305874D01*
X28565000Y69894126D01*
X28722569Y69513720D01*
X29013720Y69222569D01*
X29394126Y69065000D01*
X29805874Y69065000D01*
X30186280Y69222569D01*
X30303711Y69340000D01*
X34125153Y69340000D01*
X34200000Y69325112D01*
X34274847Y69340000D01*
X34274852Y69340000D01*
X34496537Y69384096D01*
X34747929Y69552071D01*
X34790331Y69615530D01*
X35119470Y69944669D01*
X35182929Y69987071D01*
X35350904Y70238463D01*
X35395000Y70460148D01*
X35395000Y70460153D01*
X35409888Y70535000D01*
X35395000Y70609847D01*
X35395000Y75327000D01*
X35470042Y75402042D01*
X35620000Y75764071D01*
X35620000Y76155929D01*
X35470042Y76517958D01*
X35404886Y76583114D01*
X35433190Y76611418D01*
X35315915Y76728693D01*
X35515620Y76747173D01*
X35633357Y77120925D01*
X35599103Y77511282D01*
X35515620Y77712827D01*
X35315912Y77731307D01*
X34814605Y77230000D01*
X34828748Y77215858D01*
X34649143Y77036253D01*
X34635000Y77050395D01*
X34620858Y77036253D01*
X34441253Y77215858D01*
X34455395Y77230000D01*
X34441253Y77244143D01*
X34620858Y77423748D01*
X34635000Y77409605D01*
X34746383Y77520988D01*
X34916282Y77535897D01*
X35117827Y77619380D01*
X35136307Y77819088D01*
X35090395Y77865000D01*
X35136307Y77910912D01*
X35117827Y78110620D01*
X34744075Y78228357D01*
X34728412Y78226983D01*
X34635000Y78320395D01*
X34620858Y78306253D01*
X34441253Y78485858D01*
X34455395Y78500000D01*
X34441253Y78514143D01*
X34620858Y78693748D01*
X34635000Y78679605D01*
X34649143Y78693748D01*
X34828748Y78514143D01*
X34814605Y78500000D01*
X35315912Y77998693D01*
X35515620Y78017173D01*
X35633357Y78390925D01*
X35599103Y78781282D01*
X35515620Y78982827D01*
X35315915Y79001307D01*
X35433190Y79118582D01*
X35404886Y79146886D01*
X35470042Y79212042D01*
X35620000Y79574071D01*
X35620000Y79965929D01*
X35470042Y80327958D01*
X35404886Y80393114D01*
X35433190Y80421418D01*
X35315915Y80538693D01*
X35515620Y80557173D01*
X35633357Y80930925D01*
X35599103Y81321282D01*
X35515620Y81522827D01*
X35315912Y81541307D01*
X34814605Y81040000D01*
X34828748Y81025858D01*
X34649143Y80846253D01*
X34635000Y80860395D01*
X34620858Y80846253D01*
X34441253Y81025858D01*
X34455395Y81040000D01*
X34441253Y81054143D01*
X34620858Y81233748D01*
X34635000Y81219605D01*
X35136307Y81720912D01*
X35117827Y81920620D01*
X34744075Y82038357D01*
X34353718Y82004103D01*
X34152173Y81920620D01*
X34133693Y81720915D01*
X34016418Y81838190D01*
X33988114Y81809886D01*
X33922958Y81875042D01*
X33560929Y82025000D01*
X33169071Y82025000D01*
X32807042Y81875042D01*
X32732000Y81800000D01*
X31413711Y81800000D01*
X31336280Y81877431D01*
X30955874Y82035000D01*
X30544126Y82035000D01*
X30163720Y81877431D01*
X29872569Y81586280D01*
X29715000Y81205874D01*
X29715000Y80794126D01*
X29872569Y80413720D01*
X30163720Y80122569D01*
X30544126Y79965000D01*
X30955874Y79965000D01*
X31336280Y80122569D01*
X31493711Y80280000D01*
X32510093Y80280000D01*
X32380000Y79965929D01*
X32380000Y79574071D01*
X32510093Y79260000D01*
X30703707Y79260000D01*
X30586276Y79377431D01*
X30205870Y79535000D01*
X29794122Y79535000D01*
X29413716Y79377431D01*
X29122565Y79086280D01*
X28964996Y78705874D01*
X28964996Y78294126D01*
X29122565Y77913720D01*
X29413716Y77622569D01*
X29794122Y77465000D01*
X30205870Y77465000D01*
X30586276Y77622569D01*
X30703707Y77740000D01*
X31394398Y77740000D01*
X31377341Y77714473D01*
X29691374Y76028505D01*
X29525301Y76028505D01*
X29144895Y75870936D01*
X28853744Y75579785D01*
X28696175Y75199379D01*
X28696175Y74787631D01*
X28853744Y74407225D01*
X29144895Y74116074D01*
X29525301Y73958505D01*
X29937049Y73958505D01*
X30317455Y74116074D01*
X30608606Y74407225D01*
X30766175Y74787631D01*
X30766175Y74953704D01*
X32282472Y76470000D01*
X32510093Y76470000D01*
X32380000Y76155929D01*
X32380000Y76035064D01*
X32284102Y75891542D01*
X32240006Y75669857D01*
X32240006Y75669853D01*
X32225118Y75595006D01*
X32240006Y75520159D01*
X32240007Y71603706D01*
X32122575Y71486274D01*
X31965006Y71105868D01*
X31965006Y70860000D01*
X30303711Y70860000D01*
X30186280Y70977431D01*
X29805874Y71135000D01*
X29394126Y71135000D01*
X29013720Y70977431D01*
X28722569Y70686280D01*
X28565000Y70305874D01*
X735000Y70305874D01*
X735000Y87944569D01*
X12265000Y87944569D01*
X12265000Y87055431D01*
X12605259Y86233974D01*
X13233974Y85605259D01*
X14055431Y85265000D01*
X14944569Y85265000D01*
X15766026Y85605259D01*
X16394741Y86233974D01*
X16735000Y87055431D01*
X16735000Y87944569D01*
X16394741Y88766026D01*
X15766026Y89394741D01*
X14944569Y89735000D01*
X14055431Y89735000D01*
X13233974Y89394741D01*
X12605259Y88766026D01*
X12265000Y87944569D01*
X735000Y87944569D01*
X735000Y91765000D01*
X98765001Y91765000D01*
X98765000Y735000D01*
X98765000Y735000D01*
G37*
X98765000Y735000D02*
X735000Y735000D01*
X735000Y4161031D01*
X10785000Y4161031D01*
X10785000Y2838970D01*
X10879864Y2362056D01*
X11241231Y1821231D01*
X11782055Y1459864D01*
X12420000Y1332969D01*
X13057944Y1459864D01*
X13598769Y1821231D01*
X13690000Y1957768D01*
X13781231Y1821231D01*
X14322055Y1459864D01*
X14960000Y1332969D01*
X15597944Y1459864D01*
X16138769Y1821231D01*
X16230000Y1957768D01*
X16321231Y1821231D01*
X16862055Y1459864D01*
X17500000Y1332969D01*
X18137944Y1459864D01*
X18678769Y1821231D01*
X18770000Y1957768D01*
X18861231Y1821231D01*
X19402055Y1459864D01*
X20040000Y1332969D01*
X20677944Y1459864D01*
X21218769Y1821231D01*
X21329952Y1987629D01*
X21513683Y1754078D01*
X22071645Y1440856D01*
X22199566Y1409876D01*
X22453000Y1529223D01*
X22453000Y3373000D01*
X22707000Y3373000D01*
X22707000Y1529223D01*
X22960434Y1409876D01*
X23088355Y1440856D01*
X23646317Y1754078D01*
X24041942Y2256980D01*
X24215000Y2873000D01*
X24215000Y3373000D01*
X27285000Y3373000D01*
X27285000Y2873000D01*
X27458058Y2256980D01*
X27853683Y1754078D01*
X28411645Y1440856D01*
X28539566Y1409876D01*
X28793000Y1529223D01*
X28793000Y3373000D01*
X27285000Y3373000D01*
X24215000Y3373000D01*
X22707000Y3373000D01*
X22453000Y3373000D01*
X22433000Y3373000D01*
X22433000Y3627000D01*
X22453000Y3627000D01*
X22453000Y5470777D01*
X22707000Y5470777D01*
X22707000Y3627000D01*
X24215000Y3627000D01*
X24215000Y4127000D01*
X27285000Y4127000D01*
X27285000Y3627000D01*
X28793000Y3627000D01*
X28793000Y5470777D01*
X29047000Y5470777D01*
X29047000Y3627000D01*
X29067000Y3627000D01*
X29067000Y3373000D01*
X29047000Y3373000D01*
X29047000Y1529223D01*
X29300434Y1409876D01*
X29428355Y1440856D01*
X29986317Y1754078D01*
X30170048Y1987629D01*
X30281231Y1821231D01*
X30822055Y1459864D01*
X31460000Y1332969D01*
X32097944Y1459864D01*
X32638769Y1821231D01*
X32730000Y1957768D01*
X32821231Y1821231D01*
X33362055Y1459864D01*
X34000000Y1332969D01*
X34637944Y1459864D01*
X35178769Y1821231D01*
X35270000Y1957768D01*
X35361231Y1821231D01*
X35902055Y1459864D01*
X36540000Y1332969D01*
X37177944Y1459864D01*
X37718769Y1821231D01*
X37810000Y1957768D01*
X37901231Y1821231D01*
X38442055Y1459864D01*
X39080000Y1332969D01*
X39717944Y1459864D01*
X40258769Y1821231D01*
X40620136Y2362055D01*
X40715000Y2838969D01*
X40715000Y4161031D01*
X40620136Y4637945D01*
X40258769Y5178769D01*
X39865000Y5441877D01*
X39865000Y7142688D01*
X39880378Y7220000D01*
X39865000Y7297312D01*
X39865000Y7297316D01*
X39819454Y7526292D01*
X39721117Y7673463D01*
X39689749Y7720409D01*
X39689747Y7720411D01*
X39645953Y7785953D01*
X39580411Y7829747D01*
X34735000Y12675157D01*
X34735000Y12805874D01*
X34577431Y13186280D01*
X34286280Y13477431D01*
X33905874Y13635000D01*
X33494126Y13635000D01*
X33113720Y13477431D01*
X32950000Y13313711D01*
X32786280Y13477431D01*
X32405874Y13635000D01*
X31994126Y13635000D01*
X31613720Y13477431D01*
X31549996Y13413707D01*
X31386276Y13577427D01*
X31005870Y13734996D01*
X30594122Y13734996D01*
X30213716Y13577427D01*
X29922565Y13286276D01*
X29764996Y12905870D01*
X29764996Y12494122D01*
X29922565Y12113716D01*
X30213716Y11822565D01*
X30594122Y11664996D01*
X30724839Y11664996D01*
X33215001Y9174833D01*
X33215000Y5441877D01*
X32821232Y5178769D01*
X32730000Y5042232D01*
X32638769Y5178769D01*
X32595000Y5208015D01*
X32595000Y8028215D01*
X32617235Y8139998D01*
X32529146Y8582853D01*
X32469725Y8671783D01*
X32278289Y8958287D01*
X32183521Y9021609D01*
X31023523Y10181606D01*
X30742854Y10369144D01*
X30300000Y10457233D01*
X29857146Y10369144D01*
X29481712Y10118286D01*
X29230854Y9742852D01*
X29142765Y9299998D01*
X29230854Y8857144D01*
X29418392Y8576475D01*
X30325001Y7669865D01*
X30325000Y5208014D01*
X30281232Y5178769D01*
X30170048Y5012371D01*
X29986317Y5245922D01*
X29428355Y5559144D01*
X29300434Y5590124D01*
X29047000Y5470777D01*
X28793000Y5470777D01*
X28539566Y5590124D01*
X28411645Y5559144D01*
X27853683Y5245922D01*
X27458058Y4743020D01*
X27285000Y4127000D01*
X24215000Y4127000D01*
X24041942Y4743020D01*
X23646317Y5245922D01*
X23088355Y5559144D01*
X22960434Y5590124D01*
X22707000Y5470777D01*
X22453000Y5470777D01*
X22199566Y5590124D01*
X22071645Y5559144D01*
X21513683Y5245922D01*
X21329952Y5012371D01*
X21218769Y5178769D01*
X21152924Y5222765D01*
X21109145Y5442854D01*
X20921608Y5723523D01*
X20785000Y5860131D01*
X20785000Y10361783D01*
X20719146Y10692855D01*
X20468289Y11068289D01*
X20092855Y11319146D01*
X19650000Y11407235D01*
X19207146Y11319146D01*
X18831712Y11068289D01*
X18635000Y10773889D01*
X18635000Y14805874D01*
X39065000Y14805874D01*
X39065000Y14394126D01*
X39222569Y14013720D01*
X39513720Y13722569D01*
X39894126Y13565000D01*
X40024843Y13565000D01*
X45405001Y8184842D01*
X45405000Y5441877D01*
X45011232Y5178769D01*
X44649864Y4637945D01*
X44555000Y4161031D01*
X44555000Y2838970D01*
X44649864Y2362056D01*
X45011231Y1821231D01*
X45552055Y1459864D01*
X46190000Y1332969D01*
X46827944Y1459864D01*
X47368769Y1821231D01*
X47460000Y1957768D01*
X47551231Y1821231D01*
X48092055Y1459864D01*
X48730000Y1332969D01*
X49367944Y1459864D01*
X49908769Y1821231D01*
X50000000Y1957768D01*
X50091231Y1821231D01*
X50632055Y1459864D01*
X51270000Y1332969D01*
X51907944Y1459864D01*
X52448769Y1821231D01*
X52540000Y1957768D01*
X52631231Y1821231D01*
X53172055Y1459864D01*
X53810000Y1332969D01*
X54447944Y1459864D01*
X54988769Y1821231D01*
X55350136Y2362055D01*
X55445000Y2838969D01*
X55445000Y4161031D01*
X55350136Y4637945D01*
X54988769Y5178769D01*
X54570000Y5458581D01*
X54570000Y6215152D01*
X54584888Y6290000D01*
X54570000Y6364848D01*
X54570000Y6364852D01*
X54525904Y6586537D01*
X54525904Y6586538D01*
X54400329Y6774473D01*
X54357929Y6837929D01*
X54294473Y6880329D01*
X48568928Y12605874D01*
X56365000Y12605874D01*
X56365000Y12194126D01*
X56522569Y11813720D01*
X56813720Y11522569D01*
X57194126Y11365000D01*
X57324843Y11365000D01*
X60135001Y8554842D01*
X60135000Y5441877D01*
X59741232Y5178769D01*
X59379864Y4637945D01*
X59285000Y4161031D01*
X59285000Y2838970D01*
X59379864Y2362056D01*
X59741231Y1821231D01*
X60282055Y1459864D01*
X60920000Y1332969D01*
X61557944Y1459864D01*
X62098769Y1821231D01*
X62190000Y1957768D01*
X62281231Y1821231D01*
X62822055Y1459864D01*
X63460000Y1332969D01*
X64097944Y1459864D01*
X64638769Y1821231D01*
X64730000Y1957768D01*
X64821231Y1821231D01*
X65362055Y1459864D01*
X66000000Y1332969D01*
X66637944Y1459864D01*
X67178769Y1821231D01*
X67270000Y1957768D01*
X67361231Y1821231D01*
X67902055Y1459864D01*
X68540000Y1332969D01*
X69177944Y1459864D01*
X69718769Y1821231D01*
X69829952Y1987629D01*
X70013683Y1754078D01*
X70571645Y1440856D01*
X70699566Y1409876D01*
X70953000Y1529223D01*
X70953000Y3373000D01*
X71207000Y3373000D01*
X71207000Y1529223D01*
X71460434Y1409876D01*
X71588355Y1440856D01*
X72146317Y1754078D01*
X72541942Y2256980D01*
X72715000Y2873000D01*
X72715000Y3373000D01*
X71207000Y3373000D01*
X70953000Y3373000D01*
X70933000Y3373000D01*
X70933000Y3627000D01*
X70953000Y3627000D01*
X70953000Y5470777D01*
X71207000Y5470777D01*
X71207000Y3627000D01*
X72715000Y3627000D01*
X72715000Y4127000D01*
X72541942Y4743020D01*
X72174357Y5210279D01*
X79865000Y5210279D01*
X79865000Y3789722D01*
X79988874Y3166965D01*
X80460751Y2460751D01*
X81166964Y1988874D01*
X82000000Y1823173D01*
X82833035Y1988874D01*
X83539249Y2460751D01*
X84011126Y3166964D01*
X84135000Y3789721D01*
X84135000Y5210278D01*
X84135000Y5210279D01*
X84865000Y5210279D01*
X84865000Y3789722D01*
X84988874Y3166965D01*
X85460751Y2460751D01*
X86166964Y1988874D01*
X87000000Y1823173D01*
X87833035Y1988874D01*
X88539249Y2460751D01*
X89011126Y3166964D01*
X89135000Y3789721D01*
X89135000Y5210278D01*
X89011126Y5833035D01*
X88539249Y6539249D01*
X88385000Y6642315D01*
X88385000Y12926315D01*
X92882888Y17424202D01*
X92998529Y17501471D01*
X93304641Y17959600D01*
X93385000Y18363593D01*
X93412133Y18500000D01*
X93385000Y18636407D01*
X93385000Y37363595D01*
X93412133Y37500001D01*
X93380857Y37657235D01*
X93304641Y38040400D01*
X93181196Y38225148D01*
X93075797Y38382889D01*
X93075795Y38382891D01*
X92998528Y38498529D01*
X92882890Y38575796D01*
X88382888Y43075797D01*
X88040399Y43304641D01*
X87500000Y43412133D01*
X86959601Y43304641D01*
X86501472Y42998528D01*
X86195359Y42540399D01*
X86087867Y42000000D01*
X86195359Y41459601D01*
X86424203Y41117112D01*
X90615000Y36926314D01*
X90615001Y19073687D01*
X86117112Y14575797D01*
X86001471Y14498528D01*
X85731258Y14094126D01*
X85695359Y14040399D01*
X85587867Y13500000D01*
X85615000Y13363593D01*
X85615001Y6642315D01*
X85460752Y6539249D01*
X84988874Y5833036D01*
X84865000Y5210279D01*
X84135000Y5210279D01*
X84011126Y5833035D01*
X83539249Y6539249D01*
X83385000Y6642315D01*
X83385000Y13426315D01*
X84573686Y14615000D01*
X85636407Y14615000D01*
X86040400Y14695359D01*
X86498529Y15001471D01*
X86804641Y15459600D01*
X86912133Y16000000D01*
X86804641Y16540400D01*
X86498529Y16998529D01*
X86040400Y17304641D01*
X85636407Y17385000D01*
X84136405Y17385000D01*
X83999999Y17412133D01*
X83863593Y17385000D01*
X83459600Y17304641D01*
X83001471Y16998529D01*
X82924202Y16882888D01*
X81117112Y15075797D01*
X81001471Y14998528D01*
X80924203Y14882888D01*
X80695359Y14540399D01*
X80587867Y14000000D01*
X80615000Y13863593D01*
X80615001Y6642315D01*
X80460752Y6539249D01*
X79988874Y5833036D01*
X79865000Y5210279D01*
X72174357Y5210279D01*
X72146317Y5245922D01*
X71588355Y5559144D01*
X71460434Y5590124D01*
X71207000Y5470777D01*
X70953000Y5470777D01*
X70699566Y5590124D01*
X70571645Y5559144D01*
X70013683Y5245922D01*
X69829952Y5012371D01*
X69718769Y5178769D01*
X69675000Y5208015D01*
X69675000Y8448217D01*
X69697235Y8560000D01*
X69648573Y8804641D01*
X69609146Y9002855D01*
X69358289Y9378289D01*
X69263518Y9441613D01*
X69123523Y9581608D01*
X68842854Y9769146D01*
X68400000Y9857235D01*
X67957146Y9769146D01*
X67581712Y9518288D01*
X67330854Y9142854D01*
X67242765Y8700000D01*
X67330854Y8257146D01*
X67405001Y8146178D01*
X67405000Y5208014D01*
X67361232Y5178769D01*
X67270000Y5042232D01*
X67178769Y5178769D01*
X66785000Y5441877D01*
X66785000Y7122688D01*
X66800378Y7200000D01*
X66785000Y7277312D01*
X66785000Y7277316D01*
X66739454Y7506292D01*
X66701082Y7563720D01*
X66609749Y7700409D01*
X66609747Y7700411D01*
X66565953Y7765953D01*
X66500411Y7809747D01*
X61735000Y12575157D01*
X61735000Y12705874D01*
X61577431Y13086280D01*
X61286280Y13377431D01*
X60905874Y13535000D01*
X60494126Y13535000D01*
X60113720Y13377431D01*
X59850000Y13113711D01*
X59686280Y13277431D01*
X59305874Y13435000D01*
X58894126Y13435000D01*
X58513720Y13277431D01*
X58250000Y13013711D01*
X57986280Y13277431D01*
X57605874Y13435000D01*
X57194126Y13435000D01*
X56813720Y13277431D01*
X56522569Y12986280D01*
X56365000Y12605874D01*
X48568928Y12605874D01*
X46235000Y14939801D01*
X46235000Y15105874D01*
X46077431Y15486280D01*
X45786280Y15777431D01*
X45405874Y15935000D01*
X44994126Y15935000D01*
X44613720Y15777431D01*
X44322569Y15486280D01*
X44309348Y15454363D01*
X44086280Y15677431D01*
X43705874Y15835000D01*
X43294126Y15835000D01*
X42913720Y15677431D01*
X42690652Y15454363D01*
X42677431Y15486280D01*
X42386280Y15777431D01*
X42005874Y15935000D01*
X41594126Y15935000D01*
X41213720Y15777431D01*
X40922569Y15486280D01*
X40850770Y15312941D01*
X40686280Y15477431D01*
X40305874Y15635000D01*
X39894126Y15635000D01*
X39513720Y15477431D01*
X39222569Y15186280D01*
X39065000Y14805874D01*
X18635000Y14805874D01*
X18635000Y17444569D01*
X66265000Y17444569D01*
X66265000Y16555431D01*
X66605259Y15733974D01*
X67233974Y15105259D01*
X68055431Y14765000D01*
X68944569Y14765000D01*
X69766026Y15105259D01*
X70394741Y15733974D01*
X70735000Y16555431D01*
X70735000Y17444569D01*
X70394741Y18266026D01*
X69766026Y18894741D01*
X68944569Y19235000D01*
X68055431Y19235000D01*
X67233974Y18894741D01*
X66605259Y18266026D01*
X66265000Y17444569D01*
X18635000Y17444569D01*
X18635000Y24588217D01*
X18657235Y24700000D01*
X18569146Y25142855D01*
X18381609Y25423524D01*
X18318289Y25518289D01*
X18223523Y25581609D01*
X17223523Y26581608D01*
X16942854Y26769146D01*
X16500000Y26857235D01*
X16057146Y26769146D01*
X15681712Y26518288D01*
X15430854Y26142854D01*
X15419476Y26085655D01*
X15123523Y26381608D01*
X14842854Y26569146D01*
X14400000Y26657235D01*
X13957146Y26569146D01*
X13581712Y26318288D01*
X13515942Y26219857D01*
X13142855Y26469146D01*
X12700000Y26557235D01*
X12257146Y26469146D01*
X11881712Y26218289D01*
X11630854Y25842855D01*
X11565000Y25511783D01*
X11565000Y25327593D01*
X11330854Y24977170D01*
X11318233Y24913720D01*
X11242765Y24534315D01*
X11265000Y24422532D01*
X11265000Y23888218D01*
X11265001Y23888213D01*
X11265000Y5194650D01*
X11241232Y5178769D01*
X10879864Y4637945D01*
X10785000Y4161031D01*
X735000Y4161031D01*
X735000Y17944569D01*
X2765000Y17944569D01*
X2765000Y17055431D01*
X3105259Y16233974D01*
X3733974Y15605259D01*
X4555431Y15265000D01*
X5444569Y15265000D01*
X6266026Y15605259D01*
X6894741Y16233974D01*
X7235000Y17055431D01*
X7235000Y17944569D01*
X6894741Y18766026D01*
X6266026Y19394741D01*
X5444569Y19735000D01*
X4555431Y19735000D01*
X3733974Y19394741D01*
X3105259Y18766026D01*
X2765000Y17944569D01*
X735000Y17944569D01*
X735000Y32714250D01*
X63915000Y32714250D01*
X63915000Y31873690D01*
X64011673Y31640301D01*
X64190302Y31461673D01*
X64423691Y31365000D01*
X67914250Y31365000D01*
X68073000Y31523750D01*
X68073000Y32873000D01*
X68327000Y32873000D01*
X68327000Y31523750D01*
X68485750Y31365000D01*
X71976309Y31365000D01*
X72209698Y31461673D01*
X72388327Y31640301D01*
X72485000Y31873690D01*
X72485000Y32714250D01*
X72326250Y32873000D01*
X68327000Y32873000D01*
X68073000Y32873000D01*
X64073750Y32873000D01*
X63915000Y32714250D01*
X735000Y32714250D01*
X735000Y34126310D01*
X63915000Y34126310D01*
X63915000Y33285750D01*
X64073750Y33127000D01*
X68073000Y33127000D01*
X68073000Y34476250D01*
X68327000Y34476250D01*
X68327000Y33127000D01*
X72326250Y33127000D01*
X72485000Y33285750D01*
X72485000Y34000000D01*
X81502560Y34000000D01*
X81502560Y32000000D01*
X81551843Y31752235D01*
X81692191Y31542191D01*
X81902235Y31401843D01*
X82150000Y31352560D01*
X89450000Y31352560D01*
X89697765Y31401843D01*
X89907809Y31542191D01*
X90048157Y31752235D01*
X90097440Y32000000D01*
X90097440Y34000000D01*
X90048157Y34247765D01*
X89907809Y34457809D01*
X89697765Y34598157D01*
X89450000Y34647440D01*
X87135000Y34647440D01*
X87135000Y36611783D01*
X87069146Y36942855D01*
X86818289Y37318289D01*
X86442854Y37569146D01*
X86000000Y37657235D01*
X85557145Y37569146D01*
X85181711Y37318289D01*
X84930854Y36942854D01*
X84865000Y36611782D01*
X84865001Y34647440D01*
X82150000Y34647440D01*
X81902235Y34598157D01*
X81692191Y34457809D01*
X81551843Y34247765D01*
X81502560Y34000000D01*
X72485000Y34000000D01*
X72485000Y34126310D01*
X72388327Y34359699D01*
X72209698Y34538327D01*
X71976309Y34635000D01*
X68485750Y34635000D01*
X68327000Y34476250D01*
X68073000Y34476250D01*
X67914250Y34635000D01*
X64423691Y34635000D01*
X64190302Y34538327D01*
X64011673Y34359699D01*
X63915000Y34126310D01*
X735000Y34126310D01*
X735000Y46505874D01*
X13165000Y46505874D01*
X13165000Y46094126D01*
X13322569Y45713720D01*
X13613720Y45422569D01*
X13994126Y45265000D01*
X14405874Y45265000D01*
X14786280Y45422569D01*
X14878711Y45515000D01*
X18974843Y45515000D01*
X20015001Y44474841D01*
X20015001Y43806956D01*
X19705874Y43935000D01*
X19294126Y43935000D01*
X18913720Y43777431D01*
X18622569Y43486280D01*
X18465000Y43105874D01*
X18465000Y42694126D01*
X18622569Y42313720D01*
X18715000Y42221289D01*
X18715001Y38978712D01*
X18622569Y38886280D01*
X18465000Y38505874D01*
X18465000Y38094126D01*
X18622569Y37713720D01*
X18913720Y37422569D01*
X19294126Y37265000D01*
X19705874Y37265000D01*
X20086280Y37422569D01*
X20335738Y37672027D01*
X20594126Y37565000D01*
X21005874Y37565000D01*
X21350000Y37707541D01*
X21694126Y37565000D01*
X22105874Y37565000D01*
X22486280Y37722569D01*
X22777431Y38013720D01*
X22935000Y38394126D01*
X22935000Y38805874D01*
X22777431Y39186280D01*
X22660000Y39303711D01*
X22660000Y42513060D01*
X22735000Y42694126D01*
X22735000Y43105874D01*
X22577431Y43486280D01*
X22286280Y43777431D01*
X21905874Y43935000D01*
X21585000Y43935000D01*
X21585000Y44722690D01*
X21600378Y44800001D01*
X21585000Y44877312D01*
X21585000Y44877316D01*
X21539454Y45106292D01*
X21477112Y45199593D01*
X21409749Y45300409D01*
X21409747Y45300411D01*
X21365953Y45365953D01*
X21300411Y45409747D01*
X20904284Y45805874D01*
X23965000Y45805874D01*
X23965000Y45394126D01*
X24122569Y45013720D01*
X24413720Y44722569D01*
X24794126Y44565000D01*
X24960198Y44565000D01*
X25140001Y44385197D01*
X25140000Y39403711D01*
X25022569Y39286280D01*
X24865000Y38905874D01*
X24865000Y38494126D01*
X25022569Y38113720D01*
X25313720Y37822569D01*
X25694126Y37665000D01*
X25977064Y37665000D01*
X26122569Y37313720D01*
X26413720Y37022569D01*
X26794126Y36865000D01*
X27205874Y36865000D01*
X27586280Y37022569D01*
X27877431Y37313720D01*
X28035000Y37694126D01*
X28035000Y37882383D01*
X28115902Y38003461D01*
X28165001Y38250297D01*
X28165001Y36428712D01*
X28072569Y36336280D01*
X27915000Y35955874D01*
X27915000Y35544126D01*
X28072569Y35163720D01*
X28363720Y34872569D01*
X28744126Y34715000D01*
X29155874Y34715000D01*
X29536280Y34872569D01*
X29550000Y34886289D01*
X29563720Y34872569D01*
X29944126Y34715000D01*
X30355874Y34715000D01*
X30736280Y34872569D01*
X31027431Y35163720D01*
X31185000Y35544126D01*
X31185000Y35955874D01*
X31027431Y36336280D01*
X30935000Y36428711D01*
X30935000Y43515000D01*
X31205874Y43515000D01*
X31586280Y43672569D01*
X31619587Y43705876D01*
X41565000Y43705876D01*
X41565000Y43294128D01*
X41722569Y42913722D01*
X42013720Y42622571D01*
X42394126Y42465002D01*
X42401283Y42465002D01*
X42181711Y42318289D01*
X41930854Y41942855D01*
X41842765Y41500000D01*
X41930854Y41057145D01*
X42181711Y40681711D01*
X42557145Y40430854D01*
X42888217Y40365000D01*
X49661783Y40365000D01*
X49992855Y40430854D01*
X50368289Y40681711D01*
X50619146Y41057145D01*
X50707235Y41500000D01*
X50619146Y41942855D01*
X50368289Y42318289D01*
X49992855Y42569146D01*
X49661783Y42635000D01*
X49610507Y42635000D01*
X49634996Y42694122D01*
X49634996Y43105870D01*
X49477427Y43486276D01*
X49186276Y43777427D01*
X48805870Y43934996D01*
X48745864Y43934996D01*
X47448579Y45232280D01*
X47401993Y45302001D01*
X47125793Y45486552D01*
X46882229Y45535000D01*
X46882225Y45535000D01*
X46799992Y45551357D01*
X46717759Y45535000D01*
X43628711Y45535000D01*
X43586280Y45577431D01*
X43205874Y45735000D01*
X42794126Y45735000D01*
X42413720Y45577431D01*
X42122569Y45286280D01*
X41965000Y44905874D01*
X41965000Y44494126D01*
X42013448Y44377161D01*
X41722569Y44086282D01*
X41565000Y43705876D01*
X31619587Y43705876D01*
X31877431Y43963720D01*
X32035000Y44344126D01*
X32035000Y44510199D01*
X38134484Y50609682D01*
X38197940Y50652082D01*
X38239479Y50714250D01*
X63915000Y50714250D01*
X63915000Y49873690D01*
X64011673Y49640301D01*
X64190302Y49461673D01*
X64423691Y49365000D01*
X67914250Y49365000D01*
X68073000Y49523750D01*
X68073000Y50873000D01*
X68327000Y50873000D01*
X68327000Y49523750D01*
X68485750Y49365000D01*
X71976309Y49365000D01*
X72209698Y49461673D01*
X72388327Y49640301D01*
X72485000Y49873690D01*
X72485000Y50714250D01*
X72326250Y50873000D01*
X68327000Y50873000D01*
X68073000Y50873000D01*
X64073750Y50873000D01*
X63915000Y50714250D01*
X38239479Y50714250D01*
X38274026Y50765953D01*
X38365915Y50903473D01*
X38385190Y51000378D01*
X38410011Y51125159D01*
X38410011Y51125163D01*
X38424899Y51200011D01*
X38410011Y51274859D01*
X38410011Y52126310D01*
X63915000Y52126310D01*
X63915000Y51285750D01*
X64073750Y51127000D01*
X68073000Y51127000D01*
X68073000Y52476250D01*
X68327000Y52476250D01*
X68327000Y51127000D01*
X72326250Y51127000D01*
X72485000Y51285750D01*
X72485000Y52000000D01*
X81502560Y52000000D01*
X81502560Y50000000D01*
X81551843Y49752235D01*
X81692191Y49542191D01*
X81902235Y49401843D01*
X82150000Y49352560D01*
X89450000Y49352560D01*
X89697765Y49401843D01*
X89907809Y49542191D01*
X90048157Y49752235D01*
X90097440Y50000000D01*
X90097440Y52000000D01*
X90048157Y52247765D01*
X89907809Y52457809D01*
X89697765Y52598157D01*
X89450000Y52647440D01*
X87135000Y52647440D01*
X87135000Y62611783D01*
X87069146Y62942855D01*
X86818289Y63318289D01*
X86442854Y63569146D01*
X86000000Y63657235D01*
X85557145Y63569146D01*
X85181711Y63318289D01*
X84930854Y62942854D01*
X84865000Y62611782D01*
X84865001Y52647440D01*
X82150000Y52647440D01*
X81902235Y52598157D01*
X81692191Y52457809D01*
X81551843Y52247765D01*
X81502560Y52000000D01*
X72485000Y52000000D01*
X72485000Y52126310D01*
X72388327Y52359699D01*
X72209698Y52538327D01*
X71976309Y52635000D01*
X68485750Y52635000D01*
X68327000Y52476250D01*
X68073000Y52476250D01*
X67914250Y52635000D01*
X64423691Y52635000D01*
X64190302Y52538327D01*
X64011673Y52359699D01*
X63915000Y52126310D01*
X38410011Y52126310D01*
X38410011Y59749842D01*
X38494126Y59715000D01*
X38905874Y59715000D01*
X39286280Y59872569D01*
X39577431Y60163720D01*
X39598672Y60215000D01*
X43821289Y60215000D01*
X43863720Y60172569D01*
X44244126Y60015000D01*
X44655874Y60015000D01*
X45036280Y60172569D01*
X45327431Y60463720D01*
X45485000Y60844126D01*
X45485000Y61255874D01*
X45327431Y61636280D01*
X45288711Y61675000D01*
X45477431Y61863720D01*
X45635000Y62244126D01*
X45635000Y62655874D01*
X45477431Y63036280D01*
X45186280Y63327431D01*
X44805874Y63485000D01*
X44394126Y63485000D01*
X44013720Y63327431D01*
X43971289Y63285000D01*
X39582237Y63285000D01*
X39500000Y63301358D01*
X39417763Y63285000D01*
X39174199Y63236552D01*
X39134461Y63210000D01*
X39019126Y63210000D01*
X38638720Y63052431D01*
X38410011Y62823722D01*
X38410011Y65944569D01*
X73765000Y65944569D01*
X73765000Y65055431D01*
X74105259Y64233974D01*
X74733974Y63605259D01*
X75555431Y63265000D01*
X76444569Y63265000D01*
X77266026Y63605259D01*
X77894741Y64233974D01*
X78235000Y65055431D01*
X78235000Y65944569D01*
X77894741Y66766026D01*
X77266026Y67394741D01*
X76444569Y67735000D01*
X75555431Y67735000D01*
X74733974Y67394741D01*
X74105259Y66766026D01*
X73765000Y65944569D01*
X38410011Y65944569D01*
X38410011Y68500000D01*
X85587867Y68500000D01*
X85695359Y67959601D01*
X85924203Y67617112D01*
X90117111Y63424203D01*
X90117114Y63424201D01*
X93615001Y59926313D01*
X93615000Y8073686D01*
X92598994Y7057680D01*
X92000000Y7176827D01*
X91166965Y7011126D01*
X90460752Y6539249D01*
X89988874Y5833036D01*
X89865000Y5210279D01*
X89865000Y3789722D01*
X89988874Y3166965D01*
X90460751Y2460751D01*
X91166964Y1988874D01*
X92000000Y1823173D01*
X92833035Y1988874D01*
X93539249Y2460751D01*
X94011126Y3166964D01*
X94135000Y3789721D01*
X94135000Y4676315D01*
X95882890Y6424204D01*
X95998528Y6501471D01*
X96075795Y6617109D01*
X96075797Y6617111D01*
X96304641Y6959600D01*
X96412133Y7500000D01*
X96385000Y7636407D01*
X96385000Y60363595D01*
X96412133Y60500001D01*
X96321454Y60955874D01*
X96304641Y61040400D01*
X95998529Y61498529D01*
X95882888Y61575798D01*
X92075799Y65382886D01*
X92075797Y65382889D01*
X87882888Y69575797D01*
X87540399Y69804641D01*
X87000000Y69912133D01*
X86459601Y69804641D01*
X86001472Y69498528D01*
X85695359Y69040399D01*
X85587867Y68500000D01*
X38410011Y68500000D01*
X38410011Y77785210D01*
X41339051Y80714250D01*
X63915000Y80714250D01*
X63915000Y79873690D01*
X64011673Y79640301D01*
X64190302Y79461673D01*
X64423691Y79365000D01*
X67914250Y79365000D01*
X68073000Y79523750D01*
X68073000Y80873000D01*
X68327000Y80873000D01*
X68327000Y79523750D01*
X68485750Y79365000D01*
X71976309Y79365000D01*
X72209698Y79461673D01*
X72388327Y79640301D01*
X72485000Y79873690D01*
X72485000Y80714250D01*
X72326250Y80873000D01*
X68327000Y80873000D01*
X68073000Y80873000D01*
X64073750Y80873000D01*
X63915000Y80714250D01*
X41339051Y80714250D01*
X42751111Y82126310D01*
X63915000Y82126310D01*
X63915000Y81285750D01*
X64073750Y81127000D01*
X68073000Y81127000D01*
X68073000Y82476250D01*
X68327000Y82476250D01*
X68327000Y81127000D01*
X72326250Y81127000D01*
X72485000Y81285750D01*
X72485000Y82000000D01*
X81502560Y82000000D01*
X81502560Y80000000D01*
X81551843Y79752235D01*
X81692191Y79542191D01*
X81902235Y79401843D01*
X82150000Y79352560D01*
X89450000Y79352560D01*
X89697765Y79401843D01*
X89907809Y79542191D01*
X90048157Y79752235D01*
X90097440Y80000000D01*
X90097440Y82000000D01*
X90048157Y82247765D01*
X89907809Y82457809D01*
X89697765Y82598157D01*
X89450000Y82647440D01*
X87135000Y82647440D01*
X87135000Y88611783D01*
X87069146Y88942855D01*
X86818289Y89318289D01*
X86442854Y89569146D01*
X86000000Y89657235D01*
X85557145Y89569146D01*
X85181711Y89318289D01*
X84930854Y88942854D01*
X84865000Y88611782D01*
X84865001Y82647440D01*
X82150000Y82647440D01*
X81902235Y82598157D01*
X81692191Y82457809D01*
X81551843Y82247765D01*
X81502560Y82000000D01*
X72485000Y82000000D01*
X72485000Y82126310D01*
X72388327Y82359699D01*
X72209698Y82538327D01*
X71976309Y82635000D01*
X68485750Y82635000D01*
X68327000Y82476250D01*
X68073000Y82476250D01*
X67914250Y82635000D01*
X64423691Y82635000D01*
X64190302Y82538327D01*
X64011673Y82359699D01*
X63915000Y82126310D01*
X42751111Y82126310D01*
X43734484Y83109682D01*
X43797940Y83152082D01*
X43965915Y83403474D01*
X44010011Y83625159D01*
X44010011Y83625164D01*
X44024899Y83700011D01*
X44010011Y83774858D01*
X44010011Y85885210D01*
X45564802Y87440000D01*
X46450884Y87440000D01*
X49058728Y84832155D01*
X48965000Y84605874D01*
X48965000Y84194126D01*
X49122569Y83813720D01*
X49413720Y83522569D01*
X49794126Y83365000D01*
X50205874Y83365000D01*
X50586280Y83522569D01*
X50877431Y83813720D01*
X51035000Y84194126D01*
X51035000Y84605874D01*
X50877431Y84986280D01*
X50744314Y85119397D01*
X50715904Y85262222D01*
X50547929Y85513614D01*
X50484473Y85556014D01*
X47950486Y88090000D01*
X51996289Y88090000D01*
X52113720Y87972569D01*
X52494126Y87815000D01*
X52905874Y87815000D01*
X53286280Y87972569D01*
X53577431Y88263720D01*
X53735000Y88644126D01*
X53735000Y89055874D01*
X53577431Y89436280D01*
X53286280Y89727431D01*
X52905874Y89885000D01*
X52494126Y89885000D01*
X52113720Y89727431D01*
X51996289Y89610000D01*
X45338436Y89610000D01*
X45263589Y89624888D01*
X45188742Y89610000D01*
X45188737Y89610000D01*
X44967052Y89565904D01*
X44715660Y89397929D01*
X44673260Y89334473D01*
X42315530Y86976742D01*
X42252071Y86934340D01*
X42084096Y86682947D01*
X42040000Y86461262D01*
X42040000Y86461258D01*
X42025112Y86386411D01*
X42040000Y86311564D01*
X42040001Y84201214D01*
X36715530Y78876742D01*
X36652071Y78834340D01*
X36484096Y78582947D01*
X36440000Y78361262D01*
X36440000Y78361258D01*
X36425112Y78286411D01*
X36440000Y78211564D01*
X36440001Y53451213D01*
X35610199Y52621410D01*
X35585000Y52621410D01*
X35585000Y59822688D01*
X35600378Y59900000D01*
X35585000Y59977312D01*
X35585000Y59977316D01*
X35539454Y60206292D01*
X35365953Y60465953D01*
X35300408Y60509749D01*
X34835000Y60975157D01*
X34835000Y61105874D01*
X34677431Y61486280D01*
X34386280Y61777431D01*
X34005874Y61935000D01*
X33594126Y61935000D01*
X33213720Y61777431D01*
X32922569Y61486280D01*
X32765000Y61105874D01*
X32765000Y60694126D01*
X32879350Y60418061D01*
X32722569Y60261280D01*
X32565000Y59880874D01*
X32565000Y59469126D01*
X32722569Y59088720D01*
X33013720Y58797569D01*
X33315001Y58672775D01*
X33315000Y51089802D01*
X28606143Y46380944D01*
X28499593Y46309749D01*
X28449594Y46259750D01*
X28384047Y46215953D01*
X28336214Y46144366D01*
X28277431Y46286280D01*
X27986280Y46577431D01*
X27605874Y46735000D01*
X27194126Y46735000D01*
X26813720Y46577431D01*
X26522569Y46286280D01*
X26365000Y45905874D01*
X26365000Y45494126D01*
X26498046Y45172923D01*
X26447929Y45247929D01*
X26384473Y45290329D01*
X26035000Y45639802D01*
X26035000Y45805874D01*
X25877431Y46186280D01*
X25586280Y46477431D01*
X25205874Y46635000D01*
X24794126Y46635000D01*
X24413720Y46477431D01*
X24122569Y46186280D01*
X23965000Y45805874D01*
X20904284Y45805874D01*
X19909749Y46800408D01*
X19865953Y46865953D01*
X19606292Y47039454D01*
X19377316Y47085000D01*
X19377312Y47085000D01*
X19300000Y47100378D01*
X19222688Y47085000D01*
X14878711Y47085000D01*
X14786280Y47177431D01*
X14405874Y47335000D01*
X13994126Y47335000D01*
X13613720Y47177431D01*
X13322569Y46886280D01*
X13165000Y46505874D01*
X735000Y46505874D01*
X735000Y52355874D01*
X10365000Y52355874D01*
X10365000Y51944126D01*
X10522569Y51563720D01*
X10565000Y51521289D01*
X10565001Y49882238D01*
X10548643Y49800000D01*
X10613448Y49474200D01*
X10659102Y49405874D01*
X10798000Y49197999D01*
X10867718Y49151415D01*
X10965000Y49054133D01*
X10965000Y48994126D01*
X11122569Y48613720D01*
X11413720Y48322569D01*
X11794126Y48165000D01*
X12205874Y48165000D01*
X12586280Y48322569D01*
X12877431Y48613720D01*
X13035000Y48994126D01*
X13035000Y49405874D01*
X12877431Y49786280D01*
X12586280Y50077431D01*
X12235000Y50222936D01*
X12235000Y51521289D01*
X12277431Y51563720D01*
X12435000Y51944126D01*
X12435000Y52355874D01*
X12277431Y52736280D01*
X11986280Y53027431D01*
X11605874Y53185000D01*
X11194126Y53185000D01*
X10813720Y53027431D01*
X10522569Y52736280D01*
X10365000Y52355874D01*
X735000Y52355874D01*
X735000Y61105874D01*
X8965000Y61105874D01*
X8965000Y60694126D01*
X9122569Y60313720D01*
X9413720Y60022569D01*
X9794126Y59865000D01*
X9960199Y59865000D01*
X11510200Y58314998D01*
X11465000Y58205874D01*
X11465000Y57794126D01*
X11622569Y57413720D01*
X11913720Y57122569D01*
X12294126Y56965000D01*
X12705874Y56965000D01*
X13086280Y57122569D01*
X13377431Y57413720D01*
X13535000Y57794126D01*
X13535000Y58205874D01*
X13377431Y58586280D01*
X13112663Y58851048D01*
X13047929Y58947929D01*
X12984473Y58990329D01*
X11035000Y60939801D01*
X11035000Y61105874D01*
X10877431Y61486280D01*
X10586280Y61777431D01*
X10205874Y61935000D01*
X9794126Y61935000D01*
X9413720Y61777431D01*
X9122569Y61486280D01*
X8965000Y61105874D01*
X735000Y61105874D01*
X735000Y70305874D01*
X28565000Y70305874D01*
X28565000Y69894126D01*
X28722569Y69513720D01*
X29013720Y69222569D01*
X29394126Y69065000D01*
X29805874Y69065000D01*
X30186280Y69222569D01*
X30303711Y69340000D01*
X34125153Y69340000D01*
X34200000Y69325112D01*
X34274847Y69340000D01*
X34274852Y69340000D01*
X34496537Y69384096D01*
X34747929Y69552071D01*
X34790331Y69615530D01*
X35119470Y69944669D01*
X35182929Y69987071D01*
X35350904Y70238463D01*
X35395000Y70460148D01*
X35395000Y70460153D01*
X35409888Y70535000D01*
X35395000Y70609847D01*
X35395000Y75327000D01*
X35470042Y75402042D01*
X35620000Y75764071D01*
X35620000Y76155929D01*
X35470042Y76517958D01*
X35404886Y76583114D01*
X35433190Y76611418D01*
X35315915Y76728693D01*
X35515620Y76747173D01*
X35633357Y77120925D01*
X35599103Y77511282D01*
X35515620Y77712827D01*
X35315912Y77731307D01*
X34814605Y77230000D01*
X34828748Y77215858D01*
X34649143Y77036253D01*
X34635000Y77050395D01*
X34620858Y77036253D01*
X34441253Y77215858D01*
X34455395Y77230000D01*
X34441253Y77244143D01*
X34620858Y77423748D01*
X34635000Y77409605D01*
X34746383Y77520988D01*
X34916282Y77535897D01*
X35117827Y77619380D01*
X35136307Y77819088D01*
X35090395Y77865000D01*
X35136307Y77910912D01*
X35117827Y78110620D01*
X34744075Y78228357D01*
X34728412Y78226983D01*
X34635000Y78320395D01*
X34620858Y78306253D01*
X34441253Y78485858D01*
X34455395Y78500000D01*
X34441253Y78514143D01*
X34620858Y78693748D01*
X34635000Y78679605D01*
X34649143Y78693748D01*
X34828748Y78514143D01*
X34814605Y78500000D01*
X35315912Y77998693D01*
X35515620Y78017173D01*
X35633357Y78390925D01*
X35599103Y78781282D01*
X35515620Y78982827D01*
X35315915Y79001307D01*
X35433190Y79118582D01*
X35404886Y79146886D01*
X35470042Y79212042D01*
X35620000Y79574071D01*
X35620000Y79965929D01*
X35470042Y80327958D01*
X35404886Y80393114D01*
X35433190Y80421418D01*
X35315915Y80538693D01*
X35515620Y80557173D01*
X35633357Y80930925D01*
X35599103Y81321282D01*
X35515620Y81522827D01*
X35315912Y81541307D01*
X34814605Y81040000D01*
X34828748Y81025858D01*
X34649143Y80846253D01*
X34635000Y80860395D01*
X34620858Y80846253D01*
X34441253Y81025858D01*
X34455395Y81040000D01*
X34441253Y81054143D01*
X34620858Y81233748D01*
X34635000Y81219605D01*
X35136307Y81720912D01*
X35117827Y81920620D01*
X34744075Y82038357D01*
X34353718Y82004103D01*
X34152173Y81920620D01*
X34133693Y81720915D01*
X34016418Y81838190D01*
X33988114Y81809886D01*
X33922958Y81875042D01*
X33560929Y82025000D01*
X33169071Y82025000D01*
X32807042Y81875042D01*
X32732000Y81800000D01*
X31413711Y81800000D01*
X31336280Y81877431D01*
X30955874Y82035000D01*
X30544126Y82035000D01*
X30163720Y81877431D01*
X29872569Y81586280D01*
X29715000Y81205874D01*
X29715000Y80794126D01*
X29872569Y80413720D01*
X30163720Y80122569D01*
X30544126Y79965000D01*
X30955874Y79965000D01*
X31336280Y80122569D01*
X31493711Y80280000D01*
X32510093Y80280000D01*
X32380000Y79965929D01*
X32380000Y79574071D01*
X32510093Y79260000D01*
X30703707Y79260000D01*
X30586276Y79377431D01*
X30205870Y79535000D01*
X29794122Y79535000D01*
X29413716Y79377431D01*
X29122565Y79086280D01*
X28964996Y78705874D01*
X28964996Y78294126D01*
X29122565Y77913720D01*
X29413716Y77622569D01*
X29794122Y77465000D01*
X30205870Y77465000D01*
X30586276Y77622569D01*
X30703707Y77740000D01*
X31394398Y77740000D01*
X31377341Y77714473D01*
X29691374Y76028505D01*
X29525301Y76028505D01*
X29144895Y75870936D01*
X28853744Y75579785D01*
X28696175Y75199379D01*
X28696175Y74787631D01*
X28853744Y74407225D01*
X29144895Y74116074D01*
X29525301Y73958505D01*
X29937049Y73958505D01*
X30317455Y74116074D01*
X30608606Y74407225D01*
X30766175Y74787631D01*
X30766175Y74953704D01*
X32282472Y76470000D01*
X32510093Y76470000D01*
X32380000Y76155929D01*
X32380000Y76035064D01*
X32284102Y75891542D01*
X32240006Y75669857D01*
X32240006Y75669853D01*
X32225118Y75595006D01*
X32240006Y75520159D01*
X32240007Y71603706D01*
X32122575Y71486274D01*
X31965006Y71105868D01*
X31965006Y70860000D01*
X30303711Y70860000D01*
X30186280Y70977431D01*
X29805874Y71135000D01*
X29394126Y71135000D01*
X29013720Y70977431D01*
X28722569Y70686280D01*
X28565000Y70305874D01*
X735000Y70305874D01*
X735000Y87944569D01*
X12265000Y87944569D01*
X12265000Y87055431D01*
X12605259Y86233974D01*
X13233974Y85605259D01*
X14055431Y85265000D01*
X14944569Y85265000D01*
X15766026Y85605259D01*
X16394741Y86233974D01*
X16735000Y87055431D01*
X16735000Y87944569D01*
X16394741Y88766026D01*
X15766026Y89394741D01*
X14944569Y89735000D01*
X14055431Y89735000D01*
X13233974Y89394741D01*
X12605259Y88766026D01*
X12265000Y87944569D01*
X735000Y87944569D01*
X735000Y91765000D01*
X98765001Y91765000D01*
X98765000Y735000D01*
G04 #@! TD*
M02*
