G04 #@! TF.GenerationSoftware,KiCad,Pcbnew,5.0.2+dfsg1-1~bpo9+1*
G04 #@! TF.CreationDate,2020-01-12T11:13:13-05:00*
G04 #@! TF.ProjectId,SCARAMotorFeedbackController,53434152-414d-46f7-946f-724665656462,rev?*
G04 #@! TF.SameCoordinates,Original*
G04 #@! TF.FileFunction,Soldermask,Top*
G04 #@! TF.FilePolarity,Negative*
%FSLAX46Y46*%
G04 Gerber Fmt 4.6, Leading zero omitted, Abs format (unit mm)*
G04 Created by KiCad (PCBNEW 5.0.2+dfsg1-1~bpo9+1) date Sun 12 Jan 2020 11:13:13 AM EST*
%MOMM*%
%LPD*%
G01*
G04 APERTURE LIST*
%ADD10C,0.100000*%
G04 APERTURE END LIST*
D10*
G36*
X76303853Y6027572D02*
X76596029Y5938941D01*
X76865300Y5795013D01*
X77101318Y5601318D01*
X77295013Y5365300D01*
X77438941Y5096029D01*
X77527572Y4803853D01*
X77550000Y4576138D01*
X77550000Y3423862D01*
X77527572Y3196147D01*
X77438941Y2903971D01*
X77295013Y2634700D01*
X77101318Y2398682D01*
X76865299Y2204987D01*
X76596028Y2061059D01*
X76303852Y1972428D01*
X76000000Y1942501D01*
X75696147Y1972428D01*
X75403971Y2061059D01*
X75134700Y2204987D01*
X74898682Y2398682D01*
X74704987Y2634701D01*
X74561059Y2903972D01*
X74472428Y3196148D01*
X74450000Y3423863D01*
X74450000Y4576138D01*
X74472428Y4803853D01*
X74561059Y5096029D01*
X74704987Y5365300D01*
X74898683Y5601318D01*
X75134701Y5795013D01*
X75403972Y5938941D01*
X75696148Y6027572D01*
X76000000Y6057499D01*
X76303853Y6027572D01*
X76303853Y6027572D01*
G37*
G36*
X81303853Y6027572D02*
X81596029Y5938941D01*
X81865300Y5795013D01*
X82101318Y5601318D01*
X82295013Y5365300D01*
X82438941Y5096029D01*
X82527572Y4803853D01*
X82550000Y4576138D01*
X82550000Y3423862D01*
X82527572Y3196147D01*
X82438941Y2903971D01*
X82295013Y2634700D01*
X82101318Y2398682D01*
X81865299Y2204987D01*
X81596028Y2061059D01*
X81303852Y1972428D01*
X81000000Y1942501D01*
X80696147Y1972428D01*
X80403971Y2061059D01*
X80134700Y2204987D01*
X79898682Y2398682D01*
X79704987Y2634701D01*
X79561059Y2903972D01*
X79472428Y3196148D01*
X79450000Y3423863D01*
X79450000Y4576138D01*
X79472428Y4803853D01*
X79561059Y5096029D01*
X79704987Y5365300D01*
X79898683Y5601318D01*
X80134701Y5795013D01*
X80403972Y5938941D01*
X80696148Y6027572D01*
X81000000Y6057499D01*
X81303853Y6027572D01*
X81303853Y6027572D01*
G37*
G36*
X86303853Y6027572D02*
X86596029Y5938941D01*
X86865300Y5795013D01*
X87101318Y5601318D01*
X87295013Y5365300D01*
X87438941Y5096029D01*
X87527572Y4803853D01*
X87550000Y4576138D01*
X87550000Y3423862D01*
X87527572Y3196147D01*
X87438941Y2903971D01*
X87295013Y2634700D01*
X87101318Y2398682D01*
X86865299Y2204987D01*
X86596028Y2061059D01*
X86303852Y1972428D01*
X86000000Y1942501D01*
X85696147Y1972428D01*
X85403971Y2061059D01*
X85134700Y2204987D01*
X84898682Y2398682D01*
X84704987Y2634701D01*
X84561059Y2903972D01*
X84472428Y3196148D01*
X84450000Y3423863D01*
X84450000Y4576138D01*
X84472428Y4803853D01*
X84561059Y5096029D01*
X84704987Y5365300D01*
X84898683Y5601318D01*
X85134701Y5795013D01*
X85403972Y5938941D01*
X85696148Y6027572D01*
X86000000Y6057499D01*
X86303853Y6027572D01*
X86303853Y6027572D01*
G37*
G36*
X50785836Y5034807D02*
X50983762Y4974767D01*
X51166171Y4877267D01*
X51326054Y4746054D01*
X51457267Y4586171D01*
X51554767Y4403762D01*
X51614807Y4205836D01*
X51630000Y4051578D01*
X51630000Y2948422D01*
X51614807Y2794164D01*
X51554767Y2596238D01*
X51457267Y2413829D01*
X51326054Y2253946D01*
X51166171Y2122733D01*
X50983761Y2025233D01*
X50785835Y1965193D01*
X50580000Y1944920D01*
X50374164Y1965193D01*
X50176238Y2025233D01*
X49993829Y2122733D01*
X49833946Y2253946D01*
X49702733Y2413829D01*
X49605233Y2596239D01*
X49545193Y2794165D01*
X49530000Y2948423D01*
X49530000Y4051578D01*
X49545194Y4205836D01*
X49545194Y4205840D01*
X49605232Y4403759D01*
X49650079Y4487662D01*
X49702734Y4586171D01*
X49833947Y4746054D01*
X49993830Y4877267D01*
X50176239Y4974767D01*
X50374165Y5034807D01*
X50580000Y5055080D01*
X50785836Y5034807D01*
X50785836Y5034807D01*
G37*
G36*
X69475836Y5034807D02*
X69673762Y4974767D01*
X69856171Y4877267D01*
X70016054Y4746054D01*
X70147267Y4586171D01*
X70244767Y4403762D01*
X70304807Y4205836D01*
X70320000Y4051578D01*
X70320000Y2948422D01*
X70304807Y2794164D01*
X70244767Y2596238D01*
X70147267Y2413829D01*
X70016054Y2253946D01*
X69856171Y2122733D01*
X69673761Y2025233D01*
X69475835Y1965193D01*
X69270000Y1944920D01*
X69064164Y1965193D01*
X68866238Y2025233D01*
X68683829Y2122733D01*
X68523946Y2253946D01*
X68392733Y2413829D01*
X68295233Y2596239D01*
X68235193Y2794165D01*
X68220000Y2948423D01*
X68220000Y4051578D01*
X68235194Y4205836D01*
X68235194Y4205840D01*
X68295232Y4403759D01*
X68340079Y4487662D01*
X68392734Y4586171D01*
X68523947Y4746054D01*
X68683830Y4877267D01*
X68866239Y4974767D01*
X69064165Y5034807D01*
X69270000Y5055080D01*
X69475836Y5034807D01*
X69475836Y5034807D01*
G37*
G36*
X66935836Y5034807D02*
X67133762Y4974767D01*
X67316171Y4877267D01*
X67476054Y4746054D01*
X67607267Y4586171D01*
X67704767Y4403762D01*
X67764807Y4205836D01*
X67780000Y4051578D01*
X67780000Y2948422D01*
X67764807Y2794164D01*
X67704767Y2596238D01*
X67607267Y2413829D01*
X67476054Y2253946D01*
X67316171Y2122733D01*
X67133761Y2025233D01*
X66935835Y1965193D01*
X66730000Y1944920D01*
X66524164Y1965193D01*
X66326238Y2025233D01*
X66143829Y2122733D01*
X65983946Y2253946D01*
X65852733Y2413829D01*
X65755233Y2596239D01*
X65695193Y2794165D01*
X65680000Y2948423D01*
X65680000Y4051578D01*
X65695194Y4205836D01*
X65695194Y4205840D01*
X65755232Y4403759D01*
X65800079Y4487662D01*
X65852734Y4586171D01*
X65983947Y4746054D01*
X66143830Y4877267D01*
X66326239Y4974767D01*
X66524165Y5034807D01*
X66730000Y5055080D01*
X66935836Y5034807D01*
X66935836Y5034807D01*
G37*
G36*
X22785836Y5034807D02*
X22983762Y4974767D01*
X23166171Y4877267D01*
X23326054Y4746054D01*
X23457267Y4586171D01*
X23554767Y4403762D01*
X23614807Y4205836D01*
X23630000Y4051578D01*
X23630000Y2948422D01*
X23614807Y2794164D01*
X23554767Y2596238D01*
X23457267Y2413829D01*
X23326054Y2253946D01*
X23166171Y2122733D01*
X22983761Y2025233D01*
X22785835Y1965193D01*
X22580000Y1944920D01*
X22374164Y1965193D01*
X22176238Y2025233D01*
X21993829Y2122733D01*
X21833946Y2253946D01*
X21702733Y2413829D01*
X21605233Y2596239D01*
X21545193Y2794165D01*
X21530000Y2948423D01*
X21530000Y4051578D01*
X21545194Y4205836D01*
X21545194Y4205840D01*
X21605232Y4403759D01*
X21650079Y4487662D01*
X21702734Y4586171D01*
X21833947Y4746054D01*
X21993830Y4877267D01*
X22176239Y4974767D01*
X22374165Y5034807D01*
X22580000Y5055080D01*
X22785836Y5034807D01*
X22785836Y5034807D01*
G37*
G36*
X20245836Y5034807D02*
X20443762Y4974767D01*
X20626171Y4877267D01*
X20786054Y4746054D01*
X20917267Y4586171D01*
X21014767Y4403762D01*
X21074807Y4205836D01*
X21090000Y4051578D01*
X21090000Y2948422D01*
X21074807Y2794164D01*
X21014767Y2596238D01*
X20917267Y2413829D01*
X20786054Y2253946D01*
X20626171Y2122733D01*
X20443761Y2025233D01*
X20245835Y1965193D01*
X20040000Y1944920D01*
X19834164Y1965193D01*
X19636238Y2025233D01*
X19453829Y2122733D01*
X19293946Y2253946D01*
X19162733Y2413829D01*
X19065233Y2596239D01*
X19005193Y2794165D01*
X18990000Y2948423D01*
X18990000Y4051578D01*
X19005194Y4205836D01*
X19005194Y4205840D01*
X19065232Y4403759D01*
X19110079Y4487662D01*
X19162734Y4586171D01*
X19293947Y4746054D01*
X19453830Y4877267D01*
X19636239Y4974767D01*
X19834165Y5034807D01*
X20040000Y5055080D01*
X20245836Y5034807D01*
X20245836Y5034807D01*
G37*
G36*
X17705836Y5034807D02*
X17903762Y4974767D01*
X18086171Y4877267D01*
X18246054Y4746054D01*
X18377267Y4586171D01*
X18474767Y4403762D01*
X18534807Y4205836D01*
X18550000Y4051578D01*
X18550000Y2948422D01*
X18534807Y2794164D01*
X18474767Y2596238D01*
X18377267Y2413829D01*
X18246054Y2253946D01*
X18086171Y2122733D01*
X17903761Y2025233D01*
X17705835Y1965193D01*
X17500000Y1944920D01*
X17294164Y1965193D01*
X17096238Y2025233D01*
X16913829Y2122733D01*
X16753946Y2253946D01*
X16622733Y2413829D01*
X16525233Y2596239D01*
X16465193Y2794165D01*
X16450000Y2948423D01*
X16450000Y4051578D01*
X16465194Y4205836D01*
X16465194Y4205840D01*
X16525232Y4403759D01*
X16570079Y4487662D01*
X16622734Y4586171D01*
X16753947Y4746054D01*
X16913830Y4877267D01*
X17096239Y4974767D01*
X17294165Y5034807D01*
X17500000Y5055080D01*
X17705836Y5034807D01*
X17705836Y5034807D01*
G37*
G36*
X15165836Y5034807D02*
X15363762Y4974767D01*
X15546171Y4877267D01*
X15706054Y4746054D01*
X15837267Y4586171D01*
X15934767Y4403762D01*
X15994807Y4205836D01*
X16010000Y4051578D01*
X16010000Y2948422D01*
X15994807Y2794164D01*
X15934767Y2596238D01*
X15837267Y2413829D01*
X15706054Y2253946D01*
X15546171Y2122733D01*
X15363761Y2025233D01*
X15165835Y1965193D01*
X14960000Y1944920D01*
X14754164Y1965193D01*
X14556238Y2025233D01*
X14373829Y2122733D01*
X14213946Y2253946D01*
X14082733Y2413829D01*
X13985233Y2596239D01*
X13925193Y2794165D01*
X13910000Y2948423D01*
X13910000Y4051578D01*
X13925194Y4205836D01*
X13925194Y4205840D01*
X13985232Y4403759D01*
X14030079Y4487662D01*
X14082734Y4586171D01*
X14213947Y4746054D01*
X14373830Y4877267D01*
X14556239Y4974767D01*
X14754165Y5034807D01*
X14960000Y5055080D01*
X15165836Y5034807D01*
X15165836Y5034807D01*
G37*
G36*
X12625836Y5034807D02*
X12823762Y4974767D01*
X13006171Y4877267D01*
X13166054Y4746054D01*
X13297267Y4586171D01*
X13394767Y4403762D01*
X13454807Y4205836D01*
X13470000Y4051578D01*
X13470000Y2948422D01*
X13454807Y2794164D01*
X13394767Y2596238D01*
X13297267Y2413829D01*
X13166054Y2253946D01*
X13006171Y2122733D01*
X12823761Y2025233D01*
X12625835Y1965193D01*
X12420000Y1944920D01*
X12214164Y1965193D01*
X12016238Y2025233D01*
X11833829Y2122733D01*
X11673946Y2253946D01*
X11542733Y2413829D01*
X11445233Y2596239D01*
X11385193Y2794165D01*
X11370000Y2948423D01*
X11370000Y4051578D01*
X11385194Y4205836D01*
X11385194Y4205840D01*
X11445232Y4403759D01*
X11490079Y4487662D01*
X11542734Y4586171D01*
X11673947Y4746054D01*
X11833830Y4877267D01*
X12016239Y4974767D01*
X12214165Y5034807D01*
X12420000Y5055080D01*
X12625836Y5034807D01*
X12625836Y5034807D01*
G37*
G36*
X26625836Y5034807D02*
X26823762Y4974767D01*
X27006171Y4877267D01*
X27166054Y4746054D01*
X27297267Y4586171D01*
X27394767Y4403762D01*
X27454807Y4205836D01*
X27470000Y4051578D01*
X27470000Y2948422D01*
X27454807Y2794164D01*
X27394767Y2596238D01*
X27297267Y2413829D01*
X27166054Y2253946D01*
X27006171Y2122733D01*
X26823761Y2025233D01*
X26625835Y1965193D01*
X26420000Y1944920D01*
X26214164Y1965193D01*
X26016238Y2025233D01*
X25833829Y2122733D01*
X25673946Y2253946D01*
X25542733Y2413829D01*
X25445233Y2596239D01*
X25385193Y2794165D01*
X25370000Y2948423D01*
X25370000Y4051578D01*
X25385194Y4205836D01*
X25385194Y4205840D01*
X25445232Y4403759D01*
X25490079Y4487662D01*
X25542734Y4586171D01*
X25673947Y4746054D01*
X25833830Y4877267D01*
X26016239Y4974767D01*
X26214165Y5034807D01*
X26420000Y5055080D01*
X26625836Y5034807D01*
X26625836Y5034807D01*
G37*
G36*
X29165836Y5034807D02*
X29363762Y4974767D01*
X29546171Y4877267D01*
X29706054Y4746054D01*
X29837267Y4586171D01*
X29934767Y4403762D01*
X29994807Y4205836D01*
X30010000Y4051578D01*
X30010000Y2948422D01*
X29994807Y2794164D01*
X29934767Y2596238D01*
X29837267Y2413829D01*
X29706054Y2253946D01*
X29546171Y2122733D01*
X29363761Y2025233D01*
X29165835Y1965193D01*
X28960000Y1944920D01*
X28754164Y1965193D01*
X28556238Y2025233D01*
X28373829Y2122733D01*
X28213946Y2253946D01*
X28082733Y2413829D01*
X27985233Y2596239D01*
X27925193Y2794165D01*
X27910000Y2948423D01*
X27910000Y4051578D01*
X27925194Y4205836D01*
X27925194Y4205840D01*
X27985232Y4403759D01*
X28030079Y4487662D01*
X28082734Y4586171D01*
X28213947Y4746054D01*
X28373830Y4877267D01*
X28556239Y4974767D01*
X28754165Y5034807D01*
X28960000Y5055080D01*
X29165836Y5034807D01*
X29165836Y5034807D01*
G37*
G36*
X31705836Y5034807D02*
X31903762Y4974767D01*
X32086171Y4877267D01*
X32246054Y4746054D01*
X32377267Y4586171D01*
X32474767Y4403762D01*
X32534807Y4205836D01*
X32550000Y4051578D01*
X32550000Y2948422D01*
X32534807Y2794164D01*
X32474767Y2596238D01*
X32377267Y2413829D01*
X32246054Y2253946D01*
X32086171Y2122733D01*
X31903761Y2025233D01*
X31705835Y1965193D01*
X31500000Y1944920D01*
X31294164Y1965193D01*
X31096238Y2025233D01*
X30913829Y2122733D01*
X30753946Y2253946D01*
X30622733Y2413829D01*
X30525233Y2596239D01*
X30465193Y2794165D01*
X30450000Y2948423D01*
X30450000Y4051578D01*
X30465194Y4205836D01*
X30465194Y4205840D01*
X30525232Y4403759D01*
X30570079Y4487662D01*
X30622734Y4586171D01*
X30753947Y4746054D01*
X30913830Y4877267D01*
X31096239Y4974767D01*
X31294165Y5034807D01*
X31500000Y5055080D01*
X31705836Y5034807D01*
X31705836Y5034807D01*
G37*
G36*
X36785836Y5034807D02*
X36983762Y4974767D01*
X37166171Y4877267D01*
X37326054Y4746054D01*
X37457267Y4586171D01*
X37554767Y4403762D01*
X37614807Y4205836D01*
X37630000Y4051578D01*
X37630000Y2948422D01*
X37614807Y2794164D01*
X37554767Y2596238D01*
X37457267Y2413829D01*
X37326054Y2253946D01*
X37166171Y2122733D01*
X36983761Y2025233D01*
X36785835Y1965193D01*
X36580000Y1944920D01*
X36374164Y1965193D01*
X36176238Y2025233D01*
X35993829Y2122733D01*
X35833946Y2253946D01*
X35702733Y2413829D01*
X35605233Y2596239D01*
X35545193Y2794165D01*
X35530000Y2948423D01*
X35530000Y4051578D01*
X35545194Y4205836D01*
X35545194Y4205840D01*
X35605232Y4403759D01*
X35650079Y4487662D01*
X35702734Y4586171D01*
X35833947Y4746054D01*
X35993830Y4877267D01*
X36176239Y4974767D01*
X36374165Y5034807D01*
X36580000Y5055080D01*
X36785836Y5034807D01*
X36785836Y5034807D01*
G37*
G36*
X34245836Y5034807D02*
X34443762Y4974767D01*
X34626171Y4877267D01*
X34786054Y4746054D01*
X34917267Y4586171D01*
X35014767Y4403762D01*
X35074807Y4205836D01*
X35090000Y4051578D01*
X35090000Y2948422D01*
X35074807Y2794164D01*
X35014767Y2596238D01*
X34917267Y2413829D01*
X34786054Y2253946D01*
X34626171Y2122733D01*
X34443761Y2025233D01*
X34245835Y1965193D01*
X34040000Y1944920D01*
X33834164Y1965193D01*
X33636238Y2025233D01*
X33453829Y2122733D01*
X33293946Y2253946D01*
X33162733Y2413829D01*
X33065233Y2596239D01*
X33005193Y2794165D01*
X32990000Y2948423D01*
X32990000Y4051578D01*
X33005194Y4205836D01*
X33005194Y4205840D01*
X33065232Y4403759D01*
X33110079Y4487662D01*
X33162734Y4586171D01*
X33293947Y4746054D01*
X33453830Y4877267D01*
X33636239Y4974767D01*
X33834165Y5034807D01*
X34040000Y5055080D01*
X34245836Y5034807D01*
X34245836Y5034807D01*
G37*
G36*
X40625836Y5034807D02*
X40823762Y4974767D01*
X41006171Y4877267D01*
X41166054Y4746054D01*
X41297267Y4586171D01*
X41394767Y4403762D01*
X41454807Y4205836D01*
X41470000Y4051578D01*
X41470000Y2948422D01*
X41454807Y2794164D01*
X41394767Y2596238D01*
X41297267Y2413829D01*
X41166054Y2253946D01*
X41006171Y2122733D01*
X40823761Y2025233D01*
X40625835Y1965193D01*
X40420000Y1944920D01*
X40214164Y1965193D01*
X40016238Y2025233D01*
X39833829Y2122733D01*
X39673946Y2253946D01*
X39542733Y2413829D01*
X39445233Y2596239D01*
X39385193Y2794165D01*
X39370000Y2948423D01*
X39370000Y4051578D01*
X39385194Y4205836D01*
X39385194Y4205840D01*
X39445232Y4403759D01*
X39490079Y4487662D01*
X39542734Y4586171D01*
X39673947Y4746054D01*
X39833830Y4877267D01*
X40016239Y4974767D01*
X40214165Y5034807D01*
X40420000Y5055080D01*
X40625836Y5034807D01*
X40625836Y5034807D01*
G37*
G36*
X54895836Y5034807D02*
X55093762Y4974767D01*
X55276171Y4877267D01*
X55436054Y4746054D01*
X55567267Y4586171D01*
X55664767Y4403762D01*
X55724807Y4205836D01*
X55740000Y4051578D01*
X55740000Y2948422D01*
X55724807Y2794164D01*
X55664767Y2596238D01*
X55567267Y2413829D01*
X55436054Y2253946D01*
X55276171Y2122733D01*
X55093761Y2025233D01*
X54895835Y1965193D01*
X54690000Y1944920D01*
X54484164Y1965193D01*
X54286238Y2025233D01*
X54103829Y2122733D01*
X53943946Y2253946D01*
X53812733Y2413829D01*
X53715233Y2596239D01*
X53655193Y2794165D01*
X53640000Y2948423D01*
X53640000Y4051578D01*
X53655194Y4205836D01*
X53655194Y4205840D01*
X53715232Y4403759D01*
X53760079Y4487662D01*
X53812734Y4586171D01*
X53943947Y4746054D01*
X54103830Y4877267D01*
X54286239Y4974767D01*
X54484165Y5034807D01*
X54690000Y5055080D01*
X54895836Y5034807D01*
X54895836Y5034807D01*
G37*
G36*
X57435836Y5034807D02*
X57633762Y4974767D01*
X57816171Y4877267D01*
X57976054Y4746054D01*
X58107267Y4586171D01*
X58204767Y4403762D01*
X58264807Y4205836D01*
X58280000Y4051578D01*
X58280000Y2948422D01*
X58264807Y2794164D01*
X58204767Y2596238D01*
X58107267Y2413829D01*
X57976054Y2253946D01*
X57816171Y2122733D01*
X57633761Y2025233D01*
X57435835Y1965193D01*
X57230000Y1944920D01*
X57024164Y1965193D01*
X56826238Y2025233D01*
X56643829Y2122733D01*
X56483946Y2253946D01*
X56352733Y2413829D01*
X56255233Y2596239D01*
X56195193Y2794165D01*
X56180000Y2948423D01*
X56180000Y4051578D01*
X56195194Y4205836D01*
X56195194Y4205840D01*
X56255232Y4403759D01*
X56300079Y4487662D01*
X56352734Y4586171D01*
X56483947Y4746054D01*
X56643830Y4877267D01*
X56826239Y4974767D01*
X57024165Y5034807D01*
X57230000Y5055080D01*
X57435836Y5034807D01*
X57435836Y5034807D01*
G37*
G36*
X59975836Y5034807D02*
X60173762Y4974767D01*
X60356171Y4877267D01*
X60516054Y4746054D01*
X60647267Y4586171D01*
X60744767Y4403762D01*
X60804807Y4205836D01*
X60820000Y4051578D01*
X60820000Y2948422D01*
X60804807Y2794164D01*
X60744767Y2596238D01*
X60647267Y2413829D01*
X60516054Y2253946D01*
X60356171Y2122733D01*
X60173761Y2025233D01*
X59975835Y1965193D01*
X59770000Y1944920D01*
X59564164Y1965193D01*
X59366238Y2025233D01*
X59183829Y2122733D01*
X59023946Y2253946D01*
X58892733Y2413829D01*
X58795233Y2596239D01*
X58735193Y2794165D01*
X58720000Y2948423D01*
X58720000Y4051578D01*
X58735194Y4205836D01*
X58735194Y4205840D01*
X58795232Y4403759D01*
X58840079Y4487662D01*
X58892734Y4586171D01*
X59023947Y4746054D01*
X59183830Y4877267D01*
X59366239Y4974767D01*
X59564165Y5034807D01*
X59770000Y5055080D01*
X59975836Y5034807D01*
X59975836Y5034807D01*
G37*
G36*
X43165836Y5034807D02*
X43363762Y4974767D01*
X43546171Y4877267D01*
X43706054Y4746054D01*
X43837267Y4586171D01*
X43934767Y4403762D01*
X43994807Y4205836D01*
X44010000Y4051578D01*
X44010000Y2948422D01*
X43994807Y2794164D01*
X43934767Y2596238D01*
X43837267Y2413829D01*
X43706054Y2253946D01*
X43546171Y2122733D01*
X43363761Y2025233D01*
X43165835Y1965193D01*
X42960000Y1944920D01*
X42754164Y1965193D01*
X42556238Y2025233D01*
X42373829Y2122733D01*
X42213946Y2253946D01*
X42082733Y2413829D01*
X41985233Y2596239D01*
X41925193Y2794165D01*
X41910000Y2948423D01*
X41910000Y4051578D01*
X41925194Y4205836D01*
X41925194Y4205840D01*
X41985232Y4403759D01*
X42030079Y4487662D01*
X42082734Y4586171D01*
X42213947Y4746054D01*
X42373830Y4877267D01*
X42556239Y4974767D01*
X42754165Y5034807D01*
X42960000Y5055080D01*
X43165836Y5034807D01*
X43165836Y5034807D01*
G37*
G36*
X62515836Y5034807D02*
X62713762Y4974767D01*
X62896171Y4877267D01*
X63056054Y4746054D01*
X63187267Y4586171D01*
X63284767Y4403762D01*
X63344807Y4205836D01*
X63360000Y4051578D01*
X63360000Y2948422D01*
X63344807Y2794164D01*
X63284767Y2596238D01*
X63187267Y2413829D01*
X63056054Y2253946D01*
X62896171Y2122733D01*
X62713761Y2025233D01*
X62515835Y1965193D01*
X62310000Y1944920D01*
X62104164Y1965193D01*
X61906238Y2025233D01*
X61723829Y2122733D01*
X61563946Y2253946D01*
X61432733Y2413829D01*
X61335233Y2596239D01*
X61275193Y2794165D01*
X61260000Y2948423D01*
X61260000Y4051578D01*
X61275194Y4205836D01*
X61275194Y4205840D01*
X61335232Y4403759D01*
X61380079Y4487662D01*
X61432734Y4586171D01*
X61563947Y4746054D01*
X61723830Y4877267D01*
X61906239Y4974767D01*
X62104165Y5034807D01*
X62310000Y5055080D01*
X62515836Y5034807D01*
X62515836Y5034807D01*
G37*
G36*
X48245836Y5034807D02*
X48443762Y4974767D01*
X48626171Y4877267D01*
X48786054Y4746054D01*
X48917267Y4586171D01*
X49014767Y4403762D01*
X49074807Y4205836D01*
X49090000Y4051578D01*
X49090000Y2948422D01*
X49074807Y2794164D01*
X49014767Y2596238D01*
X48917267Y2413829D01*
X48786054Y2253946D01*
X48626171Y2122733D01*
X48443761Y2025233D01*
X48245835Y1965193D01*
X48040000Y1944920D01*
X47834164Y1965193D01*
X47636238Y2025233D01*
X47453829Y2122733D01*
X47293946Y2253946D01*
X47162733Y2413829D01*
X47065233Y2596239D01*
X47005193Y2794165D01*
X46990000Y2948423D01*
X46990000Y4051578D01*
X47005194Y4205836D01*
X47005194Y4205840D01*
X47065232Y4403759D01*
X47110079Y4487662D01*
X47162734Y4586171D01*
X47293947Y4746054D01*
X47453830Y4877267D01*
X47636239Y4974767D01*
X47834165Y5034807D01*
X48040000Y5055080D01*
X48245836Y5034807D01*
X48245836Y5034807D01*
G37*
G36*
X45705836Y5034807D02*
X45903762Y4974767D01*
X46086171Y4877267D01*
X46246054Y4746054D01*
X46377267Y4586171D01*
X46474767Y4403762D01*
X46534807Y4205836D01*
X46550000Y4051578D01*
X46550000Y2948422D01*
X46534807Y2794164D01*
X46474767Y2596238D01*
X46377267Y2413829D01*
X46246054Y2253946D01*
X46086171Y2122733D01*
X45903761Y2025233D01*
X45705835Y1965193D01*
X45500000Y1944920D01*
X45294164Y1965193D01*
X45096238Y2025233D01*
X44913829Y2122733D01*
X44753946Y2253946D01*
X44622733Y2413829D01*
X44525233Y2596239D01*
X44465193Y2794165D01*
X44450000Y2948423D01*
X44450000Y4051578D01*
X44465194Y4205836D01*
X44465194Y4205840D01*
X44525232Y4403759D01*
X44570079Y4487662D01*
X44622734Y4586171D01*
X44753947Y4746054D01*
X44913830Y4877267D01*
X45096239Y4974767D01*
X45294165Y5034807D01*
X45500000Y5055080D01*
X45705836Y5034807D01*
X45705836Y5034807D01*
G37*
G36*
X95816730Y7692398D02*
X96326297Y7481328D01*
X96784896Y7174902D01*
X97174902Y6784896D01*
X97481328Y6326297D01*
X97692398Y5816730D01*
X97800000Y5275776D01*
X97800000Y4724224D01*
X97692398Y4183270D01*
X97481328Y3673703D01*
X97174903Y3215105D01*
X96784895Y2825097D01*
X96738600Y2794164D01*
X96326297Y2518672D01*
X95816730Y2307602D01*
X95275776Y2200000D01*
X94724224Y2200000D01*
X94183270Y2307602D01*
X93673703Y2518672D01*
X93261400Y2794164D01*
X93215105Y2825097D01*
X92825097Y3215105D01*
X92518672Y3673703D01*
X92307602Y4183270D01*
X92200000Y4724224D01*
X92200000Y5275776D01*
X92307602Y5816730D01*
X92518672Y6326297D01*
X92825098Y6784896D01*
X93215104Y7174902D01*
X93673703Y7481328D01*
X94183270Y7692398D01*
X94724224Y7800000D01*
X95275776Y7800000D01*
X95816730Y7692398D01*
X95816730Y7692398D01*
G37*
G36*
X5816730Y7692398D02*
X6326297Y7481328D01*
X6784896Y7174902D01*
X7174902Y6784896D01*
X7481328Y6326297D01*
X7692398Y5816730D01*
X7800000Y5275776D01*
X7800000Y4724224D01*
X7692398Y4183270D01*
X7481328Y3673703D01*
X7174903Y3215105D01*
X6784895Y2825097D01*
X6738600Y2794164D01*
X6326297Y2518672D01*
X5816730Y2307602D01*
X5275776Y2200000D01*
X4724224Y2200000D01*
X4183270Y2307602D01*
X3673703Y2518672D01*
X3261400Y2794164D01*
X3215105Y2825097D01*
X2825097Y3215105D01*
X2518672Y3673703D01*
X2307602Y4183270D01*
X2200000Y4724224D01*
X2200000Y5275776D01*
X2307602Y5816730D01*
X2518672Y6326297D01*
X2825098Y6784896D01*
X3215104Y7174902D01*
X3673703Y7481328D01*
X4183270Y7692398D01*
X4724224Y7800000D01*
X5275776Y7800000D01*
X5816730Y7692398D01*
X5816730Y7692398D01*
G37*
G36*
X3042629Y13094931D02*
X3090925Y13080281D01*
X3135445Y13056484D01*
X3174463Y13024463D01*
X3206484Y12985445D01*
X3230281Y12940925D01*
X3244931Y12892629D01*
X3250000Y12841160D01*
X3250000Y12108840D01*
X3244931Y12057371D01*
X3230281Y12009075D01*
X3206484Y11964555D01*
X3174463Y11925537D01*
X3135445Y11893516D01*
X3090925Y11869719D01*
X3042629Y11855069D01*
X2991160Y11850000D01*
X2008840Y11850000D01*
X1957371Y11855069D01*
X1909075Y11869719D01*
X1864555Y11893516D01*
X1825537Y11925537D01*
X1793516Y11964555D01*
X1769719Y12009075D01*
X1755069Y12057371D01*
X1750000Y12108840D01*
X1750000Y12841160D01*
X1755069Y12892629D01*
X1769719Y12940925D01*
X1793516Y12985445D01*
X1825537Y13024463D01*
X1864555Y13056484D01*
X1909075Y13080281D01*
X1957371Y13094931D01*
X2008840Y13100000D01*
X2991160Y13100000D01*
X3042629Y13094931D01*
X3042629Y13094931D01*
G37*
G36*
X69642629Y13419931D02*
X69690925Y13405281D01*
X69735445Y13381484D01*
X69774463Y13349463D01*
X69806484Y13310445D01*
X69830281Y13265925D01*
X69844931Y13217629D01*
X69850000Y13166160D01*
X69850000Y12433840D01*
X69844931Y12382371D01*
X69830281Y12334075D01*
X69806484Y12289555D01*
X69774463Y12250537D01*
X69735445Y12218516D01*
X69690925Y12194719D01*
X69642629Y12180069D01*
X69591160Y12175000D01*
X68608840Y12175000D01*
X68557371Y12180069D01*
X68509075Y12194719D01*
X68464555Y12218516D01*
X68425537Y12250537D01*
X68393516Y12289555D01*
X68369719Y12334075D01*
X68355069Y12382371D01*
X68350000Y12433840D01*
X68350000Y13166160D01*
X68355069Y13217629D01*
X68369719Y13265925D01*
X68393516Y13310445D01*
X68425537Y13349463D01*
X68464555Y13381484D01*
X68509075Y13405281D01*
X68557371Y13419931D01*
X68608840Y13425000D01*
X69591160Y13425000D01*
X69642629Y13419931D01*
X69642629Y13419931D01*
G37*
G36*
X14742629Y14544931D02*
X14790925Y14530281D01*
X14835445Y14506484D01*
X14874463Y14474463D01*
X14906484Y14435445D01*
X14930281Y14390925D01*
X14944931Y14342629D01*
X14950000Y14291160D01*
X14950000Y13308840D01*
X14944931Y13257371D01*
X14930281Y13209075D01*
X14906484Y13164555D01*
X14874463Y13125537D01*
X14835445Y13093516D01*
X14790925Y13069719D01*
X14742629Y13055069D01*
X14691160Y13050000D01*
X13958840Y13050000D01*
X13907371Y13055069D01*
X13859075Y13069719D01*
X13814555Y13093516D01*
X13775537Y13125537D01*
X13743516Y13164555D01*
X13719719Y13209075D01*
X13705069Y13257371D01*
X13700000Y13308840D01*
X13700000Y14291160D01*
X13705069Y14342629D01*
X13719719Y14390925D01*
X13743516Y14435445D01*
X13775537Y14474463D01*
X13814555Y14506484D01*
X13859075Y14530281D01*
X13907371Y14544931D01*
X13958840Y14550000D01*
X14691160Y14550000D01*
X14742629Y14544931D01*
X14742629Y14544931D01*
G37*
G36*
X12692629Y14544931D02*
X12740925Y14530281D01*
X12785445Y14506484D01*
X12824463Y14474463D01*
X12856484Y14435445D01*
X12880281Y14390925D01*
X12894931Y14342629D01*
X12900000Y14291160D01*
X12900000Y13308840D01*
X12894931Y13257371D01*
X12880281Y13209075D01*
X12856484Y13164555D01*
X12824463Y13125537D01*
X12785445Y13093516D01*
X12740925Y13069719D01*
X12692629Y13055069D01*
X12641160Y13050000D01*
X11908840Y13050000D01*
X11857371Y13055069D01*
X11809075Y13069719D01*
X11764555Y13093516D01*
X11725537Y13125537D01*
X11693516Y13164555D01*
X11669719Y13209075D01*
X11655069Y13257371D01*
X11650000Y13308840D01*
X11650000Y14291160D01*
X11655069Y14342629D01*
X11669719Y14390925D01*
X11693516Y14435445D01*
X11725537Y14474463D01*
X11764555Y14506484D01*
X11809075Y14530281D01*
X11857371Y14544931D01*
X11908840Y14550000D01*
X12641160Y14550000D01*
X12692629Y14544931D01*
X12692629Y14544931D01*
G37*
G36*
X6892629Y15244931D02*
X6940925Y15230281D01*
X6985445Y15206484D01*
X7024463Y15174463D01*
X7056484Y15135445D01*
X7080281Y15090925D01*
X7094931Y15042629D01*
X7100000Y14991160D01*
X7100000Y14008840D01*
X7094931Y13957371D01*
X7080281Y13909075D01*
X7056484Y13864555D01*
X7024463Y13825537D01*
X6985445Y13793516D01*
X6940925Y13769719D01*
X6892629Y13755069D01*
X6841160Y13750000D01*
X6108840Y13750000D01*
X6057371Y13755069D01*
X6009075Y13769719D01*
X5964555Y13793516D01*
X5925537Y13825537D01*
X5893516Y13864555D01*
X5869719Y13909075D01*
X5855069Y13957371D01*
X5850000Y14008840D01*
X5850000Y14991160D01*
X5855069Y15042629D01*
X5869719Y15090925D01*
X5893516Y15135445D01*
X5925537Y15174463D01*
X5964555Y15206484D01*
X6009075Y15230281D01*
X6057371Y15244931D01*
X6108840Y15250000D01*
X6841160Y15250000D01*
X6892629Y15244931D01*
X6892629Y15244931D01*
G37*
G36*
X8942629Y15244931D02*
X8990925Y15230281D01*
X9035445Y15206484D01*
X9074463Y15174463D01*
X9106484Y15135445D01*
X9130281Y15090925D01*
X9144931Y15042629D01*
X9150000Y14991160D01*
X9150000Y14008840D01*
X9144931Y13957371D01*
X9130281Y13909075D01*
X9106484Y13864555D01*
X9074463Y13825537D01*
X9035445Y13793516D01*
X8990925Y13769719D01*
X8942629Y13755069D01*
X8891160Y13750000D01*
X8158840Y13750000D01*
X8107371Y13755069D01*
X8059075Y13769719D01*
X8014555Y13793516D01*
X7975537Y13825537D01*
X7943516Y13864555D01*
X7919719Y13909075D01*
X7905069Y13957371D01*
X7900000Y14008840D01*
X7900000Y14991160D01*
X7905069Y15042629D01*
X7919719Y15090925D01*
X7943516Y15135445D01*
X7975537Y15174463D01*
X8014555Y15206484D01*
X8059075Y15230281D01*
X8107371Y15244931D01*
X8158840Y15250000D01*
X8891160Y15250000D01*
X8942629Y15244931D01*
X8942629Y15244931D01*
G37*
G36*
X3042629Y15144931D02*
X3090925Y15130281D01*
X3135445Y15106484D01*
X3174463Y15074463D01*
X3206484Y15035445D01*
X3230281Y14990925D01*
X3244931Y14942629D01*
X3250000Y14891160D01*
X3250000Y14158840D01*
X3244931Y14107371D01*
X3230281Y14059075D01*
X3206484Y14014555D01*
X3174463Y13975537D01*
X3135445Y13943516D01*
X3090925Y13919719D01*
X3042629Y13905069D01*
X2991160Y13900000D01*
X2008840Y13900000D01*
X1957371Y13905069D01*
X1909075Y13919719D01*
X1864555Y13943516D01*
X1825537Y13975537D01*
X1793516Y14014555D01*
X1769719Y14059075D01*
X1755069Y14107371D01*
X1750000Y14158840D01*
X1750000Y14891160D01*
X1755069Y14942629D01*
X1769719Y14990925D01*
X1793516Y15035445D01*
X1825537Y15074463D01*
X1864555Y15106484D01*
X1909075Y15130281D01*
X1957371Y15144931D01*
X2008840Y15150000D01*
X2991160Y15150000D01*
X3042629Y15144931D01*
X3042629Y15144931D01*
G37*
G36*
X66917629Y15644931D02*
X66965925Y15630281D01*
X67010445Y15606484D01*
X67049463Y15574463D01*
X67081484Y15535445D01*
X67105281Y15490925D01*
X67119931Y15442629D01*
X67125000Y15391160D01*
X67125000Y14408840D01*
X67119931Y14357371D01*
X67105281Y14309075D01*
X67081484Y14264555D01*
X67049463Y14225537D01*
X67010445Y14193516D01*
X66965925Y14169719D01*
X66917629Y14155069D01*
X66866160Y14150000D01*
X66133840Y14150000D01*
X66082371Y14155069D01*
X66034075Y14169719D01*
X65989555Y14193516D01*
X65950537Y14225537D01*
X65918516Y14264555D01*
X65894719Y14309075D01*
X65880069Y14357371D01*
X65875000Y14408840D01*
X65875000Y15391160D01*
X65880069Y15442629D01*
X65894719Y15490925D01*
X65918516Y15535445D01*
X65950537Y15574463D01*
X65989555Y15606484D01*
X66034075Y15630281D01*
X66082371Y15644931D01*
X66133840Y15650000D01*
X66866160Y15650000D01*
X66917629Y15644931D01*
X66917629Y15644931D01*
G37*
G36*
X64867629Y15644931D02*
X64915925Y15630281D01*
X64960445Y15606484D01*
X64999463Y15574463D01*
X65031484Y15535445D01*
X65055281Y15490925D01*
X65069931Y15442629D01*
X65075000Y15391160D01*
X65075000Y14408840D01*
X65069931Y14357371D01*
X65055281Y14309075D01*
X65031484Y14264555D01*
X64999463Y14225537D01*
X64960445Y14193516D01*
X64915925Y14169719D01*
X64867629Y14155069D01*
X64816160Y14150000D01*
X64083840Y14150000D01*
X64032371Y14155069D01*
X63984075Y14169719D01*
X63939555Y14193516D01*
X63900537Y14225537D01*
X63868516Y14264555D01*
X63844719Y14309075D01*
X63830069Y14357371D01*
X63825000Y14408840D01*
X63825000Y15391160D01*
X63830069Y15442629D01*
X63844719Y15490925D01*
X63868516Y15535445D01*
X63900537Y15574463D01*
X63939555Y15606484D01*
X63984075Y15630281D01*
X64032371Y15644931D01*
X64083840Y15650000D01*
X64816160Y15650000D01*
X64867629Y15644931D01*
X64867629Y15644931D01*
G37*
G36*
X69642629Y15469931D02*
X69690925Y15455281D01*
X69735445Y15431484D01*
X69774463Y15399463D01*
X69806484Y15360445D01*
X69830281Y15315925D01*
X69844931Y15267629D01*
X69850000Y15216160D01*
X69850000Y14483840D01*
X69844931Y14432371D01*
X69830281Y14384075D01*
X69806484Y14339555D01*
X69774463Y14300537D01*
X69735445Y14268516D01*
X69690925Y14244719D01*
X69642629Y14230069D01*
X69591160Y14225000D01*
X68608840Y14225000D01*
X68557371Y14230069D01*
X68509075Y14244719D01*
X68464555Y14268516D01*
X68425537Y14300537D01*
X68393516Y14339555D01*
X68369719Y14384075D01*
X68355069Y14432371D01*
X68350000Y14483840D01*
X68350000Y15216160D01*
X68355069Y15267629D01*
X68369719Y15315925D01*
X68393516Y15360445D01*
X68425537Y15399463D01*
X68464555Y15431484D01*
X68509075Y15455281D01*
X68557371Y15469931D01*
X68608840Y15475000D01*
X69591160Y15475000D01*
X69642629Y15469931D01*
X69642629Y15469931D01*
G37*
G36*
X3042629Y17094931D02*
X3090925Y17080281D01*
X3135445Y17056484D01*
X3174463Y17024463D01*
X3206484Y16985445D01*
X3230281Y16940925D01*
X3244931Y16892629D01*
X3250000Y16841160D01*
X3250000Y16108840D01*
X3244931Y16057371D01*
X3230281Y16009075D01*
X3206484Y15964555D01*
X3174463Y15925537D01*
X3135445Y15893516D01*
X3090925Y15869719D01*
X3042629Y15855069D01*
X2991160Y15850000D01*
X2008840Y15850000D01*
X1957371Y15855069D01*
X1909075Y15869719D01*
X1864555Y15893516D01*
X1825537Y15925537D01*
X1793516Y15964555D01*
X1769719Y16009075D01*
X1755069Y16057371D01*
X1750000Y16108840D01*
X1750000Y16841160D01*
X1755069Y16892629D01*
X1769719Y16940925D01*
X1793516Y16985445D01*
X1825537Y17024463D01*
X1864555Y17056484D01*
X1909075Y17080281D01*
X1957371Y17094931D01*
X2008840Y17100000D01*
X2991160Y17100000D01*
X3042629Y17094931D01*
X3042629Y17094931D01*
G37*
G36*
X53500000Y16925000D02*
X52950000Y16925000D01*
X52950000Y18475000D01*
X53500000Y18475000D01*
X53500000Y16925000D01*
X53500000Y16925000D01*
G37*
G36*
X54150000Y16925000D02*
X53600000Y16925000D01*
X53600000Y18475000D01*
X54150000Y18475000D01*
X54150000Y16925000D01*
X54150000Y16925000D01*
G37*
G36*
X55450000Y16925000D02*
X54900000Y16925000D01*
X54900000Y18475000D01*
X55450000Y18475000D01*
X55450000Y16925000D01*
X55450000Y16925000D01*
G37*
G36*
X54800000Y16925000D02*
X54250000Y16925000D01*
X54250000Y18475000D01*
X54800000Y18475000D01*
X54800000Y16925000D01*
X54800000Y16925000D01*
G37*
G36*
X8592629Y19044931D02*
X8640925Y19030281D01*
X8685445Y19006484D01*
X8724463Y18974463D01*
X8756484Y18935445D01*
X8780281Y18890925D01*
X8794931Y18842629D01*
X8800000Y18791160D01*
X8800000Y17808840D01*
X8794931Y17757371D01*
X8780281Y17709075D01*
X8756484Y17664555D01*
X8724463Y17625537D01*
X8685445Y17593516D01*
X8640925Y17569719D01*
X8592629Y17555069D01*
X8541160Y17550000D01*
X7808840Y17550000D01*
X7757371Y17555069D01*
X7709075Y17569719D01*
X7664555Y17593516D01*
X7625537Y17625537D01*
X7593516Y17664555D01*
X7569719Y17709075D01*
X7555069Y17757371D01*
X7550000Y17808840D01*
X7550000Y18791160D01*
X7555069Y18842629D01*
X7569719Y18890925D01*
X7593516Y18935445D01*
X7625537Y18974463D01*
X7664555Y19006484D01*
X7709075Y19030281D01*
X7757371Y19044931D01*
X7808840Y19050000D01*
X8541160Y19050000D01*
X8592629Y19044931D01*
X8592629Y19044931D01*
G37*
G36*
X10642629Y19044931D02*
X10690925Y19030281D01*
X10735445Y19006484D01*
X10774463Y18974463D01*
X10806484Y18935445D01*
X10830281Y18890925D01*
X10844931Y18842629D01*
X10850000Y18791160D01*
X10850000Y17808840D01*
X10844931Y17757371D01*
X10830281Y17709075D01*
X10806484Y17664555D01*
X10774463Y17625537D01*
X10735445Y17593516D01*
X10690925Y17569719D01*
X10642629Y17555069D01*
X10591160Y17550000D01*
X9858840Y17550000D01*
X9807371Y17555069D01*
X9759075Y17569719D01*
X9714555Y17593516D01*
X9675537Y17625537D01*
X9643516Y17664555D01*
X9619719Y17709075D01*
X9605069Y17757371D01*
X9600000Y17808840D01*
X9600000Y18791160D01*
X9605069Y18842629D01*
X9619719Y18890925D01*
X9643516Y18935445D01*
X9675537Y18974463D01*
X9714555Y19006484D01*
X9759075Y19030281D01*
X9807371Y19044931D01*
X9858840Y19050000D01*
X10591160Y19050000D01*
X10642629Y19044931D01*
X10642629Y19044931D01*
G37*
G36*
X16775000Y17850000D02*
X16275000Y17850000D01*
X16275000Y19050000D01*
X16775000Y19050000D01*
X16775000Y17850000D01*
X16775000Y17850000D01*
G37*
G36*
X15475000Y17850000D02*
X14975000Y17850000D01*
X14975000Y19050000D01*
X15475000Y19050000D01*
X15475000Y17850000D01*
X15475000Y17850000D01*
G37*
G36*
X14175000Y17850000D02*
X13675000Y17850000D01*
X13675000Y19050000D01*
X14175000Y19050000D01*
X14175000Y17850000D01*
X14175000Y17850000D01*
G37*
G36*
X13525000Y17850000D02*
X13025000Y17850000D01*
X13025000Y19050000D01*
X13525000Y19050000D01*
X13525000Y17850000D01*
X13525000Y17850000D01*
G37*
G36*
X12875000Y17850000D02*
X12375000Y17850000D01*
X12375000Y19050000D01*
X12875000Y19050000D01*
X12875000Y17850000D01*
X12875000Y17850000D01*
G37*
G36*
X16125000Y17850000D02*
X15625000Y17850000D01*
X15625000Y19050000D01*
X16125000Y19050000D01*
X16125000Y17850000D01*
X16125000Y17850000D01*
G37*
G36*
X14825000Y17850000D02*
X14325000Y17850000D01*
X14325000Y19050000D01*
X14825000Y19050000D01*
X14825000Y17850000D01*
X14825000Y17850000D01*
G37*
G36*
X17425000Y17850000D02*
X16925000Y17850000D01*
X16925000Y19050000D01*
X17425000Y19050000D01*
X17425000Y17850000D01*
X17425000Y17850000D01*
G37*
G36*
X18075000Y17850000D02*
X17575000Y17850000D01*
X17575000Y19050000D01*
X18075000Y19050000D01*
X18075000Y17850000D01*
X18075000Y17850000D01*
G37*
G36*
X18725000Y17850000D02*
X18225000Y17850000D01*
X18225000Y19050000D01*
X18725000Y19050000D01*
X18725000Y17850000D01*
X18725000Y17850000D01*
G37*
G36*
X20025000Y17850000D02*
X19525000Y17850000D01*
X19525000Y19050000D01*
X20025000Y19050000D01*
X20025000Y17850000D01*
X20025000Y17850000D01*
G37*
G36*
X19375000Y17850000D02*
X18875000Y17850000D01*
X18875000Y19050000D01*
X19375000Y19050000D01*
X19375000Y17850000D01*
X19375000Y17850000D01*
G37*
G36*
X3042629Y19144931D02*
X3090925Y19130281D01*
X3135445Y19106484D01*
X3174463Y19074463D01*
X3206484Y19035445D01*
X3230281Y18990925D01*
X3244931Y18942629D01*
X3250000Y18891160D01*
X3250000Y18158840D01*
X3244931Y18107371D01*
X3230281Y18059075D01*
X3206484Y18014555D01*
X3174463Y17975537D01*
X3135445Y17943516D01*
X3090925Y17919719D01*
X3042629Y17905069D01*
X2991160Y17900000D01*
X2008840Y17900000D01*
X1957371Y17905069D01*
X1909075Y17919719D01*
X1864555Y17943516D01*
X1825537Y17975537D01*
X1793516Y18014555D01*
X1769719Y18059075D01*
X1755069Y18107371D01*
X1750000Y18158840D01*
X1750000Y18891160D01*
X1755069Y18942629D01*
X1769719Y18990925D01*
X1793516Y19035445D01*
X1825537Y19074463D01*
X1864555Y19106484D01*
X1909075Y19130281D01*
X1957371Y19144931D01*
X2008840Y19150000D01*
X2991160Y19150000D01*
X3042629Y19144931D01*
X3042629Y19144931D01*
G37*
G36*
X82550000Y18950000D02*
X76050000Y18950000D01*
X76050000Y24850000D01*
X82550000Y24850000D01*
X82550000Y18950000D01*
X82550000Y18950000D01*
G37*
G36*
X74150000Y18970000D02*
X71850000Y18970000D01*
X71850000Y20270000D01*
X74150000Y20270000D01*
X74150000Y18970000D01*
X74150000Y18970000D01*
G37*
G36*
X60724084Y20720085D02*
X60770876Y20705891D01*
X60814007Y20682836D01*
X60851812Y20651812D01*
X60882836Y20614007D01*
X60905891Y20570876D01*
X60920085Y20524084D01*
X60925000Y20474179D01*
X60925000Y19350821D01*
X60920085Y19300916D01*
X60905891Y19254124D01*
X60882836Y19210993D01*
X60851812Y19173188D01*
X60814007Y19142164D01*
X60770876Y19119109D01*
X60724084Y19104915D01*
X60674179Y19100000D01*
X57725821Y19100000D01*
X57675916Y19104915D01*
X57629124Y19119109D01*
X57585993Y19142164D01*
X57548188Y19173188D01*
X57517164Y19210993D01*
X57494109Y19254124D01*
X57479915Y19300916D01*
X57475000Y19350821D01*
X57475000Y20474179D01*
X57479915Y20524084D01*
X57494109Y20570876D01*
X57517164Y20614007D01*
X57548188Y20651812D01*
X57585993Y20682836D01*
X57629124Y20705891D01*
X57675916Y20720085D01*
X57725821Y20725000D01*
X60674179Y20725000D01*
X60724084Y20720085D01*
X60724084Y20720085D01*
G37*
G36*
X51692629Y20344931D02*
X51740925Y20330281D01*
X51785445Y20306484D01*
X51824463Y20274463D01*
X51856484Y20235445D01*
X51880281Y20190925D01*
X51894931Y20142629D01*
X51900000Y20091160D01*
X51900000Y19358840D01*
X51894931Y19307371D01*
X51880281Y19259075D01*
X51856484Y19214555D01*
X51824463Y19175537D01*
X51785445Y19143516D01*
X51740925Y19119719D01*
X51692629Y19105069D01*
X51641160Y19100000D01*
X50658840Y19100000D01*
X50607371Y19105069D01*
X50559075Y19119719D01*
X50514555Y19143516D01*
X50475537Y19175537D01*
X50443516Y19214555D01*
X50419719Y19259075D01*
X50405069Y19307371D01*
X50400000Y19358840D01*
X50400000Y20091160D01*
X50405069Y20142629D01*
X50419719Y20190925D01*
X50443516Y20235445D01*
X50475537Y20274463D01*
X50514555Y20306484D01*
X50559075Y20330281D01*
X50607371Y20344931D01*
X50658840Y20350000D01*
X51641160Y20350000D01*
X51692629Y20344931D01*
X51692629Y20344931D01*
G37*
G36*
X67642629Y21644931D02*
X67690925Y21630281D01*
X67735445Y21606484D01*
X67774463Y21574463D01*
X67806484Y21535445D01*
X67830281Y21490925D01*
X67844931Y21442629D01*
X67850000Y21391160D01*
X67850000Y20408840D01*
X67844931Y20357371D01*
X67830281Y20309075D01*
X67806484Y20264555D01*
X67774463Y20225537D01*
X67735445Y20193516D01*
X67690925Y20169719D01*
X67642629Y20155069D01*
X67591160Y20150000D01*
X66858840Y20150000D01*
X66807371Y20155069D01*
X66759075Y20169719D01*
X66714555Y20193516D01*
X66675537Y20225537D01*
X66643516Y20264555D01*
X66619719Y20309075D01*
X66605069Y20357371D01*
X66600000Y20408840D01*
X66600000Y21391160D01*
X66605069Y21442629D01*
X66619719Y21490925D01*
X66643516Y21535445D01*
X66675537Y21574463D01*
X66714555Y21606484D01*
X66759075Y21630281D01*
X66807371Y21644931D01*
X66858840Y21650000D01*
X67591160Y21650000D01*
X67642629Y21644931D01*
X67642629Y21644931D01*
G37*
G36*
X65592629Y21644931D02*
X65640925Y21630281D01*
X65685445Y21606484D01*
X65724463Y21574463D01*
X65756484Y21535445D01*
X65780281Y21490925D01*
X65794931Y21442629D01*
X65800000Y21391160D01*
X65800000Y20408840D01*
X65794931Y20357371D01*
X65780281Y20309075D01*
X65756484Y20264555D01*
X65724463Y20225537D01*
X65685445Y20193516D01*
X65640925Y20169719D01*
X65592629Y20155069D01*
X65541160Y20150000D01*
X64808840Y20150000D01*
X64757371Y20155069D01*
X64709075Y20169719D01*
X64664555Y20193516D01*
X64625537Y20225537D01*
X64593516Y20264555D01*
X64569719Y20309075D01*
X64555069Y20357371D01*
X64550000Y20408840D01*
X64550000Y21391160D01*
X64555069Y21442629D01*
X64569719Y21490925D01*
X64593516Y21535445D01*
X64625537Y21574463D01*
X64664555Y21606484D01*
X64709075Y21630281D01*
X64757371Y21644931D01*
X64808840Y21650000D01*
X65541160Y21650000D01*
X65592629Y21644931D01*
X65592629Y21644931D01*
G37*
G36*
X3042629Y21594931D02*
X3090925Y21580281D01*
X3135445Y21556484D01*
X3174463Y21524463D01*
X3206484Y21485445D01*
X3230281Y21440925D01*
X3244931Y21392629D01*
X3250000Y21341160D01*
X3250000Y20608840D01*
X3244931Y20557371D01*
X3230281Y20509075D01*
X3206484Y20464555D01*
X3174463Y20425537D01*
X3135445Y20393516D01*
X3090925Y20369719D01*
X3042629Y20355069D01*
X2991160Y20350000D01*
X2008840Y20350000D01*
X1957371Y20355069D01*
X1909075Y20369719D01*
X1864555Y20393516D01*
X1825537Y20425537D01*
X1793516Y20464555D01*
X1769719Y20509075D01*
X1755069Y20557371D01*
X1750000Y20608840D01*
X1750000Y21341160D01*
X1755069Y21392629D01*
X1769719Y21440925D01*
X1793516Y21485445D01*
X1825537Y21524463D01*
X1864555Y21556484D01*
X1909075Y21580281D01*
X1957371Y21594931D01*
X2008840Y21600000D01*
X2991160Y21600000D01*
X3042629Y21594931D01*
X3042629Y21594931D01*
G37*
G36*
X51692629Y22394931D02*
X51740925Y22380281D01*
X51785445Y22356484D01*
X51824463Y22324463D01*
X51856484Y22285445D01*
X51880281Y22240925D01*
X51894931Y22192629D01*
X51900000Y22141160D01*
X51900000Y21408840D01*
X51894931Y21357371D01*
X51880281Y21309075D01*
X51856484Y21264555D01*
X51824463Y21225537D01*
X51785445Y21193516D01*
X51740925Y21169719D01*
X51692629Y21155069D01*
X51641160Y21150000D01*
X50658840Y21150000D01*
X50607371Y21155069D01*
X50559075Y21169719D01*
X50514555Y21193516D01*
X50475537Y21225537D01*
X50443516Y21264555D01*
X50419719Y21309075D01*
X50405069Y21357371D01*
X50400000Y21408840D01*
X50400000Y22141160D01*
X50405069Y22192629D01*
X50419719Y22240925D01*
X50443516Y22285445D01*
X50475537Y22324463D01*
X50514555Y22356484D01*
X50559075Y22380281D01*
X50607371Y22394931D01*
X50658840Y22400000D01*
X51641160Y22400000D01*
X51692629Y22394931D01*
X51692629Y22394931D01*
G37*
G36*
X53500000Y21325000D02*
X52950000Y21325000D01*
X52950000Y22875000D01*
X53500000Y22875000D01*
X53500000Y21325000D01*
X53500000Y21325000D01*
G37*
G36*
X54150000Y21325000D02*
X53600000Y21325000D01*
X53600000Y22875000D01*
X54150000Y22875000D01*
X54150000Y21325000D01*
X54150000Y21325000D01*
G37*
G36*
X54800000Y21325000D02*
X54250000Y21325000D01*
X54250000Y22875000D01*
X54800000Y22875000D01*
X54800000Y21325000D01*
X54800000Y21325000D01*
G37*
G36*
X55450000Y21325000D02*
X54900000Y21325000D01*
X54900000Y22875000D01*
X55450000Y22875000D01*
X55450000Y21325000D01*
X55450000Y21325000D01*
G37*
G36*
X34975000Y22225000D02*
X33025000Y22225000D01*
X33025000Y25775000D01*
X34975000Y25775000D01*
X34975000Y22225000D01*
X34975000Y22225000D01*
G37*
G36*
X97706274Y24409650D02*
X97897362Y24330498D01*
X98069336Y24215589D01*
X98215589Y24069336D01*
X98330498Y23897362D01*
X98409650Y23706274D01*
X98450000Y23503416D01*
X98450000Y23296584D01*
X98409650Y23093726D01*
X98330498Y22902638D01*
X98215589Y22730664D01*
X98069336Y22584411D01*
X97897362Y22469502D01*
X97706274Y22390350D01*
X97503416Y22350000D01*
X97296584Y22350000D01*
X97093726Y22390350D01*
X96902638Y22469502D01*
X96730664Y22584411D01*
X96584411Y22730664D01*
X96469502Y22902638D01*
X96390350Y23093726D01*
X96350000Y23296584D01*
X96350000Y23503416D01*
X96390350Y23706274D01*
X96469502Y23897362D01*
X96584411Y24069336D01*
X96730664Y24215589D01*
X96902638Y24330498D01*
X97093726Y24409650D01*
X97296584Y24450000D01*
X97503416Y24450000D01*
X97706274Y24409650D01*
X97706274Y24409650D01*
G37*
G36*
X93450000Y22350000D02*
X91350000Y22350000D01*
X91350000Y24450000D01*
X93450000Y24450000D01*
X93450000Y22350000D01*
X93450000Y22350000D01*
G37*
G36*
X3042629Y23644931D02*
X3090925Y23630281D01*
X3135445Y23606484D01*
X3174463Y23574463D01*
X3206484Y23535445D01*
X3230281Y23490925D01*
X3244931Y23442629D01*
X3250000Y23391160D01*
X3250000Y22658840D01*
X3244931Y22607371D01*
X3230281Y22559075D01*
X3206484Y22514555D01*
X3174463Y22475537D01*
X3135445Y22443516D01*
X3090925Y22419719D01*
X3042629Y22405069D01*
X2991160Y22400000D01*
X2008840Y22400000D01*
X1957371Y22405069D01*
X1909075Y22419719D01*
X1864555Y22443516D01*
X1825537Y22475537D01*
X1793516Y22514555D01*
X1769719Y22559075D01*
X1755069Y22607371D01*
X1750000Y22658840D01*
X1750000Y23391160D01*
X1755069Y23442629D01*
X1769719Y23490925D01*
X1793516Y23535445D01*
X1825537Y23574463D01*
X1864555Y23606484D01*
X1909075Y23630281D01*
X1957371Y23644931D01*
X2008840Y23650000D01*
X2991160Y23650000D01*
X3042629Y23644931D01*
X3042629Y23644931D01*
G37*
G36*
X65272690Y24820052D02*
X65319814Y24805757D01*
X65363241Y24782544D01*
X65401306Y24751306D01*
X65432544Y24713241D01*
X65455757Y24669814D01*
X65470052Y24622690D01*
X65475000Y24572452D01*
X65475000Y23227548D01*
X65470052Y23177310D01*
X65455757Y23130186D01*
X65432544Y23086759D01*
X65401306Y23048694D01*
X65363241Y23017456D01*
X65319814Y22994243D01*
X65272690Y22979948D01*
X65222452Y22975000D01*
X64202548Y22975000D01*
X64152310Y22979948D01*
X64105186Y22994243D01*
X64061759Y23017456D01*
X64023694Y23048694D01*
X63992456Y23086759D01*
X63969243Y23130186D01*
X63954948Y23177310D01*
X63950000Y23227548D01*
X63950000Y24572452D01*
X63954948Y24622690D01*
X63969243Y24669814D01*
X63992456Y24713241D01*
X64023694Y24751306D01*
X64061759Y24782544D01*
X64105186Y24805757D01*
X64152310Y24820052D01*
X64202548Y24825000D01*
X65222452Y24825000D01*
X65272690Y24820052D01*
X65272690Y24820052D01*
G37*
G36*
X68247690Y24820052D02*
X68294814Y24805757D01*
X68338241Y24782544D01*
X68376306Y24751306D01*
X68407544Y24713241D01*
X68430757Y24669814D01*
X68445052Y24622690D01*
X68450000Y24572452D01*
X68450000Y23227548D01*
X68445052Y23177310D01*
X68430757Y23130186D01*
X68407544Y23086759D01*
X68376306Y23048694D01*
X68338241Y23017456D01*
X68294814Y22994243D01*
X68247690Y22979948D01*
X68197452Y22975000D01*
X67177548Y22975000D01*
X67127310Y22979948D01*
X67080186Y22994243D01*
X67036759Y23017456D01*
X66998694Y23048694D01*
X66967456Y23086759D01*
X66944243Y23130186D01*
X66929948Y23177310D01*
X66925000Y23227548D01*
X66925000Y24572452D01*
X66929948Y24622690D01*
X66944243Y24669814D01*
X66967456Y24713241D01*
X66998694Y24751306D01*
X67036759Y24782544D01*
X67080186Y24805757D01*
X67127310Y24820052D01*
X67177548Y24825000D01*
X68197452Y24825000D01*
X68247690Y24820052D01*
X68247690Y24820052D01*
G37*
G36*
X74150000Y23530000D02*
X71850000Y23530000D01*
X71850000Y24830000D01*
X74150000Y24830000D01*
X74150000Y23530000D01*
X74150000Y23530000D01*
G37*
G36*
X15475000Y23550000D02*
X14975000Y23550000D01*
X14975000Y24750000D01*
X15475000Y24750000D01*
X15475000Y23550000D01*
X15475000Y23550000D01*
G37*
G36*
X20025000Y23550000D02*
X19525000Y23550000D01*
X19525000Y24750000D01*
X20025000Y24750000D01*
X20025000Y23550000D01*
X20025000Y23550000D01*
G37*
G36*
X18725000Y23550000D02*
X18225000Y23550000D01*
X18225000Y24750000D01*
X18725000Y24750000D01*
X18725000Y23550000D01*
X18725000Y23550000D01*
G37*
G36*
X10642629Y25044931D02*
X10690925Y25030281D01*
X10735445Y25006484D01*
X10774463Y24974463D01*
X10806484Y24935445D01*
X10830281Y24890925D01*
X10844931Y24842629D01*
X10850000Y24791160D01*
X10850000Y23808840D01*
X10844931Y23757371D01*
X10830281Y23709075D01*
X10806484Y23664555D01*
X10774463Y23625537D01*
X10735445Y23593516D01*
X10690925Y23569719D01*
X10642629Y23555069D01*
X10591160Y23550000D01*
X9858840Y23550000D01*
X9807371Y23555069D01*
X9759075Y23569719D01*
X9714555Y23593516D01*
X9675537Y23625537D01*
X9643516Y23664555D01*
X9619719Y23709075D01*
X9605069Y23757371D01*
X9600000Y23808840D01*
X9600000Y24791160D01*
X9605069Y24842629D01*
X9619719Y24890925D01*
X9643516Y24935445D01*
X9675537Y24974463D01*
X9714555Y25006484D01*
X9759075Y25030281D01*
X9807371Y25044931D01*
X9858840Y25050000D01*
X10591160Y25050000D01*
X10642629Y25044931D01*
X10642629Y25044931D01*
G37*
G36*
X19375000Y23550000D02*
X18875000Y23550000D01*
X18875000Y24750000D01*
X19375000Y24750000D01*
X19375000Y23550000D01*
X19375000Y23550000D01*
G37*
G36*
X12875000Y23550000D02*
X12375000Y23550000D01*
X12375000Y24750000D01*
X12875000Y24750000D01*
X12875000Y23550000D01*
X12875000Y23550000D01*
G37*
G36*
X13525000Y23550000D02*
X13025000Y23550000D01*
X13025000Y24750000D01*
X13525000Y24750000D01*
X13525000Y23550000D01*
X13525000Y23550000D01*
G37*
G36*
X14825000Y23550000D02*
X14325000Y23550000D01*
X14325000Y24750000D01*
X14825000Y24750000D01*
X14825000Y23550000D01*
X14825000Y23550000D01*
G37*
G36*
X18075000Y23550000D02*
X17575000Y23550000D01*
X17575000Y24750000D01*
X18075000Y24750000D01*
X18075000Y23550000D01*
X18075000Y23550000D01*
G37*
G36*
X16125000Y23550000D02*
X15625000Y23550000D01*
X15625000Y24750000D01*
X16125000Y24750000D01*
X16125000Y23550000D01*
X16125000Y23550000D01*
G37*
G36*
X17425000Y23550000D02*
X16925000Y23550000D01*
X16925000Y24750000D01*
X17425000Y24750000D01*
X17425000Y23550000D01*
X17425000Y23550000D01*
G37*
G36*
X16775000Y23550000D02*
X16275000Y23550000D01*
X16275000Y24750000D01*
X16775000Y24750000D01*
X16775000Y23550000D01*
X16775000Y23550000D01*
G37*
G36*
X14175000Y23550000D02*
X13675000Y23550000D01*
X13675000Y24750000D01*
X14175000Y24750000D01*
X14175000Y23550000D01*
X14175000Y23550000D01*
G37*
G36*
X8592629Y25044931D02*
X8640925Y25030281D01*
X8685445Y25006484D01*
X8724463Y24974463D01*
X8756484Y24935445D01*
X8780281Y24890925D01*
X8794931Y24842629D01*
X8800000Y24791160D01*
X8800000Y23808840D01*
X8794931Y23757371D01*
X8780281Y23709075D01*
X8756484Y23664555D01*
X8724463Y23625537D01*
X8685445Y23593516D01*
X8640925Y23569719D01*
X8592629Y23555069D01*
X8541160Y23550000D01*
X7808840Y23550000D01*
X7757371Y23555069D01*
X7709075Y23569719D01*
X7664555Y23593516D01*
X7625537Y23625537D01*
X7593516Y23664555D01*
X7569719Y23709075D01*
X7555069Y23757371D01*
X7550000Y23808840D01*
X7550000Y24791160D01*
X7555069Y24842629D01*
X7569719Y24890925D01*
X7593516Y24935445D01*
X7625537Y24974463D01*
X7664555Y25006484D01*
X7709075Y25030281D01*
X7757371Y25044931D01*
X7808840Y25050000D01*
X8541160Y25050000D01*
X8592629Y25044931D01*
X8592629Y25044931D01*
G37*
G36*
X31975000Y24225000D02*
X30025000Y24225000D01*
X30025000Y27775000D01*
X31975000Y27775000D01*
X31975000Y24225000D01*
X31975000Y24225000D01*
G37*
G36*
X3042629Y25594931D02*
X3090925Y25580281D01*
X3135445Y25556484D01*
X3174463Y25524463D01*
X3206484Y25485445D01*
X3230281Y25440925D01*
X3244931Y25392629D01*
X3250000Y25341160D01*
X3250000Y24608840D01*
X3244931Y24557371D01*
X3230281Y24509075D01*
X3206484Y24464555D01*
X3174463Y24425537D01*
X3135445Y24393516D01*
X3090925Y24369719D01*
X3042629Y24355069D01*
X2991160Y24350000D01*
X2008840Y24350000D01*
X1957371Y24355069D01*
X1909075Y24369719D01*
X1864555Y24393516D01*
X1825537Y24425537D01*
X1793516Y24464555D01*
X1769719Y24509075D01*
X1755069Y24557371D01*
X1750000Y24608840D01*
X1750000Y25341160D01*
X1755069Y25392629D01*
X1769719Y25440925D01*
X1793516Y25485445D01*
X1825537Y25524463D01*
X1864555Y25556484D01*
X1909075Y25580281D01*
X1957371Y25594931D01*
X2008840Y25600000D01*
X2991160Y25600000D01*
X3042629Y25594931D01*
X3042629Y25594931D01*
G37*
G36*
X45448749Y25420077D02*
X45495627Y25405857D01*
X45538826Y25382767D01*
X45576691Y25351691D01*
X45607767Y25313826D01*
X45630857Y25270627D01*
X45645077Y25223749D01*
X45650000Y25173768D01*
X45650000Y24626232D01*
X45645077Y24576251D01*
X45630857Y24529373D01*
X45607767Y24486174D01*
X45576691Y24448309D01*
X45538826Y24417233D01*
X45495627Y24394143D01*
X45448749Y24379923D01*
X45398768Y24375000D01*
X44751232Y24375000D01*
X44701251Y24379923D01*
X44654373Y24394143D01*
X44611174Y24417233D01*
X44573309Y24448309D01*
X44542233Y24486174D01*
X44519143Y24529373D01*
X44504923Y24576251D01*
X44500000Y24626232D01*
X44500000Y25173768D01*
X44504923Y25223749D01*
X44519143Y25270627D01*
X44542233Y25313826D01*
X44573309Y25351691D01*
X44611174Y25382767D01*
X44654373Y25405857D01*
X44701251Y25420077D01*
X44751232Y25425000D01*
X45398768Y25425000D01*
X45448749Y25420077D01*
X45448749Y25420077D01*
G37*
G36*
X43698749Y25420077D02*
X43745627Y25405857D01*
X43788826Y25382767D01*
X43826691Y25351691D01*
X43857767Y25313826D01*
X43880857Y25270627D01*
X43895077Y25223749D01*
X43900000Y25173768D01*
X43900000Y24626232D01*
X43895077Y24576251D01*
X43880857Y24529373D01*
X43857767Y24486174D01*
X43826691Y24448309D01*
X43788826Y24417233D01*
X43745627Y24394143D01*
X43698749Y24379923D01*
X43648768Y24375000D01*
X43001232Y24375000D01*
X42951251Y24379923D01*
X42904373Y24394143D01*
X42861174Y24417233D01*
X42823309Y24448309D01*
X42792233Y24486174D01*
X42769143Y24529373D01*
X42754923Y24576251D01*
X42750000Y24626232D01*
X42750000Y25173768D01*
X42754923Y25223749D01*
X42769143Y25270627D01*
X42792233Y25313826D01*
X42823309Y25351691D01*
X42861174Y25382767D01*
X42904373Y25405857D01*
X42951251Y25420077D01*
X43001232Y25425000D01*
X43648768Y25425000D01*
X43698749Y25420077D01*
X43698749Y25420077D01*
G37*
G36*
X60724084Y26695085D02*
X60770876Y26680891D01*
X60814007Y26657836D01*
X60851812Y26626812D01*
X60882836Y26589007D01*
X60905891Y26545876D01*
X60920085Y26499084D01*
X60925000Y26449179D01*
X60925000Y25325821D01*
X60920085Y25275916D01*
X60905891Y25229124D01*
X60882836Y25185993D01*
X60851812Y25148188D01*
X60814007Y25117164D01*
X60770876Y25094109D01*
X60724084Y25079915D01*
X60674179Y25075000D01*
X57725821Y25075000D01*
X57675916Y25079915D01*
X57629124Y25094109D01*
X57585993Y25117164D01*
X57548188Y25148188D01*
X57517164Y25185993D01*
X57494109Y25229124D01*
X57479915Y25275916D01*
X57475000Y25325821D01*
X57475000Y26449179D01*
X57479915Y26499084D01*
X57494109Y26545876D01*
X57517164Y26589007D01*
X57548188Y26626812D01*
X57585993Y26657836D01*
X57629124Y26680891D01*
X57675916Y26695085D01*
X57725821Y26700000D01*
X60674179Y26700000D01*
X60724084Y26695085D01*
X60724084Y26695085D01*
G37*
G36*
X3042629Y27644931D02*
X3090925Y27630281D01*
X3135445Y27606484D01*
X3174463Y27574463D01*
X3206484Y27535445D01*
X3230281Y27490925D01*
X3244931Y27442629D01*
X3250000Y27391160D01*
X3250000Y26658840D01*
X3244931Y26607371D01*
X3230281Y26559075D01*
X3206484Y26514555D01*
X3174463Y26475537D01*
X3135445Y26443516D01*
X3090925Y26419719D01*
X3042629Y26405069D01*
X2991160Y26400000D01*
X2008840Y26400000D01*
X1957371Y26405069D01*
X1909075Y26419719D01*
X1864555Y26443516D01*
X1825537Y26475537D01*
X1793516Y26514555D01*
X1769719Y26559075D01*
X1755069Y26607371D01*
X1750000Y26658840D01*
X1750000Y27391160D01*
X1755069Y27442629D01*
X1769719Y27490925D01*
X1793516Y27535445D01*
X1825537Y27574463D01*
X1864555Y27606484D01*
X1909075Y27630281D01*
X1957371Y27644931D01*
X2008840Y27650000D01*
X2991160Y27650000D01*
X3042629Y27644931D01*
X3042629Y27644931D01*
G37*
G36*
X45423749Y27920077D02*
X45470627Y27905857D01*
X45513826Y27882767D01*
X45551691Y27851691D01*
X45582767Y27813826D01*
X45605857Y27770627D01*
X45620077Y27723749D01*
X45625000Y27673768D01*
X45625000Y27126232D01*
X45620077Y27076251D01*
X45605857Y27029373D01*
X45582767Y26986174D01*
X45551691Y26948309D01*
X45513826Y26917233D01*
X45470627Y26894143D01*
X45423749Y26879923D01*
X45373768Y26875000D01*
X44726232Y26875000D01*
X44676251Y26879923D01*
X44629373Y26894143D01*
X44586174Y26917233D01*
X44548309Y26948309D01*
X44517233Y26986174D01*
X44494143Y27029373D01*
X44479923Y27076251D01*
X44475000Y27126232D01*
X44475000Y27673768D01*
X44479923Y27723749D01*
X44494143Y27770627D01*
X44517233Y27813826D01*
X44548309Y27851691D01*
X44586174Y27882767D01*
X44629373Y27905857D01*
X44676251Y27920077D01*
X44726232Y27925000D01*
X45373768Y27925000D01*
X45423749Y27920077D01*
X45423749Y27920077D01*
G37*
G36*
X43673749Y27920077D02*
X43720627Y27905857D01*
X43763826Y27882767D01*
X43801691Y27851691D01*
X43832767Y27813826D01*
X43855857Y27770627D01*
X43870077Y27723749D01*
X43875000Y27673768D01*
X43875000Y27126232D01*
X43870077Y27076251D01*
X43855857Y27029373D01*
X43832767Y26986174D01*
X43801691Y26948309D01*
X43763826Y26917233D01*
X43720627Y26894143D01*
X43673749Y26879923D01*
X43623768Y26875000D01*
X42976232Y26875000D01*
X42926251Y26879923D01*
X42879373Y26894143D01*
X42836174Y26917233D01*
X42798309Y26948309D01*
X42767233Y26986174D01*
X42744143Y27029373D01*
X42729923Y27076251D01*
X42725000Y27126232D01*
X42725000Y27673768D01*
X42729923Y27723749D01*
X42744143Y27770627D01*
X42767233Y27813826D01*
X42798309Y27851691D01*
X42836174Y27882767D01*
X42879373Y27905857D01*
X42926251Y27920077D01*
X42976232Y27925000D01*
X43623768Y27925000D01*
X43673749Y27920077D01*
X43673749Y27920077D01*
G37*
G36*
X65500000Y26950000D02*
X61900000Y26950000D01*
X61900000Y28850000D01*
X65500000Y28850000D01*
X65500000Y26950000D01*
X65500000Y26950000D01*
G37*
G36*
X70500000Y26950000D02*
X66900000Y26950000D01*
X66900000Y28850000D01*
X70500000Y28850000D01*
X70500000Y26950000D01*
X70500000Y26950000D01*
G37*
G36*
X50242629Y28494931D02*
X50290925Y28480281D01*
X50335445Y28456484D01*
X50374463Y28424463D01*
X50406484Y28385445D01*
X50430281Y28340925D01*
X50444931Y28292629D01*
X50450000Y28241160D01*
X50450000Y27508840D01*
X50444931Y27457371D01*
X50430281Y27409075D01*
X50406484Y27364555D01*
X50374463Y27325537D01*
X50335445Y27293516D01*
X50290925Y27269719D01*
X50242629Y27255069D01*
X50191160Y27250000D01*
X49208840Y27250000D01*
X49157371Y27255069D01*
X49109075Y27269719D01*
X49064555Y27293516D01*
X49025537Y27325537D01*
X48993516Y27364555D01*
X48969719Y27409075D01*
X48955069Y27457371D01*
X48950000Y27508840D01*
X48950000Y28241160D01*
X48955069Y28292629D01*
X48969719Y28340925D01*
X48993516Y28385445D01*
X49025537Y28424463D01*
X49064555Y28456484D01*
X49109075Y28480281D01*
X49157371Y28494931D01*
X49208840Y28500000D01*
X50191160Y28500000D01*
X50242629Y28494931D01*
X50242629Y28494931D01*
G37*
G36*
X52742629Y28494931D02*
X52790925Y28480281D01*
X52835445Y28456484D01*
X52874463Y28424463D01*
X52906484Y28385445D01*
X52930281Y28340925D01*
X52944931Y28292629D01*
X52950000Y28241160D01*
X52950000Y27508840D01*
X52944931Y27457371D01*
X52930281Y27409075D01*
X52906484Y27364555D01*
X52874463Y27325537D01*
X52835445Y27293516D01*
X52790925Y27269719D01*
X52742629Y27255069D01*
X52691160Y27250000D01*
X51708840Y27250000D01*
X51657371Y27255069D01*
X51609075Y27269719D01*
X51564555Y27293516D01*
X51525537Y27325537D01*
X51493516Y27364555D01*
X51469719Y27409075D01*
X51455069Y27457371D01*
X51450000Y27508840D01*
X51450000Y28241160D01*
X51455069Y28292629D01*
X51469719Y28340925D01*
X51493516Y28385445D01*
X51525537Y28424463D01*
X51564555Y28456484D01*
X51609075Y28480281D01*
X51657371Y28494931D01*
X51708840Y28500000D01*
X52691160Y28500000D01*
X52742629Y28494931D01*
X52742629Y28494931D01*
G37*
G36*
X28975000Y28225000D02*
X27025000Y28225000D01*
X27025000Y31775000D01*
X28975000Y31775000D01*
X28975000Y28225000D01*
X28975000Y28225000D01*
G37*
G36*
X25975000Y29225000D02*
X24025000Y29225000D01*
X24025000Y32775000D01*
X25975000Y32775000D01*
X25975000Y29225000D01*
X25975000Y29225000D01*
G37*
G36*
X50242629Y30544931D02*
X50290925Y30530281D01*
X50335445Y30506484D01*
X50374463Y30474463D01*
X50406484Y30435445D01*
X50430281Y30390925D01*
X50444931Y30342629D01*
X50450000Y30291160D01*
X50450000Y29558840D01*
X50444931Y29507371D01*
X50430281Y29459075D01*
X50406484Y29414555D01*
X50374463Y29375537D01*
X50335445Y29343516D01*
X50290925Y29319719D01*
X50242629Y29305069D01*
X50191160Y29300000D01*
X49208840Y29300000D01*
X49157371Y29305069D01*
X49109075Y29319719D01*
X49064555Y29343516D01*
X49025537Y29375537D01*
X48993516Y29414555D01*
X48969719Y29459075D01*
X48955069Y29507371D01*
X48950000Y29558840D01*
X48950000Y30291160D01*
X48955069Y30342629D01*
X48969719Y30390925D01*
X48993516Y30435445D01*
X49025537Y30474463D01*
X49064555Y30506484D01*
X49109075Y30530281D01*
X49157371Y30544931D01*
X49208840Y30550000D01*
X50191160Y30550000D01*
X50242629Y30544931D01*
X50242629Y30544931D01*
G37*
G36*
X52742629Y30544931D02*
X52790925Y30530281D01*
X52835445Y30506484D01*
X52874463Y30474463D01*
X52906484Y30435445D01*
X52930281Y30390925D01*
X52944931Y30342629D01*
X52950000Y30291160D01*
X52950000Y29558840D01*
X52944931Y29507371D01*
X52930281Y29459075D01*
X52906484Y29414555D01*
X52874463Y29375537D01*
X52835445Y29343516D01*
X52790925Y29319719D01*
X52742629Y29305069D01*
X52691160Y29300000D01*
X51708840Y29300000D01*
X51657371Y29305069D01*
X51609075Y29319719D01*
X51564555Y29343516D01*
X51525537Y29375537D01*
X51493516Y29414555D01*
X51469719Y29459075D01*
X51455069Y29507371D01*
X51450000Y29558840D01*
X51450000Y30291160D01*
X51455069Y30342629D01*
X51469719Y30390925D01*
X51493516Y30435445D01*
X51525537Y30474463D01*
X51564555Y30506484D01*
X51609075Y30530281D01*
X51657371Y30544931D01*
X51708840Y30550000D01*
X52691160Y30550000D01*
X52742629Y30544931D01*
X52742629Y30544931D01*
G37*
G36*
X60725000Y29645000D02*
X59075000Y29645000D01*
X59075000Y30345000D01*
X60725000Y30345000D01*
X60725000Y29645000D01*
X60725000Y29645000D01*
G37*
G36*
X55325000Y29645000D02*
X53675000Y29645000D01*
X53675000Y30345000D01*
X55325000Y30345000D01*
X55325000Y29645000D01*
X55325000Y29645000D01*
G37*
G36*
X45448749Y30920077D02*
X45495627Y30905857D01*
X45538826Y30882767D01*
X45576691Y30851691D01*
X45607767Y30813826D01*
X45630857Y30770627D01*
X45645077Y30723749D01*
X45650000Y30673768D01*
X45650000Y30126232D01*
X45645077Y30076251D01*
X45630857Y30029373D01*
X45607767Y29986174D01*
X45576691Y29948309D01*
X45538826Y29917233D01*
X45495627Y29894143D01*
X45448749Y29879923D01*
X45398768Y29875000D01*
X44751232Y29875000D01*
X44701251Y29879923D01*
X44654373Y29894143D01*
X44611174Y29917233D01*
X44573309Y29948309D01*
X44542233Y29986174D01*
X44519143Y30029373D01*
X44504923Y30076251D01*
X44500000Y30126232D01*
X44500000Y30673768D01*
X44504923Y30723749D01*
X44519143Y30770627D01*
X44542233Y30813826D01*
X44573309Y30851691D01*
X44611174Y30882767D01*
X44654373Y30905857D01*
X44701251Y30920077D01*
X44751232Y30925000D01*
X45398768Y30925000D01*
X45448749Y30920077D01*
X45448749Y30920077D01*
G37*
G36*
X43698749Y30920077D02*
X43745627Y30905857D01*
X43788826Y30882767D01*
X43826691Y30851691D01*
X43857767Y30813826D01*
X43880857Y30770627D01*
X43895077Y30723749D01*
X43900000Y30673768D01*
X43900000Y30126232D01*
X43895077Y30076251D01*
X43880857Y30029373D01*
X43857767Y29986174D01*
X43826691Y29948309D01*
X43788826Y29917233D01*
X43745627Y29894143D01*
X43698749Y29879923D01*
X43648768Y29875000D01*
X43001232Y29875000D01*
X42951251Y29879923D01*
X42904373Y29894143D01*
X42861174Y29917233D01*
X42823309Y29948309D01*
X42792233Y29986174D01*
X42769143Y30029373D01*
X42754923Y30076251D01*
X42750000Y30126232D01*
X42750000Y30673768D01*
X42754923Y30723749D01*
X42769143Y30770627D01*
X42792233Y30813826D01*
X42823309Y30851691D01*
X42861174Y30882767D01*
X42904373Y30905857D01*
X42951251Y30920077D01*
X43001232Y30925000D01*
X43648768Y30925000D01*
X43698749Y30920077D01*
X43698749Y30920077D01*
G37*
G36*
X60725000Y30915000D02*
X59075000Y30915000D01*
X59075000Y31615000D01*
X60725000Y31615000D01*
X60725000Y30915000D01*
X60725000Y30915000D01*
G37*
G36*
X55325000Y30915000D02*
X53675000Y30915000D01*
X53675000Y31615000D01*
X55325000Y31615000D01*
X55325000Y30915000D01*
X55325000Y30915000D01*
G37*
G36*
X9775000Y31025000D02*
X6225000Y31025000D01*
X6225000Y32975000D01*
X9775000Y32975000D01*
X9775000Y31025000D01*
X9775000Y31025000D01*
G37*
G36*
X67642629Y32644931D02*
X67690925Y32630281D01*
X67735445Y32606484D01*
X67774463Y32574463D01*
X67806484Y32535445D01*
X67830281Y32490925D01*
X67844931Y32442629D01*
X67850000Y32391160D01*
X67850000Y31408840D01*
X67844931Y31357371D01*
X67830281Y31309075D01*
X67806484Y31264555D01*
X67774463Y31225537D01*
X67735445Y31193516D01*
X67690925Y31169719D01*
X67642629Y31155069D01*
X67591160Y31150000D01*
X66858840Y31150000D01*
X66807371Y31155069D01*
X66759075Y31169719D01*
X66714555Y31193516D01*
X66675537Y31225537D01*
X66643516Y31264555D01*
X66619719Y31309075D01*
X66605069Y31357371D01*
X66600000Y31408840D01*
X66600000Y32391160D01*
X66605069Y32442629D01*
X66619719Y32490925D01*
X66643516Y32535445D01*
X66675537Y32574463D01*
X66714555Y32606484D01*
X66759075Y32630281D01*
X66807371Y32644931D01*
X66858840Y32650000D01*
X67591160Y32650000D01*
X67642629Y32644931D01*
X67642629Y32644931D01*
G37*
G36*
X65592629Y32644931D02*
X65640925Y32630281D01*
X65685445Y32606484D01*
X65724463Y32574463D01*
X65756484Y32535445D01*
X65780281Y32490925D01*
X65794931Y32442629D01*
X65800000Y32391160D01*
X65800000Y31408840D01*
X65794931Y31357371D01*
X65780281Y31309075D01*
X65756484Y31264555D01*
X65724463Y31225537D01*
X65685445Y31193516D01*
X65640925Y31169719D01*
X65592629Y31155069D01*
X65541160Y31150000D01*
X64808840Y31150000D01*
X64757371Y31155069D01*
X64709075Y31169719D01*
X64664555Y31193516D01*
X64625537Y31225537D01*
X64593516Y31264555D01*
X64569719Y31309075D01*
X64555069Y31357371D01*
X64550000Y31408840D01*
X64550000Y32391160D01*
X64555069Y32442629D01*
X64569719Y32490925D01*
X64593516Y32535445D01*
X64625537Y32574463D01*
X64664555Y32606484D01*
X64709075Y32630281D01*
X64757371Y32644931D01*
X64808840Y32650000D01*
X65541160Y32650000D01*
X65592629Y32644931D01*
X65592629Y32644931D01*
G37*
G36*
X82550000Y31950000D02*
X76050000Y31950000D01*
X76050000Y37850000D01*
X82550000Y37850000D01*
X82550000Y31950000D01*
X82550000Y31950000D01*
G37*
G36*
X74150000Y31970000D02*
X71850000Y31970000D01*
X71850000Y33270000D01*
X74150000Y33270000D01*
X74150000Y31970000D01*
X74150000Y31970000D01*
G37*
G36*
X60725000Y32185000D02*
X59075000Y32185000D01*
X59075000Y32885000D01*
X60725000Y32885000D01*
X60725000Y32185000D01*
X60725000Y32185000D01*
G37*
G36*
X55325000Y32185000D02*
X53675000Y32185000D01*
X53675000Y32885000D01*
X55325000Y32885000D01*
X55325000Y32185000D01*
X55325000Y32185000D01*
G37*
G36*
X45448749Y33420077D02*
X45495627Y33405857D01*
X45538826Y33382767D01*
X45576691Y33351691D01*
X45607767Y33313826D01*
X45630857Y33270627D01*
X45645077Y33223749D01*
X45650000Y33173768D01*
X45650000Y32626232D01*
X45645077Y32576251D01*
X45630857Y32529373D01*
X45607767Y32486174D01*
X45576691Y32448309D01*
X45538826Y32417233D01*
X45495627Y32394143D01*
X45448749Y32379923D01*
X45398768Y32375000D01*
X44751232Y32375000D01*
X44701251Y32379923D01*
X44654373Y32394143D01*
X44611174Y32417233D01*
X44573309Y32448309D01*
X44542233Y32486174D01*
X44519143Y32529373D01*
X44504923Y32576251D01*
X44500000Y32626232D01*
X44500000Y33173768D01*
X44504923Y33223749D01*
X44519143Y33270627D01*
X44542233Y33313826D01*
X44573309Y33351691D01*
X44611174Y33382767D01*
X44654373Y33405857D01*
X44701251Y33420077D01*
X44751232Y33425000D01*
X45398768Y33425000D01*
X45448749Y33420077D01*
X45448749Y33420077D01*
G37*
G36*
X43698749Y33420077D02*
X43745627Y33405857D01*
X43788826Y33382767D01*
X43826691Y33351691D01*
X43857767Y33313826D01*
X43880857Y33270627D01*
X43895077Y33223749D01*
X43900000Y33173768D01*
X43900000Y32626232D01*
X43895077Y32576251D01*
X43880857Y32529373D01*
X43857767Y32486174D01*
X43826691Y32448309D01*
X43788826Y32417233D01*
X43745627Y32394143D01*
X43698749Y32379923D01*
X43648768Y32375000D01*
X43001232Y32375000D01*
X42951251Y32379923D01*
X42904373Y32394143D01*
X42861174Y32417233D01*
X42823309Y32448309D01*
X42792233Y32486174D01*
X42769143Y32529373D01*
X42754923Y32576251D01*
X42750000Y32626232D01*
X42750000Y33173768D01*
X42754923Y33223749D01*
X42769143Y33270627D01*
X42792233Y33313826D01*
X42823309Y33351691D01*
X42861174Y33382767D01*
X42904373Y33405857D01*
X42951251Y33420077D01*
X43001232Y33425000D01*
X43648768Y33425000D01*
X43698749Y33420077D01*
X43698749Y33420077D01*
G37*
G36*
X60725000Y33455000D02*
X59075000Y33455000D01*
X59075000Y34155000D01*
X60725000Y34155000D01*
X60725000Y33455000D01*
X60725000Y33455000D01*
G37*
G36*
X55325000Y33455000D02*
X53675000Y33455000D01*
X53675000Y34155000D01*
X55325000Y34155000D01*
X55325000Y33455000D01*
X55325000Y33455000D01*
G37*
G36*
X65272690Y35820052D02*
X65319814Y35805757D01*
X65363241Y35782544D01*
X65401306Y35751306D01*
X65432544Y35713241D01*
X65455757Y35669814D01*
X65470052Y35622690D01*
X65475000Y35572452D01*
X65475000Y34227548D01*
X65470052Y34177310D01*
X65455757Y34130186D01*
X65432544Y34086759D01*
X65401306Y34048694D01*
X65363241Y34017456D01*
X65319814Y33994243D01*
X65272690Y33979948D01*
X65222452Y33975000D01*
X64202548Y33975000D01*
X64152310Y33979948D01*
X64105186Y33994243D01*
X64061759Y34017456D01*
X64023694Y34048694D01*
X63992456Y34086759D01*
X63969243Y34130186D01*
X63954948Y34177310D01*
X63950000Y34227548D01*
X63950000Y35572452D01*
X63954948Y35622690D01*
X63969243Y35669814D01*
X63992456Y35713241D01*
X64023694Y35751306D01*
X64061759Y35782544D01*
X64105186Y35805757D01*
X64152310Y35820052D01*
X64202548Y35825000D01*
X65222452Y35825000D01*
X65272690Y35820052D01*
X65272690Y35820052D01*
G37*
G36*
X68247690Y35820052D02*
X68294814Y35805757D01*
X68338241Y35782544D01*
X68376306Y35751306D01*
X68407544Y35713241D01*
X68430757Y35669814D01*
X68445052Y35622690D01*
X68450000Y35572452D01*
X68450000Y34227548D01*
X68445052Y34177310D01*
X68430757Y34130186D01*
X68407544Y34086759D01*
X68376306Y34048694D01*
X68338241Y34017456D01*
X68294814Y33994243D01*
X68247690Y33979948D01*
X68197452Y33975000D01*
X67177548Y33975000D01*
X67127310Y33979948D01*
X67080186Y33994243D01*
X67036759Y34017456D01*
X66998694Y34048694D01*
X66967456Y34086759D01*
X66944243Y34130186D01*
X66929948Y34177310D01*
X66925000Y34227548D01*
X66925000Y35572452D01*
X66929948Y35622690D01*
X66944243Y35669814D01*
X66967456Y35713241D01*
X66998694Y35751306D01*
X67036759Y35782544D01*
X67080186Y35805757D01*
X67127310Y35820052D01*
X67177548Y35825000D01*
X68197452Y35825000D01*
X68247690Y35820052D01*
X68247690Y35820052D01*
G37*
G36*
X9775000Y34025000D02*
X6225000Y34025000D01*
X6225000Y35975000D01*
X9775000Y35975000D01*
X9775000Y34025000D01*
X9775000Y34025000D01*
G37*
G36*
X49922690Y36170052D02*
X49969814Y36155757D01*
X50013241Y36132544D01*
X50051306Y36101306D01*
X50082544Y36063241D01*
X50105757Y36019814D01*
X50120052Y35972690D01*
X50125000Y35922452D01*
X50125000Y34902548D01*
X50120052Y34852310D01*
X50105757Y34805186D01*
X50082544Y34761759D01*
X50051306Y34723694D01*
X50013241Y34692456D01*
X49969814Y34669243D01*
X49922690Y34654948D01*
X49872452Y34650000D01*
X48527548Y34650000D01*
X48477310Y34654948D01*
X48430186Y34669243D01*
X48386759Y34692456D01*
X48348694Y34723694D01*
X48317456Y34761759D01*
X48294243Y34805186D01*
X48279948Y34852310D01*
X48275000Y34902548D01*
X48275000Y35922452D01*
X48279948Y35972690D01*
X48294243Y36019814D01*
X48317456Y36063241D01*
X48348694Y36101306D01*
X48386759Y36132544D01*
X48430186Y36155757D01*
X48477310Y36170052D01*
X48527548Y36175000D01*
X49872452Y36175000D01*
X49922690Y36170052D01*
X49922690Y36170052D01*
G37*
G36*
X46922690Y36170052D02*
X46969814Y36155757D01*
X47013241Y36132544D01*
X47051306Y36101306D01*
X47082544Y36063241D01*
X47105757Y36019814D01*
X47120052Y35972690D01*
X47125000Y35922452D01*
X47125000Y34902548D01*
X47120052Y34852310D01*
X47105757Y34805186D01*
X47082544Y34761759D01*
X47051306Y34723694D01*
X47013241Y34692456D01*
X46969814Y34669243D01*
X46922690Y34654948D01*
X46872452Y34650000D01*
X45527548Y34650000D01*
X45477310Y34654948D01*
X45430186Y34669243D01*
X45386759Y34692456D01*
X45348694Y34723694D01*
X45317456Y34761759D01*
X45294243Y34805186D01*
X45279948Y34852310D01*
X45275000Y34902548D01*
X45275000Y35922452D01*
X45279948Y35972690D01*
X45294243Y36019814D01*
X45317456Y36063241D01*
X45348694Y36101306D01*
X45386759Y36132544D01*
X45430186Y36155757D01*
X45477310Y36170052D01*
X45527548Y36175000D01*
X46872452Y36175000D01*
X46922690Y36170052D01*
X46922690Y36170052D01*
G37*
G36*
X35747936Y37817335D02*
X35902626Y37753260D01*
X36041844Y37660238D01*
X36160238Y37541844D01*
X36253260Y37402626D01*
X36317335Y37247936D01*
X36350000Y37083718D01*
X36350000Y36916282D01*
X36317335Y36752064D01*
X36253260Y36597374D01*
X36160238Y36458156D01*
X36041844Y36339762D01*
X35902626Y36246740D01*
X35747936Y36182665D01*
X35583718Y36150000D01*
X35416282Y36150000D01*
X35252064Y36182665D01*
X35097374Y36246740D01*
X34958156Y36339762D01*
X34839762Y36458156D01*
X34746740Y36597374D01*
X34682665Y36752064D01*
X34650000Y36916282D01*
X34650000Y37083718D01*
X34682665Y37247936D01*
X34746740Y37402626D01*
X34839762Y37541844D01*
X34958156Y37660238D01*
X35097374Y37753260D01*
X35252064Y37817335D01*
X35416282Y37850000D01*
X35583718Y37850000D01*
X35747936Y37817335D01*
X35747936Y37817335D01*
G37*
G36*
X39850000Y36150000D02*
X38150000Y36150000D01*
X38150000Y37850000D01*
X39850000Y37850000D01*
X39850000Y36150000D01*
X39850000Y36150000D01*
G37*
G36*
X74150000Y36530000D02*
X71850000Y36530000D01*
X71850000Y37830000D01*
X74150000Y37830000D01*
X74150000Y36530000D01*
X74150000Y36530000D01*
G37*
G36*
X60500000Y36950000D02*
X56900000Y36950000D01*
X56900000Y38850000D01*
X60500000Y38850000D01*
X60500000Y36950000D01*
X60500000Y36950000D01*
G37*
G36*
X55500000Y36950000D02*
X51900000Y36950000D01*
X51900000Y38850000D01*
X55500000Y38850000D01*
X55500000Y36950000D01*
X55500000Y36950000D01*
G37*
G36*
X9775000Y37025000D02*
X6225000Y37025000D01*
X6225000Y38975000D01*
X9775000Y38975000D01*
X9775000Y37025000D01*
X9775000Y37025000D01*
G37*
G36*
X46922690Y39145052D02*
X46969814Y39130757D01*
X47013241Y39107544D01*
X47051306Y39076306D01*
X47082544Y39038241D01*
X47105757Y38994814D01*
X47120052Y38947690D01*
X47125000Y38897452D01*
X47125000Y37877548D01*
X47120052Y37827310D01*
X47105757Y37780186D01*
X47082544Y37736759D01*
X47051306Y37698694D01*
X47013241Y37667456D01*
X46969814Y37644243D01*
X46922690Y37629948D01*
X46872452Y37625000D01*
X45527548Y37625000D01*
X45477310Y37629948D01*
X45430186Y37644243D01*
X45386759Y37667456D01*
X45348694Y37698694D01*
X45317456Y37736759D01*
X45294243Y37780186D01*
X45279948Y37827310D01*
X45275000Y37877548D01*
X45275000Y38897452D01*
X45279948Y38947690D01*
X45294243Y38994814D01*
X45317456Y39038241D01*
X45348694Y39076306D01*
X45386759Y39107544D01*
X45430186Y39130757D01*
X45477310Y39145052D01*
X45527548Y39150000D01*
X46872452Y39150000D01*
X46922690Y39145052D01*
X46922690Y39145052D01*
G37*
G36*
X49922690Y39145052D02*
X49969814Y39130757D01*
X50013241Y39107544D01*
X50051306Y39076306D01*
X50082544Y39038241D01*
X50105757Y38994814D01*
X50120052Y38947690D01*
X50125000Y38897452D01*
X50125000Y37877548D01*
X50120052Y37827310D01*
X50105757Y37780186D01*
X50082544Y37736759D01*
X50051306Y37698694D01*
X50013241Y37667456D01*
X49969814Y37644243D01*
X49922690Y37629948D01*
X49872452Y37625000D01*
X48527548Y37625000D01*
X48477310Y37629948D01*
X48430186Y37644243D01*
X48386759Y37667456D01*
X48348694Y37698694D01*
X48317456Y37736759D01*
X48294243Y37780186D01*
X48279948Y37827310D01*
X48275000Y37877548D01*
X48275000Y38897452D01*
X48279948Y38947690D01*
X48294243Y38994814D01*
X48317456Y39038241D01*
X48348694Y39076306D01*
X48386759Y39107544D01*
X48430186Y39130757D01*
X48477310Y39145052D01*
X48527548Y39150000D01*
X49872452Y39150000D01*
X49922690Y39145052D01*
X49922690Y39145052D01*
G37*
G36*
X70500000Y37950000D02*
X66900000Y37950000D01*
X66900000Y39850000D01*
X70500000Y39850000D01*
X70500000Y37950000D01*
X70500000Y37950000D01*
G37*
G36*
X65500000Y37950000D02*
X61900000Y37950000D01*
X61900000Y39850000D01*
X65500000Y39850000D01*
X65500000Y37950000D01*
X65500000Y37950000D01*
G37*
G36*
X10392629Y43244931D02*
X10440925Y43230281D01*
X10485445Y43206484D01*
X10524463Y43174463D01*
X10556484Y43135445D01*
X10580281Y43090925D01*
X10594931Y43042629D01*
X10600000Y42991160D01*
X10600000Y42008840D01*
X10594931Y41957371D01*
X10580281Y41909075D01*
X10556484Y41864555D01*
X10524463Y41825537D01*
X10485445Y41793516D01*
X10440925Y41769719D01*
X10392629Y41755069D01*
X10341160Y41750000D01*
X9608840Y41750000D01*
X9557371Y41755069D01*
X9509075Y41769719D01*
X9464555Y41793516D01*
X9425537Y41825537D01*
X9393516Y41864555D01*
X9369719Y41909075D01*
X9355069Y41957371D01*
X9350000Y42008840D01*
X9350000Y42991160D01*
X9355069Y43042629D01*
X9369719Y43090925D01*
X9393516Y43135445D01*
X9425537Y43174463D01*
X9464555Y43206484D01*
X9509075Y43230281D01*
X9557371Y43244931D01*
X9608840Y43250000D01*
X10341160Y43250000D01*
X10392629Y43244931D01*
X10392629Y43244931D01*
G37*
G36*
X12442629Y43244931D02*
X12490925Y43230281D01*
X12535445Y43206484D01*
X12574463Y43174463D01*
X12606484Y43135445D01*
X12630281Y43090925D01*
X12644931Y43042629D01*
X12650000Y42991160D01*
X12650000Y42008840D01*
X12644931Y41957371D01*
X12630281Y41909075D01*
X12606484Y41864555D01*
X12574463Y41825537D01*
X12535445Y41793516D01*
X12490925Y41769719D01*
X12442629Y41755069D01*
X12391160Y41750000D01*
X11658840Y41750000D01*
X11607371Y41755069D01*
X11559075Y41769719D01*
X11514555Y41793516D01*
X11475537Y41825537D01*
X11443516Y41864555D01*
X11419719Y41909075D01*
X11405069Y41957371D01*
X11400000Y42008840D01*
X11400000Y42991160D01*
X11405069Y43042629D01*
X11419719Y43090925D01*
X11443516Y43135445D01*
X11475537Y43174463D01*
X11514555Y43206484D01*
X11559075Y43230281D01*
X11607371Y43244931D01*
X11658840Y43250000D01*
X12391160Y43250000D01*
X12442629Y43244931D01*
X12442629Y43244931D01*
G37*
G36*
X55450000Y41925000D02*
X54900000Y41925000D01*
X54900000Y43475000D01*
X55450000Y43475000D01*
X55450000Y41925000D01*
X55450000Y41925000D01*
G37*
G36*
X54800000Y41925000D02*
X54250000Y41925000D01*
X54250000Y43475000D01*
X54800000Y43475000D01*
X54800000Y41925000D01*
X54800000Y41925000D01*
G37*
G36*
X54150000Y41925000D02*
X53600000Y41925000D01*
X53600000Y43475000D01*
X54150000Y43475000D01*
X54150000Y41925000D01*
X54150000Y41925000D01*
G37*
G36*
X53500000Y41925000D02*
X52950000Y41925000D01*
X52950000Y43475000D01*
X53500000Y43475000D01*
X53500000Y41925000D01*
X53500000Y41925000D01*
G37*
G36*
X82550000Y43950000D02*
X76050000Y43950000D01*
X76050000Y49850000D01*
X82550000Y49850000D01*
X82550000Y43950000D01*
X82550000Y43950000D01*
G37*
G36*
X74150000Y43970000D02*
X71850000Y43970000D01*
X71850000Y45270000D01*
X74150000Y45270000D01*
X74150000Y43970000D01*
X74150000Y43970000D01*
G37*
G36*
X60724084Y45720085D02*
X60770876Y45705891D01*
X60814007Y45682836D01*
X60851812Y45651812D01*
X60882836Y45614007D01*
X60905891Y45570876D01*
X60920085Y45524084D01*
X60925000Y45474179D01*
X60925000Y44350821D01*
X60920085Y44300916D01*
X60905891Y44254124D01*
X60882836Y44210993D01*
X60851812Y44173188D01*
X60814007Y44142164D01*
X60770876Y44119109D01*
X60724084Y44104915D01*
X60674179Y44100000D01*
X57725821Y44100000D01*
X57675916Y44104915D01*
X57629124Y44119109D01*
X57585993Y44142164D01*
X57548188Y44173188D01*
X57517164Y44210993D01*
X57494109Y44254124D01*
X57479915Y44300916D01*
X57475000Y44350821D01*
X57475000Y45474179D01*
X57479915Y45524084D01*
X57494109Y45570876D01*
X57517164Y45614007D01*
X57548188Y45651812D01*
X57585993Y45682836D01*
X57629124Y45705891D01*
X57675916Y45720085D01*
X57725821Y45725000D01*
X60674179Y45725000D01*
X60724084Y45720085D01*
X60724084Y45720085D01*
G37*
G36*
X51692629Y45344931D02*
X51740925Y45330281D01*
X51785445Y45306484D01*
X51824463Y45274463D01*
X51856484Y45235445D01*
X51880281Y45190925D01*
X51894931Y45142629D01*
X51900000Y45091160D01*
X51900000Y44358840D01*
X51894931Y44307371D01*
X51880281Y44259075D01*
X51856484Y44214555D01*
X51824463Y44175537D01*
X51785445Y44143516D01*
X51740925Y44119719D01*
X51692629Y44105069D01*
X51641160Y44100000D01*
X50658840Y44100000D01*
X50607371Y44105069D01*
X50559075Y44119719D01*
X50514555Y44143516D01*
X50475537Y44175537D01*
X50443516Y44214555D01*
X50419719Y44259075D01*
X50405069Y44307371D01*
X50400000Y44358840D01*
X50400000Y45091160D01*
X50405069Y45142629D01*
X50419719Y45190925D01*
X50443516Y45235445D01*
X50475537Y45274463D01*
X50514555Y45306484D01*
X50559075Y45330281D01*
X50607371Y45344931D01*
X50658840Y45350000D01*
X51641160Y45350000D01*
X51692629Y45344931D01*
X51692629Y45344931D01*
G37*
G36*
X67642629Y46644931D02*
X67690925Y46630281D01*
X67735445Y46606484D01*
X67774463Y46574463D01*
X67806484Y46535445D01*
X67830281Y46490925D01*
X67844931Y46442629D01*
X67850000Y46391160D01*
X67850000Y45408840D01*
X67844931Y45357371D01*
X67830281Y45309075D01*
X67806484Y45264555D01*
X67774463Y45225537D01*
X67735445Y45193516D01*
X67690925Y45169719D01*
X67642629Y45155069D01*
X67591160Y45150000D01*
X66858840Y45150000D01*
X66807371Y45155069D01*
X66759075Y45169719D01*
X66714555Y45193516D01*
X66675537Y45225537D01*
X66643516Y45264555D01*
X66619719Y45309075D01*
X66605069Y45357371D01*
X66600000Y45408840D01*
X66600000Y46391160D01*
X66605069Y46442629D01*
X66619719Y46490925D01*
X66643516Y46535445D01*
X66675537Y46574463D01*
X66714555Y46606484D01*
X66759075Y46630281D01*
X66807371Y46644931D01*
X66858840Y46650000D01*
X67591160Y46650000D01*
X67642629Y46644931D01*
X67642629Y46644931D01*
G37*
G36*
X65592629Y46644931D02*
X65640925Y46630281D01*
X65685445Y46606484D01*
X65724463Y46574463D01*
X65756484Y46535445D01*
X65780281Y46490925D01*
X65794931Y46442629D01*
X65800000Y46391160D01*
X65800000Y45408840D01*
X65794931Y45357371D01*
X65780281Y45309075D01*
X65756484Y45264555D01*
X65724463Y45225537D01*
X65685445Y45193516D01*
X65640925Y45169719D01*
X65592629Y45155069D01*
X65541160Y45150000D01*
X64808840Y45150000D01*
X64757371Y45155069D01*
X64709075Y45169719D01*
X64664555Y45193516D01*
X64625537Y45225537D01*
X64593516Y45264555D01*
X64569719Y45309075D01*
X64555069Y45357371D01*
X64550000Y45408840D01*
X64550000Y46391160D01*
X64555069Y46442629D01*
X64569719Y46490925D01*
X64593516Y46535445D01*
X64625537Y46574463D01*
X64664555Y46606484D01*
X64709075Y46630281D01*
X64757371Y46644931D01*
X64808840Y46650000D01*
X65541160Y46650000D01*
X65592629Y46644931D01*
X65592629Y46644931D01*
G37*
G36*
X22695001Y45374999D02*
X22315001Y45374999D01*
X22315001Y46974999D01*
X22695001Y46974999D01*
X22695001Y45374999D01*
X22695001Y45374999D01*
G37*
G36*
X15195001Y45374999D02*
X14815001Y45374999D01*
X14815001Y46974999D01*
X15195001Y46974999D01*
X15195001Y45374999D01*
X15195001Y45374999D01*
G37*
G36*
X14695001Y45374999D02*
X14315001Y45374999D01*
X14315001Y46974999D01*
X14695001Y46974999D01*
X14695001Y45374999D01*
X14695001Y45374999D01*
G37*
G36*
X14195001Y45374999D02*
X13815001Y45374999D01*
X13815001Y46974999D01*
X14195001Y46974999D01*
X14195001Y45374999D01*
X14195001Y45374999D01*
G37*
G36*
X13695001Y45374999D02*
X13315001Y45374999D01*
X13315001Y46974999D01*
X13695001Y46974999D01*
X13695001Y45374999D01*
X13695001Y45374999D01*
G37*
G36*
X13195001Y45374999D02*
X12815001Y45374999D01*
X12815001Y46974999D01*
X13195001Y46974999D01*
X13195001Y45374999D01*
X13195001Y45374999D01*
G37*
G36*
X16695001Y45374999D02*
X16315001Y45374999D01*
X16315001Y46974999D01*
X16695001Y46974999D01*
X16695001Y45374999D01*
X16695001Y45374999D01*
G37*
G36*
X17195001Y45374999D02*
X16815001Y45374999D01*
X16815001Y46974999D01*
X17195001Y46974999D01*
X17195001Y45374999D01*
X17195001Y45374999D01*
G37*
G36*
X17695001Y45374999D02*
X17315001Y45374999D01*
X17315001Y46974999D01*
X17695001Y46974999D01*
X17695001Y45374999D01*
X17695001Y45374999D01*
G37*
G36*
X18195001Y45374999D02*
X17815001Y45374999D01*
X17815001Y46974999D01*
X18195001Y46974999D01*
X18195001Y45374999D01*
X18195001Y45374999D01*
G37*
G36*
X21195001Y45374999D02*
X20815001Y45374999D01*
X20815001Y46974999D01*
X21195001Y46974999D01*
X21195001Y45374999D01*
X21195001Y45374999D01*
G37*
G36*
X20695001Y45374999D02*
X20315001Y45374999D01*
X20315001Y46974999D01*
X20695001Y46974999D01*
X20695001Y45374999D01*
X20695001Y45374999D01*
G37*
G36*
X18695001Y45374999D02*
X18315001Y45374999D01*
X18315001Y46974999D01*
X18695001Y46974999D01*
X18695001Y45374999D01*
X18695001Y45374999D01*
G37*
G36*
X15695001Y45374999D02*
X15315001Y45374999D01*
X15315001Y46974999D01*
X15695001Y46974999D01*
X15695001Y45374999D01*
X15695001Y45374999D01*
G37*
G36*
X19195001Y45374999D02*
X18815001Y45374999D01*
X18815001Y46974999D01*
X19195001Y46974999D01*
X19195001Y45374999D01*
X19195001Y45374999D01*
G37*
G36*
X24695001Y45374999D02*
X24315001Y45374999D01*
X24315001Y46974999D01*
X24695001Y46974999D01*
X24695001Y45374999D01*
X24695001Y45374999D01*
G37*
G36*
X12695001Y45374999D02*
X12315001Y45374999D01*
X12315001Y46974999D01*
X12695001Y46974999D01*
X12695001Y45374999D01*
X12695001Y45374999D01*
G37*
G36*
X22195001Y45374999D02*
X21815001Y45374999D01*
X21815001Y46974999D01*
X22195001Y46974999D01*
X22195001Y45374999D01*
X22195001Y45374999D01*
G37*
G36*
X23195001Y45374999D02*
X22815001Y45374999D01*
X22815001Y46974999D01*
X23195001Y46974999D01*
X23195001Y45374999D01*
X23195001Y45374999D01*
G37*
G36*
X16195001Y45374999D02*
X15815001Y45374999D01*
X15815001Y46974999D01*
X16195001Y46974999D01*
X16195001Y45374999D01*
X16195001Y45374999D01*
G37*
G36*
X21695001Y45374999D02*
X21315001Y45374999D01*
X21315001Y46974999D01*
X21695001Y46974999D01*
X21695001Y45374999D01*
X21695001Y45374999D01*
G37*
G36*
X23695001Y45374999D02*
X23315001Y45374999D01*
X23315001Y46974999D01*
X23695001Y46974999D01*
X23695001Y45374999D01*
X23695001Y45374999D01*
G37*
G36*
X24195001Y45374999D02*
X23815001Y45374999D01*
X23815001Y46974999D01*
X24195001Y46974999D01*
X24195001Y45374999D01*
X24195001Y45374999D01*
G37*
G36*
X19695001Y45374999D02*
X19315001Y45374999D01*
X19315001Y46974999D01*
X19695001Y46974999D01*
X19695001Y45374999D01*
X19695001Y45374999D01*
G37*
G36*
X20195001Y45374999D02*
X19815001Y45374999D01*
X19815001Y46974999D01*
X20195001Y46974999D01*
X20195001Y45374999D01*
X20195001Y45374999D01*
G37*
G36*
X51692629Y47394931D02*
X51740925Y47380281D01*
X51785445Y47356484D01*
X51824463Y47324463D01*
X51856484Y47285445D01*
X51880281Y47240925D01*
X51894931Y47192629D01*
X51900000Y47141160D01*
X51900000Y46408840D01*
X51894931Y46357371D01*
X51880281Y46309075D01*
X51856484Y46264555D01*
X51824463Y46225537D01*
X51785445Y46193516D01*
X51740925Y46169719D01*
X51692629Y46155069D01*
X51641160Y46150000D01*
X50658840Y46150000D01*
X50607371Y46155069D01*
X50559075Y46169719D01*
X50514555Y46193516D01*
X50475537Y46225537D01*
X50443516Y46264555D01*
X50419719Y46309075D01*
X50405069Y46357371D01*
X50400000Y46408840D01*
X50400000Y47141160D01*
X50405069Y47192629D01*
X50419719Y47240925D01*
X50443516Y47285445D01*
X50475537Y47324463D01*
X50514555Y47356484D01*
X50559075Y47380281D01*
X50607371Y47394931D01*
X50658840Y47400000D01*
X51641160Y47400000D01*
X51692629Y47394931D01*
X51692629Y47394931D01*
G37*
G36*
X54150000Y46325000D02*
X53600000Y46325000D01*
X53600000Y47875000D01*
X54150000Y47875000D01*
X54150000Y46325000D01*
X54150000Y46325000D01*
G37*
G36*
X53500000Y46325000D02*
X52950000Y46325000D01*
X52950000Y47875000D01*
X53500000Y47875000D01*
X53500000Y46325000D01*
X53500000Y46325000D01*
G37*
G36*
X54800000Y46325000D02*
X54250000Y46325000D01*
X54250000Y47875000D01*
X54800000Y47875000D01*
X54800000Y46325000D01*
X54800000Y46325000D01*
G37*
G36*
X55450000Y46325000D02*
X54900000Y46325000D01*
X54900000Y47875000D01*
X55450000Y47875000D01*
X55450000Y46325000D01*
X55450000Y46325000D01*
G37*
G36*
X97706274Y48809650D02*
X97897362Y48730498D01*
X98069336Y48615589D01*
X98215589Y48469336D01*
X98330498Y48297362D01*
X98409650Y48106274D01*
X98450000Y47903416D01*
X98450000Y47696584D01*
X98409650Y47493726D01*
X98330498Y47302638D01*
X98215589Y47130664D01*
X98069336Y46984411D01*
X97897362Y46869502D01*
X97706274Y46790350D01*
X97503416Y46750000D01*
X97296584Y46750000D01*
X97093726Y46790350D01*
X96902638Y46869502D01*
X96730664Y46984411D01*
X96584411Y47130664D01*
X96469502Y47302638D01*
X96390350Y47493726D01*
X96350000Y47696584D01*
X96350000Y47903416D01*
X96390350Y48106274D01*
X96469502Y48297362D01*
X96584411Y48469336D01*
X96730664Y48615589D01*
X96902638Y48730498D01*
X97093726Y48809650D01*
X97296584Y48850000D01*
X97503416Y48850000D01*
X97706274Y48809650D01*
X97706274Y48809650D01*
G37*
G36*
X93450000Y46750000D02*
X91350000Y46750000D01*
X91350000Y48850000D01*
X93450000Y48850000D01*
X93450000Y46750000D01*
X93450000Y46750000D01*
G37*
G36*
X11405001Y47884999D02*
X9805001Y47884999D01*
X9805001Y48264999D01*
X11405001Y48264999D01*
X11405001Y47884999D01*
X11405001Y47884999D01*
G37*
G36*
X27205001Y47884999D02*
X25605001Y47884999D01*
X25605001Y48264999D01*
X27205001Y48264999D01*
X27205001Y47884999D01*
X27205001Y47884999D01*
G37*
G36*
X65272690Y49820052D02*
X65319814Y49805757D01*
X65363241Y49782544D01*
X65401306Y49751306D01*
X65432544Y49713241D01*
X65455757Y49669814D01*
X65470052Y49622690D01*
X65475000Y49572452D01*
X65475000Y48227548D01*
X65470052Y48177310D01*
X65455757Y48130186D01*
X65432544Y48086759D01*
X65401306Y48048694D01*
X65363241Y48017456D01*
X65319814Y47994243D01*
X65272690Y47979948D01*
X65222452Y47975000D01*
X64202548Y47975000D01*
X64152310Y47979948D01*
X64105186Y47994243D01*
X64061759Y48017456D01*
X64023694Y48048694D01*
X63992456Y48086759D01*
X63969243Y48130186D01*
X63954948Y48177310D01*
X63950000Y48227548D01*
X63950000Y49572452D01*
X63954948Y49622690D01*
X63969243Y49669814D01*
X63992456Y49713241D01*
X64023694Y49751306D01*
X64061759Y49782544D01*
X64105186Y49805757D01*
X64152310Y49820052D01*
X64202548Y49825000D01*
X65222452Y49825000D01*
X65272690Y49820052D01*
X65272690Y49820052D01*
G37*
G36*
X68247690Y49820052D02*
X68294814Y49805757D01*
X68338241Y49782544D01*
X68376306Y49751306D01*
X68407544Y49713241D01*
X68430757Y49669814D01*
X68445052Y49622690D01*
X68450000Y49572452D01*
X68450000Y48227548D01*
X68445052Y48177310D01*
X68430757Y48130186D01*
X68407544Y48086759D01*
X68376306Y48048694D01*
X68338241Y48017456D01*
X68294814Y47994243D01*
X68247690Y47979948D01*
X68197452Y47975000D01*
X67177548Y47975000D01*
X67127310Y47979948D01*
X67080186Y47994243D01*
X67036759Y48017456D01*
X66998694Y48048694D01*
X66967456Y48086759D01*
X66944243Y48130186D01*
X66929948Y48177310D01*
X66925000Y48227548D01*
X66925000Y49572452D01*
X66929948Y49622690D01*
X66944243Y49669814D01*
X66967456Y49713241D01*
X66998694Y49751306D01*
X67036759Y49782544D01*
X67080186Y49805757D01*
X67127310Y49820052D01*
X67177548Y49825000D01*
X68197452Y49825000D01*
X68247690Y49820052D01*
X68247690Y49820052D01*
G37*
G36*
X11405001Y48384999D02*
X9805001Y48384999D01*
X9805001Y48764999D01*
X11405001Y48764999D01*
X11405001Y48384999D01*
X11405001Y48384999D01*
G37*
G36*
X27205001Y48384999D02*
X25605001Y48384999D01*
X25605001Y48764999D01*
X27205001Y48764999D01*
X27205001Y48384999D01*
X27205001Y48384999D01*
G37*
G36*
X74150000Y48530000D02*
X71850000Y48530000D01*
X71850000Y49830000D01*
X74150000Y49830000D01*
X74150000Y48530000D01*
X74150000Y48530000D01*
G37*
G36*
X11405001Y48884999D02*
X9805001Y48884999D01*
X9805001Y49264999D01*
X11405001Y49264999D01*
X11405001Y48884999D01*
X11405001Y48884999D01*
G37*
G36*
X27205001Y48884999D02*
X25605001Y48884999D01*
X25605001Y49264999D01*
X27205001Y49264999D01*
X27205001Y48884999D01*
X27205001Y48884999D01*
G37*
G36*
X45448749Y50420077D02*
X45495627Y50405857D01*
X45538826Y50382767D01*
X45576691Y50351691D01*
X45607767Y50313826D01*
X45630857Y50270627D01*
X45645077Y50223749D01*
X45650000Y50173768D01*
X45650000Y49626232D01*
X45645077Y49576251D01*
X45630857Y49529373D01*
X45607767Y49486174D01*
X45576691Y49448309D01*
X45538826Y49417233D01*
X45495627Y49394143D01*
X45448749Y49379923D01*
X45398768Y49375000D01*
X44751232Y49375000D01*
X44701251Y49379923D01*
X44654373Y49394143D01*
X44611174Y49417233D01*
X44573309Y49448309D01*
X44542233Y49486174D01*
X44519143Y49529373D01*
X44504923Y49576251D01*
X44500000Y49626232D01*
X44500000Y50173768D01*
X44504923Y50223749D01*
X44519143Y50270627D01*
X44542233Y50313826D01*
X44573309Y50351691D01*
X44611174Y50382767D01*
X44654373Y50405857D01*
X44701251Y50420077D01*
X44751232Y50425000D01*
X45398768Y50425000D01*
X45448749Y50420077D01*
X45448749Y50420077D01*
G37*
G36*
X43698749Y50420077D02*
X43745627Y50405857D01*
X43788826Y50382767D01*
X43826691Y50351691D01*
X43857767Y50313826D01*
X43880857Y50270627D01*
X43895077Y50223749D01*
X43900000Y50173768D01*
X43900000Y49626232D01*
X43895077Y49576251D01*
X43880857Y49529373D01*
X43857767Y49486174D01*
X43826691Y49448309D01*
X43788826Y49417233D01*
X43745627Y49394143D01*
X43698749Y49379923D01*
X43648768Y49375000D01*
X43001232Y49375000D01*
X42951251Y49379923D01*
X42904373Y49394143D01*
X42861174Y49417233D01*
X42823309Y49448309D01*
X42792233Y49486174D01*
X42769143Y49529373D01*
X42754923Y49576251D01*
X42750000Y49626232D01*
X42750000Y50173768D01*
X42754923Y50223749D01*
X42769143Y50270627D01*
X42792233Y50313826D01*
X42823309Y50351691D01*
X42861174Y50382767D01*
X42904373Y50405857D01*
X42951251Y50420077D01*
X43001232Y50425000D01*
X43648768Y50425000D01*
X43698749Y50420077D01*
X43698749Y50420077D01*
G37*
G36*
X27205001Y49384999D02*
X25605001Y49384999D01*
X25605001Y49764999D01*
X27205001Y49764999D01*
X27205001Y49384999D01*
X27205001Y49384999D01*
G37*
G36*
X11405001Y49384999D02*
X9805001Y49384999D01*
X9805001Y49764999D01*
X11405001Y49764999D01*
X11405001Y49384999D01*
X11405001Y49384999D01*
G37*
G36*
X11405001Y49884999D02*
X9805001Y49884999D01*
X9805001Y50264999D01*
X11405001Y50264999D01*
X11405001Y49884999D01*
X11405001Y49884999D01*
G37*
G36*
X27205001Y49884999D02*
X25605001Y49884999D01*
X25605001Y50264999D01*
X27205001Y50264999D01*
X27205001Y49884999D01*
X27205001Y49884999D01*
G37*
G36*
X60724084Y51695085D02*
X60770876Y51680891D01*
X60814007Y51657836D01*
X60851812Y51626812D01*
X60882836Y51589007D01*
X60905891Y51545876D01*
X60920085Y51499084D01*
X60925000Y51449179D01*
X60925000Y50325821D01*
X60920085Y50275916D01*
X60905891Y50229124D01*
X60882836Y50185993D01*
X60851812Y50148188D01*
X60814007Y50117164D01*
X60770876Y50094109D01*
X60724084Y50079915D01*
X60674179Y50075000D01*
X57725821Y50075000D01*
X57675916Y50079915D01*
X57629124Y50094109D01*
X57585993Y50117164D01*
X57548188Y50148188D01*
X57517164Y50185993D01*
X57494109Y50229124D01*
X57479915Y50275916D01*
X57475000Y50325821D01*
X57475000Y51449179D01*
X57479915Y51499084D01*
X57494109Y51545876D01*
X57517164Y51589007D01*
X57548188Y51626812D01*
X57585993Y51657836D01*
X57629124Y51680891D01*
X57675916Y51695085D01*
X57725821Y51700000D01*
X60674179Y51700000D01*
X60724084Y51695085D01*
X60724084Y51695085D01*
G37*
G36*
X27205001Y50384999D02*
X25605001Y50384999D01*
X25605001Y50764999D01*
X27205001Y50764999D01*
X27205001Y50384999D01*
X27205001Y50384999D01*
G37*
G36*
X11405001Y50384999D02*
X9805001Y50384999D01*
X9805001Y50764999D01*
X11405001Y50764999D01*
X11405001Y50384999D01*
X11405001Y50384999D01*
G37*
G36*
X5042629Y52094931D02*
X5090925Y52080281D01*
X5135445Y52056484D01*
X5174463Y52024463D01*
X5206484Y51985445D01*
X5230281Y51940925D01*
X5244931Y51892629D01*
X5250000Y51841160D01*
X5250000Y51108840D01*
X5244931Y51057371D01*
X5230281Y51009075D01*
X5206484Y50964555D01*
X5174463Y50925537D01*
X5135445Y50893516D01*
X5090925Y50869719D01*
X5042629Y50855069D01*
X4991160Y50850000D01*
X4008840Y50850000D01*
X3957371Y50855069D01*
X3909075Y50869719D01*
X3864555Y50893516D01*
X3825537Y50925537D01*
X3793516Y50964555D01*
X3769719Y51009075D01*
X3755069Y51057371D01*
X3750000Y51108840D01*
X3750000Y51841160D01*
X3755069Y51892629D01*
X3769719Y51940925D01*
X3793516Y51985445D01*
X3825537Y52024463D01*
X3864555Y52056484D01*
X3909075Y52080281D01*
X3957371Y52094931D01*
X4008840Y52100000D01*
X4991160Y52100000D01*
X5042629Y52094931D01*
X5042629Y52094931D01*
G37*
G36*
X27205001Y50884999D02*
X25605001Y50884999D01*
X25605001Y51264999D01*
X27205001Y51264999D01*
X27205001Y50884999D01*
X27205001Y50884999D01*
G37*
G36*
X11405001Y50884999D02*
X9805001Y50884999D01*
X9805001Y51264999D01*
X11405001Y51264999D01*
X11405001Y50884999D01*
X11405001Y50884999D01*
G37*
G36*
X7323749Y52195077D02*
X7370627Y52180857D01*
X7413826Y52157767D01*
X7451691Y52126691D01*
X7482767Y52088826D01*
X7505857Y52045627D01*
X7520077Y51998749D01*
X7525000Y51948768D01*
X7525000Y51301232D01*
X7520077Y51251251D01*
X7505857Y51204373D01*
X7482767Y51161174D01*
X7451691Y51123309D01*
X7413826Y51092233D01*
X7370627Y51069143D01*
X7323749Y51054923D01*
X7273768Y51050000D01*
X6726232Y51050000D01*
X6676251Y51054923D01*
X6629373Y51069143D01*
X6586174Y51092233D01*
X6548309Y51123309D01*
X6517233Y51161174D01*
X6494143Y51204373D01*
X6479923Y51251251D01*
X6475000Y51301232D01*
X6475000Y51948768D01*
X6479923Y51998749D01*
X6494143Y52045627D01*
X6517233Y52088826D01*
X6548309Y52126691D01*
X6586174Y52157767D01*
X6629373Y52180857D01*
X6676251Y52195077D01*
X6726232Y52200000D01*
X7273768Y52200000D01*
X7323749Y52195077D01*
X7323749Y52195077D01*
G37*
G36*
X11405001Y51384999D02*
X9805001Y51384999D01*
X9805001Y51764999D01*
X11405001Y51764999D01*
X11405001Y51384999D01*
X11405001Y51384999D01*
G37*
G36*
X27205001Y51384999D02*
X25605001Y51384999D01*
X25605001Y51764999D01*
X27205001Y51764999D01*
X27205001Y51384999D01*
X27205001Y51384999D01*
G37*
G36*
X45423749Y52920077D02*
X45470627Y52905857D01*
X45513826Y52882767D01*
X45551691Y52851691D01*
X45582767Y52813826D01*
X45605857Y52770627D01*
X45620077Y52723749D01*
X45625000Y52673768D01*
X45625000Y52126232D01*
X45620077Y52076251D01*
X45605857Y52029373D01*
X45582767Y51986174D01*
X45551691Y51948309D01*
X45513826Y51917233D01*
X45470627Y51894143D01*
X45423749Y51879923D01*
X45373768Y51875000D01*
X44726232Y51875000D01*
X44676251Y51879923D01*
X44629373Y51894143D01*
X44586174Y51917233D01*
X44548309Y51948309D01*
X44517233Y51986174D01*
X44494143Y52029373D01*
X44479923Y52076251D01*
X44475000Y52126232D01*
X44475000Y52673768D01*
X44479923Y52723749D01*
X44494143Y52770627D01*
X44517233Y52813826D01*
X44548309Y52851691D01*
X44586174Y52882767D01*
X44629373Y52905857D01*
X44676251Y52920077D01*
X44726232Y52925000D01*
X45373768Y52925000D01*
X45423749Y52920077D01*
X45423749Y52920077D01*
G37*
G36*
X43673749Y52920077D02*
X43720627Y52905857D01*
X43763826Y52882767D01*
X43801691Y52851691D01*
X43832767Y52813826D01*
X43855857Y52770627D01*
X43870077Y52723749D01*
X43875000Y52673768D01*
X43875000Y52126232D01*
X43870077Y52076251D01*
X43855857Y52029373D01*
X43832767Y51986174D01*
X43801691Y51948309D01*
X43763826Y51917233D01*
X43720627Y51894143D01*
X43673749Y51879923D01*
X43623768Y51875000D01*
X42976232Y51875000D01*
X42926251Y51879923D01*
X42879373Y51894143D01*
X42836174Y51917233D01*
X42798309Y51948309D01*
X42767233Y51986174D01*
X42744143Y52029373D01*
X42729923Y52076251D01*
X42725000Y52126232D01*
X42725000Y52673768D01*
X42729923Y52723749D01*
X42744143Y52770627D01*
X42767233Y52813826D01*
X42798309Y52851691D01*
X42836174Y52882767D01*
X42879373Y52905857D01*
X42926251Y52920077D01*
X42976232Y52925000D01*
X43623768Y52925000D01*
X43673749Y52920077D01*
X43673749Y52920077D01*
G37*
G36*
X11405001Y51884999D02*
X9805001Y51884999D01*
X9805001Y52264999D01*
X11405001Y52264999D01*
X11405001Y51884999D01*
X11405001Y51884999D01*
G37*
G36*
X27205001Y51884999D02*
X25605001Y51884999D01*
X25605001Y52264999D01*
X27205001Y52264999D01*
X27205001Y51884999D01*
X27205001Y51884999D01*
G37*
G36*
X70500000Y51950000D02*
X66900000Y51950000D01*
X66900000Y53850000D01*
X70500000Y53850000D01*
X70500000Y51950000D01*
X70500000Y51950000D01*
G37*
G36*
X65500000Y51950000D02*
X61900000Y51950000D01*
X61900000Y53850000D01*
X65500000Y53850000D01*
X65500000Y51950000D01*
X65500000Y51950000D01*
G37*
G36*
X50242629Y53494931D02*
X50290925Y53480281D01*
X50335445Y53456484D01*
X50374463Y53424463D01*
X50406484Y53385445D01*
X50430281Y53340925D01*
X50444931Y53292629D01*
X50450000Y53241160D01*
X50450000Y52508840D01*
X50444931Y52457371D01*
X50430281Y52409075D01*
X50406484Y52364555D01*
X50374463Y52325537D01*
X50335445Y52293516D01*
X50290925Y52269719D01*
X50242629Y52255069D01*
X50191160Y52250000D01*
X49208840Y52250000D01*
X49157371Y52255069D01*
X49109075Y52269719D01*
X49064555Y52293516D01*
X49025537Y52325537D01*
X48993516Y52364555D01*
X48969719Y52409075D01*
X48955069Y52457371D01*
X48950000Y52508840D01*
X48950000Y53241160D01*
X48955069Y53292629D01*
X48969719Y53340925D01*
X48993516Y53385445D01*
X49025537Y53424463D01*
X49064555Y53456484D01*
X49109075Y53480281D01*
X49157371Y53494931D01*
X49208840Y53500000D01*
X50191160Y53500000D01*
X50242629Y53494931D01*
X50242629Y53494931D01*
G37*
G36*
X52742629Y53494931D02*
X52790925Y53480281D01*
X52835445Y53456484D01*
X52874463Y53424463D01*
X52906484Y53385445D01*
X52930281Y53340925D01*
X52944931Y53292629D01*
X52950000Y53241160D01*
X52950000Y52508840D01*
X52944931Y52457371D01*
X52930281Y52409075D01*
X52906484Y52364555D01*
X52874463Y52325537D01*
X52835445Y52293516D01*
X52790925Y52269719D01*
X52742629Y52255069D01*
X52691160Y52250000D01*
X51708840Y52250000D01*
X51657371Y52255069D01*
X51609075Y52269719D01*
X51564555Y52293516D01*
X51525537Y52325537D01*
X51493516Y52364555D01*
X51469719Y52409075D01*
X51455069Y52457371D01*
X51450000Y52508840D01*
X51450000Y53241160D01*
X51455069Y53292629D01*
X51469719Y53340925D01*
X51493516Y53385445D01*
X51525537Y53424463D01*
X51564555Y53456484D01*
X51609075Y53480281D01*
X51657371Y53494931D01*
X51708840Y53500000D01*
X52691160Y53500000D01*
X52742629Y53494931D01*
X52742629Y53494931D01*
G37*
G36*
X11405001Y52384999D02*
X9805001Y52384999D01*
X9805001Y52764999D01*
X11405001Y52764999D01*
X11405001Y52384999D01*
X11405001Y52384999D01*
G37*
G36*
X27205001Y52384999D02*
X25605001Y52384999D01*
X25605001Y52764999D01*
X27205001Y52764999D01*
X27205001Y52384999D01*
X27205001Y52384999D01*
G37*
G36*
X7323749Y53945077D02*
X7370627Y53930857D01*
X7413826Y53907767D01*
X7451691Y53876691D01*
X7482767Y53838826D01*
X7505857Y53795627D01*
X7520077Y53748749D01*
X7525000Y53698768D01*
X7525000Y53051232D01*
X7520077Y53001251D01*
X7505857Y52954373D01*
X7482767Y52911174D01*
X7451691Y52873309D01*
X7413826Y52842233D01*
X7370627Y52819143D01*
X7323749Y52804923D01*
X7273768Y52800000D01*
X6726232Y52800000D01*
X6676251Y52804923D01*
X6629373Y52819143D01*
X6586174Y52842233D01*
X6548309Y52873309D01*
X6517233Y52911174D01*
X6494143Y52954373D01*
X6479923Y53001251D01*
X6475000Y53051232D01*
X6475000Y53698768D01*
X6479923Y53748749D01*
X6494143Y53795627D01*
X6517233Y53838826D01*
X6548309Y53876691D01*
X6586174Y53907767D01*
X6629373Y53930857D01*
X6676251Y53945077D01*
X6726232Y53950000D01*
X7273768Y53950000D01*
X7323749Y53945077D01*
X7323749Y53945077D01*
G37*
G36*
X27205001Y52884999D02*
X25605001Y52884999D01*
X25605001Y53264999D01*
X27205001Y53264999D01*
X27205001Y52884999D01*
X27205001Y52884999D01*
G37*
G36*
X11405001Y52884999D02*
X9805001Y52884999D01*
X9805001Y53264999D01*
X11405001Y53264999D01*
X11405001Y52884999D01*
X11405001Y52884999D01*
G37*
G36*
X5042629Y54144931D02*
X5090925Y54130281D01*
X5135445Y54106484D01*
X5174463Y54074463D01*
X5206484Y54035445D01*
X5230281Y53990925D01*
X5244931Y53942629D01*
X5250000Y53891160D01*
X5250000Y53158840D01*
X5244931Y53107371D01*
X5230281Y53059075D01*
X5206484Y53014555D01*
X5174463Y52975537D01*
X5135445Y52943516D01*
X5090925Y52919719D01*
X5042629Y52905069D01*
X4991160Y52900000D01*
X4008840Y52900000D01*
X3957371Y52905069D01*
X3909075Y52919719D01*
X3864555Y52943516D01*
X3825537Y52975537D01*
X3793516Y53014555D01*
X3769719Y53059075D01*
X3755069Y53107371D01*
X3750000Y53158840D01*
X3750000Y53891160D01*
X3755069Y53942629D01*
X3769719Y53990925D01*
X3793516Y54035445D01*
X3825537Y54074463D01*
X3864555Y54106484D01*
X3909075Y54130281D01*
X3957371Y54144931D01*
X4008840Y54150000D01*
X4991160Y54150000D01*
X5042629Y54144931D01*
X5042629Y54144931D01*
G37*
G36*
X11405001Y53384999D02*
X9805001Y53384999D01*
X9805001Y53764999D01*
X11405001Y53764999D01*
X11405001Y53384999D01*
X11405001Y53384999D01*
G37*
G36*
X27205001Y53384999D02*
X25605001Y53384999D01*
X25605001Y53764999D01*
X27205001Y53764999D01*
X27205001Y53384999D01*
X27205001Y53384999D01*
G37*
G36*
X27205001Y53884999D02*
X25605001Y53884999D01*
X25605001Y54264999D01*
X27205001Y54264999D01*
X27205001Y53884999D01*
X27205001Y53884999D01*
G37*
G36*
X11405001Y53884999D02*
X9805001Y53884999D01*
X9805001Y54264999D01*
X11405001Y54264999D01*
X11405001Y53884999D01*
X11405001Y53884999D01*
G37*
G36*
X52742629Y55544931D02*
X52790925Y55530281D01*
X52835445Y55506484D01*
X52874463Y55474463D01*
X52906484Y55435445D01*
X52930281Y55390925D01*
X52944931Y55342629D01*
X52950000Y55291160D01*
X52950000Y54558840D01*
X52944931Y54507371D01*
X52930281Y54459075D01*
X52906484Y54414555D01*
X52874463Y54375537D01*
X52835445Y54343516D01*
X52790925Y54319719D01*
X52742629Y54305069D01*
X52691160Y54300000D01*
X51708840Y54300000D01*
X51657371Y54305069D01*
X51609075Y54319719D01*
X51564555Y54343516D01*
X51525537Y54375537D01*
X51493516Y54414555D01*
X51469719Y54459075D01*
X51455069Y54507371D01*
X51450000Y54558840D01*
X51450000Y55291160D01*
X51455069Y55342629D01*
X51469719Y55390925D01*
X51493516Y55435445D01*
X51525537Y55474463D01*
X51564555Y55506484D01*
X51609075Y55530281D01*
X51657371Y55544931D01*
X51708840Y55550000D01*
X52691160Y55550000D01*
X52742629Y55544931D01*
X52742629Y55544931D01*
G37*
G36*
X50242629Y55544931D02*
X50290925Y55530281D01*
X50335445Y55506484D01*
X50374463Y55474463D01*
X50406484Y55435445D01*
X50430281Y55390925D01*
X50444931Y55342629D01*
X50450000Y55291160D01*
X50450000Y54558840D01*
X50444931Y54507371D01*
X50430281Y54459075D01*
X50406484Y54414555D01*
X50374463Y54375537D01*
X50335445Y54343516D01*
X50290925Y54319719D01*
X50242629Y54305069D01*
X50191160Y54300000D01*
X49208840Y54300000D01*
X49157371Y54305069D01*
X49109075Y54319719D01*
X49064555Y54343516D01*
X49025537Y54375537D01*
X48993516Y54414555D01*
X48969719Y54459075D01*
X48955069Y54507371D01*
X48950000Y54558840D01*
X48950000Y55291160D01*
X48955069Y55342629D01*
X48969719Y55390925D01*
X48993516Y55435445D01*
X49025537Y55474463D01*
X49064555Y55506484D01*
X49109075Y55530281D01*
X49157371Y55544931D01*
X49208840Y55550000D01*
X50191160Y55550000D01*
X50242629Y55544931D01*
X50242629Y55544931D01*
G37*
G36*
X11405001Y54384999D02*
X9805001Y54384999D01*
X9805001Y54764999D01*
X11405001Y54764999D01*
X11405001Y54384999D01*
X11405001Y54384999D01*
G37*
G36*
X27205001Y54384999D02*
X25605001Y54384999D01*
X25605001Y54764999D01*
X27205001Y54764999D01*
X27205001Y54384999D01*
X27205001Y54384999D01*
G37*
G36*
X55325000Y54645000D02*
X53675000Y54645000D01*
X53675000Y55345000D01*
X55325000Y55345000D01*
X55325000Y54645000D01*
X55325000Y54645000D01*
G37*
G36*
X60725000Y54645000D02*
X59075000Y54645000D01*
X59075000Y55345000D01*
X60725000Y55345000D01*
X60725000Y54645000D01*
X60725000Y54645000D01*
G37*
G36*
X45448749Y55920077D02*
X45495627Y55905857D01*
X45538826Y55882767D01*
X45576691Y55851691D01*
X45607767Y55813826D01*
X45630857Y55770627D01*
X45645077Y55723749D01*
X45650000Y55673768D01*
X45650000Y55126232D01*
X45645077Y55076251D01*
X45630857Y55029373D01*
X45607767Y54986174D01*
X45576691Y54948309D01*
X45538826Y54917233D01*
X45495627Y54894143D01*
X45448749Y54879923D01*
X45398768Y54875000D01*
X44751232Y54875000D01*
X44701251Y54879923D01*
X44654373Y54894143D01*
X44611174Y54917233D01*
X44573309Y54948309D01*
X44542233Y54986174D01*
X44519143Y55029373D01*
X44504923Y55076251D01*
X44500000Y55126232D01*
X44500000Y55673768D01*
X44504923Y55723749D01*
X44519143Y55770627D01*
X44542233Y55813826D01*
X44573309Y55851691D01*
X44611174Y55882767D01*
X44654373Y55905857D01*
X44701251Y55920077D01*
X44751232Y55925000D01*
X45398768Y55925000D01*
X45448749Y55920077D01*
X45448749Y55920077D01*
G37*
G36*
X43698749Y55920077D02*
X43745627Y55905857D01*
X43788826Y55882767D01*
X43826691Y55851691D01*
X43857767Y55813826D01*
X43880857Y55770627D01*
X43895077Y55723749D01*
X43900000Y55673768D01*
X43900000Y55126232D01*
X43895077Y55076251D01*
X43880857Y55029373D01*
X43857767Y54986174D01*
X43826691Y54948309D01*
X43788826Y54917233D01*
X43745627Y54894143D01*
X43698749Y54879923D01*
X43648768Y54875000D01*
X43001232Y54875000D01*
X42951251Y54879923D01*
X42904373Y54894143D01*
X42861174Y54917233D01*
X42823309Y54948309D01*
X42792233Y54986174D01*
X42769143Y55029373D01*
X42754923Y55076251D01*
X42750000Y55126232D01*
X42750000Y55673768D01*
X42754923Y55723749D01*
X42769143Y55770627D01*
X42792233Y55813826D01*
X42823309Y55851691D01*
X42861174Y55882767D01*
X42904373Y55905857D01*
X42951251Y55920077D01*
X43001232Y55925000D01*
X43648768Y55925000D01*
X43698749Y55920077D01*
X43698749Y55920077D01*
G37*
G36*
X27205001Y54884999D02*
X25605001Y54884999D01*
X25605001Y55264999D01*
X27205001Y55264999D01*
X27205001Y54884999D01*
X27205001Y54884999D01*
G37*
G36*
X11405001Y54884999D02*
X9805001Y54884999D01*
X9805001Y55264999D01*
X11405001Y55264999D01*
X11405001Y54884999D01*
X11405001Y54884999D01*
G37*
G36*
X7323749Y56195077D02*
X7370627Y56180857D01*
X7413826Y56157767D01*
X7451691Y56126691D01*
X7482767Y56088826D01*
X7505857Y56045627D01*
X7520077Y55998749D01*
X7525000Y55948768D01*
X7525000Y55301232D01*
X7520077Y55251251D01*
X7505857Y55204373D01*
X7482767Y55161174D01*
X7451691Y55123309D01*
X7413826Y55092233D01*
X7370627Y55069143D01*
X7323749Y55054923D01*
X7273768Y55050000D01*
X6726232Y55050000D01*
X6676251Y55054923D01*
X6629373Y55069143D01*
X6586174Y55092233D01*
X6548309Y55123309D01*
X6517233Y55161174D01*
X6494143Y55204373D01*
X6479923Y55251251D01*
X6475000Y55301232D01*
X6475000Y55948768D01*
X6479923Y55998749D01*
X6494143Y56045627D01*
X6517233Y56088826D01*
X6548309Y56126691D01*
X6586174Y56157767D01*
X6629373Y56180857D01*
X6676251Y56195077D01*
X6726232Y56200000D01*
X7273768Y56200000D01*
X7323749Y56195077D01*
X7323749Y56195077D01*
G37*
G36*
X27205001Y55384999D02*
X25605001Y55384999D01*
X25605001Y55764999D01*
X27205001Y55764999D01*
X27205001Y55384999D01*
X27205001Y55384999D01*
G37*
G36*
X11405001Y55384999D02*
X9805001Y55384999D01*
X9805001Y55764999D01*
X11405001Y55764999D01*
X11405001Y55384999D01*
X11405001Y55384999D01*
G37*
G36*
X4275000Y55870000D02*
X3725000Y55870000D01*
X3725000Y57470000D01*
X4275000Y57470000D01*
X4275000Y55870000D01*
X4275000Y55870000D01*
G37*
G36*
X11405001Y55884999D02*
X9805001Y55884999D01*
X9805001Y56264999D01*
X11405001Y56264999D01*
X11405001Y55884999D01*
X11405001Y55884999D01*
G37*
G36*
X27205001Y55884999D02*
X25605001Y55884999D01*
X25605001Y56264999D01*
X27205001Y56264999D01*
X27205001Y55884999D01*
X27205001Y55884999D01*
G37*
G36*
X55325000Y55915000D02*
X53675000Y55915000D01*
X53675000Y56615000D01*
X55325000Y56615000D01*
X55325000Y55915000D01*
X55325000Y55915000D01*
G37*
G36*
X60725000Y55915000D02*
X59075000Y55915000D01*
X59075000Y56615000D01*
X60725000Y56615000D01*
X60725000Y55915000D01*
X60725000Y55915000D01*
G37*
G36*
X67642629Y57644931D02*
X67690925Y57630281D01*
X67735445Y57606484D01*
X67774463Y57574463D01*
X67806484Y57535445D01*
X67830281Y57490925D01*
X67844931Y57442629D01*
X67850000Y57391160D01*
X67850000Y56408840D01*
X67844931Y56357371D01*
X67830281Y56309075D01*
X67806484Y56264555D01*
X67774463Y56225537D01*
X67735445Y56193516D01*
X67690925Y56169719D01*
X67642629Y56155069D01*
X67591160Y56150000D01*
X66858840Y56150000D01*
X66807371Y56155069D01*
X66759075Y56169719D01*
X66714555Y56193516D01*
X66675537Y56225537D01*
X66643516Y56264555D01*
X66619719Y56309075D01*
X66605069Y56357371D01*
X66600000Y56408840D01*
X66600000Y57391160D01*
X66605069Y57442629D01*
X66619719Y57490925D01*
X66643516Y57535445D01*
X66675537Y57574463D01*
X66714555Y57606484D01*
X66759075Y57630281D01*
X66807371Y57644931D01*
X66858840Y57650000D01*
X67591160Y57650000D01*
X67642629Y57644931D01*
X67642629Y57644931D01*
G37*
G36*
X65592629Y57644931D02*
X65640925Y57630281D01*
X65685445Y57606484D01*
X65724463Y57574463D01*
X65756484Y57535445D01*
X65780281Y57490925D01*
X65794931Y57442629D01*
X65800000Y57391160D01*
X65800000Y56408840D01*
X65794931Y56357371D01*
X65780281Y56309075D01*
X65756484Y56264555D01*
X65724463Y56225537D01*
X65685445Y56193516D01*
X65640925Y56169719D01*
X65592629Y56155069D01*
X65541160Y56150000D01*
X64808840Y56150000D01*
X64757371Y56155069D01*
X64709075Y56169719D01*
X64664555Y56193516D01*
X64625537Y56225537D01*
X64593516Y56264555D01*
X64569719Y56309075D01*
X64555069Y56357371D01*
X64550000Y56408840D01*
X64550000Y57391160D01*
X64555069Y57442629D01*
X64569719Y57490925D01*
X64593516Y57535445D01*
X64625537Y57574463D01*
X64664555Y57606484D01*
X64709075Y57630281D01*
X64757371Y57644931D01*
X64808840Y57650000D01*
X65541160Y57650000D01*
X65592629Y57644931D01*
X65592629Y57644931D01*
G37*
G36*
X27205001Y56384999D02*
X25605001Y56384999D01*
X25605001Y56764999D01*
X27205001Y56764999D01*
X27205001Y56384999D01*
X27205001Y56384999D01*
G37*
G36*
X11405001Y56384999D02*
X9805001Y56384999D01*
X9805001Y56764999D01*
X11405001Y56764999D01*
X11405001Y56384999D01*
X11405001Y56384999D01*
G37*
G36*
X7323749Y57945077D02*
X7370627Y57930857D01*
X7413826Y57907767D01*
X7451691Y57876691D01*
X7482767Y57838826D01*
X7505857Y57795627D01*
X7520077Y57748749D01*
X7525000Y57698768D01*
X7525000Y57051232D01*
X7520077Y57001251D01*
X7505857Y56954373D01*
X7482767Y56911174D01*
X7451691Y56873309D01*
X7413826Y56842233D01*
X7370627Y56819143D01*
X7323749Y56804923D01*
X7273768Y56800000D01*
X6726232Y56800000D01*
X6676251Y56804923D01*
X6629373Y56819143D01*
X6586174Y56842233D01*
X6548309Y56873309D01*
X6517233Y56911174D01*
X6494143Y56954373D01*
X6479923Y57001251D01*
X6475000Y57051232D01*
X6475000Y57698768D01*
X6479923Y57748749D01*
X6494143Y57795627D01*
X6517233Y57838826D01*
X6548309Y57876691D01*
X6586174Y57907767D01*
X6629373Y57930857D01*
X6676251Y57945077D01*
X6726232Y57950000D01*
X7273768Y57950000D01*
X7323749Y57945077D01*
X7323749Y57945077D01*
G37*
G36*
X11405001Y56884999D02*
X9805001Y56884999D01*
X9805001Y57264999D01*
X11405001Y57264999D01*
X11405001Y56884999D01*
X11405001Y56884999D01*
G37*
G36*
X27205001Y56884999D02*
X25605001Y56884999D01*
X25605001Y57264999D01*
X27205001Y57264999D01*
X27205001Y56884999D01*
X27205001Y56884999D01*
G37*
G36*
X82550000Y56950000D02*
X76050000Y56950000D01*
X76050000Y62850000D01*
X82550000Y62850000D01*
X82550000Y56950000D01*
X82550000Y56950000D01*
G37*
G36*
X74150000Y56970000D02*
X71850000Y56970000D01*
X71850000Y58270000D01*
X74150000Y58270000D01*
X74150000Y56970000D01*
X74150000Y56970000D01*
G37*
G36*
X55325000Y57185000D02*
X53675000Y57185000D01*
X53675000Y57885000D01*
X55325000Y57885000D01*
X55325000Y57185000D01*
X55325000Y57185000D01*
G37*
G36*
X60725000Y57185000D02*
X59075000Y57185000D01*
X59075000Y57885000D01*
X60725000Y57885000D01*
X60725000Y57185000D01*
X60725000Y57185000D01*
G37*
G36*
X43698749Y58420077D02*
X43745627Y58405857D01*
X43788826Y58382767D01*
X43826691Y58351691D01*
X43857767Y58313826D01*
X43880857Y58270627D01*
X43895077Y58223749D01*
X43900000Y58173768D01*
X43900000Y57626232D01*
X43895077Y57576251D01*
X43880857Y57529373D01*
X43857767Y57486174D01*
X43826691Y57448309D01*
X43788826Y57417233D01*
X43745627Y57394143D01*
X43698749Y57379923D01*
X43648768Y57375000D01*
X43001232Y57375000D01*
X42951251Y57379923D01*
X42904373Y57394143D01*
X42861174Y57417233D01*
X42823309Y57448309D01*
X42792233Y57486174D01*
X42769143Y57529373D01*
X42754923Y57576251D01*
X42750000Y57626232D01*
X42750000Y58173768D01*
X42754923Y58223749D01*
X42769143Y58270627D01*
X42792233Y58313826D01*
X42823309Y58351691D01*
X42861174Y58382767D01*
X42904373Y58405857D01*
X42951251Y58420077D01*
X43001232Y58425000D01*
X43648768Y58425000D01*
X43698749Y58420077D01*
X43698749Y58420077D01*
G37*
G36*
X45448749Y58420077D02*
X45495627Y58405857D01*
X45538826Y58382767D01*
X45576691Y58351691D01*
X45607767Y58313826D01*
X45630857Y58270627D01*
X45645077Y58223749D01*
X45650000Y58173768D01*
X45650000Y57626232D01*
X45645077Y57576251D01*
X45630857Y57529373D01*
X45607767Y57486174D01*
X45576691Y57448309D01*
X45538826Y57417233D01*
X45495627Y57394143D01*
X45448749Y57379923D01*
X45398768Y57375000D01*
X44751232Y57375000D01*
X44701251Y57379923D01*
X44654373Y57394143D01*
X44611174Y57417233D01*
X44573309Y57448309D01*
X44542233Y57486174D01*
X44519143Y57529373D01*
X44504923Y57576251D01*
X44500000Y57626232D01*
X44500000Y58173768D01*
X44504923Y58223749D01*
X44519143Y58270627D01*
X44542233Y58313826D01*
X44573309Y58351691D01*
X44611174Y58382767D01*
X44654373Y58405857D01*
X44701251Y58420077D01*
X44751232Y58425000D01*
X45398768Y58425000D01*
X45448749Y58420077D01*
X45448749Y58420077D01*
G37*
G36*
X27205001Y57384999D02*
X25605001Y57384999D01*
X25605001Y57764999D01*
X27205001Y57764999D01*
X27205001Y57384999D01*
X27205001Y57384999D01*
G37*
G36*
X11405001Y57384999D02*
X9805001Y57384999D01*
X9805001Y57764999D01*
X11405001Y57764999D01*
X11405001Y57384999D01*
X11405001Y57384999D01*
G37*
G36*
X27205001Y57884999D02*
X25605001Y57884999D01*
X25605001Y58264999D01*
X27205001Y58264999D01*
X27205001Y57884999D01*
X27205001Y57884999D01*
G37*
G36*
X11405001Y57884999D02*
X9805001Y57884999D01*
X9805001Y58264999D01*
X11405001Y58264999D01*
X11405001Y57884999D01*
X11405001Y57884999D01*
G37*
G36*
X11405001Y58384999D02*
X9805001Y58384999D01*
X9805001Y58764999D01*
X11405001Y58764999D01*
X11405001Y58384999D01*
X11405001Y58384999D01*
G37*
G36*
X27205001Y58384999D02*
X25605001Y58384999D01*
X25605001Y58764999D01*
X27205001Y58764999D01*
X27205001Y58384999D01*
X27205001Y58384999D01*
G37*
G36*
X60725000Y58455000D02*
X59075000Y58455000D01*
X59075000Y59155000D01*
X60725000Y59155000D01*
X60725000Y58455000D01*
X60725000Y58455000D01*
G37*
G36*
X55325000Y58455000D02*
X53675000Y58455000D01*
X53675000Y59155000D01*
X55325000Y59155000D01*
X55325000Y58455000D01*
X55325000Y58455000D01*
G37*
G36*
X4925000Y58530000D02*
X4375000Y58530000D01*
X4375000Y60130000D01*
X4925000Y60130000D01*
X4925000Y58530000D01*
X4925000Y58530000D01*
G37*
G36*
X3625000Y58530000D02*
X3075000Y58530000D01*
X3075000Y60130000D01*
X3625000Y60130000D01*
X3625000Y58530000D01*
X3625000Y58530000D01*
G37*
G36*
X11405001Y58884999D02*
X9805001Y58884999D01*
X9805001Y59264999D01*
X11405001Y59264999D01*
X11405001Y58884999D01*
X11405001Y58884999D01*
G37*
G36*
X27205001Y58884999D02*
X25605001Y58884999D01*
X25605001Y59264999D01*
X27205001Y59264999D01*
X27205001Y58884999D01*
X27205001Y58884999D01*
G37*
G36*
X68247690Y60820052D02*
X68294814Y60805757D01*
X68338241Y60782544D01*
X68376306Y60751306D01*
X68407544Y60713241D01*
X68430757Y60669814D01*
X68445052Y60622690D01*
X68450000Y60572452D01*
X68450000Y59227548D01*
X68445052Y59177310D01*
X68430757Y59130186D01*
X68407544Y59086759D01*
X68376306Y59048694D01*
X68338241Y59017456D01*
X68294814Y58994243D01*
X68247690Y58979948D01*
X68197452Y58975000D01*
X67177548Y58975000D01*
X67127310Y58979948D01*
X67080186Y58994243D01*
X67036759Y59017456D01*
X66998694Y59048694D01*
X66967456Y59086759D01*
X66944243Y59130186D01*
X66929948Y59177310D01*
X66925000Y59227548D01*
X66925000Y60572452D01*
X66929948Y60622690D01*
X66944243Y60669814D01*
X66967456Y60713241D01*
X66998694Y60751306D01*
X67036759Y60782544D01*
X67080186Y60805757D01*
X67127310Y60820052D01*
X67177548Y60825000D01*
X68197452Y60825000D01*
X68247690Y60820052D01*
X68247690Y60820052D01*
G37*
G36*
X65272690Y60820052D02*
X65319814Y60805757D01*
X65363241Y60782544D01*
X65401306Y60751306D01*
X65432544Y60713241D01*
X65455757Y60669814D01*
X65470052Y60622690D01*
X65475000Y60572452D01*
X65475000Y59227548D01*
X65470052Y59177310D01*
X65455757Y59130186D01*
X65432544Y59086759D01*
X65401306Y59048694D01*
X65363241Y59017456D01*
X65319814Y58994243D01*
X65272690Y58979948D01*
X65222452Y58975000D01*
X64202548Y58975000D01*
X64152310Y58979948D01*
X64105186Y58994243D01*
X64061759Y59017456D01*
X64023694Y59048694D01*
X63992456Y59086759D01*
X63969243Y59130186D01*
X63954948Y59177310D01*
X63950000Y59227548D01*
X63950000Y60572452D01*
X63954948Y60622690D01*
X63969243Y60669814D01*
X63992456Y60713241D01*
X64023694Y60751306D01*
X64061759Y60782544D01*
X64105186Y60805757D01*
X64152310Y60820052D01*
X64202548Y60825000D01*
X65222452Y60825000D01*
X65272690Y60820052D01*
X65272690Y60820052D01*
G37*
G36*
X11405001Y59384999D02*
X9805001Y59384999D01*
X9805001Y59764999D01*
X11405001Y59764999D01*
X11405001Y59384999D01*
X11405001Y59384999D01*
G37*
G36*
X27205001Y59384999D02*
X25605001Y59384999D01*
X25605001Y59764999D01*
X27205001Y59764999D01*
X27205001Y59384999D01*
X27205001Y59384999D01*
G37*
G36*
X49922690Y61170052D02*
X49969814Y61155757D01*
X50013241Y61132544D01*
X50051306Y61101306D01*
X50082544Y61063241D01*
X50105757Y61019814D01*
X50120052Y60972690D01*
X50125000Y60922452D01*
X50125000Y59902548D01*
X50120052Y59852310D01*
X50105757Y59805186D01*
X50082544Y59761759D01*
X50051306Y59723694D01*
X50013241Y59692456D01*
X49969814Y59669243D01*
X49922690Y59654948D01*
X49872452Y59650000D01*
X48527548Y59650000D01*
X48477310Y59654948D01*
X48430186Y59669243D01*
X48386759Y59692456D01*
X48348694Y59723694D01*
X48317456Y59761759D01*
X48294243Y59805186D01*
X48279948Y59852310D01*
X48275000Y59902548D01*
X48275000Y60922452D01*
X48279948Y60972690D01*
X48294243Y61019814D01*
X48317456Y61063241D01*
X48348694Y61101306D01*
X48386759Y61132544D01*
X48430186Y61155757D01*
X48477310Y61170052D01*
X48527548Y61175000D01*
X49872452Y61175000D01*
X49922690Y61170052D01*
X49922690Y61170052D01*
G37*
G36*
X46922690Y61170052D02*
X46969814Y61155757D01*
X47013241Y61132544D01*
X47051306Y61101306D01*
X47082544Y61063241D01*
X47105757Y61019814D01*
X47120052Y60972690D01*
X47125000Y60922452D01*
X47125000Y59902548D01*
X47120052Y59852310D01*
X47105757Y59805186D01*
X47082544Y59761759D01*
X47051306Y59723694D01*
X47013241Y59692456D01*
X46969814Y59669243D01*
X46922690Y59654948D01*
X46872452Y59650000D01*
X45527548Y59650000D01*
X45477310Y59654948D01*
X45430186Y59669243D01*
X45386759Y59692456D01*
X45348694Y59723694D01*
X45317456Y59761759D01*
X45294243Y59805186D01*
X45279948Y59852310D01*
X45275000Y59902548D01*
X45275000Y60922452D01*
X45279948Y60972690D01*
X45294243Y61019814D01*
X45317456Y61063241D01*
X45348694Y61101306D01*
X45386759Y61132544D01*
X45430186Y61155757D01*
X45477310Y61170052D01*
X45527548Y61175000D01*
X46872452Y61175000D01*
X46922690Y61170052D01*
X46922690Y61170052D01*
G37*
G36*
X27205001Y59884999D02*
X25605001Y59884999D01*
X25605001Y60264999D01*
X27205001Y60264999D01*
X27205001Y59884999D01*
X27205001Y59884999D01*
G37*
G36*
X11405001Y59884999D02*
X9805001Y59884999D01*
X9805001Y60264999D01*
X11405001Y60264999D01*
X11405001Y59884999D01*
X11405001Y59884999D01*
G37*
G36*
X39850000Y61150000D02*
X38150000Y61150000D01*
X38150000Y62850000D01*
X39850000Y62850000D01*
X39850000Y61150000D01*
X39850000Y61150000D01*
G37*
G36*
X35747936Y62817335D02*
X35902626Y62753260D01*
X36041844Y62660238D01*
X36160238Y62541844D01*
X36253260Y62402626D01*
X36317335Y62247936D01*
X36350000Y62083718D01*
X36350000Y61916282D01*
X36317335Y61752064D01*
X36253260Y61597374D01*
X36160238Y61458156D01*
X36041844Y61339762D01*
X35902626Y61246740D01*
X35747936Y61182665D01*
X35583718Y61150000D01*
X35416282Y61150000D01*
X35252064Y61182665D01*
X35097374Y61246740D01*
X34958156Y61339762D01*
X34839762Y61458156D01*
X34746740Y61597374D01*
X34682665Y61752064D01*
X34650000Y61916282D01*
X34650000Y62083718D01*
X34682665Y62247936D01*
X34746740Y62402626D01*
X34839762Y62541844D01*
X34958156Y62660238D01*
X35097374Y62753260D01*
X35252064Y62817335D01*
X35416282Y62850000D01*
X35583718Y62850000D01*
X35747936Y62817335D01*
X35747936Y62817335D01*
G37*
G36*
X15195001Y61174999D02*
X14815001Y61174999D01*
X14815001Y62774999D01*
X15195001Y62774999D01*
X15195001Y61174999D01*
X15195001Y61174999D01*
G37*
G36*
X14695001Y61174999D02*
X14315001Y61174999D01*
X14315001Y62774999D01*
X14695001Y62774999D01*
X14695001Y61174999D01*
X14695001Y61174999D01*
G37*
G36*
X14195001Y61174999D02*
X13815001Y61174999D01*
X13815001Y62774999D01*
X14195001Y62774999D01*
X14195001Y61174999D01*
X14195001Y61174999D01*
G37*
G36*
X13695001Y61174999D02*
X13315001Y61174999D01*
X13315001Y62774999D01*
X13695001Y62774999D01*
X13695001Y61174999D01*
X13695001Y61174999D01*
G37*
G36*
X13195001Y61174999D02*
X12815001Y61174999D01*
X12815001Y62774999D01*
X13195001Y62774999D01*
X13195001Y61174999D01*
X13195001Y61174999D01*
G37*
G36*
X12695001Y61174999D02*
X12315001Y61174999D01*
X12315001Y62774999D01*
X12695001Y62774999D01*
X12695001Y61174999D01*
X12695001Y61174999D01*
G37*
G36*
X22195001Y61174999D02*
X21815001Y61174999D01*
X21815001Y62774999D01*
X22195001Y62774999D01*
X22195001Y61174999D01*
X22195001Y61174999D01*
G37*
G36*
X21695001Y61174999D02*
X21315001Y61174999D01*
X21315001Y62774999D01*
X21695001Y62774999D01*
X21695001Y61174999D01*
X21695001Y61174999D01*
G37*
G36*
X22695001Y61174999D02*
X22315001Y61174999D01*
X22315001Y62774999D01*
X22695001Y62774999D01*
X22695001Y61174999D01*
X22695001Y61174999D01*
G37*
G36*
X23195001Y61174999D02*
X22815001Y61174999D01*
X22815001Y62774999D01*
X23195001Y62774999D01*
X23195001Y61174999D01*
X23195001Y61174999D01*
G37*
G36*
X23695001Y61174999D02*
X23315001Y61174999D01*
X23315001Y62774999D01*
X23695001Y62774999D01*
X23695001Y61174999D01*
X23695001Y61174999D01*
G37*
G36*
X24195001Y61174999D02*
X23815001Y61174999D01*
X23815001Y62774999D01*
X24195001Y62774999D01*
X24195001Y61174999D01*
X24195001Y61174999D01*
G37*
G36*
X16195001Y61174999D02*
X15815001Y61174999D01*
X15815001Y62774999D01*
X16195001Y62774999D01*
X16195001Y61174999D01*
X16195001Y61174999D01*
G37*
G36*
X15695001Y61174999D02*
X15315001Y61174999D01*
X15315001Y62774999D01*
X15695001Y62774999D01*
X15695001Y61174999D01*
X15695001Y61174999D01*
G37*
G36*
X21195001Y61174999D02*
X20815001Y61174999D01*
X20815001Y62774999D01*
X21195001Y62774999D01*
X21195001Y61174999D01*
X21195001Y61174999D01*
G37*
G36*
X18695001Y61174999D02*
X18315001Y61174999D01*
X18315001Y62774999D01*
X18695001Y62774999D01*
X18695001Y61174999D01*
X18695001Y61174999D01*
G37*
G36*
X19195001Y61174999D02*
X18815001Y61174999D01*
X18815001Y62774999D01*
X19195001Y62774999D01*
X19195001Y61174999D01*
X19195001Y61174999D01*
G37*
G36*
X19695001Y61174999D02*
X19315001Y61174999D01*
X19315001Y62774999D01*
X19695001Y62774999D01*
X19695001Y61174999D01*
X19695001Y61174999D01*
G37*
G36*
X20195001Y61174999D02*
X19815001Y61174999D01*
X19815001Y62774999D01*
X20195001Y62774999D01*
X20195001Y61174999D01*
X20195001Y61174999D01*
G37*
G36*
X20695001Y61174999D02*
X20315001Y61174999D01*
X20315001Y62774999D01*
X20695001Y62774999D01*
X20695001Y61174999D01*
X20695001Y61174999D01*
G37*
G36*
X18195001Y61174999D02*
X17815001Y61174999D01*
X17815001Y62774999D01*
X18195001Y62774999D01*
X18195001Y61174999D01*
X18195001Y61174999D01*
G37*
G36*
X16695001Y61174999D02*
X16315001Y61174999D01*
X16315001Y62774999D01*
X16695001Y62774999D01*
X16695001Y61174999D01*
X16695001Y61174999D01*
G37*
G36*
X17195001Y61174999D02*
X16815001Y61174999D01*
X16815001Y62774999D01*
X17195001Y62774999D01*
X17195001Y61174999D01*
X17195001Y61174999D01*
G37*
G36*
X24695001Y61174999D02*
X24315001Y61174999D01*
X24315001Y62774999D01*
X24695001Y62774999D01*
X24695001Y61174999D01*
X24695001Y61174999D01*
G37*
G36*
X17695001Y61174999D02*
X17315001Y61174999D01*
X17315001Y62774999D01*
X17695001Y62774999D01*
X17695001Y61174999D01*
X17695001Y61174999D01*
G37*
G36*
X4542629Y62594931D02*
X4590925Y62580281D01*
X4635445Y62556484D01*
X4674463Y62524463D01*
X4706484Y62485445D01*
X4730281Y62440925D01*
X4744931Y62392629D01*
X4750000Y62341160D01*
X4750000Y61608840D01*
X4744931Y61557371D01*
X4730281Y61509075D01*
X4706484Y61464555D01*
X4674463Y61425537D01*
X4635445Y61393516D01*
X4590925Y61369719D01*
X4542629Y61355069D01*
X4491160Y61350000D01*
X3508840Y61350000D01*
X3457371Y61355069D01*
X3409075Y61369719D01*
X3364555Y61393516D01*
X3325537Y61425537D01*
X3293516Y61464555D01*
X3269719Y61509075D01*
X3255069Y61557371D01*
X3250000Y61608840D01*
X3250000Y62341160D01*
X3255069Y62392629D01*
X3269719Y62440925D01*
X3293516Y62485445D01*
X3325537Y62524463D01*
X3364555Y62556484D01*
X3409075Y62580281D01*
X3457371Y62594931D01*
X3508840Y62600000D01*
X4491160Y62600000D01*
X4542629Y62594931D01*
X4542629Y62594931D01*
G37*
G36*
X74150000Y61530000D02*
X71850000Y61530000D01*
X71850000Y62830000D01*
X74150000Y62830000D01*
X74150000Y61530000D01*
X74150000Y61530000D01*
G37*
G36*
X55500000Y61950000D02*
X51900000Y61950000D01*
X51900000Y63850000D01*
X55500000Y63850000D01*
X55500000Y61950000D01*
X55500000Y61950000D01*
G37*
G36*
X60500000Y61950000D02*
X56900000Y61950000D01*
X56900000Y63850000D01*
X60500000Y63850000D01*
X60500000Y61950000D01*
X60500000Y61950000D01*
G37*
G36*
X49922690Y64145052D02*
X49969814Y64130757D01*
X50013241Y64107544D01*
X50051306Y64076306D01*
X50082544Y64038241D01*
X50105757Y63994814D01*
X50120052Y63947690D01*
X50125000Y63897452D01*
X50125000Y62877548D01*
X50120052Y62827310D01*
X50105757Y62780186D01*
X50082544Y62736759D01*
X50051306Y62698694D01*
X50013241Y62667456D01*
X49969814Y62644243D01*
X49922690Y62629948D01*
X49872452Y62625000D01*
X48527548Y62625000D01*
X48477310Y62629948D01*
X48430186Y62644243D01*
X48386759Y62667456D01*
X48348694Y62698694D01*
X48317456Y62736759D01*
X48294243Y62780186D01*
X48279948Y62827310D01*
X48275000Y62877548D01*
X48275000Y63897452D01*
X48279948Y63947690D01*
X48294243Y63994814D01*
X48317456Y64038241D01*
X48348694Y64076306D01*
X48386759Y64107544D01*
X48430186Y64130757D01*
X48477310Y64145052D01*
X48527548Y64150000D01*
X49872452Y64150000D01*
X49922690Y64145052D01*
X49922690Y64145052D01*
G37*
G36*
X46922690Y64145052D02*
X46969814Y64130757D01*
X47013241Y64107544D01*
X47051306Y64076306D01*
X47082544Y64038241D01*
X47105757Y63994814D01*
X47120052Y63947690D01*
X47125000Y63897452D01*
X47125000Y62877548D01*
X47120052Y62827310D01*
X47105757Y62780186D01*
X47082544Y62736759D01*
X47051306Y62698694D01*
X47013241Y62667456D01*
X46969814Y62644243D01*
X46922690Y62629948D01*
X46872452Y62625000D01*
X45527548Y62625000D01*
X45477310Y62629948D01*
X45430186Y62644243D01*
X45386759Y62667456D01*
X45348694Y62698694D01*
X45317456Y62736759D01*
X45294243Y62780186D01*
X45279948Y62827310D01*
X45275000Y62877548D01*
X45275000Y63897452D01*
X45279948Y63947690D01*
X45294243Y63994814D01*
X45317456Y64038241D01*
X45348694Y64076306D01*
X45386759Y64107544D01*
X45430186Y64130757D01*
X45477310Y64145052D01*
X45527548Y64150000D01*
X46872452Y64150000D01*
X46922690Y64145052D01*
X46922690Y64145052D01*
G37*
G36*
X70500000Y62950000D02*
X66900000Y62950000D01*
X66900000Y64850000D01*
X70500000Y64850000D01*
X70500000Y62950000D01*
X70500000Y62950000D01*
G37*
G36*
X65500000Y62950000D02*
X61900000Y62950000D01*
X61900000Y64850000D01*
X65500000Y64850000D01*
X65500000Y62950000D01*
X65500000Y62950000D01*
G37*
G36*
X4542629Y64644931D02*
X4590925Y64630281D01*
X4635445Y64606484D01*
X4674463Y64574463D01*
X4706484Y64535445D01*
X4730281Y64490925D01*
X4744931Y64442629D01*
X4750000Y64391160D01*
X4750000Y63658840D01*
X4744931Y63607371D01*
X4730281Y63559075D01*
X4706484Y63514555D01*
X4674463Y63475537D01*
X4635445Y63443516D01*
X4590925Y63419719D01*
X4542629Y63405069D01*
X4491160Y63400000D01*
X3508840Y63400000D01*
X3457371Y63405069D01*
X3409075Y63419719D01*
X3364555Y63443516D01*
X3325537Y63475537D01*
X3293516Y63514555D01*
X3269719Y63559075D01*
X3255069Y63607371D01*
X3250000Y63658840D01*
X3250000Y64391160D01*
X3255069Y64442629D01*
X3269719Y64490925D01*
X3293516Y64535445D01*
X3325537Y64574463D01*
X3364555Y64606484D01*
X3409075Y64630281D01*
X3457371Y64644931D01*
X3508840Y64650000D01*
X4491160Y64650000D01*
X4542629Y64644931D01*
X4542629Y64644931D01*
G37*
G36*
X20498749Y65020077D02*
X20545627Y65005857D01*
X20588826Y64982767D01*
X20626691Y64951691D01*
X20657767Y64913826D01*
X20680857Y64870627D01*
X20695077Y64823749D01*
X20700000Y64773768D01*
X20700000Y64226232D01*
X20695077Y64176251D01*
X20680857Y64129373D01*
X20657767Y64086174D01*
X20626691Y64048309D01*
X20588826Y64017233D01*
X20545627Y63994143D01*
X20498749Y63979923D01*
X20448768Y63975000D01*
X19801232Y63975000D01*
X19751251Y63979923D01*
X19704373Y63994143D01*
X19661174Y64017233D01*
X19623309Y64048309D01*
X19592233Y64086174D01*
X19569143Y64129373D01*
X19554923Y64176251D01*
X19550000Y64226232D01*
X19550000Y64773768D01*
X19554923Y64823749D01*
X19569143Y64870627D01*
X19592233Y64913826D01*
X19623309Y64951691D01*
X19661174Y64982767D01*
X19704373Y65005857D01*
X19751251Y65020077D01*
X19801232Y65025000D01*
X20448768Y65025000D01*
X20498749Y65020077D01*
X20498749Y65020077D01*
G37*
G36*
X22248749Y65020077D02*
X22295627Y65005857D01*
X22338826Y64982767D01*
X22376691Y64951691D01*
X22407767Y64913826D01*
X22430857Y64870627D01*
X22445077Y64823749D01*
X22450000Y64773768D01*
X22450000Y64226232D01*
X22445077Y64176251D01*
X22430857Y64129373D01*
X22407767Y64086174D01*
X22376691Y64048309D01*
X22338826Y64017233D01*
X22295627Y63994143D01*
X22248749Y63979923D01*
X22198768Y63975000D01*
X21551232Y63975000D01*
X21501251Y63979923D01*
X21454373Y63994143D01*
X21411174Y64017233D01*
X21373309Y64048309D01*
X21342233Y64086174D01*
X21319143Y64129373D01*
X21304923Y64176251D01*
X21300000Y64226232D01*
X21300000Y64773768D01*
X21304923Y64823749D01*
X21319143Y64870627D01*
X21342233Y64913826D01*
X21373309Y64951691D01*
X21411174Y64982767D01*
X21454373Y65005857D01*
X21501251Y65020077D01*
X21551232Y65025000D01*
X22198768Y65025000D01*
X22248749Y65020077D01*
X22248749Y65020077D01*
G37*
G36*
X18323749Y65195077D02*
X18370627Y65180857D01*
X18413826Y65157767D01*
X18451691Y65126691D01*
X18482767Y65088826D01*
X18505857Y65045627D01*
X18520077Y64998749D01*
X18525000Y64948768D01*
X18525000Y64301232D01*
X18520077Y64251251D01*
X18505857Y64204373D01*
X18482767Y64161174D01*
X18451691Y64123309D01*
X18413826Y64092233D01*
X18370627Y64069143D01*
X18323749Y64054923D01*
X18273768Y64050000D01*
X17726232Y64050000D01*
X17676251Y64054923D01*
X17629373Y64069143D01*
X17586174Y64092233D01*
X17548309Y64123309D01*
X17517233Y64161174D01*
X17494143Y64204373D01*
X17479923Y64251251D01*
X17475000Y64301232D01*
X17475000Y64948768D01*
X17479923Y64998749D01*
X17494143Y65045627D01*
X17517233Y65088826D01*
X17548309Y65126691D01*
X17586174Y65157767D01*
X17629373Y65180857D01*
X17676251Y65195077D01*
X17726232Y65200000D01*
X18273768Y65200000D01*
X18323749Y65195077D01*
X18323749Y65195077D01*
G37*
G36*
X18323749Y66945077D02*
X18370627Y66930857D01*
X18413826Y66907767D01*
X18451691Y66876691D01*
X18482767Y66838826D01*
X18505857Y66795627D01*
X18520077Y66748749D01*
X18525000Y66698768D01*
X18525000Y66051232D01*
X18520077Y66001251D01*
X18505857Y65954373D01*
X18482767Y65911174D01*
X18451691Y65873309D01*
X18413826Y65842233D01*
X18370627Y65819143D01*
X18323749Y65804923D01*
X18273768Y65800000D01*
X17726232Y65800000D01*
X17676251Y65804923D01*
X17629373Y65819143D01*
X17586174Y65842233D01*
X17548309Y65873309D01*
X17517233Y65911174D01*
X17494143Y65954373D01*
X17479923Y66001251D01*
X17475000Y66051232D01*
X17475000Y66698768D01*
X17479923Y66748749D01*
X17494143Y66795627D01*
X17517233Y66838826D01*
X17548309Y66876691D01*
X17586174Y66907767D01*
X17629373Y66930857D01*
X17676251Y66945077D01*
X17726232Y66950000D01*
X18273768Y66950000D01*
X18323749Y66945077D01*
X18323749Y66945077D01*
G37*
G36*
X55450000Y66925000D02*
X54900000Y66925000D01*
X54900000Y68475000D01*
X55450000Y68475000D01*
X55450000Y66925000D01*
X55450000Y66925000D01*
G37*
G36*
X54800000Y66925000D02*
X54250000Y66925000D01*
X54250000Y68475000D01*
X54800000Y68475000D01*
X54800000Y66925000D01*
X54800000Y66925000D01*
G37*
G36*
X54150000Y66925000D02*
X53600000Y66925000D01*
X53600000Y68475000D01*
X54150000Y68475000D01*
X54150000Y66925000D01*
X54150000Y66925000D01*
G37*
G36*
X53500000Y66925000D02*
X52950000Y66925000D01*
X52950000Y68475000D01*
X53500000Y68475000D01*
X53500000Y66925000D01*
X53500000Y66925000D01*
G37*
G36*
X82550000Y68950000D02*
X76050000Y68950000D01*
X76050000Y74850000D01*
X82550000Y74850000D01*
X82550000Y68950000D01*
X82550000Y68950000D01*
G37*
G36*
X74150000Y68970000D02*
X71850000Y68970000D01*
X71850000Y70270000D01*
X74150000Y70270000D01*
X74150000Y68970000D01*
X74150000Y68970000D01*
G37*
G36*
X51692629Y70344931D02*
X51740925Y70330281D01*
X51785445Y70306484D01*
X51824463Y70274463D01*
X51856484Y70235445D01*
X51880281Y70190925D01*
X51894931Y70142629D01*
X51900000Y70091160D01*
X51900000Y69358840D01*
X51894931Y69307371D01*
X51880281Y69259075D01*
X51856484Y69214555D01*
X51824463Y69175537D01*
X51785445Y69143516D01*
X51740925Y69119719D01*
X51692629Y69105069D01*
X51641160Y69100000D01*
X50658840Y69100000D01*
X50607371Y69105069D01*
X50559075Y69119719D01*
X50514555Y69143516D01*
X50475537Y69175537D01*
X50443516Y69214555D01*
X50419719Y69259075D01*
X50405069Y69307371D01*
X50400000Y69358840D01*
X50400000Y70091160D01*
X50405069Y70142629D01*
X50419719Y70190925D01*
X50443516Y70235445D01*
X50475537Y70274463D01*
X50514555Y70306484D01*
X50559075Y70330281D01*
X50607371Y70344931D01*
X50658840Y70350000D01*
X51641160Y70350000D01*
X51692629Y70344931D01*
X51692629Y70344931D01*
G37*
G36*
X60724084Y70720085D02*
X60770876Y70705891D01*
X60814007Y70682836D01*
X60851812Y70651812D01*
X60882836Y70614007D01*
X60905891Y70570876D01*
X60920085Y70524084D01*
X60925000Y70474179D01*
X60925000Y69350821D01*
X60920085Y69300916D01*
X60905891Y69254124D01*
X60882836Y69210993D01*
X60851812Y69173188D01*
X60814007Y69142164D01*
X60770876Y69119109D01*
X60724084Y69104915D01*
X60674179Y69100000D01*
X57725821Y69100000D01*
X57675916Y69104915D01*
X57629124Y69119109D01*
X57585993Y69142164D01*
X57548188Y69173188D01*
X57517164Y69210993D01*
X57494109Y69254124D01*
X57479915Y69300916D01*
X57475000Y69350821D01*
X57475000Y70474179D01*
X57479915Y70524084D01*
X57494109Y70570876D01*
X57517164Y70614007D01*
X57548188Y70651812D01*
X57585993Y70682836D01*
X57629124Y70705891D01*
X57675916Y70720085D01*
X57725821Y70725000D01*
X60674179Y70725000D01*
X60724084Y70720085D01*
X60724084Y70720085D01*
G37*
G36*
X20600000Y69400000D02*
X14900000Y69400000D01*
X14900000Y71600000D01*
X20600000Y71600000D01*
X20600000Y69400000D01*
X20600000Y69400000D01*
G37*
G36*
X11100000Y69400000D02*
X5400000Y69400000D01*
X5400000Y71600000D01*
X11100000Y71600000D01*
X11100000Y69400000D01*
X11100000Y69400000D01*
G37*
G36*
X67642629Y71644931D02*
X67690925Y71630281D01*
X67735445Y71606484D01*
X67774463Y71574463D01*
X67806484Y71535445D01*
X67830281Y71490925D01*
X67844931Y71442629D01*
X67850000Y71391160D01*
X67850000Y70408840D01*
X67844931Y70357371D01*
X67830281Y70309075D01*
X67806484Y70264555D01*
X67774463Y70225537D01*
X67735445Y70193516D01*
X67690925Y70169719D01*
X67642629Y70155069D01*
X67591160Y70150000D01*
X66858840Y70150000D01*
X66807371Y70155069D01*
X66759075Y70169719D01*
X66714555Y70193516D01*
X66675537Y70225537D01*
X66643516Y70264555D01*
X66619719Y70309075D01*
X66605069Y70357371D01*
X66600000Y70408840D01*
X66600000Y71391160D01*
X66605069Y71442629D01*
X66619719Y71490925D01*
X66643516Y71535445D01*
X66675537Y71574463D01*
X66714555Y71606484D01*
X66759075Y71630281D01*
X66807371Y71644931D01*
X66858840Y71650000D01*
X67591160Y71650000D01*
X67642629Y71644931D01*
X67642629Y71644931D01*
G37*
G36*
X65592629Y71644931D02*
X65640925Y71630281D01*
X65685445Y71606484D01*
X65724463Y71574463D01*
X65756484Y71535445D01*
X65780281Y71490925D01*
X65794931Y71442629D01*
X65800000Y71391160D01*
X65800000Y70408840D01*
X65794931Y70357371D01*
X65780281Y70309075D01*
X65756484Y70264555D01*
X65724463Y70225537D01*
X65685445Y70193516D01*
X65640925Y70169719D01*
X65592629Y70155069D01*
X65541160Y70150000D01*
X64808840Y70150000D01*
X64757371Y70155069D01*
X64709075Y70169719D01*
X64664555Y70193516D01*
X64625537Y70225537D01*
X64593516Y70264555D01*
X64569719Y70309075D01*
X64555069Y70357371D01*
X64550000Y70408840D01*
X64550000Y71391160D01*
X64555069Y71442629D01*
X64569719Y71490925D01*
X64593516Y71535445D01*
X64625537Y71574463D01*
X64664555Y71606484D01*
X64709075Y71630281D01*
X64757371Y71644931D01*
X64808840Y71650000D01*
X65541160Y71650000D01*
X65592629Y71644931D01*
X65592629Y71644931D01*
G37*
G36*
X51692629Y72394931D02*
X51740925Y72380281D01*
X51785445Y72356484D01*
X51824463Y72324463D01*
X51856484Y72285445D01*
X51880281Y72240925D01*
X51894931Y72192629D01*
X51900000Y72141160D01*
X51900000Y71408840D01*
X51894931Y71357371D01*
X51880281Y71309075D01*
X51856484Y71264555D01*
X51824463Y71225537D01*
X51785445Y71193516D01*
X51740925Y71169719D01*
X51692629Y71155069D01*
X51641160Y71150000D01*
X50658840Y71150000D01*
X50607371Y71155069D01*
X50559075Y71169719D01*
X50514555Y71193516D01*
X50475537Y71225537D01*
X50443516Y71264555D01*
X50419719Y71309075D01*
X50405069Y71357371D01*
X50400000Y71408840D01*
X50400000Y72141160D01*
X50405069Y72192629D01*
X50419719Y72240925D01*
X50443516Y72285445D01*
X50475537Y72324463D01*
X50514555Y72356484D01*
X50559075Y72380281D01*
X50607371Y72394931D01*
X50658840Y72400000D01*
X51641160Y72400000D01*
X51692629Y72394931D01*
X51692629Y72394931D01*
G37*
G36*
X54150000Y71325000D02*
X53600000Y71325000D01*
X53600000Y72875000D01*
X54150000Y72875000D01*
X54150000Y71325000D01*
X54150000Y71325000D01*
G37*
G36*
X53500000Y71325000D02*
X52950000Y71325000D01*
X52950000Y72875000D01*
X53500000Y72875000D01*
X53500000Y71325000D01*
X53500000Y71325000D01*
G37*
G36*
X54800000Y71325000D02*
X54250000Y71325000D01*
X54250000Y72875000D01*
X54800000Y72875000D01*
X54800000Y71325000D01*
X54800000Y71325000D01*
G37*
G36*
X55450000Y71325000D02*
X54900000Y71325000D01*
X54900000Y72875000D01*
X55450000Y72875000D01*
X55450000Y71325000D01*
X55450000Y71325000D01*
G37*
G36*
X96806274Y73809650D02*
X96997362Y73730498D01*
X97169336Y73615589D01*
X97315589Y73469336D01*
X97430498Y73297362D01*
X97509650Y73106274D01*
X97550000Y72903416D01*
X97550000Y72696584D01*
X97509650Y72493726D01*
X97430498Y72302638D01*
X97315589Y72130664D01*
X97169336Y71984411D01*
X96997362Y71869502D01*
X96806274Y71790350D01*
X96603416Y71750000D01*
X96396584Y71750000D01*
X96193726Y71790350D01*
X96002638Y71869502D01*
X95830664Y71984411D01*
X95684411Y72130664D01*
X95569502Y72302638D01*
X95490350Y72493726D01*
X95450000Y72696584D01*
X95450000Y72903416D01*
X95490350Y73106274D01*
X95569502Y73297362D01*
X95684411Y73469336D01*
X95830664Y73615589D01*
X96002638Y73730498D01*
X96193726Y73809650D01*
X96396584Y73850000D01*
X96603416Y73850000D01*
X96806274Y73809650D01*
X96806274Y73809650D01*
G37*
G36*
X92550000Y71750000D02*
X90450000Y71750000D01*
X90450000Y73850000D01*
X92550000Y73850000D01*
X92550000Y71750000D01*
X92550000Y71750000D01*
G37*
G36*
X28481676Y72844628D02*
X28554471Y72814475D01*
X28619985Y72770700D01*
X28675700Y72714985D01*
X28719475Y72649471D01*
X28749628Y72576676D01*
X28765000Y72499397D01*
X28765000Y72420603D01*
X28749628Y72343324D01*
X28719475Y72270529D01*
X28675700Y72205015D01*
X28619985Y72149300D01*
X28554471Y72105525D01*
X28481676Y72075372D01*
X28404397Y72060000D01*
X28325603Y72060000D01*
X28248324Y72075372D01*
X28175529Y72105525D01*
X28110015Y72149300D01*
X28054300Y72205015D01*
X28010525Y72270529D01*
X27980372Y72343324D01*
X27965000Y72420603D01*
X27965000Y72499397D01*
X27980372Y72576676D01*
X28010525Y72649471D01*
X28054300Y72714985D01*
X28110015Y72770700D01*
X28175529Y72814475D01*
X28248324Y72844628D01*
X28325603Y72860000D01*
X28404397Y72860000D01*
X28481676Y72844628D01*
X28481676Y72844628D01*
G37*
G36*
X29751676Y72844628D02*
X29824471Y72814475D01*
X29889985Y72770700D01*
X29945700Y72714985D01*
X29989475Y72649471D01*
X30019628Y72576676D01*
X30035000Y72499397D01*
X30035000Y72420603D01*
X30019628Y72343324D01*
X29989475Y72270529D01*
X29945700Y72205015D01*
X29889985Y72149300D01*
X29824471Y72105525D01*
X29751676Y72075372D01*
X29674397Y72060000D01*
X29595603Y72060000D01*
X29518324Y72075372D01*
X29445529Y72105525D01*
X29380015Y72149300D01*
X29324300Y72205015D01*
X29280525Y72270529D01*
X29250372Y72343324D01*
X29235000Y72420603D01*
X29235000Y72499397D01*
X29250372Y72576676D01*
X29280525Y72649471D01*
X29324300Y72714985D01*
X29380015Y72770700D01*
X29445529Y72814475D01*
X29518324Y72844628D01*
X29595603Y72860000D01*
X29674397Y72860000D01*
X29751676Y72844628D01*
X29751676Y72844628D01*
G37*
G36*
X68247690Y74820052D02*
X68294814Y74805757D01*
X68338241Y74782544D01*
X68376306Y74751306D01*
X68407544Y74713241D01*
X68430757Y74669814D01*
X68445052Y74622690D01*
X68450000Y74572452D01*
X68450000Y73227548D01*
X68445052Y73177310D01*
X68430757Y73130186D01*
X68407544Y73086759D01*
X68376306Y73048694D01*
X68338241Y73017456D01*
X68294814Y72994243D01*
X68247690Y72979948D01*
X68197452Y72975000D01*
X67177548Y72975000D01*
X67127310Y72979948D01*
X67080186Y72994243D01*
X67036759Y73017456D01*
X66998694Y73048694D01*
X66967456Y73086759D01*
X66944243Y73130186D01*
X66929948Y73177310D01*
X66925000Y73227548D01*
X66925000Y74572452D01*
X66929948Y74622690D01*
X66944243Y74669814D01*
X66967456Y74713241D01*
X66998694Y74751306D01*
X67036759Y74782544D01*
X67080186Y74805757D01*
X67127310Y74820052D01*
X67177548Y74825000D01*
X68197452Y74825000D01*
X68247690Y74820052D01*
X68247690Y74820052D01*
G37*
G36*
X65272690Y74820052D02*
X65319814Y74805757D01*
X65363241Y74782544D01*
X65401306Y74751306D01*
X65432544Y74713241D01*
X65455757Y74669814D01*
X65470052Y74622690D01*
X65475000Y74572452D01*
X65475000Y73227548D01*
X65470052Y73177310D01*
X65455757Y73130186D01*
X65432544Y73086759D01*
X65401306Y73048694D01*
X65363241Y73017456D01*
X65319814Y72994243D01*
X65272690Y72979948D01*
X65222452Y72975000D01*
X64202548Y72975000D01*
X64152310Y72979948D01*
X64105186Y72994243D01*
X64061759Y73017456D01*
X64023694Y73048694D01*
X63992456Y73086759D01*
X63969243Y73130186D01*
X63954948Y73177310D01*
X63950000Y73227548D01*
X63950000Y74572452D01*
X63954948Y74622690D01*
X63969243Y74669814D01*
X63992456Y74713241D01*
X64023694Y74751306D01*
X64061759Y74782544D01*
X64105186Y74805757D01*
X64152310Y74820052D01*
X64202548Y74825000D01*
X65222452Y74825000D01*
X65272690Y74820052D01*
X65272690Y74820052D01*
G37*
G36*
X29751676Y74114628D02*
X29824471Y74084475D01*
X29889985Y74040700D01*
X29945700Y73984985D01*
X29989475Y73919471D01*
X30019628Y73846676D01*
X30035000Y73769397D01*
X30035000Y73690603D01*
X30019628Y73613324D01*
X29989475Y73540529D01*
X29945700Y73475015D01*
X29889985Y73419300D01*
X29824471Y73375525D01*
X29751676Y73345372D01*
X29674397Y73330000D01*
X29595603Y73330000D01*
X29518324Y73345372D01*
X29445529Y73375525D01*
X29380015Y73419300D01*
X29324300Y73475015D01*
X29280525Y73540529D01*
X29250372Y73613324D01*
X29235000Y73690603D01*
X29235000Y73769397D01*
X29250372Y73846676D01*
X29280525Y73919471D01*
X29324300Y73984985D01*
X29380015Y74040700D01*
X29445529Y74084475D01*
X29518324Y74114628D01*
X29595603Y74130000D01*
X29674397Y74130000D01*
X29751676Y74114628D01*
X29751676Y74114628D01*
G37*
G36*
X28481676Y74114628D02*
X28554471Y74084475D01*
X28619985Y74040700D01*
X28675700Y73984985D01*
X28719475Y73919471D01*
X28749628Y73846676D01*
X28765000Y73769397D01*
X28765000Y73690603D01*
X28749628Y73613324D01*
X28719475Y73540529D01*
X28675700Y73475015D01*
X28619985Y73419300D01*
X28554471Y73375525D01*
X28481676Y73345372D01*
X28404397Y73330000D01*
X28325603Y73330000D01*
X28248324Y73345372D01*
X28175529Y73375525D01*
X28110015Y73419300D01*
X28054300Y73475015D01*
X28010525Y73540529D01*
X27980372Y73613324D01*
X27965000Y73690603D01*
X27965000Y73769397D01*
X27980372Y73846676D01*
X28010525Y73919471D01*
X28054300Y73984985D01*
X28110015Y74040700D01*
X28175529Y74084475D01*
X28248324Y74114628D01*
X28325603Y74130000D01*
X28404397Y74130000D01*
X28481676Y74114628D01*
X28481676Y74114628D01*
G37*
G36*
X74150000Y73530000D02*
X71850000Y73530000D01*
X71850000Y74830000D01*
X74150000Y74830000D01*
X74150000Y73530000D01*
X74150000Y73530000D01*
G37*
G36*
X10748749Y75020077D02*
X10795627Y75005857D01*
X10838826Y74982767D01*
X10876691Y74951691D01*
X10907767Y74913826D01*
X10930857Y74870627D01*
X10945077Y74823749D01*
X10950000Y74773768D01*
X10950000Y74226232D01*
X10945077Y74176251D01*
X10930857Y74129373D01*
X10907767Y74086174D01*
X10876691Y74048309D01*
X10838826Y74017233D01*
X10795627Y73994143D01*
X10748749Y73979923D01*
X10698768Y73975000D01*
X10051232Y73975000D01*
X10001251Y73979923D01*
X9954373Y73994143D01*
X9911174Y74017233D01*
X9873309Y74048309D01*
X9842233Y74086174D01*
X9819143Y74129373D01*
X9804923Y74176251D01*
X9800000Y74226232D01*
X9800000Y74773768D01*
X9804923Y74823749D01*
X9819143Y74870627D01*
X9842233Y74913826D01*
X9873309Y74951691D01*
X9911174Y74982767D01*
X9954373Y75005857D01*
X10001251Y75020077D01*
X10051232Y75025000D01*
X10698768Y75025000D01*
X10748749Y75020077D01*
X10748749Y75020077D01*
G37*
G36*
X15998749Y75020077D02*
X16045627Y75005857D01*
X16088826Y74982767D01*
X16126691Y74951691D01*
X16157767Y74913826D01*
X16180857Y74870627D01*
X16195077Y74823749D01*
X16200000Y74773768D01*
X16200000Y74226232D01*
X16195077Y74176251D01*
X16180857Y74129373D01*
X16157767Y74086174D01*
X16126691Y74048309D01*
X16088826Y74017233D01*
X16045627Y73994143D01*
X15998749Y73979923D01*
X15948768Y73975000D01*
X15301232Y73975000D01*
X15251251Y73979923D01*
X15204373Y73994143D01*
X15161174Y74017233D01*
X15123309Y74048309D01*
X15092233Y74086174D01*
X15069143Y74129373D01*
X15054923Y74176251D01*
X15050000Y74226232D01*
X15050000Y74773768D01*
X15054923Y74823749D01*
X15069143Y74870627D01*
X15092233Y74913826D01*
X15123309Y74951691D01*
X15161174Y74982767D01*
X15204373Y75005857D01*
X15251251Y75020077D01*
X15301232Y75025000D01*
X15948768Y75025000D01*
X15998749Y75020077D01*
X15998749Y75020077D01*
G37*
G36*
X17748749Y75020077D02*
X17795627Y75005857D01*
X17838826Y74982767D01*
X17876691Y74951691D01*
X17907767Y74913826D01*
X17930857Y74870627D01*
X17945077Y74823749D01*
X17950000Y74773768D01*
X17950000Y74226232D01*
X17945077Y74176251D01*
X17930857Y74129373D01*
X17907767Y74086174D01*
X17876691Y74048309D01*
X17838826Y74017233D01*
X17795627Y73994143D01*
X17748749Y73979923D01*
X17698768Y73975000D01*
X17051232Y73975000D01*
X17001251Y73979923D01*
X16954373Y73994143D01*
X16911174Y74017233D01*
X16873309Y74048309D01*
X16842233Y74086174D01*
X16819143Y74129373D01*
X16804923Y74176251D01*
X16800000Y74226232D01*
X16800000Y74773768D01*
X16804923Y74823749D01*
X16819143Y74870627D01*
X16842233Y74913826D01*
X16873309Y74951691D01*
X16911174Y74982767D01*
X16954373Y75005857D01*
X17001251Y75020077D01*
X17051232Y75025000D01*
X17698768Y75025000D01*
X17748749Y75020077D01*
X17748749Y75020077D01*
G37*
G36*
X8998749Y75020077D02*
X9045627Y75005857D01*
X9088826Y74982767D01*
X9126691Y74951691D01*
X9157767Y74913826D01*
X9180857Y74870627D01*
X9195077Y74823749D01*
X9200000Y74773768D01*
X9200000Y74226232D01*
X9195077Y74176251D01*
X9180857Y74129373D01*
X9157767Y74086174D01*
X9126691Y74048309D01*
X9088826Y74017233D01*
X9045627Y73994143D01*
X8998749Y73979923D01*
X8948768Y73975000D01*
X8301232Y73975000D01*
X8251251Y73979923D01*
X8204373Y73994143D01*
X8161174Y74017233D01*
X8123309Y74048309D01*
X8092233Y74086174D01*
X8069143Y74129373D01*
X8054923Y74176251D01*
X8050000Y74226232D01*
X8050000Y74773768D01*
X8054923Y74823749D01*
X8069143Y74870627D01*
X8092233Y74913826D01*
X8123309Y74951691D01*
X8161174Y74982767D01*
X8204373Y75005857D01*
X8251251Y75020077D01*
X8301232Y75025000D01*
X8948768Y75025000D01*
X8998749Y75020077D01*
X8998749Y75020077D01*
G37*
G36*
X43698749Y75420077D02*
X43745627Y75405857D01*
X43788826Y75382767D01*
X43826691Y75351691D01*
X43857767Y75313826D01*
X43880857Y75270627D01*
X43895077Y75223749D01*
X43900000Y75173768D01*
X43900000Y74626232D01*
X43895077Y74576251D01*
X43880857Y74529373D01*
X43857767Y74486174D01*
X43826691Y74448309D01*
X43788826Y74417233D01*
X43745627Y74394143D01*
X43698749Y74379923D01*
X43648768Y74375000D01*
X43001232Y74375000D01*
X42951251Y74379923D01*
X42904373Y74394143D01*
X42861174Y74417233D01*
X42823309Y74448309D01*
X42792233Y74486174D01*
X42769143Y74529373D01*
X42754923Y74576251D01*
X42750000Y74626232D01*
X42750000Y75173768D01*
X42754923Y75223749D01*
X42769143Y75270627D01*
X42792233Y75313826D01*
X42823309Y75351691D01*
X42861174Y75382767D01*
X42904373Y75405857D01*
X42951251Y75420077D01*
X43001232Y75425000D01*
X43648768Y75425000D01*
X43698749Y75420077D01*
X43698749Y75420077D01*
G37*
G36*
X45448749Y75420077D02*
X45495627Y75405857D01*
X45538826Y75382767D01*
X45576691Y75351691D01*
X45607767Y75313826D01*
X45630857Y75270627D01*
X45645077Y75223749D01*
X45650000Y75173768D01*
X45650000Y74626232D01*
X45645077Y74576251D01*
X45630857Y74529373D01*
X45607767Y74486174D01*
X45576691Y74448309D01*
X45538826Y74417233D01*
X45495627Y74394143D01*
X45448749Y74379923D01*
X45398768Y74375000D01*
X44751232Y74375000D01*
X44701251Y74379923D01*
X44654373Y74394143D01*
X44611174Y74417233D01*
X44573309Y74448309D01*
X44542233Y74486174D01*
X44519143Y74529373D01*
X44504923Y74576251D01*
X44500000Y74626232D01*
X44500000Y75173768D01*
X44504923Y75223749D01*
X44519143Y75270627D01*
X44542233Y75313826D01*
X44573309Y75351691D01*
X44611174Y75382767D01*
X44654373Y75405857D01*
X44701251Y75420077D01*
X44751232Y75425000D01*
X45398768Y75425000D01*
X45448749Y75420077D01*
X45448749Y75420077D01*
G37*
G36*
X28481676Y75384628D02*
X28554471Y75354475D01*
X28619985Y75310700D01*
X28675700Y75254985D01*
X28719475Y75189471D01*
X28749628Y75116676D01*
X28765000Y75039397D01*
X28765000Y74960603D01*
X28749628Y74883324D01*
X28719475Y74810529D01*
X28675700Y74745015D01*
X28619985Y74689300D01*
X28554471Y74645525D01*
X28481676Y74615372D01*
X28404397Y74600000D01*
X28325603Y74600000D01*
X28248324Y74615372D01*
X28175529Y74645525D01*
X28110015Y74689300D01*
X28054300Y74745015D01*
X28010525Y74810529D01*
X27980372Y74883324D01*
X27965000Y74960603D01*
X27965000Y75039397D01*
X27980372Y75116676D01*
X28010525Y75189471D01*
X28054300Y75254985D01*
X28110015Y75310700D01*
X28175529Y75354475D01*
X28248324Y75384628D01*
X28325603Y75400000D01*
X28404397Y75400000D01*
X28481676Y75384628D01*
X28481676Y75384628D01*
G37*
G36*
X29751676Y75384628D02*
X29824471Y75354475D01*
X29889985Y75310700D01*
X29945700Y75254985D01*
X29989475Y75189471D01*
X30019628Y75116676D01*
X30035000Y75039397D01*
X30035000Y74960603D01*
X30019628Y74883324D01*
X29989475Y74810529D01*
X29945700Y74745015D01*
X29889985Y74689300D01*
X29824471Y74645525D01*
X29751676Y74615372D01*
X29674397Y74600000D01*
X29595603Y74600000D01*
X29518324Y74615372D01*
X29445529Y74645525D01*
X29380015Y74689300D01*
X29324300Y74745015D01*
X29280525Y74810529D01*
X29250372Y74883324D01*
X29235000Y74960603D01*
X29235000Y75039397D01*
X29250372Y75116676D01*
X29280525Y75189471D01*
X29324300Y75254985D01*
X29380015Y75310700D01*
X29445529Y75354475D01*
X29518324Y75384628D01*
X29595603Y75400000D01*
X29674397Y75400000D01*
X29751676Y75384628D01*
X29751676Y75384628D01*
G37*
G36*
X60724084Y76695085D02*
X60770876Y76680891D01*
X60814007Y76657836D01*
X60851812Y76626812D01*
X60882836Y76589007D01*
X60905891Y76545876D01*
X60920085Y76499084D01*
X60925000Y76449179D01*
X60925000Y75325821D01*
X60920085Y75275916D01*
X60905891Y75229124D01*
X60882836Y75185993D01*
X60851812Y75148188D01*
X60814007Y75117164D01*
X60770876Y75094109D01*
X60724084Y75079915D01*
X60674179Y75075000D01*
X57725821Y75075000D01*
X57675916Y75079915D01*
X57629124Y75094109D01*
X57585993Y75117164D01*
X57548188Y75148188D01*
X57517164Y75185993D01*
X57494109Y75229124D01*
X57479915Y75275916D01*
X57475000Y75325821D01*
X57475000Y76449179D01*
X57479915Y76499084D01*
X57494109Y76545876D01*
X57517164Y76589007D01*
X57548188Y76626812D01*
X57585993Y76657836D01*
X57629124Y76680891D01*
X57675916Y76695085D01*
X57725821Y76700000D01*
X60674179Y76700000D01*
X60724084Y76695085D01*
X60724084Y76695085D01*
G37*
G36*
X29751676Y76654628D02*
X29824471Y76624475D01*
X29889985Y76580700D01*
X29945700Y76524985D01*
X29989475Y76459471D01*
X30019628Y76386676D01*
X30035000Y76309397D01*
X30035000Y76230603D01*
X30019628Y76153324D01*
X29989475Y76080529D01*
X29945700Y76015015D01*
X29889985Y75959300D01*
X29824471Y75915525D01*
X29751676Y75885372D01*
X29674397Y75870000D01*
X29595603Y75870000D01*
X29518324Y75885372D01*
X29445529Y75915525D01*
X29380015Y75959300D01*
X29324300Y76015015D01*
X29280525Y76080529D01*
X29250372Y76153324D01*
X29235000Y76230603D01*
X29235000Y76309397D01*
X29250372Y76386676D01*
X29280525Y76459471D01*
X29324300Y76524985D01*
X29380015Y76580700D01*
X29445529Y76624475D01*
X29518324Y76654628D01*
X29595603Y76670000D01*
X29674397Y76670000D01*
X29751676Y76654628D01*
X29751676Y76654628D01*
G37*
G36*
X28481676Y76654628D02*
X28554471Y76624475D01*
X28619985Y76580700D01*
X28675700Y76524985D01*
X28719475Y76459471D01*
X28749628Y76386676D01*
X28765000Y76309397D01*
X28765000Y76230603D01*
X28749628Y76153324D01*
X28719475Y76080529D01*
X28675700Y76015015D01*
X28619985Y75959300D01*
X28554471Y75915525D01*
X28481676Y75885372D01*
X28404397Y75870000D01*
X28325603Y75870000D01*
X28248324Y75885372D01*
X28175529Y75915525D01*
X28110015Y75959300D01*
X28054300Y76015015D01*
X28010525Y76080529D01*
X27980372Y76153324D01*
X27965000Y76230603D01*
X27965000Y76309397D01*
X27980372Y76386676D01*
X28010525Y76459471D01*
X28054300Y76524985D01*
X28110015Y76580700D01*
X28175529Y76624475D01*
X28248324Y76654628D01*
X28325603Y76670000D01*
X28404397Y76670000D01*
X28481676Y76654628D01*
X28481676Y76654628D01*
G37*
G36*
X43673749Y77920077D02*
X43720627Y77905857D01*
X43763826Y77882767D01*
X43801691Y77851691D01*
X43832767Y77813826D01*
X43855857Y77770627D01*
X43870077Y77723749D01*
X43875000Y77673768D01*
X43875000Y77126232D01*
X43870077Y77076251D01*
X43855857Y77029373D01*
X43832767Y76986174D01*
X43801691Y76948309D01*
X43763826Y76917233D01*
X43720627Y76894143D01*
X43673749Y76879923D01*
X43623768Y76875000D01*
X42976232Y76875000D01*
X42926251Y76879923D01*
X42879373Y76894143D01*
X42836174Y76917233D01*
X42798309Y76948309D01*
X42767233Y76986174D01*
X42744143Y77029373D01*
X42729923Y77076251D01*
X42725000Y77126232D01*
X42725000Y77673768D01*
X42729923Y77723749D01*
X42744143Y77770627D01*
X42767233Y77813826D01*
X42798309Y77851691D01*
X42836174Y77882767D01*
X42879373Y77905857D01*
X42926251Y77920077D01*
X42976232Y77925000D01*
X43623768Y77925000D01*
X43673749Y77920077D01*
X43673749Y77920077D01*
G37*
G36*
X45423749Y77920077D02*
X45470627Y77905857D01*
X45513826Y77882767D01*
X45551691Y77851691D01*
X45582767Y77813826D01*
X45605857Y77770627D01*
X45620077Y77723749D01*
X45625000Y77673768D01*
X45625000Y77126232D01*
X45620077Y77076251D01*
X45605857Y77029373D01*
X45582767Y76986174D01*
X45551691Y76948309D01*
X45513826Y76917233D01*
X45470627Y76894143D01*
X45423749Y76879923D01*
X45373768Y76875000D01*
X44726232Y76875000D01*
X44676251Y76879923D01*
X44629373Y76894143D01*
X44586174Y76917233D01*
X44548309Y76948309D01*
X44517233Y76986174D01*
X44494143Y77029373D01*
X44479923Y77076251D01*
X44475000Y77126232D01*
X44475000Y77673768D01*
X44479923Y77723749D01*
X44494143Y77770627D01*
X44517233Y77813826D01*
X44548309Y77851691D01*
X44586174Y77882767D01*
X44629373Y77905857D01*
X44676251Y77920077D01*
X44726232Y77925000D01*
X45373768Y77925000D01*
X45423749Y77920077D01*
X45423749Y77920077D01*
G37*
G36*
X70500000Y76950000D02*
X66900000Y76950000D01*
X66900000Y78850000D01*
X70500000Y78850000D01*
X70500000Y76950000D01*
X70500000Y76950000D01*
G37*
G36*
X65500000Y76950000D02*
X61900000Y76950000D01*
X61900000Y78850000D01*
X65500000Y78850000D01*
X65500000Y76950000D01*
X65500000Y76950000D01*
G37*
G36*
X28481676Y77924628D02*
X28554471Y77894475D01*
X28619985Y77850700D01*
X28675700Y77794985D01*
X28719475Y77729471D01*
X28749628Y77656676D01*
X28765000Y77579397D01*
X28765000Y77500603D01*
X28749628Y77423324D01*
X28719475Y77350529D01*
X28675700Y77285015D01*
X28619985Y77229300D01*
X28554471Y77185525D01*
X28481676Y77155372D01*
X28404397Y77140000D01*
X28325603Y77140000D01*
X28248324Y77155372D01*
X28175529Y77185525D01*
X28110015Y77229300D01*
X28054300Y77285015D01*
X28010525Y77350529D01*
X27980372Y77423324D01*
X27965000Y77500603D01*
X27965000Y77579397D01*
X27980372Y77656676D01*
X28010525Y77729471D01*
X28054300Y77794985D01*
X28110015Y77850700D01*
X28175529Y77894475D01*
X28248324Y77924628D01*
X28325603Y77940000D01*
X28404397Y77940000D01*
X28481676Y77924628D01*
X28481676Y77924628D01*
G37*
G36*
X29751676Y77924628D02*
X29824471Y77894475D01*
X29889985Y77850700D01*
X29945700Y77794985D01*
X29989475Y77729471D01*
X30019628Y77656676D01*
X30035000Y77579397D01*
X30035000Y77500603D01*
X30019628Y77423324D01*
X29989475Y77350529D01*
X29945700Y77285015D01*
X29889985Y77229300D01*
X29824471Y77185525D01*
X29751676Y77155372D01*
X29674397Y77140000D01*
X29595603Y77140000D01*
X29518324Y77155372D01*
X29445529Y77185525D01*
X29380015Y77229300D01*
X29324300Y77285015D01*
X29280525Y77350529D01*
X29250372Y77423324D01*
X29235000Y77500603D01*
X29235000Y77579397D01*
X29250372Y77656676D01*
X29280525Y77729471D01*
X29324300Y77794985D01*
X29380015Y77850700D01*
X29445529Y77894475D01*
X29518324Y77924628D01*
X29595603Y77940000D01*
X29674397Y77940000D01*
X29751676Y77924628D01*
X29751676Y77924628D01*
G37*
G36*
X52742629Y78494931D02*
X52790925Y78480281D01*
X52835445Y78456484D01*
X52874463Y78424463D01*
X52906484Y78385445D01*
X52930281Y78340925D01*
X52944931Y78292629D01*
X52950000Y78241160D01*
X52950000Y77508840D01*
X52944931Y77457371D01*
X52930281Y77409075D01*
X52906484Y77364555D01*
X52874463Y77325537D01*
X52835445Y77293516D01*
X52790925Y77269719D01*
X52742629Y77255069D01*
X52691160Y77250000D01*
X51708840Y77250000D01*
X51657371Y77255069D01*
X51609075Y77269719D01*
X51564555Y77293516D01*
X51525537Y77325537D01*
X51493516Y77364555D01*
X51469719Y77409075D01*
X51455069Y77457371D01*
X51450000Y77508840D01*
X51450000Y78241160D01*
X51455069Y78292629D01*
X51469719Y78340925D01*
X51493516Y78385445D01*
X51525537Y78424463D01*
X51564555Y78456484D01*
X51609075Y78480281D01*
X51657371Y78494931D01*
X51708840Y78500000D01*
X52691160Y78500000D01*
X52742629Y78494931D01*
X52742629Y78494931D01*
G37*
G36*
X50242629Y78494931D02*
X50290925Y78480281D01*
X50335445Y78456484D01*
X50374463Y78424463D01*
X50406484Y78385445D01*
X50430281Y78340925D01*
X50444931Y78292629D01*
X50450000Y78241160D01*
X50450000Y77508840D01*
X50444931Y77457371D01*
X50430281Y77409075D01*
X50406484Y77364555D01*
X50374463Y77325537D01*
X50335445Y77293516D01*
X50290925Y77269719D01*
X50242629Y77255069D01*
X50191160Y77250000D01*
X49208840Y77250000D01*
X49157371Y77255069D01*
X49109075Y77269719D01*
X49064555Y77293516D01*
X49025537Y77325537D01*
X48993516Y77364555D01*
X48969719Y77409075D01*
X48955069Y77457371D01*
X48950000Y77508840D01*
X48950000Y78241160D01*
X48955069Y78292629D01*
X48969719Y78340925D01*
X48993516Y78385445D01*
X49025537Y78424463D01*
X49064555Y78456484D01*
X49109075Y78480281D01*
X49157371Y78494931D01*
X49208840Y78500000D01*
X50191160Y78500000D01*
X50242629Y78494931D01*
X50242629Y78494931D01*
G37*
G36*
X52742629Y80544931D02*
X52790925Y80530281D01*
X52835445Y80506484D01*
X52874463Y80474463D01*
X52906484Y80435445D01*
X52930281Y80390925D01*
X52944931Y80342629D01*
X52950000Y80291160D01*
X52950000Y79558840D01*
X52944931Y79507371D01*
X52930281Y79459075D01*
X52906484Y79414555D01*
X52874463Y79375537D01*
X52835445Y79343516D01*
X52790925Y79319719D01*
X52742629Y79305069D01*
X52691160Y79300000D01*
X51708840Y79300000D01*
X51657371Y79305069D01*
X51609075Y79319719D01*
X51564555Y79343516D01*
X51525537Y79375537D01*
X51493516Y79414555D01*
X51469719Y79459075D01*
X51455069Y79507371D01*
X51450000Y79558840D01*
X51450000Y80291160D01*
X51455069Y80342629D01*
X51469719Y80390925D01*
X51493516Y80435445D01*
X51525537Y80474463D01*
X51564555Y80506484D01*
X51609075Y80530281D01*
X51657371Y80544931D01*
X51708840Y80550000D01*
X52691160Y80550000D01*
X52742629Y80544931D01*
X52742629Y80544931D01*
G37*
G36*
X50242629Y80544931D02*
X50290925Y80530281D01*
X50335445Y80506484D01*
X50374463Y80474463D01*
X50406484Y80435445D01*
X50430281Y80390925D01*
X50444931Y80342629D01*
X50450000Y80291160D01*
X50450000Y79558840D01*
X50444931Y79507371D01*
X50430281Y79459075D01*
X50406484Y79414555D01*
X50374463Y79375537D01*
X50335445Y79343516D01*
X50290925Y79319719D01*
X50242629Y79305069D01*
X50191160Y79300000D01*
X49208840Y79300000D01*
X49157371Y79305069D01*
X49109075Y79319719D01*
X49064555Y79343516D01*
X49025537Y79375537D01*
X48993516Y79414555D01*
X48969719Y79459075D01*
X48955069Y79507371D01*
X48950000Y79558840D01*
X48950000Y80291160D01*
X48955069Y80342629D01*
X48969719Y80390925D01*
X48993516Y80435445D01*
X49025537Y80474463D01*
X49064555Y80506484D01*
X49109075Y80530281D01*
X49157371Y80544931D01*
X49208840Y80550000D01*
X50191160Y80550000D01*
X50242629Y80544931D01*
X50242629Y80544931D01*
G37*
G36*
X60725000Y79645000D02*
X59075000Y79645000D01*
X59075000Y80345000D01*
X60725000Y80345000D01*
X60725000Y79645000D01*
X60725000Y79645000D01*
G37*
G36*
X55325000Y79645000D02*
X53675000Y79645000D01*
X53675000Y80345000D01*
X55325000Y80345000D01*
X55325000Y79645000D01*
X55325000Y79645000D01*
G37*
G36*
X45448749Y80920077D02*
X45495627Y80905857D01*
X45538826Y80882767D01*
X45576691Y80851691D01*
X45607767Y80813826D01*
X45630857Y80770627D01*
X45645077Y80723749D01*
X45650000Y80673768D01*
X45650000Y80126232D01*
X45645077Y80076251D01*
X45630857Y80029373D01*
X45607767Y79986174D01*
X45576691Y79948309D01*
X45538826Y79917233D01*
X45495627Y79894143D01*
X45448749Y79879923D01*
X45398768Y79875000D01*
X44751232Y79875000D01*
X44701251Y79879923D01*
X44654373Y79894143D01*
X44611174Y79917233D01*
X44573309Y79948309D01*
X44542233Y79986174D01*
X44519143Y80029373D01*
X44504923Y80076251D01*
X44500000Y80126232D01*
X44500000Y80673768D01*
X44504923Y80723749D01*
X44519143Y80770627D01*
X44542233Y80813826D01*
X44573309Y80851691D01*
X44611174Y80882767D01*
X44654373Y80905857D01*
X44701251Y80920077D01*
X44751232Y80925000D01*
X45398768Y80925000D01*
X45448749Y80920077D01*
X45448749Y80920077D01*
G37*
G36*
X43698749Y80920077D02*
X43745627Y80905857D01*
X43788826Y80882767D01*
X43826691Y80851691D01*
X43857767Y80813826D01*
X43880857Y80770627D01*
X43895077Y80723749D01*
X43900000Y80673768D01*
X43900000Y80126232D01*
X43895077Y80076251D01*
X43880857Y80029373D01*
X43857767Y79986174D01*
X43826691Y79948309D01*
X43788826Y79917233D01*
X43745627Y79894143D01*
X43698749Y79879923D01*
X43648768Y79875000D01*
X43001232Y79875000D01*
X42951251Y79879923D01*
X42904373Y79894143D01*
X42861174Y79917233D01*
X42823309Y79948309D01*
X42792233Y79986174D01*
X42769143Y80029373D01*
X42754923Y80076251D01*
X42750000Y80126232D01*
X42750000Y80673768D01*
X42754923Y80723749D01*
X42769143Y80770627D01*
X42792233Y80813826D01*
X42823309Y80851691D01*
X42861174Y80882767D01*
X42904373Y80905857D01*
X42951251Y80920077D01*
X43001232Y80925000D01*
X43648768Y80925000D01*
X43698749Y80920077D01*
X43698749Y80920077D01*
G37*
G36*
X60725000Y80915000D02*
X59075000Y80915000D01*
X59075000Y81615000D01*
X60725000Y81615000D01*
X60725000Y80915000D01*
X60725000Y80915000D01*
G37*
G36*
X55325000Y80915000D02*
X53675000Y80915000D01*
X53675000Y81615000D01*
X55325000Y81615000D01*
X55325000Y80915000D01*
X55325000Y80915000D01*
G37*
G36*
X67642629Y82644931D02*
X67690925Y82630281D01*
X67735445Y82606484D01*
X67774463Y82574463D01*
X67806484Y82535445D01*
X67830281Y82490925D01*
X67844931Y82442629D01*
X67850000Y82391160D01*
X67850000Y81408840D01*
X67844931Y81357371D01*
X67830281Y81309075D01*
X67806484Y81264555D01*
X67774463Y81225537D01*
X67735445Y81193516D01*
X67690925Y81169719D01*
X67642629Y81155069D01*
X67591160Y81150000D01*
X66858840Y81150000D01*
X66807371Y81155069D01*
X66759075Y81169719D01*
X66714555Y81193516D01*
X66675537Y81225537D01*
X66643516Y81264555D01*
X66619719Y81309075D01*
X66605069Y81357371D01*
X66600000Y81408840D01*
X66600000Y82391160D01*
X66605069Y82442629D01*
X66619719Y82490925D01*
X66643516Y82535445D01*
X66675537Y82574463D01*
X66714555Y82606484D01*
X66759075Y82630281D01*
X66807371Y82644931D01*
X66858840Y82650000D01*
X67591160Y82650000D01*
X67642629Y82644931D01*
X67642629Y82644931D01*
G37*
G36*
X65592629Y82644931D02*
X65640925Y82630281D01*
X65685445Y82606484D01*
X65724463Y82574463D01*
X65756484Y82535445D01*
X65780281Y82490925D01*
X65794931Y82442629D01*
X65800000Y82391160D01*
X65800000Y81408840D01*
X65794931Y81357371D01*
X65780281Y81309075D01*
X65756484Y81264555D01*
X65724463Y81225537D01*
X65685445Y81193516D01*
X65640925Y81169719D01*
X65592629Y81155069D01*
X65541160Y81150000D01*
X64808840Y81150000D01*
X64757371Y81155069D01*
X64709075Y81169719D01*
X64664555Y81193516D01*
X64625537Y81225537D01*
X64593516Y81264555D01*
X64569719Y81309075D01*
X64555069Y81357371D01*
X64550000Y81408840D01*
X64550000Y82391160D01*
X64555069Y82442629D01*
X64569719Y82490925D01*
X64593516Y82535445D01*
X64625537Y82574463D01*
X64664555Y82606484D01*
X64709075Y82630281D01*
X64757371Y82644931D01*
X64808840Y82650000D01*
X65541160Y82650000D01*
X65592629Y82644931D01*
X65592629Y82644931D01*
G37*
G36*
X82550000Y81950000D02*
X76050000Y81950000D01*
X76050000Y87850000D01*
X82550000Y87850000D01*
X82550000Y81950000D01*
X82550000Y81950000D01*
G37*
G36*
X74150000Y81970000D02*
X71850000Y81970000D01*
X71850000Y83270000D01*
X74150000Y83270000D01*
X74150000Y81970000D01*
X74150000Y81970000D01*
G37*
G36*
X55325000Y82185000D02*
X53675000Y82185000D01*
X53675000Y82885000D01*
X55325000Y82885000D01*
X55325000Y82185000D01*
X55325000Y82185000D01*
G37*
G36*
X60725000Y82185000D02*
X59075000Y82185000D01*
X59075000Y82885000D01*
X60725000Y82885000D01*
X60725000Y82185000D01*
X60725000Y82185000D01*
G37*
G36*
X43698749Y83420077D02*
X43745627Y83405857D01*
X43788826Y83382767D01*
X43826691Y83351691D01*
X43857767Y83313826D01*
X43880857Y83270627D01*
X43895077Y83223749D01*
X43900000Y83173768D01*
X43900000Y82626232D01*
X43895077Y82576251D01*
X43880857Y82529373D01*
X43857767Y82486174D01*
X43826691Y82448309D01*
X43788826Y82417233D01*
X43745627Y82394143D01*
X43698749Y82379923D01*
X43648768Y82375000D01*
X43001232Y82375000D01*
X42951251Y82379923D01*
X42904373Y82394143D01*
X42861174Y82417233D01*
X42823309Y82448309D01*
X42792233Y82486174D01*
X42769143Y82529373D01*
X42754923Y82576251D01*
X42750000Y82626232D01*
X42750000Y83173768D01*
X42754923Y83223749D01*
X42769143Y83270627D01*
X42792233Y83313826D01*
X42823309Y83351691D01*
X42861174Y83382767D01*
X42904373Y83405857D01*
X42951251Y83420077D01*
X43001232Y83425000D01*
X43648768Y83425000D01*
X43698749Y83420077D01*
X43698749Y83420077D01*
G37*
G36*
X45448749Y83420077D02*
X45495627Y83405857D01*
X45538826Y83382767D01*
X45576691Y83351691D01*
X45607767Y83313826D01*
X45630857Y83270627D01*
X45645077Y83223749D01*
X45650000Y83173768D01*
X45650000Y82626232D01*
X45645077Y82576251D01*
X45630857Y82529373D01*
X45607767Y82486174D01*
X45576691Y82448309D01*
X45538826Y82417233D01*
X45495627Y82394143D01*
X45448749Y82379923D01*
X45398768Y82375000D01*
X44751232Y82375000D01*
X44701251Y82379923D01*
X44654373Y82394143D01*
X44611174Y82417233D01*
X44573309Y82448309D01*
X44542233Y82486174D01*
X44519143Y82529373D01*
X44504923Y82576251D01*
X44500000Y82626232D01*
X44500000Y83173768D01*
X44504923Y83223749D01*
X44519143Y83270627D01*
X44542233Y83313826D01*
X44573309Y83351691D01*
X44611174Y83382767D01*
X44654373Y83405857D01*
X44701251Y83420077D01*
X44751232Y83425000D01*
X45398768Y83425000D01*
X45448749Y83420077D01*
X45448749Y83420077D01*
G37*
G36*
X55325000Y83455000D02*
X53675000Y83455000D01*
X53675000Y84155000D01*
X55325000Y84155000D01*
X55325000Y83455000D01*
X55325000Y83455000D01*
G37*
G36*
X60725000Y83455000D02*
X59075000Y83455000D01*
X59075000Y84155000D01*
X60725000Y84155000D01*
X60725000Y83455000D01*
X60725000Y83455000D01*
G37*
G36*
X68247690Y85820052D02*
X68294814Y85805757D01*
X68338241Y85782544D01*
X68376306Y85751306D01*
X68407544Y85713241D01*
X68430757Y85669814D01*
X68445052Y85622690D01*
X68450000Y85572452D01*
X68450000Y84227548D01*
X68445052Y84177310D01*
X68430757Y84130186D01*
X68407544Y84086759D01*
X68376306Y84048694D01*
X68338241Y84017456D01*
X68294814Y83994243D01*
X68247690Y83979948D01*
X68197452Y83975000D01*
X67177548Y83975000D01*
X67127310Y83979948D01*
X67080186Y83994243D01*
X67036759Y84017456D01*
X66998694Y84048694D01*
X66967456Y84086759D01*
X66944243Y84130186D01*
X66929948Y84177310D01*
X66925000Y84227548D01*
X66925000Y85572452D01*
X66929948Y85622690D01*
X66944243Y85669814D01*
X66967456Y85713241D01*
X66998694Y85751306D01*
X67036759Y85782544D01*
X67080186Y85805757D01*
X67127310Y85820052D01*
X67177548Y85825000D01*
X68197452Y85825000D01*
X68247690Y85820052D01*
X68247690Y85820052D01*
G37*
G36*
X65272690Y85820052D02*
X65319814Y85805757D01*
X65363241Y85782544D01*
X65401306Y85751306D01*
X65432544Y85713241D01*
X65455757Y85669814D01*
X65470052Y85622690D01*
X65475000Y85572452D01*
X65475000Y84227548D01*
X65470052Y84177310D01*
X65455757Y84130186D01*
X65432544Y84086759D01*
X65401306Y84048694D01*
X65363241Y84017456D01*
X65319814Y83994243D01*
X65272690Y83979948D01*
X65222452Y83975000D01*
X64202548Y83975000D01*
X64152310Y83979948D01*
X64105186Y83994243D01*
X64061759Y84017456D01*
X64023694Y84048694D01*
X63992456Y84086759D01*
X63969243Y84130186D01*
X63954948Y84177310D01*
X63950000Y84227548D01*
X63950000Y85572452D01*
X63954948Y85622690D01*
X63969243Y85669814D01*
X63992456Y85713241D01*
X64023694Y85751306D01*
X64061759Y85782544D01*
X64105186Y85805757D01*
X64152310Y85820052D01*
X64202548Y85825000D01*
X65222452Y85825000D01*
X65272690Y85820052D01*
X65272690Y85820052D01*
G37*
G36*
X49922690Y86170052D02*
X49969814Y86155757D01*
X50013241Y86132544D01*
X50051306Y86101306D01*
X50082544Y86063241D01*
X50105757Y86019814D01*
X50120052Y85972690D01*
X50125000Y85922452D01*
X50125000Y84902548D01*
X50120052Y84852310D01*
X50105757Y84805186D01*
X50082544Y84761759D01*
X50051306Y84723694D01*
X50013241Y84692456D01*
X49969814Y84669243D01*
X49922690Y84654948D01*
X49872452Y84650000D01*
X48527548Y84650000D01*
X48477310Y84654948D01*
X48430186Y84669243D01*
X48386759Y84692456D01*
X48348694Y84723694D01*
X48317456Y84761759D01*
X48294243Y84805186D01*
X48279948Y84852310D01*
X48275000Y84902548D01*
X48275000Y85922452D01*
X48279948Y85972690D01*
X48294243Y86019814D01*
X48317456Y86063241D01*
X48348694Y86101306D01*
X48386759Y86132544D01*
X48430186Y86155757D01*
X48477310Y86170052D01*
X48527548Y86175000D01*
X49872452Y86175000D01*
X49922690Y86170052D01*
X49922690Y86170052D01*
G37*
G36*
X46922690Y86170052D02*
X46969814Y86155757D01*
X47013241Y86132544D01*
X47051306Y86101306D01*
X47082544Y86063241D01*
X47105757Y86019814D01*
X47120052Y85972690D01*
X47125000Y85922452D01*
X47125000Y84902548D01*
X47120052Y84852310D01*
X47105757Y84805186D01*
X47082544Y84761759D01*
X47051306Y84723694D01*
X47013241Y84692456D01*
X46969814Y84669243D01*
X46922690Y84654948D01*
X46872452Y84650000D01*
X45527548Y84650000D01*
X45477310Y84654948D01*
X45430186Y84669243D01*
X45386759Y84692456D01*
X45348694Y84723694D01*
X45317456Y84761759D01*
X45294243Y84805186D01*
X45279948Y84852310D01*
X45275000Y84902548D01*
X45275000Y85922452D01*
X45279948Y85972690D01*
X45294243Y86019814D01*
X45317456Y86063241D01*
X45348694Y86101306D01*
X45386759Y86132544D01*
X45430186Y86155757D01*
X45477310Y86170052D01*
X45527548Y86175000D01*
X46872452Y86175000D01*
X46922690Y86170052D01*
X46922690Y86170052D01*
G37*
G36*
X5816730Y90192398D02*
X6326297Y89981328D01*
X6784895Y89674903D01*
X7174903Y89284895D01*
X7368729Y88994814D01*
X7481328Y88826297D01*
X7692398Y88316730D01*
X7800000Y87775776D01*
X7800000Y87224224D01*
X7692398Y86683270D01*
X7511581Y86246740D01*
X7481328Y86173703D01*
X7195973Y85746638D01*
X7174902Y85715104D01*
X6784896Y85325098D01*
X6326297Y85018672D01*
X5816730Y84807602D01*
X5275776Y84700000D01*
X4724224Y84700000D01*
X4183270Y84807602D01*
X3673703Y85018672D01*
X3215104Y85325098D01*
X2825098Y85715104D01*
X2804028Y85746638D01*
X2518672Y86173703D01*
X2488419Y86246740D01*
X2307602Y86683270D01*
X2200000Y87224224D01*
X2200000Y87775776D01*
X2307602Y88316730D01*
X2518672Y88826297D01*
X2631271Y88994814D01*
X2825097Y89284895D01*
X3215105Y89674903D01*
X3673703Y89981328D01*
X4183270Y90192398D01*
X4724224Y90300000D01*
X5275776Y90300000D01*
X5816730Y90192398D01*
X5816730Y90192398D01*
G37*
G36*
X39850000Y86150000D02*
X38150000Y86150000D01*
X38150000Y87850000D01*
X39850000Y87850000D01*
X39850000Y86150000D01*
X39850000Y86150000D01*
G37*
G36*
X35747936Y87817335D02*
X35902626Y87753260D01*
X36041844Y87660238D01*
X36160238Y87541844D01*
X36253260Y87402626D01*
X36317335Y87247936D01*
X36350000Y87083718D01*
X36350000Y86916282D01*
X36317335Y86752064D01*
X36253260Y86597374D01*
X36160238Y86458156D01*
X36041844Y86339762D01*
X35902626Y86246740D01*
X35747936Y86182665D01*
X35583718Y86150000D01*
X35416282Y86150000D01*
X35252064Y86182665D01*
X35097374Y86246740D01*
X34958156Y86339762D01*
X34839762Y86458156D01*
X34746740Y86597374D01*
X34682665Y86752064D01*
X34650000Y86916282D01*
X34650000Y87083718D01*
X34682665Y87247936D01*
X34746740Y87402626D01*
X34839762Y87541844D01*
X34958156Y87660238D01*
X35097374Y87753260D01*
X35252064Y87817335D01*
X35416282Y87850000D01*
X35583718Y87850000D01*
X35747936Y87817335D01*
X35747936Y87817335D01*
G37*
G36*
X74150000Y86530000D02*
X71850000Y86530000D01*
X71850000Y87830000D01*
X74150000Y87830000D01*
X74150000Y86530000D01*
X74150000Y86530000D01*
G37*
G36*
X60500000Y86950000D02*
X56900000Y86950000D01*
X56900000Y88850000D01*
X60500000Y88850000D01*
X60500000Y86950000D01*
X60500000Y86950000D01*
G37*
G36*
X55500000Y86950000D02*
X51900000Y86950000D01*
X51900000Y88850000D01*
X55500000Y88850000D01*
X55500000Y86950000D01*
X55500000Y86950000D01*
G37*
G36*
X30975000Y87225000D02*
X29025000Y87225000D01*
X29025000Y90775000D01*
X30975000Y90775000D01*
X30975000Y87225000D01*
X30975000Y87225000D01*
G37*
G36*
X17975000Y87225000D02*
X16025000Y87225000D01*
X16025000Y90775000D01*
X17975000Y90775000D01*
X17975000Y87225000D01*
X17975000Y87225000D01*
G37*
G36*
X11975000Y87225000D02*
X10025000Y87225000D01*
X10025000Y90775000D01*
X11975000Y90775000D01*
X11975000Y87225000D01*
X11975000Y87225000D01*
G37*
G36*
X14975000Y87225000D02*
X13025000Y87225000D01*
X13025000Y90775000D01*
X14975000Y90775000D01*
X14975000Y87225000D01*
X14975000Y87225000D01*
G37*
G36*
X20975000Y87225000D02*
X19025000Y87225000D01*
X19025000Y90775000D01*
X20975000Y90775000D01*
X20975000Y87225000D01*
X20975000Y87225000D01*
G37*
G36*
X25975000Y87225000D02*
X24025000Y87225000D01*
X24025000Y90775000D01*
X25975000Y90775000D01*
X25975000Y87225000D01*
X25975000Y87225000D01*
G37*
G36*
X49922690Y89145052D02*
X49969814Y89130757D01*
X50013241Y89107544D01*
X50051306Y89076306D01*
X50082544Y89038241D01*
X50105757Y88994814D01*
X50120052Y88947690D01*
X50125000Y88897452D01*
X50125000Y87877548D01*
X50120052Y87827310D01*
X50105757Y87780186D01*
X50082544Y87736759D01*
X50051306Y87698694D01*
X50013241Y87667456D01*
X49969814Y87644243D01*
X49922690Y87629948D01*
X49872452Y87625000D01*
X48527548Y87625000D01*
X48477310Y87629948D01*
X48430186Y87644243D01*
X48386759Y87667456D01*
X48348694Y87698694D01*
X48317456Y87736759D01*
X48294243Y87780186D01*
X48279948Y87827310D01*
X48275000Y87877548D01*
X48275000Y88897452D01*
X48279948Y88947690D01*
X48294243Y88994814D01*
X48317456Y89038241D01*
X48348694Y89076306D01*
X48386759Y89107544D01*
X48430186Y89130757D01*
X48477310Y89145052D01*
X48527548Y89150000D01*
X49872452Y89150000D01*
X49922690Y89145052D01*
X49922690Y89145052D01*
G37*
G36*
X46922690Y89145052D02*
X46969814Y89130757D01*
X47013241Y89107544D01*
X47051306Y89076306D01*
X47082544Y89038241D01*
X47105757Y88994814D01*
X47120052Y88947690D01*
X47125000Y88897452D01*
X47125000Y87877548D01*
X47120052Y87827310D01*
X47105757Y87780186D01*
X47082544Y87736759D01*
X47051306Y87698694D01*
X47013241Y87667456D01*
X46969814Y87644243D01*
X46922690Y87629948D01*
X46872452Y87625000D01*
X45527548Y87625000D01*
X45477310Y87629948D01*
X45430186Y87644243D01*
X45386759Y87667456D01*
X45348694Y87698694D01*
X45317456Y87736759D01*
X45294243Y87780186D01*
X45279948Y87827310D01*
X45275000Y87877548D01*
X45275000Y88897452D01*
X45279948Y88947690D01*
X45294243Y88994814D01*
X45317456Y89038241D01*
X45348694Y89076306D01*
X45386759Y89107544D01*
X45430186Y89130757D01*
X45477310Y89145052D01*
X45527548Y89150000D01*
X46872452Y89150000D01*
X46922690Y89145052D01*
X46922690Y89145052D01*
G37*
G36*
X70500000Y87950000D02*
X66900000Y87950000D01*
X66900000Y89850000D01*
X70500000Y89850000D01*
X70500000Y87950000D01*
X70500000Y87950000D01*
G37*
G36*
X65500000Y87950000D02*
X61900000Y87950000D01*
X61900000Y89850000D01*
X65500000Y89850000D01*
X65500000Y87950000D01*
X65500000Y87950000D01*
G37*
M02*
