M48
;DRILL file {KiCad 5.0.2+dfsg1-1~bpo9+1} date Sun 12 Jan 2020 11:13:15 AM EST
;FORMAT={-:-/ absolute / metric / decimal}
FMAT,2
METRIC,TZ
T1C0.500
T2C0.800
T3C1.000
T4C1.300
T5C1.600
T6C3.200
%
G90
G05
T1
X1.5Y27.
X1.5Y20.
X4.5Y11.5
X5.5Y49.5
X5.5Y47.5
X5.5Y44.
X5.5Y41.
X5.5Y27.5
X5.5Y25.
X5.5Y16.
X7.8Y20.6
X8.5Y59.4
X8.6Y48.5
X8.7Y40.8
X10.3Y46.6
X10.6Y31.5
X11.Y86.
X11.7Y34.2
X11.9Y66.5
X12.2Y38.
X12.3Y44.5
X12.5Y56.
X12.6Y48.9
X12.845Y52.355
X13.Y74.5
X13.43Y53.87
X13.7Y55.2
X13.8Y49.9
X13.995Y48.645
X14.Y86.
X14.6Y41.9
X15.1Y65.2
X15.5Y42.8
X17.Y86.
X17.Y26.8
X17.2Y28.1
X17.4Y42.9
X17.4Y35.
X17.5Y31.6
X17.5Y29.5
X18.3Y55.6
X18.3Y41.1
X19.2Y44.4
X20.Y86.
X20.Y48.
X20.6Y39.7
X21.2Y63.5
X21.2Y43.3
X21.5Y38.5
X22.4Y37.4
X23.2Y55.
X23.2Y31.3
X23.3Y63.5
X23.4Y65.3
X23.4Y41.6
X23.7Y36.6
X24.Y54.1
X24.Y11.5
X24.2Y40.3
X24.5Y35.2
X24.5Y9.
X24.9Y64.7
X24.9Y55.1
X25.Y11.5
X25.106Y40.724
X25.5Y9.
X25.6Y38.2
X25.8Y63.2
X26.1Y71.1
X26.3Y37.2
X26.5Y9.
X26.8Y62.7
X26.9Y69.5
X27.5Y9.
X27.75Y68.051
X27.811Y56.689
X28.2Y46.539
X28.5Y9.
X30.6Y46.8
X31.3Y46.
X31.4Y53.1
X31.4Y54.3
X31.5Y51.9
X37.4Y80.4
X37.4Y64.9
X37.5Y77.6
X37.5Y34.
X37.6Y42.2
X39.Y75.
X39.Y51.
X39.Y26.
X39.Y18.
X40.4Y64.9
X40.4Y42.2
X40.5Y24.7
X41.2Y80.4
X41.2Y74.9
X41.2Y55.4
X41.2Y49.9
X41.7Y30.4
X41.7Y24.9
X44.Y10.5
X48.Y52.
X48.Y27.
X48.5Y42.2
X49.Y68.
X49.1Y18.1
X50.7Y85.9
X50.7Y60.9
X50.7Y35.9
X51.7Y85.9
X51.7Y60.9
X51.7Y35.9
X52.6Y85.9
X52.6Y60.9
X52.6Y35.9
X53.2Y81.265
X53.2Y56.265
X53.2Y31.265
X54.7Y76.9
X54.7Y75.9
X54.7Y51.9
X54.7Y50.9
X54.7Y26.9
X54.7Y25.9
X55.15Y65.9
X55.15Y40.9
X55.15Y15.9
X55.7Y76.9
X55.7Y75.9
X55.7Y51.9
X55.7Y50.9
X55.7Y26.9
X55.7Y25.9
X56.7Y76.9
X56.7Y75.888
X56.7Y51.9
X56.7Y50.887
X56.7Y26.9
X56.7Y25.887
X62.95Y83.425
X62.95Y81.375
X62.95Y58.425
X62.95Y56.375
X62.95Y33.425
X62.95Y31.375
X71.5Y12.5
X76.5Y89.5
X76.5Y88.5
X76.5Y75.5
X76.5Y68.5
X76.5Y65.
X76.5Y64.
X76.5Y50.5
X76.5Y43.5
X76.5Y39.5
X76.5Y38.5
X76.5Y25.5
X76.5Y18.5
X77.Y56.5
X77.5Y89.5
X77.5Y88.5
X77.5Y88.5
X77.5Y88.5
X77.5Y81.5
X77.5Y75.5
X77.5Y68.5
X77.5Y65.
X77.5Y64.
X77.5Y50.5
X77.5Y43.5
X77.5Y39.5
X77.5Y38.5
X77.5Y31.5
X77.5Y25.5
X77.5Y18.5
X78.Y56.5
X78.Y55.5
X78.5Y89.5
X78.5Y88.5
X78.5Y81.5
X78.5Y80.5
X78.5Y75.5
X78.5Y68.5
X78.5Y65.
X78.5Y64.
X78.5Y50.5
X78.5Y43.5
X78.5Y39.5
X78.5Y38.5
X78.5Y31.5
X78.5Y30.5
X78.5Y25.5
X78.5Y18.5
X79.Y56.5
X79.Y55.5
X79.Y54.5
X79.5Y89.5
X79.5Y88.5
X79.5Y81.5
X79.5Y80.5
X79.5Y79.5
X79.5Y75.5
X79.5Y68.5
X79.5Y65.
X79.5Y64.
X79.5Y50.5
X79.5Y43.5
X79.5Y39.5
X79.5Y38.5
X79.5Y31.5
X79.5Y30.5
X79.5Y25.5
X79.5Y18.5
X80.Y56.5
X80.Y55.5
X80.Y54.5
X80.5Y89.5
X80.5Y88.5
X80.5Y81.5
X80.5Y80.5
X80.5Y79.5
X80.5Y75.5
X80.5Y68.5
X80.5Y65.
X80.5Y64.
X80.5Y50.5
X80.5Y43.5
X80.5Y39.5
X80.5Y38.5
X80.5Y31.5
X80.5Y30.5
X80.5Y25.5
X80.5Y18.5
X81.Y56.5
X81.Y55.5
X81.Y54.5
X81.5Y89.5
X81.5Y88.5
X81.5Y81.5
X81.5Y80.5
X81.5Y79.5
X81.5Y75.5
X81.5Y68.5
X81.5Y65.
X81.5Y64.
X81.5Y50.5
X81.5Y43.5
X81.5Y39.5
X81.5Y38.5
X81.5Y31.5
X81.5Y30.5
X81.5Y25.5
X81.5Y18.5
X82.Y56.5
X82.Y55.5
X82.Y54.5
X82.5Y89.5
X82.5Y89.5
X82.5Y89.5
X82.5Y88.5
X82.5Y81.5
X82.5Y80.5
X82.5Y79.5
X82.5Y75.5
X82.5Y68.5
X82.5Y65.
X82.5Y64.
X82.5Y50.5
X82.5Y43.5
X82.5Y39.5
X82.5Y38.5
X82.5Y31.5
X82.5Y30.5
X82.5Y25.5
X82.5Y18.5
X83.Y56.5
X83.Y55.5
X83.Y54.5
X83.5Y89.5
X83.5Y88.5
X83.5Y81.5
X83.5Y80.5
X83.5Y79.5
X83.5Y75.5
X83.5Y74.5
X83.5Y73.5
X83.5Y72.5
X83.5Y71.5
X83.5Y70.5
X83.5Y69.5
X83.5Y68.5
X83.5Y65.
X83.5Y64.
X83.5Y50.5
X83.5Y49.5
X83.5Y48.5
X83.5Y47.5
X83.5Y46.5
X83.5Y45.5
X83.5Y44.5
X83.5Y43.5
X83.5Y25.5
X83.5Y24.5
X83.5Y23.5
X83.5Y22.5
X83.5Y21.5
X83.5Y20.5
X83.5Y19.5
X83.5Y18.5
X84.Y62.5
X84.Y61.5
X84.Y60.5
X84.Y59.5
X84.Y58.5
X84.Y57.5
X84.Y56.5
X84.Y56.5
X84.Y56.5
X84.Y55.5
X84.Y54.5
X84.Y40.
X84.Y39.
X84.Y38.
X84.Y37.
X84.Y36.
X84.Y35.
X84.Y34.
X84.Y33.
X84.Y32.
X84.Y31.
X84.Y30.
X84.5Y89.5
X84.5Y88.5
X84.5Y81.5
X84.5Y80.5
X84.5Y79.5
X85.5Y89.5
X85.5Y88.5
X85.5Y81.5
X85.5Y80.5
X85.5Y79.5
X86.5Y81.5
X86.5Y80.5
X86.5Y79.5
X90.Y88.
X90.Y87.
X90.Y86.
X90.Y85.
X90.Y84.
X90.Y83.
X90.Y82.
X90.Y81.
X90.Y80.
X90.Y79.
X28.365Y77.54
X28.365Y76.27
X28.365Y75.
X28.365Y73.73
X28.365Y72.46
X29.635Y77.54
X29.635Y76.27
X29.635Y75.
X29.635Y73.73
X29.635Y72.46
T2
X35.5Y37.
X39.Y37.
X35.5Y62.
X39.Y62.
X35.5Y87.
X39.Y87.
T3
X92.4Y47.8
X97.4Y47.8
X91.5Y72.8
X96.5Y72.8
X92.4Y23.4
X97.4Y23.4
T4
X26.42Y3.5
X28.96Y3.5
X31.5Y3.5
X34.04Y3.5
X36.58Y3.5
X66.73Y3.5
X69.27Y3.5
X54.69Y3.5
X57.23Y3.5
X59.77Y3.5
X62.31Y3.5
X12.42Y3.5
X14.96Y3.5
X17.5Y3.5
X20.04Y3.5
X22.58Y3.5
X40.42Y3.5
X42.96Y3.5
X45.5Y3.5
X48.04Y3.5
X50.58Y3.5
T5
X76.Y4.
X81.Y4.
X86.Y4.
T6
X95.Y5.
X5.Y5.
X5.Y87.5
T0
M30
