G04 #@! TF.GenerationSoftware,KiCad,Pcbnew,5.0.2+dfsg1-1~bpo9+1*
G04 #@! TF.CreationDate,2020-06-16T21:43:01-06:00*
G04 #@! TF.ProjectId,SCARAMotorFeedbackController,53434152-414d-46f7-946f-724665656462,rev?*
G04 #@! TF.SameCoordinates,Original*
G04 #@! TF.FileFunction,Legend,Bot*
G04 #@! TF.FilePolarity,Positive*
%FSLAX46Y46*%
G04 Gerber Fmt 4.6, Leading zero omitted, Abs format (unit mm)*
G04 Created by KiCad (PCBNEW 5.0.2+dfsg1-1~bpo9+1) date Tue 16 Jun 2020 09:43:01 PM MDT*
%MOMM*%
%LPD*%
G01*
G04 APERTURE LIST*
%ADD10C,0.300000*%
%ADD11C,0.200000*%
%ADD12C,0.120000*%
%ADD13C,0.150000*%
G04 APERTURE END LIST*
D10*
X31885714Y8021428D02*
X32600000Y8021428D01*
X32671428Y7307142D01*
X32600000Y7378571D01*
X32457142Y7450000D01*
X32100000Y7450000D01*
X31957142Y7378571D01*
X31885714Y7307142D01*
X31814285Y7164285D01*
X31814285Y6807142D01*
X31885714Y6664285D01*
X31957142Y6592857D01*
X32100000Y6521428D01*
X32457142Y6521428D01*
X32600000Y6592857D01*
X32671428Y6664285D01*
X31385714Y8021428D02*
X30885714Y6521428D01*
X30385714Y8021428D01*
X45985714Y8621428D02*
X46700000Y8621428D01*
X46771428Y7907142D01*
X46700000Y7978571D01*
X46557142Y8050000D01*
X46200000Y8050000D01*
X46057142Y7978571D01*
X45985714Y7907142D01*
X45914285Y7764285D01*
X45914285Y7407142D01*
X45985714Y7264285D01*
X46057142Y7192857D01*
X46200000Y7121428D01*
X46557142Y7121428D01*
X46700000Y7192857D01*
X46771428Y7264285D01*
X45485714Y8621428D02*
X44985714Y7121428D01*
X44485714Y8621428D01*
X68250000Y8021428D02*
X67321428Y8021428D01*
X67821428Y7450000D01*
X67607142Y7450000D01*
X67464285Y7378571D01*
X67392857Y7307142D01*
X67321428Y7164285D01*
X67321428Y6807142D01*
X67392857Y6664285D01*
X67464285Y6592857D01*
X67607142Y6521428D01*
X68035714Y6521428D01*
X68178571Y6592857D01*
X68250000Y6664285D01*
X66892857Y8021428D02*
X66392857Y6521428D01*
X65892857Y8021428D01*
X65535714Y8021428D02*
X64607142Y8021428D01*
X65107142Y7450000D01*
X64892857Y7450000D01*
X64750000Y7378571D01*
X64678571Y7307142D01*
X64607142Y7164285D01*
X64607142Y6807142D01*
X64678571Y6664285D01*
X64750000Y6592857D01*
X64892857Y6521428D01*
X65321428Y6521428D01*
X65464285Y6592857D01*
X65535714Y6664285D01*
X62535714Y8021428D02*
X62250000Y8021428D01*
X62107142Y7950000D01*
X61964285Y7807142D01*
X61892857Y7521428D01*
X61892857Y7021428D01*
X61964285Y6735714D01*
X62107142Y6592857D01*
X62250000Y6521428D01*
X62535714Y6521428D01*
X62678571Y6592857D01*
X62821428Y6735714D01*
X62892857Y7021428D01*
X62892857Y7521428D01*
X62821428Y7807142D01*
X62678571Y7950000D01*
X62535714Y8021428D01*
X61250000Y6521428D02*
X61250000Y8021428D01*
X60392857Y6521428D01*
X60392857Y8021428D01*
X58964285Y6521428D02*
X59678571Y6521428D01*
X59678571Y8021428D01*
X58178571Y7235714D02*
X58178571Y6521428D01*
X58678571Y8021428D02*
X58178571Y7235714D01*
X57678571Y8021428D01*
D11*
X40171428Y50967857D02*
X39957142Y50896428D01*
X39600000Y50896428D01*
X39457142Y50967857D01*
X39385714Y51039285D01*
X39314285Y51182142D01*
X39314285Y51325000D01*
X39385714Y51467857D01*
X39457142Y51539285D01*
X39600000Y51610714D01*
X39885714Y51682142D01*
X40028571Y51753571D01*
X40100000Y51825000D01*
X40171428Y51967857D01*
X40171428Y52110714D01*
X40100000Y52253571D01*
X40028571Y52325000D01*
X39885714Y52396428D01*
X39528571Y52396428D01*
X39314285Y52325000D01*
X37814285Y51039285D02*
X37885714Y50967857D01*
X38100000Y50896428D01*
X38242857Y50896428D01*
X38457142Y50967857D01*
X38600000Y51110714D01*
X38671428Y51253571D01*
X38742857Y51539285D01*
X38742857Y51753571D01*
X38671428Y52039285D01*
X38600000Y52182142D01*
X38457142Y52325000D01*
X38242857Y52396428D01*
X38100000Y52396428D01*
X37885714Y52325000D01*
X37814285Y52253571D01*
X37242857Y51325000D02*
X36528571Y51325000D01*
X37385714Y50896428D02*
X36885714Y52396428D01*
X36385714Y50896428D01*
X35028571Y50896428D02*
X35528571Y51610714D01*
X35885714Y50896428D02*
X35885714Y52396428D01*
X35314285Y52396428D01*
X35171428Y52325000D01*
X35100000Y52253571D01*
X35028571Y52110714D01*
X35028571Y51896428D01*
X35100000Y51753571D01*
X35171428Y51682142D01*
X35314285Y51610714D01*
X35885714Y51610714D01*
X34457142Y51325000D02*
X33742857Y51325000D01*
X34600000Y50896428D02*
X34100000Y52396428D01*
X33600000Y50896428D01*
X31957142Y50896428D02*
X31957142Y52396428D01*
X31457142Y51325000D01*
X30957142Y52396428D01*
X30957142Y50896428D01*
X30028571Y50896428D02*
X30171428Y50967857D01*
X30242857Y51039285D01*
X30314285Y51182142D01*
X30314285Y51610714D01*
X30242857Y51753571D01*
X30171428Y51825000D01*
X30028571Y51896428D01*
X29814285Y51896428D01*
X29671428Y51825000D01*
X29600000Y51753571D01*
X29528571Y51610714D01*
X29528571Y51182142D01*
X29600000Y51039285D01*
X29671428Y50967857D01*
X29814285Y50896428D01*
X30028571Y50896428D01*
X29100000Y51896428D02*
X28528571Y51896428D01*
X28885714Y52396428D02*
X28885714Y51110714D01*
X28814285Y50967857D01*
X28671428Y50896428D01*
X28528571Y50896428D01*
X27814285Y50896428D02*
X27957142Y50967857D01*
X28028571Y51039285D01*
X28100000Y51182142D01*
X28100000Y51610714D01*
X28028571Y51753571D01*
X27957142Y51825000D01*
X27814285Y51896428D01*
X27600000Y51896428D01*
X27457142Y51825000D01*
X27385714Y51753571D01*
X27314285Y51610714D01*
X27314285Y51182142D01*
X27385714Y51039285D01*
X27457142Y50967857D01*
X27600000Y50896428D01*
X27814285Y50896428D01*
X26671428Y50896428D02*
X26671428Y51896428D01*
X26671428Y51610714D02*
X26600000Y51753571D01*
X26528571Y51825000D01*
X26385714Y51896428D01*
X26242857Y51896428D01*
X24600000Y50896428D02*
X24600000Y52396428D01*
X24242857Y52396428D01*
X24028571Y52325000D01*
X23885714Y52182142D01*
X23814285Y52039285D01*
X23742857Y51753571D01*
X23742857Y51539285D01*
X23814285Y51253571D01*
X23885714Y51110714D01*
X24028571Y50967857D01*
X24242857Y50896428D01*
X24600000Y50896428D01*
X23100000Y50896428D02*
X23100000Y51896428D01*
X23100000Y51610714D02*
X23028571Y51753571D01*
X22957142Y51825000D01*
X22814285Y51896428D01*
X22671428Y51896428D01*
X22171428Y50896428D02*
X22171428Y51896428D01*
X22171428Y52396428D02*
X22242857Y52325000D01*
X22171428Y52253571D01*
X22100000Y52325000D01*
X22171428Y52396428D01*
X22171428Y52253571D01*
X21600000Y51896428D02*
X21242857Y50896428D01*
X20885714Y51896428D01*
X19742857Y50967857D02*
X19885714Y50896428D01*
X20171428Y50896428D01*
X20314285Y50967857D01*
X20385714Y51110714D01*
X20385714Y51682142D01*
X20314285Y51825000D01*
X20171428Y51896428D01*
X19885714Y51896428D01*
X19742857Y51825000D01*
X19671428Y51682142D01*
X19671428Y51539285D01*
X20385714Y51396428D01*
X17385714Y51682142D02*
X17171428Y51610714D01*
X17100000Y51539285D01*
X17028571Y51396428D01*
X17028571Y51182142D01*
X17100000Y51039285D01*
X17171428Y50967857D01*
X17314285Y50896428D01*
X17885714Y50896428D01*
X17885714Y52396428D01*
X17385714Y52396428D01*
X17242857Y52325000D01*
X17171428Y52253571D01*
X17100000Y52110714D01*
X17100000Y51967857D01*
X17171428Y51825000D01*
X17242857Y51753571D01*
X17385714Y51682142D01*
X17885714Y51682142D01*
X16171428Y50896428D02*
X16314285Y50967857D01*
X16385714Y51039285D01*
X16457142Y51182142D01*
X16457142Y51610714D01*
X16385714Y51753571D01*
X16314285Y51825000D01*
X16171428Y51896428D01*
X15957142Y51896428D01*
X15814285Y51825000D01*
X15742857Y51753571D01*
X15671428Y51610714D01*
X15671428Y51182142D01*
X15742857Y51039285D01*
X15814285Y50967857D01*
X15957142Y50896428D01*
X16171428Y50896428D01*
X14385714Y50896428D02*
X14385714Y51682142D01*
X14457142Y51825000D01*
X14600000Y51896428D01*
X14885714Y51896428D01*
X15028571Y51825000D01*
X14385714Y50967857D02*
X14528571Y50896428D01*
X14885714Y50896428D01*
X15028571Y50967857D01*
X15100000Y51110714D01*
X15100000Y51253571D01*
X15028571Y51396428D01*
X14885714Y51467857D01*
X14528571Y51467857D01*
X14385714Y51539285D01*
X13671428Y50896428D02*
X13671428Y51896428D01*
X13671428Y51610714D02*
X13600000Y51753571D01*
X13528571Y51825000D01*
X13385714Y51896428D01*
X13242857Y51896428D01*
X12100000Y50896428D02*
X12100000Y52396428D01*
X12100000Y50967857D02*
X12242857Y50896428D01*
X12528571Y50896428D01*
X12671428Y50967857D01*
X12742857Y51039285D01*
X12814285Y51182142D01*
X12814285Y51610714D01*
X12742857Y51753571D01*
X12671428Y51825000D01*
X12528571Y51896428D01*
X12242857Y51896428D01*
X12100000Y51825000D01*
X28242857Y48446428D02*
X28742857Y49160714D01*
X29100000Y48446428D02*
X29100000Y49946428D01*
X28528571Y49946428D01*
X28385714Y49875000D01*
X28314285Y49803571D01*
X28242857Y49660714D01*
X28242857Y49446428D01*
X28314285Y49303571D01*
X28385714Y49232142D01*
X28528571Y49160714D01*
X29100000Y49160714D01*
X27600000Y49232142D02*
X27100000Y49232142D01*
X26885714Y48446428D02*
X27600000Y48446428D01*
X27600000Y49946428D01*
X26885714Y49946428D01*
X26457142Y49946428D02*
X25957142Y48446428D01*
X25457142Y49946428D01*
X23957142Y49946428D02*
X23028571Y49946428D01*
X23528571Y49375000D01*
X23314285Y49375000D01*
X23171428Y49303571D01*
X23100000Y49232142D01*
X23028571Y49089285D01*
X23028571Y48732142D01*
X23100000Y48589285D01*
X23171428Y48517857D01*
X23314285Y48446428D01*
X23742857Y48446428D01*
X23885714Y48517857D01*
X23957142Y48589285D01*
X31314285Y47496428D02*
X31314285Y46425000D01*
X31385714Y46210714D01*
X31528571Y46067857D01*
X31742857Y45996428D01*
X31885714Y45996428D01*
X29957142Y46996428D02*
X29957142Y45996428D01*
X30600000Y46996428D02*
X30600000Y46210714D01*
X30528571Y46067857D01*
X30385714Y45996428D01*
X30171428Y45996428D01*
X30028571Y46067857D01*
X29957142Y46139285D01*
X29242857Y46996428D02*
X29242857Y45996428D01*
X29242857Y46853571D02*
X29171428Y46925000D01*
X29028571Y46996428D01*
X28814285Y46996428D01*
X28671428Y46925000D01*
X28600000Y46782142D01*
X28600000Y45996428D01*
X27314285Y46067857D02*
X27457142Y45996428D01*
X27742857Y45996428D01*
X27885714Y46067857D01*
X27957142Y46210714D01*
X27957142Y46782142D01*
X27885714Y46925000D01*
X27742857Y46996428D01*
X27457142Y46996428D01*
X27314285Y46925000D01*
X27242857Y46782142D01*
X27242857Y46639285D01*
X27957142Y46496428D01*
X25528571Y47353571D02*
X25457142Y47425000D01*
X25314285Y47496428D01*
X24957142Y47496428D01*
X24814285Y47425000D01*
X24742857Y47353571D01*
X24671428Y47210714D01*
X24671428Y47067857D01*
X24742857Y46853571D01*
X25600000Y45996428D01*
X24671428Y45996428D01*
X23742857Y47496428D02*
X23600000Y47496428D01*
X23457142Y47425000D01*
X23385714Y47353571D01*
X23314285Y47210714D01*
X23242857Y46925000D01*
X23242857Y46567857D01*
X23314285Y46282142D01*
X23385714Y46139285D01*
X23457142Y46067857D01*
X23600000Y45996428D01*
X23742857Y45996428D01*
X23885714Y46067857D01*
X23957142Y46139285D01*
X24028571Y46282142D01*
X24100000Y46567857D01*
X24100000Y46925000D01*
X24028571Y47210714D01*
X23957142Y47353571D01*
X23885714Y47425000D01*
X23742857Y47496428D01*
X22671428Y47353571D02*
X22600000Y47425000D01*
X22457142Y47496428D01*
X22100000Y47496428D01*
X21957142Y47425000D01*
X21885714Y47353571D01*
X21814285Y47210714D01*
X21814285Y47067857D01*
X21885714Y46853571D01*
X22742857Y45996428D01*
X21814285Y45996428D01*
X20885714Y47496428D02*
X20742857Y47496428D01*
X20600000Y47425000D01*
X20528571Y47353571D01*
X20457142Y47210714D01*
X20385714Y46925000D01*
X20385714Y46567857D01*
X20457142Y46282142D01*
X20528571Y46139285D01*
X20600000Y46067857D01*
X20742857Y45996428D01*
X20885714Y45996428D01*
X21028571Y46067857D01*
X21100000Y46139285D01*
X21171428Y46282142D01*
X21242857Y46567857D01*
X21242857Y46925000D01*
X21171428Y47210714D01*
X21100000Y47353571D01*
X21028571Y47425000D01*
X20885714Y47496428D01*
X30635714Y44332142D02*
X30135714Y44332142D01*
X29921428Y43546428D02*
X30635714Y43546428D01*
X30635714Y45046428D01*
X29921428Y45046428D01*
X28492857Y44975000D02*
X28635714Y45046428D01*
X28850000Y45046428D01*
X29064285Y44975000D01*
X29207142Y44832142D01*
X29278571Y44689285D01*
X29350000Y44403571D01*
X29350000Y44189285D01*
X29278571Y43903571D01*
X29207142Y43760714D01*
X29064285Y43617857D01*
X28850000Y43546428D01*
X28707142Y43546428D01*
X28492857Y43617857D01*
X28421428Y43689285D01*
X28421428Y44189285D01*
X28707142Y44189285D01*
X27992857Y45046428D02*
X27492857Y43546428D01*
X26992857Y45046428D01*
X25421428Y45117857D02*
X26707142Y43189285D01*
X23921428Y43403571D02*
X24064285Y43475000D01*
X24207142Y43617857D01*
X24421428Y43832142D01*
X24564285Y43903571D01*
X24707142Y43903571D01*
X24635714Y43546428D02*
X24778571Y43617857D01*
X24921428Y43760714D01*
X24992857Y44046428D01*
X24992857Y44546428D01*
X24921428Y44832142D01*
X24778571Y44975000D01*
X24635714Y45046428D01*
X24350000Y45046428D01*
X24207142Y44975000D01*
X24064285Y44832142D01*
X23992857Y44546428D01*
X23992857Y44046428D01*
X24064285Y43760714D01*
X24207142Y43617857D01*
X24350000Y43546428D01*
X24635714Y43546428D01*
X23564285Y45046428D02*
X22707142Y45046428D01*
X23135714Y43546428D02*
X23135714Y45046428D01*
X22207142Y44332142D02*
X21707142Y44332142D01*
X21492857Y43546428D02*
X22207142Y43546428D01*
X22207142Y45046428D01*
X21492857Y45046428D01*
D12*
G04 #@! TO.C,C18*
X50961252Y55190000D02*
X50438748Y55190000D01*
X50961252Y56610000D02*
X50438748Y56610000D01*
G04 #@! TO.C,C59*
X50961252Y82690000D02*
X50438748Y82690000D01*
X50961252Y84110000D02*
X50438748Y84110000D01*
G04 #@! TO.C,C61*
X64910000Y82138748D02*
X64910000Y82661252D01*
X63490000Y82138748D02*
X63490000Y82661252D01*
G04 #@! TO.C,C62*
X62410000Y82138748D02*
X62410000Y82661252D01*
X60990000Y82138748D02*
X60990000Y82661252D01*
G04 #@! TO.C,C20*
X50961252Y57690000D02*
X50438748Y57690000D01*
X50961252Y59110000D02*
X50438748Y59110000D01*
G04 #@! TO.C,C27*
X62410000Y57138748D02*
X62410000Y57661252D01*
X60990000Y57138748D02*
X60990000Y57661252D01*
G04 #@! TO.C,C28*
X63490000Y57138748D02*
X63490000Y57661252D01*
X64910000Y57138748D02*
X64910000Y57661252D01*
G04 #@! TO.C,C40*
X50961252Y27690000D02*
X50438748Y27690000D01*
X50961252Y29110000D02*
X50438748Y29110000D01*
G04 #@! TO.C,C43*
X62410000Y32138748D02*
X62410000Y32661252D01*
X60990000Y32138748D02*
X60990000Y32661252D01*
G04 #@! TO.C,C44*
X63490000Y32138748D02*
X63490000Y32661252D01*
X64910000Y32138748D02*
X64910000Y32661252D01*
G04 #@! TO.C,C45*
X50961252Y81610000D02*
X50438748Y81610000D01*
X50961252Y80190000D02*
X50438748Y80190000D01*
G04 #@! TO.C,C46*
X50961252Y77690000D02*
X50438748Y77690000D01*
X50961252Y79110000D02*
X50438748Y79110000D01*
G04 #@! TO.C,C37*
X50961252Y32690000D02*
X50438748Y32690000D01*
X50961252Y34110000D02*
X50438748Y34110000D01*
G04 #@! TO.C,C38*
X50961252Y31610000D02*
X50438748Y31610000D01*
X50961252Y30190000D02*
X50438748Y30190000D01*
G04 #@! TO.C,C19*
X50961252Y54110000D02*
X50438748Y54110000D01*
X50961252Y52690000D02*
X50438748Y52690000D01*
G04 #@! TO.C,C13*
X93538748Y81690000D02*
X94061252Y81690000D01*
X93538748Y83110000D02*
X94061252Y83110000D01*
G04 #@! TO.C,C14*
X93538748Y85310000D02*
X94061252Y85310000D01*
X93538748Y83890000D02*
X94061252Y83890000D01*
G04 #@! TO.C,C7*
X93192765Y76590000D02*
X94396893Y76590000D01*
X93192765Y78410000D02*
X94396893Y78410000D01*
G04 #@! TO.C,C9*
X93192765Y90210000D02*
X94396893Y90210000D01*
X93192765Y88390000D02*
X94396893Y88390000D01*
G04 #@! TO.C,C10*
X93192765Y79090000D02*
X94396893Y79090000D01*
X93192765Y80910000D02*
X94396893Y80910000D01*
G04 #@! TO.C,C47*
X93197936Y87810000D02*
X94402064Y87810000D01*
X93197936Y85990000D02*
X94402064Y85990000D01*
G04 #@! TO.C,C11*
X93245811Y53107683D02*
X94449939Y53107683D01*
X93245811Y54927683D02*
X94449939Y54927683D01*
G04 #@! TO.C,C12*
X93145811Y66727683D02*
X94349939Y66727683D01*
X93145811Y64907683D02*
X94349939Y64907683D01*
G04 #@! TO.C,C48*
X93245811Y55607683D02*
X94449939Y55607683D01*
X93245811Y57427683D02*
X94449939Y57427683D01*
G04 #@! TO.C,C49*
X93145811Y64227683D02*
X94349939Y64227683D01*
X93145811Y62407683D02*
X94349939Y62407683D01*
G04 #@! TO.C,C50*
X93486623Y60307683D02*
X94009127Y60307683D01*
X93486623Y61727683D02*
X94009127Y61727683D01*
G04 #@! TO.C,C51*
X93486623Y59527683D02*
X94009127Y59527683D01*
X93486623Y58107683D02*
X94009127Y58107683D01*
G04 #@! TO.C,C52*
X93152638Y28508844D02*
X94356766Y28508844D01*
X93152638Y30328844D02*
X94356766Y30328844D01*
G04 #@! TO.C,C53*
X93152638Y32928844D02*
X94356766Y32928844D01*
X93152638Y31108844D02*
X94356766Y31108844D01*
G04 #@! TO.C,C56*
X93152638Y38008844D02*
X94356766Y38008844D01*
X93152638Y39828844D02*
X94356766Y39828844D01*
G04 #@! TO.C,C57*
X93152638Y42328844D02*
X94356766Y42328844D01*
X93152638Y40508844D02*
X94356766Y40508844D01*
G04 #@! TO.C,C63*
X93493450Y33608844D02*
X94015954Y33608844D01*
X93493450Y35028844D02*
X94015954Y35028844D01*
G04 #@! TO.C,C64*
X93493450Y37228844D02*
X94015954Y37228844D01*
X93493450Y35808844D02*
X94015954Y35808844D01*
G04 #@! TO.C,R23*
X12790000Y24261252D02*
X12790000Y23738748D01*
X14210000Y24261252D02*
X14210000Y23738748D01*
G04 #@! TO.C,R24*
X16710000Y24261252D02*
X16710000Y23738748D01*
X15290000Y24261252D02*
X15290000Y23738748D01*
G04 #@! TO.C,R25*
X17790000Y24261252D02*
X17790000Y23738748D01*
X19210000Y24261252D02*
X19210000Y23738748D01*
G04 #@! TO.C,C18*
D13*
X55242857Y55442857D02*
X55290476Y55395238D01*
X55433333Y55347619D01*
X55528571Y55347619D01*
X55671428Y55395238D01*
X55766666Y55490476D01*
X55814285Y55585714D01*
X55861904Y55776190D01*
X55861904Y55919047D01*
X55814285Y56109523D01*
X55766666Y56204761D01*
X55671428Y56300000D01*
X55528571Y56347619D01*
X55433333Y56347619D01*
X55290476Y56300000D01*
X55242857Y56252380D01*
X54290476Y55347619D02*
X54861904Y55347619D01*
X54576190Y55347619D02*
X54576190Y56347619D01*
X54671428Y56204761D01*
X54766666Y56109523D01*
X54861904Y56061904D01*
X53719047Y55919047D02*
X53814285Y55966666D01*
X53861904Y56014285D01*
X53909523Y56109523D01*
X53909523Y56157142D01*
X53861904Y56252380D01*
X53814285Y56300000D01*
X53719047Y56347619D01*
X53528571Y56347619D01*
X53433333Y56300000D01*
X53385714Y56252380D01*
X53338095Y56157142D01*
X53338095Y56109523D01*
X53385714Y56014285D01*
X53433333Y55966666D01*
X53528571Y55919047D01*
X53719047Y55919047D01*
X53814285Y55871428D01*
X53861904Y55823809D01*
X53909523Y55728571D01*
X53909523Y55538095D01*
X53861904Y55442857D01*
X53814285Y55395238D01*
X53719047Y55347619D01*
X53528571Y55347619D01*
X53433333Y55395238D01*
X53385714Y55442857D01*
X53338095Y55538095D01*
X53338095Y55728571D01*
X53385714Y55823809D01*
X53433333Y55871428D01*
X53528571Y55919047D01*
G04 #@! TO.C,C59*
X55142857Y82842857D02*
X55190476Y82795238D01*
X55333333Y82747619D01*
X55428571Y82747619D01*
X55571428Y82795238D01*
X55666666Y82890476D01*
X55714285Y82985714D01*
X55761904Y83176190D01*
X55761904Y83319047D01*
X55714285Y83509523D01*
X55666666Y83604761D01*
X55571428Y83700000D01*
X55428571Y83747619D01*
X55333333Y83747619D01*
X55190476Y83700000D01*
X55142857Y83652380D01*
X54238095Y83747619D02*
X54714285Y83747619D01*
X54761904Y83271428D01*
X54714285Y83319047D01*
X54619047Y83366666D01*
X54380952Y83366666D01*
X54285714Y83319047D01*
X54238095Y83271428D01*
X54190476Y83176190D01*
X54190476Y82938095D01*
X54238095Y82842857D01*
X54285714Y82795238D01*
X54380952Y82747619D01*
X54619047Y82747619D01*
X54714285Y82795238D01*
X54761904Y82842857D01*
X53714285Y82747619D02*
X53523809Y82747619D01*
X53428571Y82795238D01*
X53380952Y82842857D01*
X53285714Y82985714D01*
X53238095Y83176190D01*
X53238095Y83557142D01*
X53285714Y83652380D01*
X53333333Y83700000D01*
X53428571Y83747619D01*
X53619047Y83747619D01*
X53714285Y83700000D01*
X53761904Y83652380D01*
X53809523Y83557142D01*
X53809523Y83319047D01*
X53761904Y83223809D01*
X53714285Y83176190D01*
X53619047Y83128571D01*
X53428571Y83128571D01*
X53333333Y83176190D01*
X53285714Y83223809D01*
X53238095Y83319047D01*
G04 #@! TO.C,C61*
X64857142Y79442857D02*
X64904761Y79490476D01*
X64952380Y79633333D01*
X64952380Y79728571D01*
X64904761Y79871428D01*
X64809523Y79966666D01*
X64714285Y80014285D01*
X64523809Y80061904D01*
X64380952Y80061904D01*
X64190476Y80014285D01*
X64095238Y79966666D01*
X64000000Y79871428D01*
X63952380Y79728571D01*
X63952380Y79633333D01*
X64000000Y79490476D01*
X64047619Y79442857D01*
X63952380Y78585714D02*
X63952380Y78776190D01*
X64000000Y78871428D01*
X64047619Y78919047D01*
X64190476Y79014285D01*
X64380952Y79061904D01*
X64761904Y79061904D01*
X64857142Y79014285D01*
X64904761Y78966666D01*
X64952380Y78871428D01*
X64952380Y78680952D01*
X64904761Y78585714D01*
X64857142Y78538095D01*
X64761904Y78490476D01*
X64523809Y78490476D01*
X64428571Y78538095D01*
X64380952Y78585714D01*
X64333333Y78680952D01*
X64333333Y78871428D01*
X64380952Y78966666D01*
X64428571Y79014285D01*
X64523809Y79061904D01*
X64952380Y77538095D02*
X64952380Y78109523D01*
X64952380Y77823809D02*
X63952380Y77823809D01*
X64095238Y77919047D01*
X64190476Y78014285D01*
X64238095Y78109523D01*
G04 #@! TO.C,C62*
X61957142Y79242857D02*
X62004761Y79290476D01*
X62052380Y79433333D01*
X62052380Y79528571D01*
X62004761Y79671428D01*
X61909523Y79766666D01*
X61814285Y79814285D01*
X61623809Y79861904D01*
X61480952Y79861904D01*
X61290476Y79814285D01*
X61195238Y79766666D01*
X61100000Y79671428D01*
X61052380Y79528571D01*
X61052380Y79433333D01*
X61100000Y79290476D01*
X61147619Y79242857D01*
X61052380Y78385714D02*
X61052380Y78576190D01*
X61100000Y78671428D01*
X61147619Y78719047D01*
X61290476Y78814285D01*
X61480952Y78861904D01*
X61861904Y78861904D01*
X61957142Y78814285D01*
X62004761Y78766666D01*
X62052380Y78671428D01*
X62052380Y78480952D01*
X62004761Y78385714D01*
X61957142Y78338095D01*
X61861904Y78290476D01*
X61623809Y78290476D01*
X61528571Y78338095D01*
X61480952Y78385714D01*
X61433333Y78480952D01*
X61433333Y78671428D01*
X61480952Y78766666D01*
X61528571Y78814285D01*
X61623809Y78861904D01*
X61147619Y77909523D02*
X61100000Y77861904D01*
X61052380Y77766666D01*
X61052380Y77528571D01*
X61100000Y77433333D01*
X61147619Y77385714D01*
X61242857Y77338095D01*
X61338095Y77338095D01*
X61480952Y77385714D01*
X62052380Y77957142D01*
X62052380Y77338095D01*
G04 #@! TO.C,C20*
X55042857Y58042857D02*
X55090476Y57995238D01*
X55233333Y57947619D01*
X55328571Y57947619D01*
X55471428Y57995238D01*
X55566666Y58090476D01*
X55614285Y58185714D01*
X55661904Y58376190D01*
X55661904Y58519047D01*
X55614285Y58709523D01*
X55566666Y58804761D01*
X55471428Y58900000D01*
X55328571Y58947619D01*
X55233333Y58947619D01*
X55090476Y58900000D01*
X55042857Y58852380D01*
X54661904Y58852380D02*
X54614285Y58900000D01*
X54519047Y58947619D01*
X54280952Y58947619D01*
X54185714Y58900000D01*
X54138095Y58852380D01*
X54090476Y58757142D01*
X54090476Y58661904D01*
X54138095Y58519047D01*
X54709523Y57947619D01*
X54090476Y57947619D01*
X53471428Y58947619D02*
X53376190Y58947619D01*
X53280952Y58900000D01*
X53233333Y58852380D01*
X53185714Y58757142D01*
X53138095Y58566666D01*
X53138095Y58328571D01*
X53185714Y58138095D01*
X53233333Y58042857D01*
X53280952Y57995238D01*
X53376190Y57947619D01*
X53471428Y57947619D01*
X53566666Y57995238D01*
X53614285Y58042857D01*
X53661904Y58138095D01*
X53709523Y58328571D01*
X53709523Y58566666D01*
X53661904Y58757142D01*
X53614285Y58852380D01*
X53566666Y58900000D01*
X53471428Y58947619D01*
G04 #@! TO.C,C27*
X62057142Y54542857D02*
X62104761Y54590476D01*
X62152380Y54733333D01*
X62152380Y54828571D01*
X62104761Y54971428D01*
X62009523Y55066666D01*
X61914285Y55114285D01*
X61723809Y55161904D01*
X61580952Y55161904D01*
X61390476Y55114285D01*
X61295238Y55066666D01*
X61200000Y54971428D01*
X61152380Y54828571D01*
X61152380Y54733333D01*
X61200000Y54590476D01*
X61247619Y54542857D01*
X61247619Y54161904D02*
X61200000Y54114285D01*
X61152380Y54019047D01*
X61152380Y53780952D01*
X61200000Y53685714D01*
X61247619Y53638095D01*
X61342857Y53590476D01*
X61438095Y53590476D01*
X61580952Y53638095D01*
X62152380Y54209523D01*
X62152380Y53590476D01*
X61152380Y53257142D02*
X61152380Y52590476D01*
X62152380Y53019047D01*
G04 #@! TO.C,C28*
X64857142Y54642857D02*
X64904761Y54690476D01*
X64952380Y54833333D01*
X64952380Y54928571D01*
X64904761Y55071428D01*
X64809523Y55166666D01*
X64714285Y55214285D01*
X64523809Y55261904D01*
X64380952Y55261904D01*
X64190476Y55214285D01*
X64095238Y55166666D01*
X64000000Y55071428D01*
X63952380Y54928571D01*
X63952380Y54833333D01*
X64000000Y54690476D01*
X64047619Y54642857D01*
X64047619Y54261904D02*
X64000000Y54214285D01*
X63952380Y54119047D01*
X63952380Y53880952D01*
X64000000Y53785714D01*
X64047619Y53738095D01*
X64142857Y53690476D01*
X64238095Y53690476D01*
X64380952Y53738095D01*
X64952380Y54309523D01*
X64952380Y53690476D01*
X64380952Y53119047D02*
X64333333Y53214285D01*
X64285714Y53261904D01*
X64190476Y53309523D01*
X64142857Y53309523D01*
X64047619Y53261904D01*
X64000000Y53214285D01*
X63952380Y53119047D01*
X63952380Y52928571D01*
X64000000Y52833333D01*
X64047619Y52785714D01*
X64142857Y52738095D01*
X64190476Y52738095D01*
X64285714Y52785714D01*
X64333333Y52833333D01*
X64380952Y52928571D01*
X64380952Y53119047D01*
X64428571Y53214285D01*
X64476190Y53261904D01*
X64571428Y53309523D01*
X64761904Y53309523D01*
X64857142Y53261904D01*
X64904761Y53214285D01*
X64952380Y53119047D01*
X64952380Y52928571D01*
X64904761Y52833333D01*
X64857142Y52785714D01*
X64761904Y52738095D01*
X64571428Y52738095D01*
X64476190Y52785714D01*
X64428571Y52833333D01*
X64380952Y52928571D01*
G04 #@! TO.C,C40*
X55342857Y28142857D02*
X55390476Y28095238D01*
X55533333Y28047619D01*
X55628571Y28047619D01*
X55771428Y28095238D01*
X55866666Y28190476D01*
X55914285Y28285714D01*
X55961904Y28476190D01*
X55961904Y28619047D01*
X55914285Y28809523D01*
X55866666Y28904761D01*
X55771428Y29000000D01*
X55628571Y29047619D01*
X55533333Y29047619D01*
X55390476Y29000000D01*
X55342857Y28952380D01*
X54485714Y28714285D02*
X54485714Y28047619D01*
X54723809Y29095238D02*
X54961904Y28380952D01*
X54342857Y28380952D01*
X53771428Y29047619D02*
X53676190Y29047619D01*
X53580952Y29000000D01*
X53533333Y28952380D01*
X53485714Y28857142D01*
X53438095Y28666666D01*
X53438095Y28428571D01*
X53485714Y28238095D01*
X53533333Y28142857D01*
X53580952Y28095238D01*
X53676190Y28047619D01*
X53771428Y28047619D01*
X53866666Y28095238D01*
X53914285Y28142857D01*
X53961904Y28238095D01*
X54009523Y28428571D01*
X54009523Y28666666D01*
X53961904Y28857142D01*
X53914285Y28952380D01*
X53866666Y29000000D01*
X53771428Y29047619D01*
G04 #@! TO.C,C43*
X61957142Y29442857D02*
X62004761Y29490476D01*
X62052380Y29633333D01*
X62052380Y29728571D01*
X62004761Y29871428D01*
X61909523Y29966666D01*
X61814285Y30014285D01*
X61623809Y30061904D01*
X61480952Y30061904D01*
X61290476Y30014285D01*
X61195238Y29966666D01*
X61100000Y29871428D01*
X61052380Y29728571D01*
X61052380Y29633333D01*
X61100000Y29490476D01*
X61147619Y29442857D01*
X61385714Y28585714D02*
X62052380Y28585714D01*
X61004761Y28823809D02*
X61719047Y29061904D01*
X61719047Y28442857D01*
X61052380Y28157142D02*
X61052380Y27538095D01*
X61433333Y27871428D01*
X61433333Y27728571D01*
X61480952Y27633333D01*
X61528571Y27585714D01*
X61623809Y27538095D01*
X61861904Y27538095D01*
X61957142Y27585714D01*
X62004761Y27633333D01*
X62052380Y27728571D01*
X62052380Y28014285D01*
X62004761Y28109523D01*
X61957142Y28157142D01*
G04 #@! TO.C,C44*
X64657142Y29142857D02*
X64704761Y29190476D01*
X64752380Y29333333D01*
X64752380Y29428571D01*
X64704761Y29571428D01*
X64609523Y29666666D01*
X64514285Y29714285D01*
X64323809Y29761904D01*
X64180952Y29761904D01*
X63990476Y29714285D01*
X63895238Y29666666D01*
X63800000Y29571428D01*
X63752380Y29428571D01*
X63752380Y29333333D01*
X63800000Y29190476D01*
X63847619Y29142857D01*
X64085714Y28285714D02*
X64752380Y28285714D01*
X63704761Y28523809D02*
X64419047Y28761904D01*
X64419047Y28142857D01*
X64085714Y27333333D02*
X64752380Y27333333D01*
X63704761Y27571428D02*
X64419047Y27809523D01*
X64419047Y27190476D01*
G04 #@! TO.C,C45*
X55742857Y80742857D02*
X55790476Y80695238D01*
X55933333Y80647619D01*
X56028571Y80647619D01*
X56171428Y80695238D01*
X56266666Y80790476D01*
X56314285Y80885714D01*
X56361904Y81076190D01*
X56361904Y81219047D01*
X56314285Y81409523D01*
X56266666Y81504761D01*
X56171428Y81600000D01*
X56028571Y81647619D01*
X55933333Y81647619D01*
X55790476Y81600000D01*
X55742857Y81552380D01*
X54885714Y81314285D02*
X54885714Y80647619D01*
X55123809Y81695238D02*
X55361904Y80980952D01*
X54742857Y80980952D01*
X53885714Y81647619D02*
X54361904Y81647619D01*
X54409523Y81171428D01*
X54361904Y81219047D01*
X54266666Y81266666D01*
X54028571Y81266666D01*
X53933333Y81219047D01*
X53885714Y81171428D01*
X53838095Y81076190D01*
X53838095Y80838095D01*
X53885714Y80742857D01*
X53933333Y80695238D01*
X54028571Y80647619D01*
X54266666Y80647619D01*
X54361904Y80695238D01*
X54409523Y80742857D01*
G04 #@! TO.C,C46*
X54942857Y78042857D02*
X54990476Y77995238D01*
X55133333Y77947619D01*
X55228571Y77947619D01*
X55371428Y77995238D01*
X55466666Y78090476D01*
X55514285Y78185714D01*
X55561904Y78376190D01*
X55561904Y78519047D01*
X55514285Y78709523D01*
X55466666Y78804761D01*
X55371428Y78900000D01*
X55228571Y78947619D01*
X55133333Y78947619D01*
X54990476Y78900000D01*
X54942857Y78852380D01*
X54085714Y78614285D02*
X54085714Y77947619D01*
X54323809Y78995238D02*
X54561904Y78280952D01*
X53942857Y78280952D01*
X53133333Y78947619D02*
X53323809Y78947619D01*
X53419047Y78900000D01*
X53466666Y78852380D01*
X53561904Y78709523D01*
X53609523Y78519047D01*
X53609523Y78138095D01*
X53561904Y78042857D01*
X53514285Y77995238D01*
X53419047Y77947619D01*
X53228571Y77947619D01*
X53133333Y77995238D01*
X53085714Y78042857D01*
X53038095Y78138095D01*
X53038095Y78376190D01*
X53085714Y78471428D01*
X53133333Y78519047D01*
X53228571Y78566666D01*
X53419047Y78566666D01*
X53514285Y78519047D01*
X53561904Y78471428D01*
X53609523Y78376190D01*
G04 #@! TO.C,C37*
X55242857Y33142857D02*
X55290476Y33095238D01*
X55433333Y33047619D01*
X55528571Y33047619D01*
X55671428Y33095238D01*
X55766666Y33190476D01*
X55814285Y33285714D01*
X55861904Y33476190D01*
X55861904Y33619047D01*
X55814285Y33809523D01*
X55766666Y33904761D01*
X55671428Y34000000D01*
X55528571Y34047619D01*
X55433333Y34047619D01*
X55290476Y34000000D01*
X55242857Y33952380D01*
X54909523Y34047619D02*
X54290476Y34047619D01*
X54623809Y33666666D01*
X54480952Y33666666D01*
X54385714Y33619047D01*
X54338095Y33571428D01*
X54290476Y33476190D01*
X54290476Y33238095D01*
X54338095Y33142857D01*
X54385714Y33095238D01*
X54480952Y33047619D01*
X54766666Y33047619D01*
X54861904Y33095238D01*
X54909523Y33142857D01*
X53957142Y34047619D02*
X53290476Y34047619D01*
X53719047Y33047619D01*
G04 #@! TO.C,C38*
X55442857Y30742857D02*
X55490476Y30695238D01*
X55633333Y30647619D01*
X55728571Y30647619D01*
X55871428Y30695238D01*
X55966666Y30790476D01*
X56014285Y30885714D01*
X56061904Y31076190D01*
X56061904Y31219047D01*
X56014285Y31409523D01*
X55966666Y31504761D01*
X55871428Y31600000D01*
X55728571Y31647619D01*
X55633333Y31647619D01*
X55490476Y31600000D01*
X55442857Y31552380D01*
X55109523Y31647619D02*
X54490476Y31647619D01*
X54823809Y31266666D01*
X54680952Y31266666D01*
X54585714Y31219047D01*
X54538095Y31171428D01*
X54490476Y31076190D01*
X54490476Y30838095D01*
X54538095Y30742857D01*
X54585714Y30695238D01*
X54680952Y30647619D01*
X54966666Y30647619D01*
X55061904Y30695238D01*
X55109523Y30742857D01*
X53919047Y31219047D02*
X54014285Y31266666D01*
X54061904Y31314285D01*
X54109523Y31409523D01*
X54109523Y31457142D01*
X54061904Y31552380D01*
X54014285Y31600000D01*
X53919047Y31647619D01*
X53728571Y31647619D01*
X53633333Y31600000D01*
X53585714Y31552380D01*
X53538095Y31457142D01*
X53538095Y31409523D01*
X53585714Y31314285D01*
X53633333Y31266666D01*
X53728571Y31219047D01*
X53919047Y31219047D01*
X54014285Y31171428D01*
X54061904Y31123809D01*
X54109523Y31028571D01*
X54109523Y30838095D01*
X54061904Y30742857D01*
X54014285Y30695238D01*
X53919047Y30647619D01*
X53728571Y30647619D01*
X53633333Y30695238D01*
X53585714Y30742857D01*
X53538095Y30838095D01*
X53538095Y31028571D01*
X53585714Y31123809D01*
X53633333Y31171428D01*
X53728571Y31219047D01*
G04 #@! TO.C,C19*
X55042857Y53042857D02*
X55090476Y52995238D01*
X55233333Y52947619D01*
X55328571Y52947619D01*
X55471428Y52995238D01*
X55566666Y53090476D01*
X55614285Y53185714D01*
X55661904Y53376190D01*
X55661904Y53519047D01*
X55614285Y53709523D01*
X55566666Y53804761D01*
X55471428Y53900000D01*
X55328571Y53947619D01*
X55233333Y53947619D01*
X55090476Y53900000D01*
X55042857Y53852380D01*
X54090476Y52947619D02*
X54661904Y52947619D01*
X54376190Y52947619D02*
X54376190Y53947619D01*
X54471428Y53804761D01*
X54566666Y53709523D01*
X54661904Y53661904D01*
X53614285Y52947619D02*
X53423809Y52947619D01*
X53328571Y52995238D01*
X53280952Y53042857D01*
X53185714Y53185714D01*
X53138095Y53376190D01*
X53138095Y53757142D01*
X53185714Y53852380D01*
X53233333Y53900000D01*
X53328571Y53947619D01*
X53519047Y53947619D01*
X53614285Y53900000D01*
X53661904Y53852380D01*
X53709523Y53757142D01*
X53709523Y53519047D01*
X53661904Y53423809D01*
X53614285Y53376190D01*
X53519047Y53328571D01*
X53328571Y53328571D01*
X53233333Y53376190D01*
X53185714Y53423809D01*
X53138095Y53519047D01*
G04 #@! TO.C,C13*
X91042857Y81942857D02*
X91090476Y81895238D01*
X91233333Y81847619D01*
X91328571Y81847619D01*
X91471428Y81895238D01*
X91566666Y81990476D01*
X91614285Y82085714D01*
X91661904Y82276190D01*
X91661904Y82419047D01*
X91614285Y82609523D01*
X91566666Y82704761D01*
X91471428Y82800000D01*
X91328571Y82847619D01*
X91233333Y82847619D01*
X91090476Y82800000D01*
X91042857Y82752380D01*
X90090476Y81847619D02*
X90661904Y81847619D01*
X90376190Y81847619D02*
X90376190Y82847619D01*
X90471428Y82704761D01*
X90566666Y82609523D01*
X90661904Y82561904D01*
X89757142Y82847619D02*
X89138095Y82847619D01*
X89471428Y82466666D01*
X89328571Y82466666D01*
X89233333Y82419047D01*
X89185714Y82371428D01*
X89138095Y82276190D01*
X89138095Y82038095D01*
X89185714Y81942857D01*
X89233333Y81895238D01*
X89328571Y81847619D01*
X89614285Y81847619D01*
X89709523Y81895238D01*
X89757142Y81942857D01*
G04 #@! TO.C,C14*
X90842857Y84142857D02*
X90890476Y84095238D01*
X91033333Y84047619D01*
X91128571Y84047619D01*
X91271428Y84095238D01*
X91366666Y84190476D01*
X91414285Y84285714D01*
X91461904Y84476190D01*
X91461904Y84619047D01*
X91414285Y84809523D01*
X91366666Y84904761D01*
X91271428Y85000000D01*
X91128571Y85047619D01*
X91033333Y85047619D01*
X90890476Y85000000D01*
X90842857Y84952380D01*
X89890476Y84047619D02*
X90461904Y84047619D01*
X90176190Y84047619D02*
X90176190Y85047619D01*
X90271428Y84904761D01*
X90366666Y84809523D01*
X90461904Y84761904D01*
X89033333Y84714285D02*
X89033333Y84047619D01*
X89271428Y85095238D02*
X89509523Y84380952D01*
X88890476Y84380952D01*
G04 #@! TO.C,C7*
X89566666Y77042857D02*
X89614285Y76995238D01*
X89757142Y76947619D01*
X89852380Y76947619D01*
X89995238Y76995238D01*
X90090476Y77090476D01*
X90138095Y77185714D01*
X90185714Y77376190D01*
X90185714Y77519047D01*
X90138095Y77709523D01*
X90090476Y77804761D01*
X89995238Y77900000D01*
X89852380Y77947619D01*
X89757142Y77947619D01*
X89614285Y77900000D01*
X89566666Y77852380D01*
X89233333Y77947619D02*
X88566666Y77947619D01*
X88995238Y76947619D01*
G04 #@! TO.C,C9*
X90266666Y88642857D02*
X90314285Y88595238D01*
X90457142Y88547619D01*
X90552380Y88547619D01*
X90695238Y88595238D01*
X90790476Y88690476D01*
X90838095Y88785714D01*
X90885714Y88976190D01*
X90885714Y89119047D01*
X90838095Y89309523D01*
X90790476Y89404761D01*
X90695238Y89500000D01*
X90552380Y89547619D01*
X90457142Y89547619D01*
X90314285Y89500000D01*
X90266666Y89452380D01*
X89790476Y88547619D02*
X89600000Y88547619D01*
X89504761Y88595238D01*
X89457142Y88642857D01*
X89361904Y88785714D01*
X89314285Y88976190D01*
X89314285Y89357142D01*
X89361904Y89452380D01*
X89409523Y89500000D01*
X89504761Y89547619D01*
X89695238Y89547619D01*
X89790476Y89500000D01*
X89838095Y89452380D01*
X89885714Y89357142D01*
X89885714Y89119047D01*
X89838095Y89023809D01*
X89790476Y88976190D01*
X89695238Y88928571D01*
X89504761Y88928571D01*
X89409523Y88976190D01*
X89361904Y89023809D01*
X89314285Y89119047D01*
G04 #@! TO.C,C10*
X90342857Y79542857D02*
X90390476Y79495238D01*
X90533333Y79447619D01*
X90628571Y79447619D01*
X90771428Y79495238D01*
X90866666Y79590476D01*
X90914285Y79685714D01*
X90961904Y79876190D01*
X90961904Y80019047D01*
X90914285Y80209523D01*
X90866666Y80304761D01*
X90771428Y80400000D01*
X90628571Y80447619D01*
X90533333Y80447619D01*
X90390476Y80400000D01*
X90342857Y80352380D01*
X89390476Y79447619D02*
X89961904Y79447619D01*
X89676190Y79447619D02*
X89676190Y80447619D01*
X89771428Y80304761D01*
X89866666Y80209523D01*
X89961904Y80161904D01*
X88771428Y80447619D02*
X88676190Y80447619D01*
X88580952Y80400000D01*
X88533333Y80352380D01*
X88485714Y80257142D01*
X88438095Y80066666D01*
X88438095Y79828571D01*
X88485714Y79638095D01*
X88533333Y79542857D01*
X88580952Y79495238D01*
X88676190Y79447619D01*
X88771428Y79447619D01*
X88866666Y79495238D01*
X88914285Y79542857D01*
X88961904Y79638095D01*
X89009523Y79828571D01*
X89009523Y80066666D01*
X88961904Y80257142D01*
X88914285Y80352380D01*
X88866666Y80400000D01*
X88771428Y80447619D01*
G04 #@! TO.C,C47*
X90242857Y86342857D02*
X90290476Y86295238D01*
X90433333Y86247619D01*
X90528571Y86247619D01*
X90671428Y86295238D01*
X90766666Y86390476D01*
X90814285Y86485714D01*
X90861904Y86676190D01*
X90861904Y86819047D01*
X90814285Y87009523D01*
X90766666Y87104761D01*
X90671428Y87200000D01*
X90528571Y87247619D01*
X90433333Y87247619D01*
X90290476Y87200000D01*
X90242857Y87152380D01*
X89385714Y86914285D02*
X89385714Y86247619D01*
X89623809Y87295238D02*
X89861904Y86580952D01*
X89242857Y86580952D01*
X88957142Y87247619D02*
X88290476Y87247619D01*
X88719047Y86247619D01*
G04 #@! TO.C,C11*
X90042857Y53342857D02*
X90090476Y53295238D01*
X90233333Y53247619D01*
X90328571Y53247619D01*
X90471428Y53295238D01*
X90566666Y53390476D01*
X90614285Y53485714D01*
X90661904Y53676190D01*
X90661904Y53819047D01*
X90614285Y54009523D01*
X90566666Y54104761D01*
X90471428Y54200000D01*
X90328571Y54247619D01*
X90233333Y54247619D01*
X90090476Y54200000D01*
X90042857Y54152380D01*
X89090476Y53247619D02*
X89661904Y53247619D01*
X89376190Y53247619D02*
X89376190Y54247619D01*
X89471428Y54104761D01*
X89566666Y54009523D01*
X89661904Y53961904D01*
X88138095Y53247619D02*
X88709523Y53247619D01*
X88423809Y53247619D02*
X88423809Y54247619D01*
X88519047Y54104761D01*
X88614285Y54009523D01*
X88709523Y53961904D01*
G04 #@! TO.C,C12*
X89942857Y65442857D02*
X89990476Y65395238D01*
X90133333Y65347619D01*
X90228571Y65347619D01*
X90371428Y65395238D01*
X90466666Y65490476D01*
X90514285Y65585714D01*
X90561904Y65776190D01*
X90561904Y65919047D01*
X90514285Y66109523D01*
X90466666Y66204761D01*
X90371428Y66300000D01*
X90228571Y66347619D01*
X90133333Y66347619D01*
X89990476Y66300000D01*
X89942857Y66252380D01*
X88990476Y65347619D02*
X89561904Y65347619D01*
X89276190Y65347619D02*
X89276190Y66347619D01*
X89371428Y66204761D01*
X89466666Y66109523D01*
X89561904Y66061904D01*
X88609523Y66252380D02*
X88561904Y66300000D01*
X88466666Y66347619D01*
X88228571Y66347619D01*
X88133333Y66300000D01*
X88085714Y66252380D01*
X88038095Y66157142D01*
X88038095Y66061904D01*
X88085714Y65919047D01*
X88657142Y65347619D01*
X88038095Y65347619D01*
G04 #@! TO.C,C48*
X89842857Y56142857D02*
X89890476Y56095238D01*
X90033333Y56047619D01*
X90128571Y56047619D01*
X90271428Y56095238D01*
X90366666Y56190476D01*
X90414285Y56285714D01*
X90461904Y56476190D01*
X90461904Y56619047D01*
X90414285Y56809523D01*
X90366666Y56904761D01*
X90271428Y57000000D01*
X90128571Y57047619D01*
X90033333Y57047619D01*
X89890476Y57000000D01*
X89842857Y56952380D01*
X88985714Y56714285D02*
X88985714Y56047619D01*
X89223809Y57095238D02*
X89461904Y56380952D01*
X88842857Y56380952D01*
X88319047Y56619047D02*
X88414285Y56666666D01*
X88461904Y56714285D01*
X88509523Y56809523D01*
X88509523Y56857142D01*
X88461904Y56952380D01*
X88414285Y57000000D01*
X88319047Y57047619D01*
X88128571Y57047619D01*
X88033333Y57000000D01*
X87985714Y56952380D01*
X87938095Y56857142D01*
X87938095Y56809523D01*
X87985714Y56714285D01*
X88033333Y56666666D01*
X88128571Y56619047D01*
X88319047Y56619047D01*
X88414285Y56571428D01*
X88461904Y56523809D01*
X88509523Y56428571D01*
X88509523Y56238095D01*
X88461904Y56142857D01*
X88414285Y56095238D01*
X88319047Y56047619D01*
X88128571Y56047619D01*
X88033333Y56095238D01*
X87985714Y56142857D01*
X87938095Y56238095D01*
X87938095Y56428571D01*
X87985714Y56523809D01*
X88033333Y56571428D01*
X88128571Y56619047D01*
G04 #@! TO.C,C49*
X89842857Y62942857D02*
X89890476Y62895238D01*
X90033333Y62847619D01*
X90128571Y62847619D01*
X90271428Y62895238D01*
X90366666Y62990476D01*
X90414285Y63085714D01*
X90461904Y63276190D01*
X90461904Y63419047D01*
X90414285Y63609523D01*
X90366666Y63704761D01*
X90271428Y63800000D01*
X90128571Y63847619D01*
X90033333Y63847619D01*
X89890476Y63800000D01*
X89842857Y63752380D01*
X88985714Y63514285D02*
X88985714Y62847619D01*
X89223809Y63895238D02*
X89461904Y63180952D01*
X88842857Y63180952D01*
X88414285Y62847619D02*
X88223809Y62847619D01*
X88128571Y62895238D01*
X88080952Y62942857D01*
X87985714Y63085714D01*
X87938095Y63276190D01*
X87938095Y63657142D01*
X87985714Y63752380D01*
X88033333Y63800000D01*
X88128571Y63847619D01*
X88319047Y63847619D01*
X88414285Y63800000D01*
X88461904Y63752380D01*
X88509523Y63657142D01*
X88509523Y63419047D01*
X88461904Y63323809D01*
X88414285Y63276190D01*
X88319047Y63228571D01*
X88128571Y63228571D01*
X88033333Y63276190D01*
X87985714Y63323809D01*
X87938095Y63419047D01*
G04 #@! TO.C,C50*
X90342857Y60442857D02*
X90390476Y60395238D01*
X90533333Y60347619D01*
X90628571Y60347619D01*
X90771428Y60395238D01*
X90866666Y60490476D01*
X90914285Y60585714D01*
X90961904Y60776190D01*
X90961904Y60919047D01*
X90914285Y61109523D01*
X90866666Y61204761D01*
X90771428Y61300000D01*
X90628571Y61347619D01*
X90533333Y61347619D01*
X90390476Y61300000D01*
X90342857Y61252380D01*
X89438095Y61347619D02*
X89914285Y61347619D01*
X89961904Y60871428D01*
X89914285Y60919047D01*
X89819047Y60966666D01*
X89580952Y60966666D01*
X89485714Y60919047D01*
X89438095Y60871428D01*
X89390476Y60776190D01*
X89390476Y60538095D01*
X89438095Y60442857D01*
X89485714Y60395238D01*
X89580952Y60347619D01*
X89819047Y60347619D01*
X89914285Y60395238D01*
X89961904Y60442857D01*
X88771428Y61347619D02*
X88676190Y61347619D01*
X88580952Y61300000D01*
X88533333Y61252380D01*
X88485714Y61157142D01*
X88438095Y60966666D01*
X88438095Y60728571D01*
X88485714Y60538095D01*
X88533333Y60442857D01*
X88580952Y60395238D01*
X88676190Y60347619D01*
X88771428Y60347619D01*
X88866666Y60395238D01*
X88914285Y60442857D01*
X88961904Y60538095D01*
X89009523Y60728571D01*
X89009523Y60966666D01*
X88961904Y61157142D01*
X88914285Y61252380D01*
X88866666Y61300000D01*
X88771428Y61347619D01*
G04 #@! TO.C,C51*
X90742857Y58442857D02*
X90790476Y58395238D01*
X90933333Y58347619D01*
X91028571Y58347619D01*
X91171428Y58395238D01*
X91266666Y58490476D01*
X91314285Y58585714D01*
X91361904Y58776190D01*
X91361904Y58919047D01*
X91314285Y59109523D01*
X91266666Y59204761D01*
X91171428Y59300000D01*
X91028571Y59347619D01*
X90933333Y59347619D01*
X90790476Y59300000D01*
X90742857Y59252380D01*
X89838095Y59347619D02*
X90314285Y59347619D01*
X90361904Y58871428D01*
X90314285Y58919047D01*
X90219047Y58966666D01*
X89980952Y58966666D01*
X89885714Y58919047D01*
X89838095Y58871428D01*
X89790476Y58776190D01*
X89790476Y58538095D01*
X89838095Y58442857D01*
X89885714Y58395238D01*
X89980952Y58347619D01*
X90219047Y58347619D01*
X90314285Y58395238D01*
X90361904Y58442857D01*
X88838095Y58347619D02*
X89409523Y58347619D01*
X89123809Y58347619D02*
X89123809Y59347619D01*
X89219047Y59204761D01*
X89314285Y59109523D01*
X89409523Y59061904D01*
G04 #@! TO.C,C52*
X89942857Y28942857D02*
X89990476Y28895238D01*
X90133333Y28847619D01*
X90228571Y28847619D01*
X90371428Y28895238D01*
X90466666Y28990476D01*
X90514285Y29085714D01*
X90561904Y29276190D01*
X90561904Y29419047D01*
X90514285Y29609523D01*
X90466666Y29704761D01*
X90371428Y29800000D01*
X90228571Y29847619D01*
X90133333Y29847619D01*
X89990476Y29800000D01*
X89942857Y29752380D01*
X89038095Y29847619D02*
X89514285Y29847619D01*
X89561904Y29371428D01*
X89514285Y29419047D01*
X89419047Y29466666D01*
X89180952Y29466666D01*
X89085714Y29419047D01*
X89038095Y29371428D01*
X88990476Y29276190D01*
X88990476Y29038095D01*
X89038095Y28942857D01*
X89085714Y28895238D01*
X89180952Y28847619D01*
X89419047Y28847619D01*
X89514285Y28895238D01*
X89561904Y28942857D01*
X88609523Y29752380D02*
X88561904Y29800000D01*
X88466666Y29847619D01*
X88228571Y29847619D01*
X88133333Y29800000D01*
X88085714Y29752380D01*
X88038095Y29657142D01*
X88038095Y29561904D01*
X88085714Y29419047D01*
X88657142Y28847619D01*
X88038095Y28847619D01*
G04 #@! TO.C,C53*
X90442857Y31542857D02*
X90490476Y31495238D01*
X90633333Y31447619D01*
X90728571Y31447619D01*
X90871428Y31495238D01*
X90966666Y31590476D01*
X91014285Y31685714D01*
X91061904Y31876190D01*
X91061904Y32019047D01*
X91014285Y32209523D01*
X90966666Y32304761D01*
X90871428Y32400000D01*
X90728571Y32447619D01*
X90633333Y32447619D01*
X90490476Y32400000D01*
X90442857Y32352380D01*
X89538095Y32447619D02*
X90014285Y32447619D01*
X90061904Y31971428D01*
X90014285Y32019047D01*
X89919047Y32066666D01*
X89680952Y32066666D01*
X89585714Y32019047D01*
X89538095Y31971428D01*
X89490476Y31876190D01*
X89490476Y31638095D01*
X89538095Y31542857D01*
X89585714Y31495238D01*
X89680952Y31447619D01*
X89919047Y31447619D01*
X90014285Y31495238D01*
X90061904Y31542857D01*
X89157142Y32447619D02*
X88538095Y32447619D01*
X88871428Y32066666D01*
X88728571Y32066666D01*
X88633333Y32019047D01*
X88585714Y31971428D01*
X88538095Y31876190D01*
X88538095Y31638095D01*
X88585714Y31542857D01*
X88633333Y31495238D01*
X88728571Y31447619D01*
X89014285Y31447619D01*
X89109523Y31495238D01*
X89157142Y31542857D01*
G04 #@! TO.C,C56*
X90442857Y38442857D02*
X90490476Y38395238D01*
X90633333Y38347619D01*
X90728571Y38347619D01*
X90871428Y38395238D01*
X90966666Y38490476D01*
X91014285Y38585714D01*
X91061904Y38776190D01*
X91061904Y38919047D01*
X91014285Y39109523D01*
X90966666Y39204761D01*
X90871428Y39300000D01*
X90728571Y39347619D01*
X90633333Y39347619D01*
X90490476Y39300000D01*
X90442857Y39252380D01*
X89538095Y39347619D02*
X90014285Y39347619D01*
X90061904Y38871428D01*
X90014285Y38919047D01*
X89919047Y38966666D01*
X89680952Y38966666D01*
X89585714Y38919047D01*
X89538095Y38871428D01*
X89490476Y38776190D01*
X89490476Y38538095D01*
X89538095Y38442857D01*
X89585714Y38395238D01*
X89680952Y38347619D01*
X89919047Y38347619D01*
X90014285Y38395238D01*
X90061904Y38442857D01*
X88633333Y39347619D02*
X88823809Y39347619D01*
X88919047Y39300000D01*
X88966666Y39252380D01*
X89061904Y39109523D01*
X89109523Y38919047D01*
X89109523Y38538095D01*
X89061904Y38442857D01*
X89014285Y38395238D01*
X88919047Y38347619D01*
X88728571Y38347619D01*
X88633333Y38395238D01*
X88585714Y38442857D01*
X88538095Y38538095D01*
X88538095Y38776190D01*
X88585714Y38871428D01*
X88633333Y38919047D01*
X88728571Y38966666D01*
X88919047Y38966666D01*
X89014285Y38919047D01*
X89061904Y38871428D01*
X89109523Y38776190D01*
G04 #@! TO.C,C57*
X89842857Y40842857D02*
X89890476Y40795238D01*
X90033333Y40747619D01*
X90128571Y40747619D01*
X90271428Y40795238D01*
X90366666Y40890476D01*
X90414285Y40985714D01*
X90461904Y41176190D01*
X90461904Y41319047D01*
X90414285Y41509523D01*
X90366666Y41604761D01*
X90271428Y41700000D01*
X90128571Y41747619D01*
X90033333Y41747619D01*
X89890476Y41700000D01*
X89842857Y41652380D01*
X88938095Y41747619D02*
X89414285Y41747619D01*
X89461904Y41271428D01*
X89414285Y41319047D01*
X89319047Y41366666D01*
X89080952Y41366666D01*
X88985714Y41319047D01*
X88938095Y41271428D01*
X88890476Y41176190D01*
X88890476Y40938095D01*
X88938095Y40842857D01*
X88985714Y40795238D01*
X89080952Y40747619D01*
X89319047Y40747619D01*
X89414285Y40795238D01*
X89461904Y40842857D01*
X88557142Y41747619D02*
X87890476Y41747619D01*
X88319047Y40747619D01*
G04 #@! TO.C,C63*
X90542857Y33742857D02*
X90590476Y33695238D01*
X90733333Y33647619D01*
X90828571Y33647619D01*
X90971428Y33695238D01*
X91066666Y33790476D01*
X91114285Y33885714D01*
X91161904Y34076190D01*
X91161904Y34219047D01*
X91114285Y34409523D01*
X91066666Y34504761D01*
X90971428Y34600000D01*
X90828571Y34647619D01*
X90733333Y34647619D01*
X90590476Y34600000D01*
X90542857Y34552380D01*
X89685714Y34647619D02*
X89876190Y34647619D01*
X89971428Y34600000D01*
X90019047Y34552380D01*
X90114285Y34409523D01*
X90161904Y34219047D01*
X90161904Y33838095D01*
X90114285Y33742857D01*
X90066666Y33695238D01*
X89971428Y33647619D01*
X89780952Y33647619D01*
X89685714Y33695238D01*
X89638095Y33742857D01*
X89590476Y33838095D01*
X89590476Y34076190D01*
X89638095Y34171428D01*
X89685714Y34219047D01*
X89780952Y34266666D01*
X89971428Y34266666D01*
X90066666Y34219047D01*
X90114285Y34171428D01*
X90161904Y34076190D01*
X89257142Y34647619D02*
X88638095Y34647619D01*
X88971428Y34266666D01*
X88828571Y34266666D01*
X88733333Y34219047D01*
X88685714Y34171428D01*
X88638095Y34076190D01*
X88638095Y33838095D01*
X88685714Y33742857D01*
X88733333Y33695238D01*
X88828571Y33647619D01*
X89114285Y33647619D01*
X89209523Y33695238D01*
X89257142Y33742857D01*
G04 #@! TO.C,C64*
X90642857Y35942857D02*
X90690476Y35895238D01*
X90833333Y35847619D01*
X90928571Y35847619D01*
X91071428Y35895238D01*
X91166666Y35990476D01*
X91214285Y36085714D01*
X91261904Y36276190D01*
X91261904Y36419047D01*
X91214285Y36609523D01*
X91166666Y36704761D01*
X91071428Y36800000D01*
X90928571Y36847619D01*
X90833333Y36847619D01*
X90690476Y36800000D01*
X90642857Y36752380D01*
X89785714Y36847619D02*
X89976190Y36847619D01*
X90071428Y36800000D01*
X90119047Y36752380D01*
X90214285Y36609523D01*
X90261904Y36419047D01*
X90261904Y36038095D01*
X90214285Y35942857D01*
X90166666Y35895238D01*
X90071428Y35847619D01*
X89880952Y35847619D01*
X89785714Y35895238D01*
X89738095Y35942857D01*
X89690476Y36038095D01*
X89690476Y36276190D01*
X89738095Y36371428D01*
X89785714Y36419047D01*
X89880952Y36466666D01*
X90071428Y36466666D01*
X90166666Y36419047D01*
X90214285Y36371428D01*
X90261904Y36276190D01*
X88833333Y36514285D02*
X88833333Y35847619D01*
X89071428Y36895238D02*
X89309523Y36180952D01*
X88690476Y36180952D01*
G04 #@! TO.C,R23*
X12302380Y24642857D02*
X11826190Y24976190D01*
X12302380Y25214285D02*
X11302380Y25214285D01*
X11302380Y24833333D01*
X11350000Y24738095D01*
X11397619Y24690476D01*
X11492857Y24642857D01*
X11635714Y24642857D01*
X11730952Y24690476D01*
X11778571Y24738095D01*
X11826190Y24833333D01*
X11826190Y25214285D01*
X11397619Y24261904D02*
X11350000Y24214285D01*
X11302380Y24119047D01*
X11302380Y23880952D01*
X11350000Y23785714D01*
X11397619Y23738095D01*
X11492857Y23690476D01*
X11588095Y23690476D01*
X11730952Y23738095D01*
X12302380Y24309523D01*
X12302380Y23690476D01*
X11302380Y23357142D02*
X11302380Y22738095D01*
X11683333Y23071428D01*
X11683333Y22928571D01*
X11730952Y22833333D01*
X11778571Y22785714D01*
X11873809Y22738095D01*
X12111904Y22738095D01*
X12207142Y22785714D01*
X12254761Y22833333D01*
X12302380Y22928571D01*
X12302380Y23214285D01*
X12254761Y23309523D01*
X12207142Y23357142D01*
G04 #@! TO.C,R24*
X14802380Y24642857D02*
X14326190Y24976190D01*
X14802380Y25214285D02*
X13802380Y25214285D01*
X13802380Y24833333D01*
X13850000Y24738095D01*
X13897619Y24690476D01*
X13992857Y24642857D01*
X14135714Y24642857D01*
X14230952Y24690476D01*
X14278571Y24738095D01*
X14326190Y24833333D01*
X14326190Y25214285D01*
X13897619Y24261904D02*
X13850000Y24214285D01*
X13802380Y24119047D01*
X13802380Y23880952D01*
X13850000Y23785714D01*
X13897619Y23738095D01*
X13992857Y23690476D01*
X14088095Y23690476D01*
X14230952Y23738095D01*
X14802380Y24309523D01*
X14802380Y23690476D01*
X14135714Y22833333D02*
X14802380Y22833333D01*
X13754761Y23071428D02*
X14469047Y23309523D01*
X14469047Y22690476D01*
G04 #@! TO.C,R25*
X17302380Y24642857D02*
X16826190Y24976190D01*
X17302380Y25214285D02*
X16302380Y25214285D01*
X16302380Y24833333D01*
X16350000Y24738095D01*
X16397619Y24690476D01*
X16492857Y24642857D01*
X16635714Y24642857D01*
X16730952Y24690476D01*
X16778571Y24738095D01*
X16826190Y24833333D01*
X16826190Y25214285D01*
X16397619Y24261904D02*
X16350000Y24214285D01*
X16302380Y24119047D01*
X16302380Y23880952D01*
X16350000Y23785714D01*
X16397619Y23738095D01*
X16492857Y23690476D01*
X16588095Y23690476D01*
X16730952Y23738095D01*
X17302380Y24309523D01*
X17302380Y23690476D01*
X16302380Y22785714D02*
X16302380Y23261904D01*
X16778571Y23309523D01*
X16730952Y23261904D01*
X16683333Y23166666D01*
X16683333Y22928571D01*
X16730952Y22833333D01*
X16778571Y22785714D01*
X16873809Y22738095D01*
X17111904Y22738095D01*
X17207142Y22785714D01*
X17254761Y22833333D01*
X17302380Y22928571D01*
X17302380Y23166666D01*
X17254761Y23261904D01*
X17207142Y23309523D01*
G04 #@! TD*
M02*
