G04 #@! TF.GenerationSoftware,KiCad,Pcbnew,5.0.2+dfsg1-1~bpo9+1*
G04 #@! TF.CreationDate,2019-05-15T23:25:40-04:00*
G04 #@! TF.ProjectId,SCARAMotorFeedbackController,53434152-414d-46f7-946f-724665656462,rev?*
G04 #@! TF.SameCoordinates,Original*
G04 #@! TF.FileFunction,Soldermask,Bot*
G04 #@! TF.FilePolarity,Negative*
%FSLAX46Y46*%
G04 Gerber Fmt 4.6, Leading zero omitted, Abs format (unit mm)*
G04 Created by KiCad (PCBNEW 5.0.2+dfsg1-1~bpo9+1) date Wed 15 May 2019 11:25:40 PM EDT*
%MOMM*%
%LPD*%
G01*
G04 APERTURE LIST*
%ADD10C,0.100000*%
G04 APERTURE END LIST*
D10*
G36*
X36746032Y5035793D02*
X36944146Y4975695D01*
X37126729Y4878103D01*
X37286765Y4746765D01*
X37418103Y4586729D01*
X37515695Y4404146D01*
X37575793Y4206032D01*
X37591000Y4051630D01*
X37591000Y2948370D01*
X37575793Y2793968D01*
X37515695Y2595854D01*
X37418103Y2413271D01*
X37418101Y2413269D01*
X37286768Y2253238D01*
X37286766Y2253237D01*
X37286765Y2253235D01*
X37126729Y2121897D01*
X36944145Y2024305D01*
X36746031Y1964207D01*
X36540000Y1943915D01*
X36333968Y1964207D01*
X36135854Y2024305D01*
X35953271Y2121897D01*
X35889257Y2174432D01*
X35793238Y2253232D01*
X35793237Y2253234D01*
X35793235Y2253235D01*
X35661897Y2413271D01*
X35564305Y2595855D01*
X35504207Y2793969D01*
X35489000Y2948371D01*
X35489000Y4051631D01*
X35504207Y4206028D01*
X35564306Y4404148D01*
X35661899Y4586731D01*
X35793236Y4746765D01*
X35953270Y4878101D01*
X35953272Y4878103D01*
X36135855Y4975695D01*
X36333969Y5035793D01*
X36540000Y5056085D01*
X36746032Y5035793D01*
X36746032Y5035793D01*
G37*
G36*
X39286032Y5035793D02*
X39484146Y4975695D01*
X39666729Y4878103D01*
X39826765Y4746765D01*
X39958103Y4586729D01*
X40055695Y4404146D01*
X40115793Y4206032D01*
X40131000Y4051630D01*
X40131000Y2948370D01*
X40115793Y2793968D01*
X40055695Y2595854D01*
X39958103Y2413271D01*
X39958101Y2413269D01*
X39826768Y2253238D01*
X39826766Y2253237D01*
X39826765Y2253235D01*
X39666729Y2121897D01*
X39484145Y2024305D01*
X39286031Y1964207D01*
X39080000Y1943915D01*
X38873968Y1964207D01*
X38675854Y2024305D01*
X38493271Y2121897D01*
X38429257Y2174432D01*
X38333238Y2253232D01*
X38333237Y2253234D01*
X38333235Y2253235D01*
X38201897Y2413271D01*
X38104305Y2595855D01*
X38044207Y2793969D01*
X38029000Y2948371D01*
X38029000Y4051631D01*
X38044207Y4206028D01*
X38104306Y4404148D01*
X38201899Y4586731D01*
X38333236Y4746765D01*
X38493270Y4878101D01*
X38493272Y4878103D01*
X38675855Y4975695D01*
X38873969Y5035793D01*
X39080000Y5056085D01*
X39286032Y5035793D01*
X39286032Y5035793D01*
G37*
G36*
X22786032Y5035793D02*
X22984146Y4975695D01*
X23166729Y4878103D01*
X23326765Y4746765D01*
X23458103Y4586729D01*
X23555695Y4404146D01*
X23615793Y4206032D01*
X23631000Y4051630D01*
X23631000Y2948370D01*
X23615793Y2793968D01*
X23555695Y2595854D01*
X23458103Y2413271D01*
X23458101Y2413269D01*
X23326768Y2253238D01*
X23326766Y2253237D01*
X23326765Y2253235D01*
X23166729Y2121897D01*
X22984145Y2024305D01*
X22786031Y1964207D01*
X22580000Y1943915D01*
X22373968Y1964207D01*
X22175854Y2024305D01*
X21993271Y2121897D01*
X21929257Y2174432D01*
X21833238Y2253232D01*
X21833237Y2253234D01*
X21833235Y2253235D01*
X21701897Y2413271D01*
X21604305Y2595855D01*
X21544207Y2793969D01*
X21529000Y2948371D01*
X21529000Y4051631D01*
X21544207Y4206028D01*
X21604306Y4404148D01*
X21701899Y4586731D01*
X21833236Y4746765D01*
X21993270Y4878101D01*
X21993272Y4878103D01*
X22175855Y4975695D01*
X22373969Y5035793D01*
X22580000Y5056085D01*
X22786032Y5035793D01*
X22786032Y5035793D01*
G37*
G36*
X20246032Y5035793D02*
X20444146Y4975695D01*
X20626729Y4878103D01*
X20786765Y4746765D01*
X20918103Y4586729D01*
X21015695Y4404146D01*
X21075793Y4206032D01*
X21091000Y4051630D01*
X21091000Y2948370D01*
X21075793Y2793968D01*
X21015695Y2595854D01*
X20918103Y2413271D01*
X20918101Y2413269D01*
X20786768Y2253238D01*
X20786766Y2253237D01*
X20786765Y2253235D01*
X20626729Y2121897D01*
X20444145Y2024305D01*
X20246031Y1964207D01*
X20040000Y1943915D01*
X19833968Y1964207D01*
X19635854Y2024305D01*
X19453271Y2121897D01*
X19389257Y2174432D01*
X19293238Y2253232D01*
X19293237Y2253234D01*
X19293235Y2253235D01*
X19161897Y2413271D01*
X19064305Y2595855D01*
X19004207Y2793969D01*
X18989000Y2948371D01*
X18989000Y4051631D01*
X19004207Y4206028D01*
X19064306Y4404148D01*
X19161899Y4586731D01*
X19293236Y4746765D01*
X19453270Y4878101D01*
X19453272Y4878103D01*
X19635855Y4975695D01*
X19833969Y5035793D01*
X20040000Y5056085D01*
X20246032Y5035793D01*
X20246032Y5035793D01*
G37*
G36*
X17706032Y5035793D02*
X17904146Y4975695D01*
X18086729Y4878103D01*
X18246765Y4746765D01*
X18378103Y4586729D01*
X18475695Y4404146D01*
X18535793Y4206032D01*
X18551000Y4051630D01*
X18551000Y2948370D01*
X18535793Y2793968D01*
X18475695Y2595854D01*
X18378103Y2413271D01*
X18378101Y2413269D01*
X18246768Y2253238D01*
X18246766Y2253237D01*
X18246765Y2253235D01*
X18086729Y2121897D01*
X17904145Y2024305D01*
X17706031Y1964207D01*
X17500000Y1943915D01*
X17293968Y1964207D01*
X17095854Y2024305D01*
X16913271Y2121897D01*
X16849257Y2174432D01*
X16753238Y2253232D01*
X16753237Y2253234D01*
X16753235Y2253235D01*
X16621897Y2413271D01*
X16524305Y2595855D01*
X16464207Y2793969D01*
X16449000Y2948371D01*
X16449000Y4051631D01*
X16464207Y4206028D01*
X16524306Y4404148D01*
X16621899Y4586731D01*
X16753236Y4746765D01*
X16913270Y4878101D01*
X16913272Y4878103D01*
X17095855Y4975695D01*
X17293969Y5035793D01*
X17500000Y5056085D01*
X17706032Y5035793D01*
X17706032Y5035793D01*
G37*
G36*
X15166032Y5035793D02*
X15364146Y4975695D01*
X15546729Y4878103D01*
X15706765Y4746765D01*
X15838103Y4586729D01*
X15935695Y4404146D01*
X15995793Y4206032D01*
X16011000Y4051630D01*
X16011000Y2948370D01*
X15995793Y2793968D01*
X15935695Y2595854D01*
X15838103Y2413271D01*
X15838101Y2413269D01*
X15706768Y2253238D01*
X15706766Y2253237D01*
X15706765Y2253235D01*
X15546729Y2121897D01*
X15364145Y2024305D01*
X15166031Y1964207D01*
X14960000Y1943915D01*
X14753968Y1964207D01*
X14555854Y2024305D01*
X14373271Y2121897D01*
X14309257Y2174432D01*
X14213238Y2253232D01*
X14213237Y2253234D01*
X14213235Y2253235D01*
X14081897Y2413271D01*
X13984305Y2595855D01*
X13924207Y2793969D01*
X13909000Y2948371D01*
X13909000Y4051631D01*
X13924207Y4206028D01*
X13984306Y4404148D01*
X14081899Y4586731D01*
X14213236Y4746765D01*
X14373270Y4878101D01*
X14373272Y4878103D01*
X14555855Y4975695D01*
X14753969Y5035793D01*
X14960000Y5056085D01*
X15166032Y5035793D01*
X15166032Y5035793D01*
G37*
G36*
X12626032Y5035793D02*
X12824146Y4975695D01*
X13006729Y4878103D01*
X13166765Y4746765D01*
X13298103Y4586729D01*
X13395695Y4404146D01*
X13455793Y4206032D01*
X13471000Y4051630D01*
X13471000Y2948370D01*
X13455793Y2793968D01*
X13395695Y2595854D01*
X13298103Y2413271D01*
X13298101Y2413269D01*
X13166768Y2253238D01*
X13166766Y2253237D01*
X13166765Y2253235D01*
X13006729Y2121897D01*
X12824145Y2024305D01*
X12626031Y1964207D01*
X12420000Y1943915D01*
X12213968Y1964207D01*
X12015854Y2024305D01*
X11833271Y2121897D01*
X11769257Y2174432D01*
X11673238Y2253232D01*
X11673237Y2253234D01*
X11673235Y2253235D01*
X11541897Y2413271D01*
X11444305Y2595855D01*
X11384207Y2793969D01*
X11369000Y2948371D01*
X11369000Y4051631D01*
X11384207Y4206028D01*
X11444306Y4404148D01*
X11541899Y4586731D01*
X11673236Y4746765D01*
X11833270Y4878101D01*
X11833272Y4878103D01*
X12015855Y4975695D01*
X12213969Y5035793D01*
X12420000Y5056085D01*
X12626032Y5035793D01*
X12626032Y5035793D01*
G37*
G36*
X29126032Y5035793D02*
X29324146Y4975695D01*
X29506729Y4878103D01*
X29666765Y4746765D01*
X29798103Y4586729D01*
X29895695Y4404146D01*
X29955793Y4206032D01*
X29971000Y4051630D01*
X29971000Y2948370D01*
X29955793Y2793968D01*
X29895695Y2595854D01*
X29798103Y2413271D01*
X29798101Y2413269D01*
X29666768Y2253238D01*
X29666766Y2253237D01*
X29666765Y2253235D01*
X29506729Y2121897D01*
X29324145Y2024305D01*
X29126031Y1964207D01*
X28920000Y1943915D01*
X28713968Y1964207D01*
X28515854Y2024305D01*
X28333271Y2121897D01*
X28269257Y2174432D01*
X28173238Y2253232D01*
X28173237Y2253234D01*
X28173235Y2253235D01*
X28041897Y2413271D01*
X27944305Y2595855D01*
X27884207Y2793969D01*
X27869000Y2948371D01*
X27869000Y4051631D01*
X27884207Y4206028D01*
X27944306Y4404148D01*
X28041899Y4586731D01*
X28173236Y4746765D01*
X28333270Y4878101D01*
X28333272Y4878103D01*
X28515855Y4975695D01*
X28713969Y5035793D01*
X28920000Y5056085D01*
X29126032Y5035793D01*
X29126032Y5035793D01*
G37*
G36*
X31666032Y5035793D02*
X31864146Y4975695D01*
X32046729Y4878103D01*
X32206765Y4746765D01*
X32338103Y4586729D01*
X32435695Y4404146D01*
X32495793Y4206032D01*
X32511000Y4051630D01*
X32511000Y2948370D01*
X32495793Y2793968D01*
X32435695Y2595854D01*
X32338103Y2413271D01*
X32338101Y2413269D01*
X32206768Y2253238D01*
X32206766Y2253237D01*
X32206765Y2253235D01*
X32046729Y2121897D01*
X31864145Y2024305D01*
X31666031Y1964207D01*
X31460000Y1943915D01*
X31253968Y1964207D01*
X31055854Y2024305D01*
X30873271Y2121897D01*
X30809257Y2174432D01*
X30713238Y2253232D01*
X30713237Y2253234D01*
X30713235Y2253235D01*
X30581897Y2413271D01*
X30484305Y2595855D01*
X30424207Y2793969D01*
X30409000Y2948371D01*
X30409000Y4051631D01*
X30424207Y4206028D01*
X30484306Y4404148D01*
X30581899Y4586731D01*
X30713236Y4746765D01*
X30873270Y4878101D01*
X30873272Y4878103D01*
X31055855Y4975695D01*
X31253969Y5035793D01*
X31460000Y5056085D01*
X31666032Y5035793D01*
X31666032Y5035793D01*
G37*
G36*
X34206032Y5035793D02*
X34404146Y4975695D01*
X34586729Y4878103D01*
X34746765Y4746765D01*
X34878103Y4586729D01*
X34975695Y4404146D01*
X35035793Y4206032D01*
X35051000Y4051630D01*
X35051000Y2948370D01*
X35035793Y2793968D01*
X34975695Y2595854D01*
X34878103Y2413271D01*
X34878101Y2413269D01*
X34746768Y2253238D01*
X34746766Y2253237D01*
X34746765Y2253235D01*
X34586729Y2121897D01*
X34404145Y2024305D01*
X34206031Y1964207D01*
X34000000Y1943915D01*
X33793968Y1964207D01*
X33595854Y2024305D01*
X33413271Y2121897D01*
X33349257Y2174432D01*
X33253238Y2253232D01*
X33253237Y2253234D01*
X33253235Y2253235D01*
X33121897Y2413271D01*
X33024305Y2595855D01*
X32964207Y2793969D01*
X32949000Y2948371D01*
X32949000Y4051631D01*
X32964207Y4206028D01*
X33024306Y4404148D01*
X33121899Y4586731D01*
X33253236Y4746765D01*
X33413270Y4878101D01*
X33413272Y4878103D01*
X33595855Y4975695D01*
X33793969Y5035793D01*
X34000000Y5056085D01*
X34206032Y5035793D01*
X34206032Y5035793D01*
G37*
G36*
X71286032Y5035793D02*
X71484146Y4975695D01*
X71666729Y4878103D01*
X71826765Y4746765D01*
X71958103Y4586729D01*
X72055695Y4404146D01*
X72115793Y4206032D01*
X72131000Y4051630D01*
X72131000Y2948370D01*
X72115793Y2793968D01*
X72055695Y2595854D01*
X71958103Y2413271D01*
X71958101Y2413269D01*
X71826768Y2253238D01*
X71826766Y2253237D01*
X71826765Y2253235D01*
X71666729Y2121897D01*
X71484145Y2024305D01*
X71286031Y1964207D01*
X71080000Y1943915D01*
X70873968Y1964207D01*
X70675854Y2024305D01*
X70493271Y2121897D01*
X70429257Y2174432D01*
X70333238Y2253232D01*
X70333237Y2253234D01*
X70333235Y2253235D01*
X70201897Y2413271D01*
X70104305Y2595855D01*
X70044207Y2793969D01*
X70029000Y2948371D01*
X70029000Y4051631D01*
X70044207Y4206028D01*
X70104306Y4404148D01*
X70201899Y4586731D01*
X70333236Y4746765D01*
X70493270Y4878101D01*
X70493272Y4878103D01*
X70675855Y4975695D01*
X70873969Y5035793D01*
X71080000Y5056085D01*
X71286032Y5035793D01*
X71286032Y5035793D01*
G37*
G36*
X68746032Y5035793D02*
X68944146Y4975695D01*
X69126729Y4878103D01*
X69286765Y4746765D01*
X69418103Y4586729D01*
X69515695Y4404146D01*
X69575793Y4206032D01*
X69591000Y4051630D01*
X69591000Y2948370D01*
X69575793Y2793968D01*
X69515695Y2595854D01*
X69418103Y2413271D01*
X69418101Y2413269D01*
X69286768Y2253238D01*
X69286766Y2253237D01*
X69286765Y2253235D01*
X69126729Y2121897D01*
X68944145Y2024305D01*
X68746031Y1964207D01*
X68540000Y1943915D01*
X68333968Y1964207D01*
X68135854Y2024305D01*
X67953271Y2121897D01*
X67889257Y2174432D01*
X67793238Y2253232D01*
X67793237Y2253234D01*
X67793235Y2253235D01*
X67661897Y2413271D01*
X67564305Y2595855D01*
X67504207Y2793969D01*
X67489000Y2948371D01*
X67489000Y4051631D01*
X67504207Y4206028D01*
X67564306Y4404148D01*
X67661899Y4586731D01*
X67793236Y4746765D01*
X67953270Y4878101D01*
X67953272Y4878103D01*
X68135855Y4975695D01*
X68333969Y5035793D01*
X68540000Y5056085D01*
X68746032Y5035793D01*
X68746032Y5035793D01*
G37*
G36*
X66206032Y5035793D02*
X66404146Y4975695D01*
X66586729Y4878103D01*
X66746765Y4746765D01*
X66878103Y4586729D01*
X66975695Y4404146D01*
X67035793Y4206032D01*
X67051000Y4051630D01*
X67051000Y2948370D01*
X67035793Y2793968D01*
X66975695Y2595854D01*
X66878103Y2413271D01*
X66878101Y2413269D01*
X66746768Y2253238D01*
X66746766Y2253237D01*
X66746765Y2253235D01*
X66586729Y2121897D01*
X66404145Y2024305D01*
X66206031Y1964207D01*
X66000000Y1943915D01*
X65793968Y1964207D01*
X65595854Y2024305D01*
X65413271Y2121897D01*
X65349257Y2174432D01*
X65253238Y2253232D01*
X65253237Y2253234D01*
X65253235Y2253235D01*
X65121897Y2413271D01*
X65024305Y2595855D01*
X64964207Y2793969D01*
X64949000Y2948371D01*
X64949000Y4051631D01*
X64964207Y4206028D01*
X65024306Y4404148D01*
X65121899Y4586731D01*
X65253236Y4746765D01*
X65413270Y4878101D01*
X65413272Y4878103D01*
X65595855Y4975695D01*
X65793969Y5035793D01*
X66000000Y5056085D01*
X66206032Y5035793D01*
X66206032Y5035793D01*
G37*
G36*
X63666032Y5035793D02*
X63864146Y4975695D01*
X64046729Y4878103D01*
X64206765Y4746765D01*
X64338103Y4586729D01*
X64435695Y4404146D01*
X64495793Y4206032D01*
X64511000Y4051630D01*
X64511000Y2948370D01*
X64495793Y2793968D01*
X64435695Y2595854D01*
X64338103Y2413271D01*
X64338101Y2413269D01*
X64206768Y2253238D01*
X64206766Y2253237D01*
X64206765Y2253235D01*
X64046729Y2121897D01*
X63864145Y2024305D01*
X63666031Y1964207D01*
X63460000Y1943915D01*
X63253968Y1964207D01*
X63055854Y2024305D01*
X62873271Y2121897D01*
X62809257Y2174432D01*
X62713238Y2253232D01*
X62713237Y2253234D01*
X62713235Y2253235D01*
X62581897Y2413271D01*
X62484305Y2595855D01*
X62424207Y2793969D01*
X62409000Y2948371D01*
X62409000Y4051631D01*
X62424207Y4206028D01*
X62484306Y4404148D01*
X62581899Y4586731D01*
X62713236Y4746765D01*
X62873270Y4878101D01*
X62873272Y4878103D01*
X63055855Y4975695D01*
X63253969Y5035793D01*
X63460000Y5056085D01*
X63666032Y5035793D01*
X63666032Y5035793D01*
G37*
G36*
X61126032Y5035793D02*
X61324146Y4975695D01*
X61506729Y4878103D01*
X61666765Y4746765D01*
X61798103Y4586729D01*
X61895695Y4404146D01*
X61955793Y4206032D01*
X61971000Y4051630D01*
X61971000Y2948370D01*
X61955793Y2793968D01*
X61895695Y2595854D01*
X61798103Y2413271D01*
X61798101Y2413269D01*
X61666768Y2253238D01*
X61666766Y2253237D01*
X61666765Y2253235D01*
X61506729Y2121897D01*
X61324145Y2024305D01*
X61126031Y1964207D01*
X60920000Y1943915D01*
X60713968Y1964207D01*
X60515854Y2024305D01*
X60333271Y2121897D01*
X60269257Y2174432D01*
X60173238Y2253232D01*
X60173237Y2253234D01*
X60173235Y2253235D01*
X60041897Y2413271D01*
X59944305Y2595855D01*
X59884207Y2793969D01*
X59869000Y2948371D01*
X59869000Y4051631D01*
X59884207Y4206028D01*
X59944306Y4404148D01*
X60041899Y4586731D01*
X60173236Y4746765D01*
X60333270Y4878101D01*
X60333272Y4878103D01*
X60515855Y4975695D01*
X60713969Y5035793D01*
X60920000Y5056085D01*
X61126032Y5035793D01*
X61126032Y5035793D01*
G37*
G36*
X54016032Y5035793D02*
X54214146Y4975695D01*
X54396729Y4878103D01*
X54556765Y4746765D01*
X54688103Y4586729D01*
X54785695Y4404146D01*
X54845793Y4206032D01*
X54861000Y4051630D01*
X54861000Y2948370D01*
X54845793Y2793968D01*
X54785695Y2595854D01*
X54688103Y2413271D01*
X54688101Y2413269D01*
X54556768Y2253238D01*
X54556766Y2253237D01*
X54556765Y2253235D01*
X54396729Y2121897D01*
X54214145Y2024305D01*
X54016031Y1964207D01*
X53810000Y1943915D01*
X53603968Y1964207D01*
X53405854Y2024305D01*
X53223271Y2121897D01*
X53159257Y2174432D01*
X53063238Y2253232D01*
X53063237Y2253234D01*
X53063235Y2253235D01*
X52931897Y2413271D01*
X52834305Y2595855D01*
X52774207Y2793969D01*
X52759000Y2948371D01*
X52759000Y4051631D01*
X52774207Y4206028D01*
X52834306Y4404148D01*
X52931899Y4586731D01*
X53063236Y4746765D01*
X53223270Y4878101D01*
X53223272Y4878103D01*
X53405855Y4975695D01*
X53603969Y5035793D01*
X53810000Y5056085D01*
X54016032Y5035793D01*
X54016032Y5035793D01*
G37*
G36*
X51476032Y5035793D02*
X51674146Y4975695D01*
X51856729Y4878103D01*
X52016765Y4746765D01*
X52148103Y4586729D01*
X52245695Y4404146D01*
X52305793Y4206032D01*
X52321000Y4051630D01*
X52321000Y2948370D01*
X52305793Y2793968D01*
X52245695Y2595854D01*
X52148103Y2413271D01*
X52148101Y2413269D01*
X52016768Y2253238D01*
X52016766Y2253237D01*
X52016765Y2253235D01*
X51856729Y2121897D01*
X51674145Y2024305D01*
X51476031Y1964207D01*
X51270000Y1943915D01*
X51063968Y1964207D01*
X50865854Y2024305D01*
X50683271Y2121897D01*
X50619257Y2174432D01*
X50523238Y2253232D01*
X50523237Y2253234D01*
X50523235Y2253235D01*
X50391897Y2413271D01*
X50294305Y2595855D01*
X50234207Y2793969D01*
X50219000Y2948371D01*
X50219000Y4051631D01*
X50234207Y4206028D01*
X50294306Y4404148D01*
X50391899Y4586731D01*
X50523236Y4746765D01*
X50683270Y4878101D01*
X50683272Y4878103D01*
X50865855Y4975695D01*
X51063969Y5035793D01*
X51270000Y5056085D01*
X51476032Y5035793D01*
X51476032Y5035793D01*
G37*
G36*
X48936032Y5035793D02*
X49134146Y4975695D01*
X49316729Y4878103D01*
X49476765Y4746765D01*
X49608103Y4586729D01*
X49705695Y4404146D01*
X49765793Y4206032D01*
X49781000Y4051630D01*
X49781000Y2948370D01*
X49765793Y2793968D01*
X49705695Y2595854D01*
X49608103Y2413271D01*
X49608101Y2413269D01*
X49476768Y2253238D01*
X49476766Y2253237D01*
X49476765Y2253235D01*
X49316729Y2121897D01*
X49134145Y2024305D01*
X48936031Y1964207D01*
X48730000Y1943915D01*
X48523968Y1964207D01*
X48325854Y2024305D01*
X48143271Y2121897D01*
X48079257Y2174432D01*
X47983238Y2253232D01*
X47983237Y2253234D01*
X47983235Y2253235D01*
X47851897Y2413271D01*
X47754305Y2595855D01*
X47694207Y2793969D01*
X47679000Y2948371D01*
X47679000Y4051631D01*
X47694207Y4206028D01*
X47754306Y4404148D01*
X47851899Y4586731D01*
X47983236Y4746765D01*
X48143270Y4878101D01*
X48143272Y4878103D01*
X48325855Y4975695D01*
X48523969Y5035793D01*
X48730000Y5056085D01*
X48936032Y5035793D01*
X48936032Y5035793D01*
G37*
G36*
X46396032Y5035793D02*
X46594146Y4975695D01*
X46776729Y4878103D01*
X46936765Y4746765D01*
X47068103Y4586729D01*
X47165695Y4404146D01*
X47225793Y4206032D01*
X47241000Y4051630D01*
X47241000Y2948370D01*
X47225793Y2793968D01*
X47165695Y2595854D01*
X47068103Y2413271D01*
X47068101Y2413269D01*
X46936768Y2253238D01*
X46936766Y2253237D01*
X46936765Y2253235D01*
X46776729Y2121897D01*
X46594145Y2024305D01*
X46396031Y1964207D01*
X46190000Y1943915D01*
X45983968Y1964207D01*
X45785854Y2024305D01*
X45603271Y2121897D01*
X45539257Y2174432D01*
X45443238Y2253232D01*
X45443237Y2253234D01*
X45443235Y2253235D01*
X45311897Y2413271D01*
X45214305Y2595855D01*
X45154207Y2793969D01*
X45139000Y2948371D01*
X45139000Y4051631D01*
X45154207Y4206028D01*
X45214306Y4404148D01*
X45311899Y4586731D01*
X45443236Y4746765D01*
X45603270Y4878101D01*
X45603272Y4878103D01*
X45785855Y4975695D01*
X45983969Y5035793D01*
X46190000Y5056085D01*
X46396032Y5035793D01*
X46396032Y5035793D01*
G37*
G36*
X90304049Y6528558D02*
X90498959Y6469433D01*
X90596415Y6439870D01*
X90694690Y6387340D01*
X90865858Y6295849D01*
X91102029Y6102029D01*
X91295849Y5865858D01*
X91387340Y5694690D01*
X91439870Y5596415D01*
X91439870Y5596414D01*
X91528558Y5304049D01*
X91551000Y5076190D01*
X91551000Y3923810D01*
X91528558Y3695951D01*
X91469433Y3501041D01*
X91439870Y3403585D01*
X91387340Y3305310D01*
X91295849Y3134142D01*
X91295847Y3134140D01*
X91102032Y2897974D01*
X91102030Y2897973D01*
X91102029Y2897971D01*
X90865857Y2704151D01*
X90731135Y2632140D01*
X90596414Y2560130D01*
X90498958Y2530567D01*
X90304048Y2471442D01*
X90000000Y2441496D01*
X89695951Y2471442D01*
X89501041Y2530567D01*
X89403585Y2560130D01*
X89305310Y2612660D01*
X89134142Y2704151D01*
X89024693Y2793973D01*
X88897974Y2897968D01*
X88897973Y2897970D01*
X88897971Y2897971D01*
X88704151Y3134143D01*
X88560131Y3403585D01*
X88560130Y3403586D01*
X88530567Y3501042D01*
X88471442Y3695952D01*
X88449000Y3923811D01*
X88449000Y5076190D01*
X88471442Y5304049D01*
X88560130Y5596414D01*
X88560130Y5596415D01*
X88612660Y5694690D01*
X88704151Y5865858D01*
X88897972Y6102029D01*
X89134143Y6295849D01*
X89305311Y6387340D01*
X89403586Y6439870D01*
X89501042Y6469433D01*
X89695952Y6528558D01*
X90000000Y6558504D01*
X90304049Y6528558D01*
X90304049Y6528558D01*
G37*
G36*
X100304049Y6528558D02*
X100498959Y6469433D01*
X100596415Y6439870D01*
X100694690Y6387340D01*
X100865858Y6295849D01*
X101102029Y6102029D01*
X101295849Y5865858D01*
X101387340Y5694690D01*
X101439870Y5596415D01*
X101439870Y5596414D01*
X101528558Y5304049D01*
X101551000Y5076190D01*
X101551000Y3923810D01*
X101528558Y3695951D01*
X101469433Y3501041D01*
X101439870Y3403585D01*
X101387340Y3305310D01*
X101295849Y3134142D01*
X101295847Y3134140D01*
X101102032Y2897974D01*
X101102030Y2897973D01*
X101102029Y2897971D01*
X100865857Y2704151D01*
X100731135Y2632140D01*
X100596414Y2560130D01*
X100498958Y2530567D01*
X100304048Y2471442D01*
X100000000Y2441496D01*
X99695951Y2471442D01*
X99501041Y2530567D01*
X99403585Y2560130D01*
X99305310Y2612660D01*
X99134142Y2704151D01*
X99024693Y2793973D01*
X98897974Y2897968D01*
X98897973Y2897970D01*
X98897971Y2897971D01*
X98704151Y3134143D01*
X98560131Y3403585D01*
X98560130Y3403586D01*
X98530567Y3501042D01*
X98471442Y3695952D01*
X98449000Y3923811D01*
X98449000Y5076190D01*
X98471442Y5304049D01*
X98560130Y5596414D01*
X98560130Y5596415D01*
X98612660Y5694690D01*
X98704151Y5865858D01*
X98897972Y6102029D01*
X99134143Y6295849D01*
X99305311Y6387340D01*
X99403586Y6439870D01*
X99501042Y6469433D01*
X99695952Y6528558D01*
X100000000Y6558504D01*
X100304049Y6528558D01*
X100304049Y6528558D01*
G37*
G36*
X95304049Y6528558D02*
X95498959Y6469433D01*
X95596415Y6439870D01*
X95694690Y6387340D01*
X95865858Y6295849D01*
X96102029Y6102029D01*
X96295849Y5865858D01*
X96387340Y5694690D01*
X96439870Y5596415D01*
X96439870Y5596414D01*
X96528558Y5304049D01*
X96551000Y5076190D01*
X96551000Y3923810D01*
X96528558Y3695951D01*
X96469433Y3501041D01*
X96439870Y3403585D01*
X96387340Y3305310D01*
X96295849Y3134142D01*
X96295847Y3134140D01*
X96102032Y2897974D01*
X96102030Y2897973D01*
X96102029Y2897971D01*
X95865857Y2704151D01*
X95731135Y2632140D01*
X95596414Y2560130D01*
X95498958Y2530567D01*
X95304048Y2471442D01*
X95000000Y2441496D01*
X94695951Y2471442D01*
X94501041Y2530567D01*
X94403585Y2560130D01*
X94305310Y2612660D01*
X94134142Y2704151D01*
X94024693Y2793973D01*
X93897974Y2897968D01*
X93897973Y2897970D01*
X93897971Y2897971D01*
X93704151Y3134143D01*
X93560131Y3403585D01*
X93560130Y3403586D01*
X93530567Y3501042D01*
X93471442Y3695952D01*
X93449000Y3923811D01*
X93449000Y5076190D01*
X93471442Y5304049D01*
X93560130Y5596414D01*
X93560130Y5596415D01*
X93612660Y5694690D01*
X93704151Y5865858D01*
X93897972Y6102029D01*
X94134143Y6295849D01*
X94305311Y6387340D01*
X94403586Y6439870D01*
X94501042Y6469433D01*
X94695952Y6528558D01*
X95000000Y6558504D01*
X95304049Y6528558D01*
X95304049Y6528558D01*
G37*
G36*
X5375256Y19108702D02*
X5481579Y19087553D01*
X5782042Y18963097D01*
X6048852Y18784820D01*
X6052454Y18782413D01*
X6282413Y18552454D01*
X6463098Y18282040D01*
X6587553Y17981578D01*
X6651000Y17662611D01*
X6651000Y17337389D01*
X6587553Y17018422D01*
X6463098Y16717960D01*
X6282413Y16447546D01*
X6052454Y16217587D01*
X6052451Y16217585D01*
X5782042Y16036903D01*
X5481579Y15912447D01*
X5375256Y15891298D01*
X5162611Y15849000D01*
X4837389Y15849000D01*
X4624744Y15891298D01*
X4518421Y15912447D01*
X4217958Y16036903D01*
X3947549Y16217585D01*
X3947546Y16217587D01*
X3717587Y16447546D01*
X3536902Y16717960D01*
X3412447Y17018422D01*
X3349000Y17337389D01*
X3349000Y17662611D01*
X3412447Y17981578D01*
X3536902Y18282040D01*
X3717587Y18552454D01*
X3947546Y18782413D01*
X3951148Y18784820D01*
X4217958Y18963097D01*
X4518421Y19087553D01*
X4624744Y19108702D01*
X4837389Y19151000D01*
X5162611Y19151000D01*
X5375256Y19108702D01*
X5375256Y19108702D01*
G37*
G36*
X115375256Y19108702D02*
X115481579Y19087553D01*
X115782042Y18963097D01*
X116048852Y18784820D01*
X116052454Y18782413D01*
X116282413Y18552454D01*
X116463098Y18282040D01*
X116587553Y17981578D01*
X116651000Y17662611D01*
X116651000Y17337389D01*
X116587553Y17018422D01*
X116463098Y16717960D01*
X116282413Y16447546D01*
X116052454Y16217587D01*
X116052451Y16217585D01*
X115782042Y16036903D01*
X115481579Y15912447D01*
X115375256Y15891298D01*
X115162611Y15849000D01*
X114837389Y15849000D01*
X114624744Y15891298D01*
X114518421Y15912447D01*
X114217958Y16036903D01*
X113947549Y16217585D01*
X113947546Y16217587D01*
X113717587Y16447546D01*
X113536902Y16717960D01*
X113412447Y17018422D01*
X113349000Y17337389D01*
X113349000Y17662611D01*
X113412447Y17981578D01*
X113536902Y18282040D01*
X113717587Y18552454D01*
X113947546Y18782413D01*
X113951148Y18784820D01*
X114217958Y18963097D01*
X114518421Y19087553D01*
X114624744Y19108702D01*
X114837389Y19151000D01*
X115162611Y19151000D01*
X115375256Y19108702D01*
X115375256Y19108702D01*
G37*
G36*
X101183635Y38738981D02*
X101364903Y38702925D01*
X101592571Y38608622D01*
X101796542Y38472332D01*
X101797469Y38471713D01*
X101971713Y38297469D01*
X101971715Y38297466D01*
X102108622Y38092571D01*
X102202925Y37864903D01*
X102251000Y37623213D01*
X102251000Y37376787D01*
X102202925Y37135097D01*
X102108622Y36907429D01*
X101972332Y36703458D01*
X101971713Y36702531D01*
X101797469Y36528287D01*
X101797466Y36528285D01*
X101592571Y36391378D01*
X101364903Y36297075D01*
X101183635Y36261019D01*
X101123214Y36249000D01*
X100876786Y36249000D01*
X100816365Y36261019D01*
X100635097Y36297075D01*
X100407429Y36391378D01*
X100202534Y36528285D01*
X100202531Y36528287D01*
X100028287Y36702531D01*
X100027668Y36703458D01*
X99891378Y36907429D01*
X99797075Y37135097D01*
X99749000Y37376787D01*
X99749000Y37623213D01*
X99797075Y37864903D01*
X99891378Y38092571D01*
X100028285Y38297466D01*
X100028287Y38297469D01*
X100202531Y38471713D01*
X100203458Y38472332D01*
X100407429Y38608622D01*
X100635097Y38702925D01*
X100816365Y38738981D01*
X100876786Y38751000D01*
X101123214Y38751000D01*
X101183635Y38738981D01*
X101183635Y38738981D01*
G37*
G36*
X107251000Y36249000D02*
X104749000Y36249000D01*
X104749000Y38751000D01*
X107251000Y38751000D01*
X107251000Y36249000D01*
X107251000Y36249000D01*
G37*
G36*
X107251000Y60249000D02*
X104749000Y60249000D01*
X104749000Y62751000D01*
X107251000Y62751000D01*
X107251000Y60249000D01*
X107251000Y60249000D01*
G37*
G36*
X101183635Y62738981D02*
X101364903Y62702925D01*
X101592571Y62608622D01*
X101796542Y62472332D01*
X101797469Y62471713D01*
X101971713Y62297469D01*
X101971715Y62297466D01*
X102108622Y62092571D01*
X102202925Y61864903D01*
X102251000Y61623213D01*
X102251000Y61376787D01*
X102202925Y61135097D01*
X102108622Y60907429D01*
X101972332Y60703458D01*
X101971713Y60702531D01*
X101797469Y60528287D01*
X101797466Y60528285D01*
X101592571Y60391378D01*
X101364903Y60297075D01*
X101183635Y60261019D01*
X101123214Y60249000D01*
X100876786Y60249000D01*
X100816365Y60261019D01*
X100635097Y60297075D01*
X100407429Y60391378D01*
X100202534Y60528285D01*
X100202531Y60528287D01*
X100028287Y60702531D01*
X100027668Y60703458D01*
X99891378Y60907429D01*
X99797075Y61135097D01*
X99749000Y61376787D01*
X99749000Y61623213D01*
X99797075Y61864903D01*
X99891378Y62092571D01*
X100028285Y62297466D01*
X100028287Y62297469D01*
X100202531Y62471713D01*
X100203458Y62472332D01*
X100407429Y62608622D01*
X100635097Y62702925D01*
X100816365Y62738981D01*
X100876786Y62751000D01*
X101123214Y62751000D01*
X101183635Y62738981D01*
X101183635Y62738981D01*
G37*
G36*
X34700319Y76355863D02*
X34751967Y76345590D01*
X34824945Y76315361D01*
X34890625Y76271475D01*
X34946475Y76215625D01*
X34946477Y76215622D01*
X34990361Y76149945D01*
X35020590Y76076967D01*
X35036000Y75999495D01*
X35036000Y75920505D01*
X35020590Y75843033D01*
X34990361Y75770055D01*
X34946475Y75704375D01*
X34890625Y75648525D01*
X34890622Y75648523D01*
X34824945Y75604639D01*
X34751967Y75574410D01*
X34700319Y75564137D01*
X34674496Y75559000D01*
X34595504Y75559000D01*
X34569681Y75564137D01*
X34518033Y75574410D01*
X34445055Y75604639D01*
X34379378Y75648523D01*
X34379375Y75648525D01*
X34323525Y75704375D01*
X34279639Y75770055D01*
X34249410Y75843033D01*
X34234000Y75920505D01*
X34234000Y75999495D01*
X34249410Y76076967D01*
X34279639Y76149945D01*
X34323523Y76215622D01*
X34323525Y76215625D01*
X34379375Y76271475D01*
X34445055Y76315361D01*
X34518033Y76345590D01*
X34569681Y76355863D01*
X34595504Y76361000D01*
X34674496Y76361000D01*
X34700319Y76355863D01*
X34700319Y76355863D01*
G37*
G36*
X33430319Y76355863D02*
X33481967Y76345590D01*
X33554945Y76315361D01*
X33620625Y76271475D01*
X33676475Y76215625D01*
X33676477Y76215622D01*
X33720361Y76149945D01*
X33750590Y76076967D01*
X33766000Y75999495D01*
X33766000Y75920505D01*
X33750590Y75843033D01*
X33720361Y75770055D01*
X33676475Y75704375D01*
X33620625Y75648525D01*
X33620622Y75648523D01*
X33554945Y75604639D01*
X33481967Y75574410D01*
X33430319Y75564137D01*
X33404496Y75559000D01*
X33325504Y75559000D01*
X33299681Y75564137D01*
X33248033Y75574410D01*
X33175055Y75604639D01*
X33109378Y75648523D01*
X33109375Y75648525D01*
X33053525Y75704375D01*
X33009639Y75770055D01*
X32979410Y75843033D01*
X32964000Y75920505D01*
X32964000Y75999495D01*
X32979410Y76076967D01*
X33009639Y76149945D01*
X33053523Y76215622D01*
X33053525Y76215625D01*
X33109375Y76271475D01*
X33175055Y76315361D01*
X33248033Y76345590D01*
X33299681Y76355863D01*
X33325504Y76361000D01*
X33404496Y76361000D01*
X33430319Y76355863D01*
X33430319Y76355863D01*
G37*
G36*
X101183635Y78738981D02*
X101364903Y78702925D01*
X101592571Y78608622D01*
X101696026Y78539495D01*
X101797469Y78471713D01*
X101971713Y78297469D01*
X101971715Y78297466D01*
X102108622Y78092571D01*
X102202925Y77864903D01*
X102238981Y77683635D01*
X102251000Y77623214D01*
X102251000Y77376786D01*
X102245068Y77346965D01*
X102202925Y77135097D01*
X102108622Y76907429D01*
X102056217Y76829000D01*
X101971713Y76702531D01*
X101797469Y76528287D01*
X101797466Y76528285D01*
X101592571Y76391378D01*
X101364903Y76297075D01*
X101183636Y76261019D01*
X101123214Y76249000D01*
X100876786Y76249000D01*
X100816364Y76261019D01*
X100635097Y76297075D01*
X100407429Y76391378D01*
X100202534Y76528285D01*
X100202531Y76528287D01*
X100028287Y76702531D01*
X99943783Y76829000D01*
X99891378Y76907429D01*
X99797075Y77135097D01*
X99754932Y77346965D01*
X99749000Y77376786D01*
X99749000Y77623214D01*
X99761019Y77683635D01*
X99797075Y77864903D01*
X99891378Y78092571D01*
X100028285Y78297466D01*
X100028287Y78297469D01*
X100202531Y78471713D01*
X100303974Y78539495D01*
X100407429Y78608622D01*
X100635097Y78702925D01*
X100816365Y78738981D01*
X100876786Y78751000D01*
X101123214Y78751000D01*
X101183635Y78738981D01*
X101183635Y78738981D01*
G37*
G36*
X107251000Y76249000D02*
X104749000Y76249000D01*
X104749000Y78751000D01*
X107251000Y78751000D01*
X107251000Y76249000D01*
X107251000Y76249000D01*
G37*
G36*
X33430319Y77625863D02*
X33481967Y77615590D01*
X33554945Y77585361D01*
X33620625Y77541475D01*
X33676475Y77485625D01*
X33676477Y77485622D01*
X33720361Y77419945D01*
X33750590Y77346967D01*
X33766000Y77269495D01*
X33766000Y77190505D01*
X33750590Y77113033D01*
X33720361Y77040055D01*
X33676475Y76974375D01*
X33620625Y76918525D01*
X33620622Y76918523D01*
X33554945Y76874639D01*
X33481967Y76844410D01*
X33430319Y76834137D01*
X33404496Y76829000D01*
X33325504Y76829000D01*
X33299681Y76834137D01*
X33248033Y76844410D01*
X33175055Y76874639D01*
X33109378Y76918523D01*
X33109375Y76918525D01*
X33053525Y76974375D01*
X33009639Y77040055D01*
X32979410Y77113033D01*
X32964000Y77190505D01*
X32964000Y77269495D01*
X32979410Y77346967D01*
X33009639Y77419945D01*
X33053523Y77485622D01*
X33053525Y77485625D01*
X33109375Y77541475D01*
X33175055Y77585361D01*
X33248033Y77615590D01*
X33299681Y77625863D01*
X33325504Y77631000D01*
X33404496Y77631000D01*
X33430319Y77625863D01*
X33430319Y77625863D01*
G37*
G36*
X34700319Y77625863D02*
X34751967Y77615590D01*
X34824945Y77585361D01*
X34890625Y77541475D01*
X34946475Y77485625D01*
X34946477Y77485622D01*
X34990361Y77419945D01*
X35020590Y77346967D01*
X35036000Y77269495D01*
X35036000Y77190505D01*
X35020590Y77113033D01*
X34990361Y77040055D01*
X34946475Y76974375D01*
X34890625Y76918525D01*
X34890622Y76918523D01*
X34824945Y76874639D01*
X34751967Y76844410D01*
X34700319Y76834137D01*
X34674496Y76829000D01*
X34595504Y76829000D01*
X34569681Y76834137D01*
X34518033Y76844410D01*
X34445055Y76874639D01*
X34379378Y76918523D01*
X34379375Y76918525D01*
X34323525Y76974375D01*
X34279639Y77040055D01*
X34249410Y77113033D01*
X34234000Y77190505D01*
X34234000Y77269495D01*
X34249410Y77346967D01*
X34279639Y77419945D01*
X34323523Y77485622D01*
X34323525Y77485625D01*
X34379375Y77541475D01*
X34445055Y77585361D01*
X34518033Y77615590D01*
X34569681Y77625863D01*
X34595504Y77631000D01*
X34674496Y77631000D01*
X34700319Y77625863D01*
X34700319Y77625863D01*
G37*
G36*
X34700319Y78895863D02*
X34751967Y78885590D01*
X34824945Y78855361D01*
X34890625Y78811475D01*
X34946475Y78755625D01*
X34946477Y78755622D01*
X34990361Y78689945D01*
X35020590Y78616967D01*
X35036000Y78539495D01*
X35036000Y78460505D01*
X35020590Y78383033D01*
X34990361Y78310055D01*
X34946475Y78244375D01*
X34890625Y78188525D01*
X34890622Y78188523D01*
X34824945Y78144639D01*
X34751967Y78114410D01*
X34700319Y78104137D01*
X34674496Y78099000D01*
X34595504Y78099000D01*
X34569681Y78104137D01*
X34518033Y78114410D01*
X34445055Y78144639D01*
X34379378Y78188523D01*
X34379375Y78188525D01*
X34323525Y78244375D01*
X34279639Y78310055D01*
X34249410Y78383033D01*
X34234000Y78460505D01*
X34234000Y78539495D01*
X34249410Y78616967D01*
X34279639Y78689945D01*
X34323523Y78755622D01*
X34323525Y78755625D01*
X34379375Y78811475D01*
X34445055Y78855361D01*
X34518033Y78885590D01*
X34569681Y78895863D01*
X34595504Y78901000D01*
X34674496Y78901000D01*
X34700319Y78895863D01*
X34700319Y78895863D01*
G37*
G36*
X33430319Y78895863D02*
X33481967Y78885590D01*
X33554945Y78855361D01*
X33620625Y78811475D01*
X33676475Y78755625D01*
X33676477Y78755622D01*
X33720361Y78689945D01*
X33750590Y78616967D01*
X33766000Y78539495D01*
X33766000Y78460505D01*
X33750590Y78383033D01*
X33720361Y78310055D01*
X33676475Y78244375D01*
X33620625Y78188525D01*
X33620622Y78188523D01*
X33554945Y78144639D01*
X33481967Y78114410D01*
X33430319Y78104137D01*
X33404496Y78099000D01*
X33325504Y78099000D01*
X33299681Y78104137D01*
X33248033Y78114410D01*
X33175055Y78144639D01*
X33109378Y78188523D01*
X33109375Y78188525D01*
X33053525Y78244375D01*
X33009639Y78310055D01*
X32979410Y78383033D01*
X32964000Y78460505D01*
X32964000Y78539495D01*
X32979410Y78616967D01*
X33009639Y78689945D01*
X33053523Y78755622D01*
X33053525Y78755625D01*
X33109375Y78811475D01*
X33175055Y78855361D01*
X33248033Y78885590D01*
X33299681Y78895863D01*
X33325504Y78901000D01*
X33404496Y78901000D01*
X33430319Y78895863D01*
X33430319Y78895863D01*
G37*
G36*
X34700319Y80165863D02*
X34751967Y80155590D01*
X34824945Y80125361D01*
X34890625Y80081475D01*
X34946475Y80025625D01*
X34946477Y80025622D01*
X34990361Y79959945D01*
X35020590Y79886967D01*
X35036000Y79809495D01*
X35036000Y79730505D01*
X35020590Y79653033D01*
X34990361Y79580055D01*
X34946475Y79514375D01*
X34890625Y79458525D01*
X34890622Y79458523D01*
X34824945Y79414639D01*
X34751967Y79384410D01*
X34700319Y79374137D01*
X34674496Y79369000D01*
X34595504Y79369000D01*
X34569681Y79374137D01*
X34518033Y79384410D01*
X34445055Y79414639D01*
X34379378Y79458523D01*
X34379375Y79458525D01*
X34323525Y79514375D01*
X34279639Y79580055D01*
X34249410Y79653033D01*
X34234000Y79730505D01*
X34234000Y79809495D01*
X34249410Y79886967D01*
X34279639Y79959945D01*
X34323523Y80025622D01*
X34323525Y80025625D01*
X34379375Y80081475D01*
X34445055Y80125361D01*
X34518033Y80155590D01*
X34569681Y80165863D01*
X34595504Y80171000D01*
X34674496Y80171000D01*
X34700319Y80165863D01*
X34700319Y80165863D01*
G37*
G36*
X33430319Y80165863D02*
X33481967Y80155590D01*
X33554945Y80125361D01*
X33620625Y80081475D01*
X33676475Y80025625D01*
X33676477Y80025622D01*
X33720361Y79959945D01*
X33750590Y79886967D01*
X33766000Y79809495D01*
X33766000Y79730505D01*
X33750590Y79653033D01*
X33720361Y79580055D01*
X33676475Y79514375D01*
X33620625Y79458525D01*
X33620622Y79458523D01*
X33554945Y79414639D01*
X33481967Y79384410D01*
X33430319Y79374137D01*
X33404496Y79369000D01*
X33325504Y79369000D01*
X33299681Y79374137D01*
X33248033Y79384410D01*
X33175055Y79414639D01*
X33109378Y79458523D01*
X33109375Y79458525D01*
X33053525Y79514375D01*
X33009639Y79580055D01*
X32979410Y79653033D01*
X32964000Y79730505D01*
X32964000Y79809495D01*
X32979410Y79886967D01*
X33009639Y79959945D01*
X33053523Y80025622D01*
X33053525Y80025625D01*
X33109375Y80081475D01*
X33175055Y80125361D01*
X33248033Y80155590D01*
X33299681Y80165863D01*
X33325504Y80171000D01*
X33404496Y80171000D01*
X33430319Y80165863D01*
X33430319Y80165863D01*
G37*
G36*
X33430319Y81435863D02*
X33481967Y81425590D01*
X33554945Y81395361D01*
X33620625Y81351475D01*
X33676475Y81295625D01*
X33676477Y81295622D01*
X33720361Y81229945D01*
X33750590Y81156967D01*
X33766000Y81079495D01*
X33766000Y81000505D01*
X33750590Y80923033D01*
X33720361Y80850055D01*
X33676475Y80784375D01*
X33620625Y80728525D01*
X33620622Y80728523D01*
X33554945Y80684639D01*
X33481967Y80654410D01*
X33430319Y80644137D01*
X33404496Y80639000D01*
X33325504Y80639000D01*
X33299681Y80644137D01*
X33248033Y80654410D01*
X33175055Y80684639D01*
X33109378Y80728523D01*
X33109375Y80728525D01*
X33053525Y80784375D01*
X33009639Y80850055D01*
X32979410Y80923033D01*
X32964000Y81000505D01*
X32964000Y81079495D01*
X32979410Y81156967D01*
X33009639Y81229945D01*
X33053523Y81295622D01*
X33053525Y81295625D01*
X33109375Y81351475D01*
X33175055Y81395361D01*
X33248033Y81425590D01*
X33299681Y81435863D01*
X33325504Y81441000D01*
X33404496Y81441000D01*
X33430319Y81435863D01*
X33430319Y81435863D01*
G37*
G36*
X34700319Y81435863D02*
X34751967Y81425590D01*
X34824945Y81395361D01*
X34890625Y81351475D01*
X34946475Y81295625D01*
X34946477Y81295622D01*
X34990361Y81229945D01*
X35020590Y81156967D01*
X35036000Y81079495D01*
X35036000Y81000505D01*
X35020590Y80923033D01*
X34990361Y80850055D01*
X34946475Y80784375D01*
X34890625Y80728525D01*
X34890622Y80728523D01*
X34824945Y80684639D01*
X34751967Y80654410D01*
X34700319Y80644137D01*
X34674496Y80639000D01*
X34595504Y80639000D01*
X34569681Y80644137D01*
X34518033Y80654410D01*
X34445055Y80684639D01*
X34379378Y80728523D01*
X34379375Y80728525D01*
X34323525Y80784375D01*
X34279639Y80850055D01*
X34249410Y80923033D01*
X34234000Y81000505D01*
X34234000Y81079495D01*
X34249410Y81156967D01*
X34279639Y81229945D01*
X34323523Y81295622D01*
X34323525Y81295625D01*
X34379375Y81351475D01*
X34445055Y81395361D01*
X34518033Y81425590D01*
X34569681Y81435863D01*
X34595504Y81441000D01*
X34674496Y81441000D01*
X34700319Y81435863D01*
X34700319Y81435863D01*
G37*
G36*
X5375256Y89108702D02*
X5481579Y89087553D01*
X5782042Y88963097D01*
X6048852Y88784820D01*
X6052454Y88782413D01*
X6282413Y88552454D01*
X6463098Y88282040D01*
X6587553Y87981578D01*
X6651000Y87662611D01*
X6651000Y87337389D01*
X6587553Y87018422D01*
X6463098Y86717960D01*
X6282413Y86447546D01*
X6052454Y86217587D01*
X6052451Y86217585D01*
X5782042Y86036903D01*
X5481579Y85912447D01*
X5375256Y85891298D01*
X5162611Y85849000D01*
X4837389Y85849000D01*
X4624744Y85891298D01*
X4518421Y85912447D01*
X4217958Y86036903D01*
X3947549Y86217585D01*
X3947546Y86217587D01*
X3717587Y86447546D01*
X3536902Y86717960D01*
X3412447Y87018422D01*
X3349000Y87337389D01*
X3349000Y87662611D01*
X3412447Y87981578D01*
X3536902Y88282040D01*
X3717587Y88552454D01*
X3947546Y88782413D01*
X3951148Y88784820D01*
X4217958Y88963097D01*
X4518421Y89087553D01*
X4624744Y89108702D01*
X4837389Y89151000D01*
X5162611Y89151000D01*
X5375256Y89108702D01*
X5375256Y89108702D01*
G37*
G36*
X115375256Y89108702D02*
X115481579Y89087553D01*
X115782042Y88963097D01*
X116048852Y88784820D01*
X116052454Y88782413D01*
X116282413Y88552454D01*
X116463098Y88282040D01*
X116587553Y87981578D01*
X116651000Y87662611D01*
X116651000Y87337389D01*
X116587553Y87018422D01*
X116463098Y86717960D01*
X116282413Y86447546D01*
X116052454Y86217587D01*
X116052451Y86217585D01*
X115782042Y86036903D01*
X115481579Y85912447D01*
X115375256Y85891298D01*
X115162611Y85849000D01*
X114837389Y85849000D01*
X114624744Y85891298D01*
X114518421Y85912447D01*
X114217958Y86036903D01*
X113947549Y86217585D01*
X113947546Y86217587D01*
X113717587Y86447546D01*
X113536902Y86717960D01*
X113412447Y87018422D01*
X113349000Y87337389D01*
X113349000Y87662611D01*
X113412447Y87981578D01*
X113536902Y88282040D01*
X113717587Y88552454D01*
X113947546Y88782413D01*
X113951148Y88784820D01*
X114217958Y88963097D01*
X114518421Y89087553D01*
X114624744Y89108702D01*
X114837389Y89151000D01*
X115162611Y89151000D01*
X115375256Y89108702D01*
X115375256Y89108702D01*
G37*
M02*
