M48
;DRILL file {KiCad 5.0.2+dfsg1-1~bpo9+1} date Wed 15 May 2019 07:58:46 AM EDT
;FORMAT={-:-/ absolute / metric / decimal}
FMAT,2
METRIC,TZ
T1C0.500
T2C1.200
T3C1.300
T4C1.600
T5C3.200
%
G90
G05
T1
X6.5Y66.
X8.Y56.5
X10.Y60.9
X11.4Y52.15
X12.Y61.5
X12.Y49.2
X12.5Y58.
X12.7Y25.4
X13.5Y23.5
X14.2Y46.3
X14.4Y25.5
X16.2Y14.3
X16.5Y25.7
X17.Y78.5
X18.Y45.5
X19.5Y42.9
X19.5Y38.3
X20.2Y9.6
X20.8Y38.6
X20.9Y16.7
X21.7Y42.9
X21.9Y38.6
X23.Y26.8
X23.6Y69.1
X25.Y45.6
X25.9Y38.7
X26.4Y67.7
X26.9Y37.4
X27.4Y45.7
X29.Y35.
X29.6Y70.1
X29.731Y74.994
X30.Y78.5
X30.Y34.7
X30.3Y9.3
X30.75Y81.
X30.8Y12.7
X32.2Y12.6
X32.5Y57.5
X33.Y70.9
X33.1Y23.7
X33.1Y17.8
X33.3Y59.2
X33.6Y60.4
X33.7Y12.6
X37.575Y53.5
X38.3Y47.7
X39.35Y59.65
X39.9Y62.1
X40.1Y14.6
X41.4Y38.7
X41.8Y14.9
X42.6Y43.5
X43.Y44.7
X43.Y41.5
X43.5Y14.8
X44.45Y61.05
X44.6Y62.45
X45.Y59.5
X45.013Y85.487
X45.2Y14.9
X46.Y34.5
X46.6Y87.05
X47.Y42.9
X48.Y77.5
X48.Y63.5
X48.Y51.5
X48.Y25.5
X48.55Y38.3
X48.6Y42.9
X49.Y77.5
X49.Y51.5
X49.Y25.5
X49.55Y41.5
X50.Y84.4
X52.7Y88.85
X54.Y15.35
X54.2Y9.3
X57.4Y12.4
X59.1Y12.4
X60.7Y12.5
X65.Y64.5
X65.Y38.5
X68.4Y8.7
X90.Y11.5
X90.Y10.5
X90.Y9.5
X95.Y11.5
X95.Y10.5
X95.Y9.5
X96.Y57.5
X97.Y83.5
X97.Y57.5
X97.Y31.5
X97.Y30.5
X97.Y29.5
X97.Y23.5
X97.Y22.5
X97.Y21.5
X98.Y83.5
X98.Y57.5
X99.Y83.5
X100.Y11.5
X100.Y10.5
X100.Y9.5
X33.365Y81.04
X33.365Y79.77
X33.365Y78.5
X33.365Y77.23
X33.365Y75.96
X34.635Y81.04
X34.635Y79.77
X34.635Y78.5
X34.635Y77.23
X34.635Y75.96
T2
X101.Y37.5
X106.Y37.5
X101.Y61.5
X106.Y61.5
X101.Y77.5
X106.Y77.5
T3
X46.19Y3.5
X48.73Y3.5
X51.27Y3.5
X53.81Y3.5
X28.92Y3.5
X31.46Y3.5
X34.Y3.5
X36.54Y3.5
X39.08Y3.5
X60.92Y3.5
X63.46Y3.5
X66.Y3.5
X68.54Y3.5
X71.08Y3.5
X12.42Y3.5
X14.96Y3.5
X17.5Y3.5
X20.04Y3.5
X22.58Y3.5
T4
X90.Y4.5
X95.Y4.5
X100.Y4.5
T5
X5.Y87.5
X5.Y17.5
X115.Y17.5
X115.Y87.5
T0
M30
